%TF.GenerationSoftware,KiCad,Pcbnew,(6.0.11)*%
%TF.CreationDate,2024-01-03T20:32:57+00:00*%
%TF.ProjectId,LeWiFiModemCase,4c655769-4669-44d6-9f64-656d43617365,rev?*%
%TF.SameCoordinates,Original*%
%TF.FileFunction,Legend,Top*%
%TF.FilePolarity,Positive*%
%FSLAX46Y46*%
G04 Gerber Fmt 4.6, Leading zero omitted, Abs format (unit mm)*
G04 Created by KiCad (PCBNEW (6.0.11)) date 2024-01-03 20:32:57*
%MOMM*%
%LPD*%
G01*
G04 APERTURE LIST*
%ADD10C,0.000000*%
%ADD11C,0.300000*%
G04 APERTURE END LIST*
D10*
G36*
X146934383Y-83637130D02*
G01*
X146659603Y-83610961D01*
X146659603Y-83493198D01*
X146672687Y-83349266D01*
X146677006Y-83305155D01*
X146680252Y-83261351D01*
X146682577Y-83218161D01*
X146684136Y-83175890D01*
X146685082Y-83134846D01*
X146685567Y-83095336D01*
X146685772Y-83022144D01*
X146679782Y-82886057D01*
X146661161Y-82762083D01*
X146628931Y-82649764D01*
X146607408Y-82597830D01*
X146582116Y-82548638D01*
X146552933Y-82502129D01*
X146519736Y-82458246D01*
X146482405Y-82416931D01*
X146440816Y-82378127D01*
X146394847Y-82341776D01*
X146344376Y-82307822D01*
X146229440Y-82246870D01*
X146095030Y-82194813D01*
X145940169Y-82151188D01*
X145763879Y-82115538D01*
X145565182Y-82087400D01*
X145343101Y-82066317D01*
X145096659Y-82051826D01*
X144824877Y-82043470D01*
X144526779Y-82040786D01*
X144068813Y-82040786D01*
X143953877Y-82039434D01*
X143849157Y-82040402D01*
X143754135Y-82043861D01*
X143710100Y-82046579D01*
X143668295Y-82049985D01*
X143628656Y-82054100D01*
X143591118Y-82058945D01*
X143555617Y-82064543D01*
X143522087Y-82070915D01*
X143490465Y-82078082D01*
X143460685Y-82086066D01*
X143432683Y-82094889D01*
X143406394Y-82104572D01*
X143381753Y-82115137D01*
X143358696Y-82126605D01*
X143337158Y-82138998D01*
X143317075Y-82152337D01*
X143298381Y-82166644D01*
X143281012Y-82181940D01*
X143264903Y-82198248D01*
X143249990Y-82215588D01*
X143236207Y-82233983D01*
X143223491Y-82253453D01*
X143211777Y-82274021D01*
X143200999Y-82295707D01*
X143191093Y-82318534D01*
X143181995Y-82342523D01*
X143173639Y-82367695D01*
X143165962Y-82394073D01*
X142315448Y-85482086D01*
X142707730Y-85476898D01*
X143053052Y-85470023D01*
X143355363Y-85459775D01*
X143618612Y-85444467D01*
X143736821Y-85434389D01*
X143846746Y-85422412D01*
X143948879Y-85408328D01*
X144043714Y-85391924D01*
X144131745Y-85372990D01*
X144213465Y-85351315D01*
X144289368Y-85326688D01*
X144359947Y-85298899D01*
X144425696Y-85267736D01*
X144487108Y-85232989D01*
X144544678Y-85194447D01*
X144598898Y-85151899D01*
X144650262Y-85105135D01*
X144699263Y-85053942D01*
X144746396Y-84998111D01*
X144792154Y-84937431D01*
X144837030Y-84871690D01*
X144881518Y-84800679D01*
X144971304Y-84642000D01*
X145065459Y-84459707D01*
X145167934Y-84252113D01*
X145416545Y-84317539D01*
X144435184Y-87418636D01*
X144212745Y-87353214D01*
X144239221Y-87208386D01*
X144260176Y-87085178D01*
X144276225Y-86979452D01*
X144287981Y-86887066D01*
X144296056Y-86803880D01*
X144301065Y-86725755D01*
X144303621Y-86648551D01*
X144304336Y-86568126D01*
X144304030Y-86543823D01*
X144303113Y-86519981D01*
X144301587Y-86496605D01*
X144299455Y-86473696D01*
X144296719Y-86451256D01*
X144293382Y-86429288D01*
X144289446Y-86407795D01*
X144284913Y-86386779D01*
X144279786Y-86366241D01*
X144274068Y-86346186D01*
X144267760Y-86326614D01*
X144260865Y-86307529D01*
X144253385Y-86288932D01*
X144245323Y-86270827D01*
X144236681Y-86253215D01*
X144227462Y-86236099D01*
X144217668Y-86219481D01*
X144207302Y-86203364D01*
X144196364Y-86187751D01*
X144184860Y-86172642D01*
X144172790Y-86158042D01*
X144160156Y-86143952D01*
X144146962Y-86130375D01*
X144133210Y-86117313D01*
X144118902Y-86104769D01*
X144104041Y-86092744D01*
X144088628Y-86081242D01*
X144072667Y-86070265D01*
X144056159Y-86059814D01*
X144039108Y-86049894D01*
X144021515Y-86040505D01*
X144003383Y-86031650D01*
X143959580Y-86009492D01*
X143936969Y-86000110D01*
X143913017Y-85991781D01*
X143887071Y-85984450D01*
X143858480Y-85978057D01*
X143826592Y-85972547D01*
X143790756Y-85967860D01*
X143704632Y-85960730D01*
X143594894Y-85956206D01*
X143456328Y-85953830D01*
X143283721Y-85953140D01*
X143069865Y-85952526D01*
X142829022Y-85948233D01*
X142693114Y-85943555D01*
X142544019Y-85936578D01*
X142379590Y-85926841D01*
X142197681Y-85913883D01*
X141412593Y-88884132D01*
X141381236Y-88990447D01*
X141355551Y-89084494D01*
X141344693Y-89127301D01*
X141335081Y-89167501D01*
X141326657Y-89205248D01*
X141319364Y-89240694D01*
X141313144Y-89273994D01*
X141307940Y-89305301D01*
X141303695Y-89334767D01*
X141300350Y-89362547D01*
X141297849Y-89388793D01*
X141296133Y-89413659D01*
X141295146Y-89437299D01*
X141294830Y-89459865D01*
X141297667Y-89532895D01*
X141306484Y-89600041D01*
X141321741Y-89661551D01*
X141331928Y-89690271D01*
X141343898Y-89717676D01*
X141357708Y-89743796D01*
X141373415Y-89768664D01*
X141391078Y-89792309D01*
X141410753Y-89814764D01*
X141432498Y-89836059D01*
X141456371Y-89856226D01*
X141482429Y-89875295D01*
X141510729Y-89893298D01*
X141574288Y-89926230D01*
X141647506Y-89955272D01*
X141730845Y-89980671D01*
X141824765Y-90002678D01*
X141929724Y-90021542D01*
X142046184Y-90037511D01*
X142174604Y-90050835D01*
X142315444Y-90061763D01*
X142315444Y-90271121D01*
X138965736Y-90271121D01*
X138965736Y-90061763D01*
X139100263Y-90042261D01*
X139220071Y-90022279D01*
X139326384Y-90000725D01*
X139420431Y-89976507D01*
X139463238Y-89963058D01*
X139503437Y-89948533D01*
X139541184Y-89932796D01*
X139576630Y-89915709D01*
X139609930Y-89897137D01*
X139641237Y-89876944D01*
X139670703Y-89854991D01*
X139698483Y-89831144D01*
X139724729Y-89805264D01*
X139749595Y-89777217D01*
X139773235Y-89746864D01*
X139795801Y-89714071D01*
X139817447Y-89678699D01*
X139838327Y-89640612D01*
X139878399Y-89555749D01*
X139917245Y-89458390D01*
X139956090Y-89347440D01*
X139996163Y-89221808D01*
X140038688Y-89080402D01*
X141621948Y-83218414D01*
X141650111Y-83097047D01*
X141675514Y-82978593D01*
X141697851Y-82863513D01*
X141716813Y-82752267D01*
X141732096Y-82645314D01*
X141743391Y-82543115D01*
X141750394Y-82446129D01*
X141752189Y-82399734D01*
X141752796Y-82354816D01*
X141752567Y-82340098D01*
X141751889Y-82325398D01*
X141749218Y-82296113D01*
X141744861Y-82267098D01*
X141738893Y-82238485D01*
X141731393Y-82210408D01*
X141722436Y-82183002D01*
X141712098Y-82156402D01*
X141700458Y-82130740D01*
X141687590Y-82106152D01*
X141673573Y-82082771D01*
X141658482Y-82060733D01*
X141642394Y-82040170D01*
X141625387Y-82021217D01*
X141616562Y-82012386D01*
X141607536Y-82004008D01*
X141598318Y-81996100D01*
X141588918Y-81988678D01*
X141579346Y-81981759D01*
X141569610Y-81975360D01*
X141513770Y-81944463D01*
X141486722Y-81931342D01*
X141459003Y-81919545D01*
X141429674Y-81908897D01*
X141397796Y-81899227D01*
X141362429Y-81890363D01*
X141322634Y-81882130D01*
X141226006Y-81866873D01*
X141100396Y-81852075D01*
X140938293Y-81836358D01*
X140732181Y-81818340D01*
X140732181Y-81608982D01*
X147340004Y-81608982D01*
X146934383Y-83637130D01*
G37*
G36*
X116188769Y-87305530D02*
G01*
X116269537Y-87121570D01*
X116359294Y-86939967D01*
X116457622Y-86761160D01*
X116564100Y-86585587D01*
X116678309Y-86413688D01*
X116799831Y-86245899D01*
X116928246Y-86082661D01*
X117063135Y-85924411D01*
X117204078Y-85771587D01*
X117350657Y-85624629D01*
X117502451Y-85483974D01*
X117659042Y-85350061D01*
X117820010Y-85223329D01*
X117984936Y-85104216D01*
X118153401Y-84993160D01*
X118324985Y-84890600D01*
X118499269Y-84796975D01*
X118675835Y-84712722D01*
X118854262Y-84638280D01*
X119034131Y-84574088D01*
X119215023Y-84520584D01*
X119396519Y-84478206D01*
X119578200Y-84447394D01*
X119759645Y-84428585D01*
X119940437Y-84422218D01*
X120001001Y-84423210D01*
X120060008Y-84426173D01*
X120117434Y-84431080D01*
X120173254Y-84437909D01*
X120227445Y-84446636D01*
X120279983Y-84457236D01*
X120330844Y-84469686D01*
X120380004Y-84483962D01*
X120427439Y-84500039D01*
X120473125Y-84517894D01*
X120517037Y-84537503D01*
X120559153Y-84558842D01*
X120599448Y-84581886D01*
X120637899Y-84606613D01*
X120674480Y-84632997D01*
X120709168Y-84661016D01*
X120741940Y-84690644D01*
X120772772Y-84721859D01*
X120801638Y-84754636D01*
X120828516Y-84788951D01*
X120853382Y-84824780D01*
X120876210Y-84862099D01*
X120896979Y-84900885D01*
X120915663Y-84941113D01*
X120932238Y-84982759D01*
X120946682Y-85025800D01*
X120958969Y-85070211D01*
X120969075Y-85115968D01*
X120976978Y-85163048D01*
X120982652Y-85211427D01*
X120986074Y-85261081D01*
X120987220Y-85311984D01*
X120983105Y-85418343D01*
X120970861Y-85523896D01*
X120950639Y-85628530D01*
X120922589Y-85732128D01*
X120886862Y-85834577D01*
X120843610Y-85935760D01*
X120792984Y-86035564D01*
X120735133Y-86133872D01*
X120598366Y-86325544D01*
X120434515Y-86509856D01*
X120244789Y-86685887D01*
X120030394Y-86852719D01*
X119792539Y-87009430D01*
X119532431Y-87155101D01*
X119251277Y-87288811D01*
X118950285Y-87409641D01*
X118630663Y-87516671D01*
X118293617Y-87608980D01*
X117940356Y-87685649D01*
X117572088Y-87745757D01*
X117205713Y-87798095D01*
X117165718Y-87963930D01*
X117133543Y-88101704D01*
X117108421Y-88216477D01*
X117098266Y-88266820D01*
X117089586Y-88313310D01*
X117082286Y-88356579D01*
X117076271Y-88397262D01*
X117071444Y-88435989D01*
X117067710Y-88473393D01*
X117064972Y-88510108D01*
X117063135Y-88546765D01*
X117062103Y-88583997D01*
X117061780Y-88622436D01*
X117063192Y-88689169D01*
X117067400Y-88754405D01*
X117074363Y-88818103D01*
X117084040Y-88880222D01*
X117096391Y-88940722D01*
X117111376Y-88999560D01*
X117128952Y-89056698D01*
X117149081Y-89112094D01*
X117171720Y-89165708D01*
X117196830Y-89217498D01*
X117224368Y-89267424D01*
X117254296Y-89315445D01*
X117286572Y-89361521D01*
X117321154Y-89405611D01*
X117358004Y-89447673D01*
X117397079Y-89487668D01*
X117438339Y-89525555D01*
X117481744Y-89561293D01*
X117527252Y-89594840D01*
X117574823Y-89626157D01*
X117624416Y-89655203D01*
X117675991Y-89681937D01*
X117729506Y-89706318D01*
X117784921Y-89728305D01*
X117842196Y-89747859D01*
X117901289Y-89764937D01*
X117962159Y-89779500D01*
X118024767Y-89791506D01*
X118089071Y-89800915D01*
X118155030Y-89807686D01*
X118222605Y-89811779D01*
X118291753Y-89813152D01*
X118398032Y-89810609D01*
X118501647Y-89802623D01*
X118603613Y-89788656D01*
X118704947Y-89768173D01*
X118806664Y-89740636D01*
X118909780Y-89705510D01*
X119015311Y-89662256D01*
X119124273Y-89610339D01*
X119237682Y-89549221D01*
X119356554Y-89478367D01*
X119481904Y-89397239D01*
X119614749Y-89305300D01*
X119756103Y-89202015D01*
X119906984Y-89086846D01*
X120068407Y-88959256D01*
X120241388Y-88818710D01*
X120411489Y-88988811D01*
X120259299Y-89151457D01*
X120102335Y-89305555D01*
X119941040Y-89450836D01*
X119775854Y-89587032D01*
X119607218Y-89713874D01*
X119435573Y-89831094D01*
X119261359Y-89938424D01*
X119085018Y-90035595D01*
X118906990Y-90122339D01*
X118727716Y-90198388D01*
X118547637Y-90263473D01*
X118367194Y-90317327D01*
X118186827Y-90359680D01*
X118006978Y-90390264D01*
X117828088Y-90408812D01*
X117650596Y-90415054D01*
X117554657Y-90412919D01*
X117460704Y-90406566D01*
X117368806Y-90396067D01*
X117279034Y-90381498D01*
X117191456Y-90362933D01*
X117106143Y-90340445D01*
X117023163Y-90314110D01*
X116942586Y-90284001D01*
X116864482Y-90250193D01*
X116788919Y-90212760D01*
X116715969Y-90171776D01*
X116645699Y-90127316D01*
X116578180Y-90079453D01*
X116513481Y-90028263D01*
X116451671Y-89973819D01*
X116392820Y-89916195D01*
X116336997Y-89855467D01*
X116284273Y-89791708D01*
X116234716Y-89724992D01*
X116188395Y-89655394D01*
X116145382Y-89582988D01*
X116105743Y-89507848D01*
X116069551Y-89430049D01*
X116036872Y-89349664D01*
X116007779Y-89266769D01*
X115982339Y-89181437D01*
X115960622Y-89093743D01*
X115942698Y-89003760D01*
X115928636Y-88911564D01*
X115918505Y-88817229D01*
X115912376Y-88720828D01*
X115910318Y-88622436D01*
X115916420Y-88434249D01*
X115934446Y-88245351D01*
X115963978Y-88056179D01*
X116004595Y-87867173D01*
X116055879Y-87678770D01*
X116111230Y-87510227D01*
X117297309Y-87510227D01*
X117505702Y-87456943D01*
X117699718Y-87404732D01*
X117880318Y-87353134D01*
X118048459Y-87301690D01*
X118205100Y-87249938D01*
X118351198Y-87197420D01*
X118487713Y-87143675D01*
X118615603Y-87088244D01*
X118735826Y-87030666D01*
X118849341Y-86970480D01*
X118957105Y-86907229D01*
X119060077Y-86840450D01*
X119159216Y-86769685D01*
X119255480Y-86694473D01*
X119349827Y-86614354D01*
X119443216Y-86528869D01*
X119519712Y-86454229D01*
X119592106Y-86377653D01*
X119660284Y-86299352D01*
X119724130Y-86219536D01*
X119783529Y-86138417D01*
X119838366Y-86056206D01*
X119888526Y-85973113D01*
X119933895Y-85889349D01*
X119974357Y-85805126D01*
X120009797Y-85720653D01*
X120040101Y-85636141D01*
X120065152Y-85551803D01*
X120084837Y-85467847D01*
X120099040Y-85384486D01*
X120107646Y-85301930D01*
X120110540Y-85220390D01*
X120110006Y-85192485D01*
X120108416Y-85165210D01*
X120105785Y-85138582D01*
X120102132Y-85112618D01*
X120097472Y-85087335D01*
X120091823Y-85062748D01*
X120085201Y-85038876D01*
X120077623Y-85015734D01*
X120069106Y-84993340D01*
X120059667Y-84971710D01*
X120049322Y-84950862D01*
X120038088Y-84930811D01*
X120025982Y-84911574D01*
X120013020Y-84893169D01*
X119999220Y-84875613D01*
X119984599Y-84858921D01*
X119969172Y-84843111D01*
X119952957Y-84828199D01*
X119935970Y-84814203D01*
X119918229Y-84801139D01*
X119899750Y-84789023D01*
X119880550Y-84777873D01*
X119860645Y-84767705D01*
X119840053Y-84758536D01*
X119818789Y-84750384D01*
X119796872Y-84743263D01*
X119774318Y-84737193D01*
X119751142Y-84732188D01*
X119727364Y-84728266D01*
X119702998Y-84725445D01*
X119678062Y-84723739D01*
X119652572Y-84723167D01*
X119589079Y-84726131D01*
X119523826Y-84734916D01*
X119456974Y-84749366D01*
X119388679Y-84769322D01*
X119319099Y-84794625D01*
X119248394Y-84825117D01*
X119104238Y-84901038D01*
X118957474Y-84995820D01*
X118809370Y-85108197D01*
X118661188Y-85236905D01*
X118514195Y-85380678D01*
X118369655Y-85538252D01*
X118228834Y-85708360D01*
X118092996Y-85889739D01*
X117963406Y-86081124D01*
X117841330Y-86281248D01*
X117728033Y-86488848D01*
X117624780Y-86702658D01*
X117532835Y-86921413D01*
X117297309Y-87510227D01*
X116111230Y-87510227D01*
X116117410Y-87491410D01*
X116188769Y-87305530D01*
G37*
G36*
X128589496Y-81818340D02*
G01*
X128447234Y-81838066D01*
X128319290Y-81858386D01*
X128204955Y-81879894D01*
X128103519Y-81903185D01*
X128057417Y-81915685D01*
X128014274Y-81928853D01*
X127974001Y-81942764D01*
X127936509Y-81957492D01*
X127901711Y-81973112D01*
X127869517Y-81989697D01*
X127839839Y-82007321D01*
X127812587Y-82026060D01*
X127787674Y-82045987D01*
X127765011Y-82067177D01*
X127744509Y-82089704D01*
X127726080Y-82113641D01*
X127709634Y-82139065D01*
X127695083Y-82166048D01*
X127682339Y-82194665D01*
X127671313Y-82224990D01*
X127661916Y-82257098D01*
X127654059Y-82291062D01*
X127647655Y-82326958D01*
X127642613Y-82364859D01*
X127638846Y-82404839D01*
X127636266Y-82446974D01*
X127634307Y-82538001D01*
X127634512Y-82576029D01*
X127634997Y-82600103D01*
X127635943Y-82626324D01*
X127637502Y-82653771D01*
X127639827Y-82681526D01*
X127643073Y-82708667D01*
X127645089Y-82721720D01*
X127647392Y-82734275D01*
X128275463Y-88125213D01*
X130526050Y-83506275D01*
X130395202Y-82590339D01*
X130377274Y-82476297D01*
X130357276Y-82374159D01*
X130334365Y-82283252D01*
X130307697Y-82202906D01*
X130292691Y-82166484D01*
X130276429Y-82132451D01*
X130258806Y-82100722D01*
X130239717Y-82071215D01*
X130219057Y-82043844D01*
X130196719Y-82018527D01*
X130172599Y-81995180D01*
X130146590Y-81973718D01*
X130118589Y-81954057D01*
X130088488Y-81936115D01*
X130056183Y-81919806D01*
X130021569Y-81905048D01*
X129984540Y-81891756D01*
X129944990Y-81879846D01*
X129857907Y-81859839D01*
X129759477Y-81844355D01*
X129648857Y-81832724D01*
X129525203Y-81824274D01*
X129387672Y-81818336D01*
X129387672Y-81608981D01*
X132541107Y-81608981D01*
X132554191Y-81818336D01*
X132428046Y-81833619D01*
X132314167Y-81850435D01*
X132211942Y-81869398D01*
X132120758Y-81891121D01*
X132079114Y-81903209D01*
X132040000Y-81916217D01*
X132003340Y-81930222D01*
X131969056Y-81945301D01*
X131937072Y-81961529D01*
X131907312Y-81978984D01*
X131879698Y-81997742D01*
X131854155Y-82017880D01*
X131830604Y-82039475D01*
X131808971Y-82062604D01*
X131789178Y-82087342D01*
X131771148Y-82113767D01*
X131754804Y-82141956D01*
X131740071Y-82171984D01*
X131726871Y-82203930D01*
X131715128Y-82237868D01*
X131704765Y-82273877D01*
X131695705Y-82312032D01*
X131687872Y-82352411D01*
X131681189Y-82395090D01*
X131670967Y-82487654D01*
X131664424Y-82590339D01*
X131664424Y-82786613D01*
X132253242Y-88125213D01*
X134687011Y-83244583D01*
X134720286Y-83174501D01*
X134751414Y-83106528D01*
X134780395Y-83040625D01*
X134807229Y-82976753D01*
X134831916Y-82914875D01*
X134854457Y-82854952D01*
X134874850Y-82796946D01*
X134893097Y-82740818D01*
X134909198Y-82686530D01*
X134923151Y-82634044D01*
X134934958Y-82583321D01*
X134944618Y-82534323D01*
X134952132Y-82487012D01*
X134957498Y-82441350D01*
X134960718Y-82397297D01*
X134961792Y-82354816D01*
X134959996Y-82287121D01*
X134954176Y-82226039D01*
X134943679Y-82171129D01*
X134936473Y-82145850D01*
X134927853Y-82121949D01*
X134917738Y-82099371D01*
X134906047Y-82078060D01*
X134892698Y-82057961D01*
X134877610Y-82039019D01*
X134860700Y-82021180D01*
X134841888Y-82004388D01*
X134821093Y-81988587D01*
X134798232Y-81973723D01*
X134773225Y-81959741D01*
X134745989Y-81946586D01*
X134684507Y-81922534D01*
X134613135Y-81901127D01*
X134531221Y-81881925D01*
X134438114Y-81864486D01*
X134333161Y-81848369D01*
X134215711Y-81833134D01*
X134085113Y-81818340D01*
X134085113Y-81608982D01*
X136545051Y-81608982D01*
X136545051Y-81818336D01*
X136453815Y-81847464D01*
X136370860Y-81876554D01*
X136295265Y-81906487D01*
X136226110Y-81938145D01*
X136162475Y-81972410D01*
X136103440Y-82010163D01*
X136048086Y-82052287D01*
X135995491Y-82099662D01*
X135944737Y-82153170D01*
X135894902Y-82213694D01*
X135845068Y-82282114D01*
X135794313Y-82359313D01*
X135741718Y-82446173D01*
X135686364Y-82543574D01*
X135627329Y-82652398D01*
X135563694Y-82773529D01*
X131612083Y-90506645D01*
X131350387Y-90506645D01*
X130617641Y-84487636D01*
X130552215Y-84487636D01*
X127673561Y-90506645D01*
X127411865Y-90506645D01*
X126535179Y-83650207D01*
X126504464Y-83433030D01*
X126475915Y-83237014D01*
X126449245Y-83060931D01*
X126424165Y-82903556D01*
X126400388Y-82763661D01*
X126377627Y-82640020D01*
X126355595Y-82531406D01*
X126334003Y-82436592D01*
X126312564Y-82354352D01*
X126301813Y-82317564D01*
X126290992Y-82283459D01*
X126280065Y-82251884D01*
X126268997Y-82222686D01*
X126257752Y-82195712D01*
X126246293Y-82170807D01*
X126234585Y-82147819D01*
X126222592Y-82126595D01*
X126210278Y-82106981D01*
X126197607Y-82088823D01*
X126184544Y-82071969D01*
X126171051Y-82056265D01*
X126157093Y-82041558D01*
X126142635Y-82027694D01*
X126120331Y-82006511D01*
X126097298Y-81987034D01*
X126073115Y-81969129D01*
X126047361Y-81952661D01*
X126019613Y-81937497D01*
X125989451Y-81923501D01*
X125956451Y-81910541D01*
X125920194Y-81898482D01*
X125880256Y-81887189D01*
X125836216Y-81876529D01*
X125787654Y-81866367D01*
X125734146Y-81856569D01*
X125610608Y-81837529D01*
X125462230Y-81818336D01*
X125462230Y-81608981D01*
X128589496Y-81608981D01*
X128589496Y-81818340D01*
G37*
G36*
X113450380Y-81818340D02*
G01*
X113306013Y-81832811D01*
X113171919Y-81851921D01*
X113047639Y-81876015D01*
X112989035Y-81890038D01*
X112932713Y-81905437D01*
X112878613Y-81922253D01*
X112826680Y-81940532D01*
X112776855Y-81960315D01*
X112729080Y-81981646D01*
X112683300Y-82004567D01*
X112639455Y-82029123D01*
X112597488Y-82055356D01*
X112557342Y-82083309D01*
X112518960Y-82113025D01*
X112482284Y-82144548D01*
X112447255Y-82177920D01*
X112413818Y-82213186D01*
X112381914Y-82250387D01*
X112351486Y-82289567D01*
X112322477Y-82330769D01*
X112294828Y-82374037D01*
X112268483Y-82419413D01*
X112243383Y-82466940D01*
X112219472Y-82516662D01*
X112196692Y-82568622D01*
X112154294Y-82679427D01*
X112115730Y-82799701D01*
X110545555Y-88687862D01*
X110517392Y-88786816D01*
X110491989Y-88885769D01*
X110469653Y-88982269D01*
X110450690Y-89073863D01*
X110435407Y-89158096D01*
X110424111Y-89232516D01*
X110417109Y-89294669D01*
X110415314Y-89320379D01*
X110414707Y-89342101D01*
X110418729Y-89401152D01*
X110430935Y-89455698D01*
X110440173Y-89481312D01*
X110451537Y-89505836D01*
X110465051Y-89529282D01*
X110480744Y-89551662D01*
X110498641Y-89572987D01*
X110518769Y-89593270D01*
X110565821Y-89630758D01*
X110622112Y-89664220D01*
X110687852Y-89693754D01*
X110763253Y-89719454D01*
X110848525Y-89741416D01*
X110943878Y-89759736D01*
X111049524Y-89774511D01*
X111165674Y-89785836D01*
X111292539Y-89793806D01*
X111430328Y-89798518D01*
X111579254Y-89800067D01*
X111777749Y-89798058D01*
X111966278Y-89791966D01*
X112145299Y-89781696D01*
X112315274Y-89767152D01*
X112476662Y-89748237D01*
X112629923Y-89724857D01*
X112775517Y-89696915D01*
X112913904Y-89664315D01*
X113045545Y-89626961D01*
X113170898Y-89584759D01*
X113290425Y-89537611D01*
X113404584Y-89485422D01*
X113513837Y-89428096D01*
X113618643Y-89365537D01*
X113719463Y-89297650D01*
X113816755Y-89224338D01*
X113888006Y-89163620D01*
X113954963Y-89103534D01*
X114018240Y-89043180D01*
X114078451Y-88981657D01*
X114136208Y-88918064D01*
X114192125Y-88851499D01*
X114246815Y-88781063D01*
X114300892Y-88705854D01*
X114354969Y-88624972D01*
X114409660Y-88537515D01*
X114465577Y-88442583D01*
X114523334Y-88339275D01*
X114646822Y-88103927D01*
X114785030Y-87824264D01*
X115059810Y-87902774D01*
X114300893Y-90271121D01*
X108072528Y-90271121D01*
X108072528Y-90061763D01*
X108204897Y-90037517D01*
X108323081Y-90013155D01*
X108428233Y-89987644D01*
X108521500Y-89959948D01*
X108564037Y-89944957D01*
X108604034Y-89929031D01*
X108641635Y-89912042D01*
X108676984Y-89893860D01*
X108710225Y-89874355D01*
X108741501Y-89853398D01*
X108770956Y-89830860D01*
X108798734Y-89806611D01*
X108824979Y-89780522D01*
X108849834Y-89752464D01*
X108873443Y-89722307D01*
X108895950Y-89689922D01*
X108917499Y-89655179D01*
X108938233Y-89617949D01*
X108977832Y-89535511D01*
X109015898Y-89441573D01*
X109053581Y-89335099D01*
X109092030Y-89215055D01*
X109132396Y-89080406D01*
X110715656Y-83218414D01*
X110751895Y-83078902D01*
X110782308Y-82953651D01*
X110807200Y-82840973D01*
X110826878Y-82739183D01*
X110834858Y-82691843D01*
X110841650Y-82646593D01*
X110847291Y-82603221D01*
X110851821Y-82561516D01*
X110855278Y-82521268D01*
X110857699Y-82482267D01*
X110859124Y-82444300D01*
X110859590Y-82407157D01*
X110857181Y-82334562D01*
X110849521Y-82268617D01*
X110835957Y-82208921D01*
X110826758Y-82181290D01*
X110815838Y-82155071D01*
X110803116Y-82130212D01*
X110788512Y-82106664D01*
X110771943Y-82084376D01*
X110753327Y-82063298D01*
X110732584Y-82043380D01*
X110709632Y-82024571D01*
X110684390Y-82006821D01*
X110656776Y-81990079D01*
X110594105Y-81959421D01*
X110520970Y-81932194D01*
X110436717Y-81907995D01*
X110340696Y-81886423D01*
X110232255Y-81867073D01*
X110110741Y-81849544D01*
X109975504Y-81833434D01*
X109825891Y-81818340D01*
X109825891Y-81608982D01*
X113450380Y-81608982D01*
X113450380Y-81818340D01*
G37*
G36*
X138298408Y-84448383D02*
G01*
X137094608Y-88714027D01*
X137084231Y-88753231D01*
X137072935Y-88792129D01*
X137061026Y-88830413D01*
X137048810Y-88867776D01*
X137003013Y-89001895D01*
X136974850Y-89092671D01*
X136949447Y-89178540D01*
X136927110Y-89259502D01*
X136908148Y-89335557D01*
X136892865Y-89406705D01*
X136886700Y-89440439D01*
X136881570Y-89472946D01*
X136877513Y-89504227D01*
X136874567Y-89534281D01*
X136872772Y-89563109D01*
X136872165Y-89590709D01*
X136872469Y-89600482D01*
X136873366Y-89610164D01*
X136874839Y-89619740D01*
X136876867Y-89629197D01*
X136879433Y-89638520D01*
X136882515Y-89647694D01*
X136886096Y-89656705D01*
X136890156Y-89665538D01*
X136894676Y-89674180D01*
X136899638Y-89682617D01*
X136905020Y-89690832D01*
X136910805Y-89698813D01*
X136916974Y-89706545D01*
X136923507Y-89714013D01*
X136930384Y-89721203D01*
X136937588Y-89728101D01*
X136945098Y-89734692D01*
X136952896Y-89740962D01*
X136960962Y-89746897D01*
X136969277Y-89752482D01*
X136977822Y-89757702D01*
X136986578Y-89762544D01*
X136995526Y-89766994D01*
X137004647Y-89771036D01*
X137013920Y-89774656D01*
X137023328Y-89777840D01*
X137032851Y-89780574D01*
X137042470Y-89782843D01*
X137052165Y-89784633D01*
X137061918Y-89785929D01*
X137071709Y-89786717D01*
X137081520Y-89786983D01*
X137104511Y-89785456D01*
X137129284Y-89780901D01*
X137155783Y-89773355D01*
X137183950Y-89762858D01*
X137213726Y-89749447D01*
X137245055Y-89733161D01*
X137277879Y-89714039D01*
X137312141Y-89692118D01*
X137347782Y-89667437D01*
X137384746Y-89640034D01*
X137422975Y-89609948D01*
X137462412Y-89577217D01*
X137502999Y-89541879D01*
X137544678Y-89503973D01*
X137587392Y-89463536D01*
X137631084Y-89420608D01*
X137678312Y-89372613D01*
X137724313Y-89323699D01*
X137772768Y-89269265D01*
X137827356Y-89204710D01*
X137891758Y-89125435D01*
X137969653Y-89026839D01*
X138180645Y-88753284D01*
X138350746Y-88910301D01*
X138211422Y-89110486D01*
X138077676Y-89294284D01*
X137948952Y-89462173D01*
X137824693Y-89614632D01*
X137704345Y-89752140D01*
X137587352Y-89875178D01*
X137473157Y-89984223D01*
X137361204Y-90079756D01*
X137305895Y-90122604D01*
X137250939Y-90162254D01*
X137196265Y-90198766D01*
X137141804Y-90232199D01*
X137087487Y-90262613D01*
X137033244Y-90290068D01*
X136979006Y-90314624D01*
X136924704Y-90336341D01*
X136870267Y-90355278D01*
X136815627Y-90371496D01*
X136760713Y-90385055D01*
X136705457Y-90396014D01*
X136649789Y-90404434D01*
X136593639Y-90410374D01*
X136536939Y-90413894D01*
X136479618Y-90415054D01*
X136443354Y-90414288D01*
X136408169Y-90411997D01*
X136374066Y-90408186D01*
X136341052Y-90402863D01*
X136309130Y-90396036D01*
X136278305Y-90387712D01*
X136248582Y-90377897D01*
X136219966Y-90366599D01*
X136192462Y-90353825D01*
X136166074Y-90339583D01*
X136140808Y-90323879D01*
X136116667Y-90306721D01*
X136093658Y-90288115D01*
X136071784Y-90268070D01*
X136051051Y-90246592D01*
X136031463Y-90223688D01*
X136013025Y-90199367D01*
X135995741Y-90173633D01*
X135979618Y-90146496D01*
X135964658Y-90117962D01*
X135950868Y-90088039D01*
X135938252Y-90056733D01*
X135926815Y-90024051D01*
X135916561Y-89990002D01*
X135899624Y-89917828D01*
X135887478Y-89840268D01*
X135880163Y-89757379D01*
X135877716Y-89669219D01*
X135881549Y-89564413D01*
X135893663Y-89444120D01*
X135914977Y-89305120D01*
X135946412Y-89144192D01*
X135988886Y-88958117D01*
X136043322Y-88743675D01*
X136110637Y-88497645D01*
X136191753Y-88216808D01*
X136845993Y-85874629D01*
X136891993Y-85690624D01*
X136912004Y-85607822D01*
X136929408Y-85531153D01*
X136943745Y-85460617D01*
X136949620Y-85427649D01*
X136954556Y-85396215D01*
X136958495Y-85366314D01*
X136961379Y-85337947D01*
X136963152Y-85311113D01*
X136963756Y-85285812D01*
X136964270Y-85239156D01*
X136960510Y-85197157D01*
X136951882Y-85159567D01*
X136945556Y-85142348D01*
X136937791Y-85126137D01*
X136928511Y-85110903D01*
X136917643Y-85096616D01*
X136905112Y-85083244D01*
X136890844Y-85070757D01*
X136874765Y-85059122D01*
X136856800Y-85048309D01*
X136814916Y-85029024D01*
X136764599Y-85012652D01*
X136705254Y-84998944D01*
X136636287Y-84987652D01*
X136557104Y-84978525D01*
X136467111Y-84971315D01*
X136365713Y-84965773D01*
X136126327Y-84958694D01*
X136126327Y-84749336D01*
X136314574Y-84733669D01*
X136496382Y-84714782D01*
X136686163Y-84690683D01*
X136898331Y-84659376D01*
X137447485Y-84567169D01*
X138259151Y-84422214D01*
X138298408Y-84448383D01*
G37*
G36*
X158095703Y-88151382D02*
G01*
X162492206Y-81608982D01*
X164703533Y-81608982D01*
X164716625Y-81818344D01*
X164577637Y-81842159D01*
X164454213Y-81865342D01*
X164345050Y-81889099D01*
X164248844Y-81914640D01*
X164205192Y-81928456D01*
X164164291Y-81943170D01*
X164125977Y-81958934D01*
X164090089Y-81975898D01*
X164056462Y-81994214D01*
X164024933Y-82014032D01*
X163995341Y-82035503D01*
X163967521Y-82058778D01*
X163941312Y-82084008D01*
X163916549Y-82111344D01*
X163893071Y-82140937D01*
X163870714Y-82172938D01*
X163849316Y-82207498D01*
X163828713Y-82244767D01*
X163808742Y-82284897D01*
X163789241Y-82328039D01*
X163750997Y-82423961D01*
X163712675Y-82533741D01*
X163672973Y-82658587D01*
X163630588Y-82799705D01*
X162060413Y-88674781D01*
X162020416Y-88823927D01*
X161988240Y-88950379D01*
X161963117Y-89058431D01*
X161952962Y-89106898D01*
X161944282Y-89152375D01*
X161936982Y-89195399D01*
X161930967Y-89236506D01*
X161926140Y-89276234D01*
X161922406Y-89315117D01*
X161919668Y-89353695D01*
X161917831Y-89392502D01*
X161916477Y-89472953D01*
X161918023Y-89549718D01*
X161923326Y-89618471D01*
X161933382Y-89679787D01*
X161949188Y-89734241D01*
X161959559Y-89759075D01*
X161971741Y-89782409D01*
X161985860Y-89804314D01*
X162002038Y-89824864D01*
X162020402Y-89844129D01*
X162041075Y-89862182D01*
X162064183Y-89879095D01*
X162089849Y-89894939D01*
X162149357Y-89923709D01*
X162220595Y-89949067D01*
X162304560Y-89971588D01*
X162402248Y-89991847D01*
X162514658Y-90010420D01*
X162642784Y-90027880D01*
X162950176Y-90061767D01*
X162950176Y-90271125D01*
X159325687Y-90271125D01*
X159325687Y-90061767D01*
X159480688Y-90043268D01*
X159622369Y-90021721D01*
X159751514Y-89996533D01*
X159868909Y-89967108D01*
X159923446Y-89950621D01*
X159975341Y-89932853D01*
X160024691Y-89913729D01*
X160071595Y-89893174D01*
X160116151Y-89871114D01*
X160158458Y-89847476D01*
X160198612Y-89822184D01*
X160236714Y-89795165D01*
X160272860Y-89766345D01*
X160307150Y-89735648D01*
X160339681Y-89703001D01*
X160370552Y-89668329D01*
X160399861Y-89631559D01*
X160427705Y-89592616D01*
X160454185Y-89551425D01*
X160479396Y-89507912D01*
X160503439Y-89462004D01*
X160526410Y-89413625D01*
X160548409Y-89362702D01*
X160569534Y-89309161D01*
X160609552Y-89193924D01*
X160647251Y-89067321D01*
X162309017Y-82838958D01*
X157376045Y-90271125D01*
X157153602Y-90271125D01*
X156263839Y-83022144D01*
X154759086Y-88766372D01*
X154735241Y-88865939D01*
X154713084Y-88966733D01*
X154693072Y-89066300D01*
X154675668Y-89162187D01*
X154661330Y-89251940D01*
X154650519Y-89333106D01*
X154643696Y-89403232D01*
X154641923Y-89433389D01*
X154641319Y-89459865D01*
X154644427Y-89528583D01*
X154653918Y-89592528D01*
X154661135Y-89622752D01*
X154670041Y-89651834D01*
X154680667Y-89679790D01*
X154693045Y-89706636D01*
X154707205Y-89732390D01*
X154723179Y-89757068D01*
X154740997Y-89780687D01*
X154760692Y-89803264D01*
X154782294Y-89824815D01*
X154805834Y-89845358D01*
X154831344Y-89864909D01*
X154858854Y-89883485D01*
X154920000Y-89917778D01*
X154989523Y-89948372D01*
X155067671Y-89975400D01*
X155154694Y-89998998D01*
X155250840Y-90019299D01*
X155356359Y-90036438D01*
X155471499Y-90050548D01*
X155596511Y-90061763D01*
X155596511Y-90271121D01*
X152966465Y-90271121D01*
X152966465Y-90061763D01*
X153090837Y-90042366D01*
X153204572Y-90017603D01*
X153308684Y-89986092D01*
X153404191Y-89946455D01*
X153492107Y-89897311D01*
X153573449Y-89837279D01*
X153649233Y-89764981D01*
X153720474Y-89679035D01*
X153788188Y-89578062D01*
X153853391Y-89460683D01*
X153917100Y-89325516D01*
X153980329Y-89171181D01*
X154044095Y-88996300D01*
X154109413Y-88799491D01*
X154177300Y-88579375D01*
X154248771Y-88334571D01*
X155609596Y-83401603D01*
X155645322Y-83264748D01*
X155674609Y-83155648D01*
X155698376Y-83070162D01*
X155717542Y-83004150D01*
X155733029Y-82953472D01*
X155745755Y-82913988D01*
X155766609Y-82852039D01*
X155794771Y-82765660D01*
X155820173Y-82683573D01*
X155842509Y-82606394D01*
X155861471Y-82534734D01*
X155876753Y-82469208D01*
X155882918Y-82438936D01*
X155888048Y-82410428D01*
X155892105Y-82383760D01*
X155895051Y-82359009D01*
X155896846Y-82336251D01*
X155897453Y-82315563D01*
X155893760Y-82260815D01*
X155889130Y-82234694D01*
X155882631Y-82209402D01*
X155874253Y-82184935D01*
X155863988Y-82161287D01*
X155851825Y-82138453D01*
X155837755Y-82116429D01*
X155821768Y-82095210D01*
X155803855Y-82074792D01*
X155762212Y-82036336D01*
X155712749Y-82001024D01*
X155655388Y-81968817D01*
X155590055Y-81939676D01*
X155516670Y-81913564D01*
X155435159Y-81890442D01*
X155345445Y-81870271D01*
X155247449Y-81853014D01*
X155141097Y-81838632D01*
X155026311Y-81827087D01*
X154903015Y-81818340D01*
X154903015Y-81608982D01*
X157310615Y-81608982D01*
X158095703Y-88151382D01*
G37*
G36*
X164319508Y-88780573D02*
G01*
X164313124Y-88676699D01*
X164310985Y-88570098D01*
X164313805Y-88438485D01*
X164322198Y-88306268D01*
X164336063Y-88173611D01*
X164355300Y-88040675D01*
X164379807Y-87907624D01*
X164409486Y-87774622D01*
X164444233Y-87641830D01*
X164483950Y-87509411D01*
X164528536Y-87377530D01*
X164577889Y-87246348D01*
X164690496Y-86986735D01*
X164820968Y-86731875D01*
X164968498Y-86483072D01*
X165132282Y-86241630D01*
X165311515Y-86008850D01*
X165505391Y-85786038D01*
X165713107Y-85574496D01*
X165933856Y-85375528D01*
X166166834Y-85190437D01*
X166287657Y-85103503D01*
X166411235Y-85020526D01*
X166537468Y-84941671D01*
X166666256Y-84867099D01*
X166768864Y-84812508D01*
X166870705Y-84761578D01*
X166971933Y-84714289D01*
X167072702Y-84670623D01*
X167173163Y-84630560D01*
X167273471Y-84594082D01*
X167373779Y-84561168D01*
X167474241Y-84531801D01*
X167575009Y-84505960D01*
X167676237Y-84483627D01*
X167778079Y-84464782D01*
X167880687Y-84449406D01*
X167984215Y-84437481D01*
X168088816Y-84428986D01*
X168194645Y-84423904D01*
X168301853Y-84422214D01*
X168406263Y-84424387D01*
X168508455Y-84430858D01*
X168608357Y-84441556D01*
X168705896Y-84456408D01*
X168801001Y-84475343D01*
X168893600Y-84498288D01*
X168983621Y-84525173D01*
X169070992Y-84555924D01*
X169155641Y-84590470D01*
X169237497Y-84628740D01*
X169316487Y-84670661D01*
X169392540Y-84716161D01*
X169465584Y-84765169D01*
X169535547Y-84817613D01*
X169602356Y-84873420D01*
X169665941Y-84932520D01*
X169726229Y-84994839D01*
X169783148Y-85060307D01*
X169836627Y-85128851D01*
X169886593Y-85200400D01*
X169932976Y-85274881D01*
X169975702Y-85352223D01*
X170014700Y-85432354D01*
X170049898Y-85515202D01*
X170081224Y-85600695D01*
X170108607Y-85688761D01*
X170131974Y-85779328D01*
X170151254Y-85872325D01*
X170166374Y-85967679D01*
X170177264Y-86065320D01*
X170183850Y-86165174D01*
X170186061Y-86267169D01*
X170179676Y-86455212D01*
X170160735Y-86646016D01*
X170129566Y-86838965D01*
X170086494Y-87033449D01*
X170031846Y-87228852D01*
X169965946Y-87424562D01*
X169889121Y-87619965D01*
X169801696Y-87814448D01*
X169703998Y-88007397D01*
X169596352Y-88198200D01*
X169479085Y-88386243D01*
X169352521Y-88570912D01*
X169216987Y-88751595D01*
X169072809Y-88927677D01*
X168920312Y-89098546D01*
X168759822Y-89263587D01*
X168611861Y-89401585D01*
X168462424Y-89530958D01*
X168311569Y-89651667D01*
X168159352Y-89763674D01*
X168005832Y-89866941D01*
X167851066Y-89961430D01*
X167695112Y-90047101D01*
X167538027Y-90123917D01*
X167379869Y-90191839D01*
X167220695Y-90250829D01*
X167060562Y-90300849D01*
X166899529Y-90341861D01*
X166737653Y-90373825D01*
X166574991Y-90396704D01*
X166411600Y-90410460D01*
X166247539Y-90415054D01*
X166136071Y-90413029D01*
X166027411Y-90406984D01*
X165921607Y-90396962D01*
X165818707Y-90383006D01*
X165718758Y-90365159D01*
X165621809Y-90343464D01*
X165527907Y-90317965D01*
X165437101Y-90288703D01*
X165349438Y-90255724D01*
X165264967Y-90219069D01*
X165183734Y-90178782D01*
X165105789Y-90134906D01*
X165031179Y-90087484D01*
X164959952Y-90036559D01*
X164892156Y-89982174D01*
X164827838Y-89924373D01*
X164767048Y-89863199D01*
X164709832Y-89798694D01*
X164656239Y-89730902D01*
X164606316Y-89659866D01*
X164560111Y-89585629D01*
X164517673Y-89508234D01*
X164479049Y-89427725D01*
X164444288Y-89344144D01*
X164413436Y-89257535D01*
X164386543Y-89167941D01*
X164363656Y-89075404D01*
X164344822Y-88979968D01*
X164342226Y-88962646D01*
X165423198Y-88962646D01*
X165424418Y-89028190D01*
X165428048Y-89092312D01*
X165434044Y-89154967D01*
X165442365Y-89216112D01*
X165452967Y-89275705D01*
X165465806Y-89333703D01*
X165480841Y-89390061D01*
X165498026Y-89444738D01*
X165517320Y-89497690D01*
X165538680Y-89548873D01*
X165562061Y-89598246D01*
X165587421Y-89645763D01*
X165614718Y-89691384D01*
X165643907Y-89735063D01*
X165674946Y-89776759D01*
X165707791Y-89816428D01*
X165742400Y-89854027D01*
X165778728Y-89889513D01*
X165816735Y-89922842D01*
X165856375Y-89953972D01*
X165897606Y-89982859D01*
X165940384Y-90009461D01*
X165984668Y-90033734D01*
X166030413Y-90055635D01*
X166077576Y-90075121D01*
X166126115Y-90092148D01*
X166175986Y-90106675D01*
X166227146Y-90118657D01*
X166279551Y-90128051D01*
X166333160Y-90134815D01*
X166387928Y-90138904D01*
X166443813Y-90140277D01*
X166551005Y-90136431D01*
X166656721Y-90124841D01*
X166761019Y-90105431D01*
X166863957Y-90078124D01*
X166965590Y-90042844D01*
X167065979Y-89999513D01*
X167165178Y-89948055D01*
X167263247Y-89888394D01*
X167360243Y-89820453D01*
X167456222Y-89744155D01*
X167551244Y-89659423D01*
X167645364Y-89566181D01*
X167738641Y-89464352D01*
X167831133Y-89353860D01*
X167922896Y-89234628D01*
X168013988Y-89106578D01*
X168127238Y-88937034D01*
X168236099Y-88757964D01*
X168340168Y-88570576D01*
X168439043Y-88376076D01*
X168532320Y-88175673D01*
X168619599Y-87970574D01*
X168700475Y-87761987D01*
X168774547Y-87551119D01*
X168841412Y-87339178D01*
X168900668Y-87127371D01*
X168951912Y-86916905D01*
X168994741Y-86708989D01*
X169028753Y-86504830D01*
X169053546Y-86305635D01*
X169068717Y-86112611D01*
X169073864Y-85926967D01*
X169072795Y-85856667D01*
X169069612Y-85788088D01*
X169064343Y-85721262D01*
X169057022Y-85656224D01*
X169047678Y-85593007D01*
X169036343Y-85531644D01*
X169023049Y-85472169D01*
X169007826Y-85414616D01*
X168990705Y-85359017D01*
X168971717Y-85305407D01*
X168950895Y-85253820D01*
X168928268Y-85204288D01*
X168903869Y-85156845D01*
X168877727Y-85111525D01*
X168849875Y-85068362D01*
X168820343Y-85027388D01*
X168789164Y-84988638D01*
X168756366Y-84952144D01*
X168721983Y-84917941D01*
X168686045Y-84886062D01*
X168648583Y-84856541D01*
X168609628Y-84829411D01*
X168569212Y-84804705D01*
X168527366Y-84782458D01*
X168484120Y-84762702D01*
X168439506Y-84745472D01*
X168393556Y-84730800D01*
X168346299Y-84718721D01*
X168297769Y-84709267D01*
X168247994Y-84702473D01*
X168197008Y-84698373D01*
X168144840Y-84696998D01*
X168144840Y-84697002D01*
X168037050Y-84701596D01*
X167929605Y-84715351D01*
X167822544Y-84738230D01*
X167715904Y-84770195D01*
X167609724Y-84811206D01*
X167504042Y-84861226D01*
X167398897Y-84920216D01*
X167294326Y-84988138D01*
X167190369Y-85064954D01*
X167087064Y-85150624D01*
X166984449Y-85245112D01*
X166882562Y-85348378D01*
X166781442Y-85460384D01*
X166681127Y-85581092D01*
X166581656Y-85710464D01*
X166483066Y-85848461D01*
X166363349Y-86027907D01*
X166249688Y-86212510D01*
X166142313Y-86401598D01*
X166041456Y-86594500D01*
X165947345Y-86790545D01*
X165860211Y-86989063D01*
X165780284Y-87189383D01*
X165707794Y-87390833D01*
X165642970Y-87592744D01*
X165586043Y-87794443D01*
X165537244Y-87995261D01*
X165496801Y-88194527D01*
X165464945Y-88391569D01*
X165441906Y-88585716D01*
X165427913Y-88776299D01*
X165423198Y-88962646D01*
X164342226Y-88962646D01*
X164330090Y-88881677D01*
X164319508Y-88780573D01*
G37*
G36*
X138174348Y-81596888D02*
G01*
X138206956Y-81599817D01*
X138239166Y-81604633D01*
X138270934Y-81611285D01*
X138302212Y-81619719D01*
X138332956Y-81629883D01*
X138363120Y-81641725D01*
X138392658Y-81655190D01*
X138421526Y-81670228D01*
X138449678Y-81686784D01*
X138477067Y-81704807D01*
X138503649Y-81724243D01*
X138529378Y-81745040D01*
X138554209Y-81767145D01*
X138578096Y-81790506D01*
X138600993Y-81815070D01*
X138622855Y-81840783D01*
X138643636Y-81867594D01*
X138663292Y-81895449D01*
X138681775Y-81924297D01*
X138699042Y-81954083D01*
X138715046Y-81984756D01*
X138729742Y-82016263D01*
X138743084Y-82048551D01*
X138755027Y-82081567D01*
X138765526Y-82115259D01*
X138774534Y-82149574D01*
X138782006Y-82184459D01*
X138787897Y-82219861D01*
X138792161Y-82255729D01*
X138794753Y-82292008D01*
X138795627Y-82328647D01*
X138794753Y-82361645D01*
X138792158Y-82394362D01*
X138787886Y-82426749D01*
X138781980Y-82458754D01*
X138774484Y-82490329D01*
X138765439Y-82521421D01*
X138754890Y-82551982D01*
X138742880Y-82581961D01*
X138729451Y-82611307D01*
X138714647Y-82639970D01*
X138698511Y-82667900D01*
X138681085Y-82695047D01*
X138662414Y-82721360D01*
X138642541Y-82746789D01*
X138621507Y-82771283D01*
X138599357Y-82794793D01*
X138576134Y-82817268D01*
X138551880Y-82838657D01*
X138526640Y-82858911D01*
X138500455Y-82877978D01*
X138473369Y-82895810D01*
X138445426Y-82912355D01*
X138416668Y-82927563D01*
X138387138Y-82941383D01*
X138356881Y-82953766D01*
X138325937Y-82964662D01*
X138294352Y-82974019D01*
X138262168Y-82981787D01*
X138229428Y-82987917D01*
X138196175Y-82992358D01*
X138162452Y-82995060D01*
X138128303Y-82995971D01*
X138093116Y-82995170D01*
X138058717Y-82992786D01*
X138025128Y-82988845D01*
X137992371Y-82983372D01*
X137960466Y-82976395D01*
X137929436Y-82967939D01*
X137899301Y-82958032D01*
X137870085Y-82946699D01*
X137841807Y-82933967D01*
X137814491Y-82919862D01*
X137788156Y-82904410D01*
X137762826Y-82887638D01*
X137738521Y-82869573D01*
X137715263Y-82850240D01*
X137693073Y-82829666D01*
X137671974Y-82807877D01*
X137651986Y-82784900D01*
X137633132Y-82760761D01*
X137615432Y-82735487D01*
X137598909Y-82709103D01*
X137583583Y-82681636D01*
X137569477Y-82653112D01*
X137556613Y-82623559D01*
X137545011Y-82593001D01*
X137534693Y-82561466D01*
X137525681Y-82528979D01*
X137517996Y-82495568D01*
X137511660Y-82461259D01*
X137506694Y-82426077D01*
X137503121Y-82390049D01*
X137500961Y-82353203D01*
X137500236Y-82315563D01*
X137500998Y-82276659D01*
X137503268Y-82238479D01*
X137507018Y-82201056D01*
X137512222Y-82164423D01*
X137518854Y-82128615D01*
X137526888Y-82093665D01*
X137536297Y-82059605D01*
X137547055Y-82026471D01*
X137559136Y-81994295D01*
X137572512Y-81963111D01*
X137587159Y-81932952D01*
X137603049Y-81903852D01*
X137620156Y-81875845D01*
X137638454Y-81848964D01*
X137657916Y-81823242D01*
X137678516Y-81798714D01*
X137700228Y-81775412D01*
X137723026Y-81753371D01*
X137746882Y-81732623D01*
X137771771Y-81713203D01*
X137797666Y-81695144D01*
X137824542Y-81678479D01*
X137852370Y-81663241D01*
X137881126Y-81649466D01*
X137910783Y-81637185D01*
X137941315Y-81626433D01*
X137972694Y-81617243D01*
X138004895Y-81609649D01*
X138037892Y-81603684D01*
X138071658Y-81599382D01*
X138106166Y-81596776D01*
X138141389Y-81595900D01*
X138174348Y-81596888D01*
G37*
G36*
X191188082Y-84423242D02*
G01*
X191227596Y-84426297D01*
X191266415Y-84431335D01*
X191304498Y-84438314D01*
X191341805Y-84447191D01*
X191378295Y-84457922D01*
X191413928Y-84470465D01*
X191448661Y-84484776D01*
X191482456Y-84500812D01*
X191515271Y-84518529D01*
X191547065Y-84537886D01*
X191577797Y-84558838D01*
X191607428Y-84581343D01*
X191635915Y-84605357D01*
X191663219Y-84630837D01*
X191689299Y-84657741D01*
X191714114Y-84686024D01*
X191737623Y-84715645D01*
X191759785Y-84746559D01*
X191780560Y-84778724D01*
X191799908Y-84812096D01*
X191817786Y-84846633D01*
X191834155Y-84882291D01*
X191848974Y-84919027D01*
X191862202Y-84956798D01*
X191873799Y-84995562D01*
X191883723Y-85035273D01*
X191891934Y-85075891D01*
X191898391Y-85117371D01*
X191903054Y-85159670D01*
X191905882Y-85202746D01*
X191906833Y-85246555D01*
X191905684Y-85287011D01*
X191902541Y-85337127D01*
X191897866Y-85393070D01*
X191892117Y-85451006D01*
X191885755Y-85507103D01*
X191879240Y-85557526D01*
X191873031Y-85598442D01*
X191867588Y-85626018D01*
X190938564Y-88962642D01*
X190906080Y-89079715D01*
X190877431Y-89185287D01*
X190852768Y-89278900D01*
X190832246Y-89360092D01*
X190816018Y-89428403D01*
X190804237Y-89483375D01*
X190800061Y-89505714D01*
X190797055Y-89524546D01*
X190795238Y-89539812D01*
X190794628Y-89551456D01*
X190795244Y-89575370D01*
X190797107Y-89598019D01*
X190798511Y-89608858D01*
X190800235Y-89619365D01*
X190802279Y-89629538D01*
X190804647Y-89639370D01*
X190807340Y-89648857D01*
X190810362Y-89657994D01*
X190813715Y-89666776D01*
X190817400Y-89675200D01*
X190821422Y-89683259D01*
X190825780Y-89690949D01*
X190830480Y-89698265D01*
X190835521Y-89705203D01*
X190840908Y-89711757D01*
X190846642Y-89717924D01*
X190852726Y-89723697D01*
X190859162Y-89729073D01*
X190865953Y-89734046D01*
X190873101Y-89738612D01*
X190880608Y-89742766D01*
X190888477Y-89746502D01*
X190896710Y-89749818D01*
X190905310Y-89752706D01*
X190914279Y-89755164D01*
X190923619Y-89757185D01*
X190933332Y-89758766D01*
X190943422Y-89759900D01*
X190953891Y-89760585D01*
X190964740Y-89760814D01*
X191052830Y-89758770D01*
X191091844Y-89753914D01*
X191129727Y-89744458D01*
X191168147Y-89728869D01*
X191208771Y-89705612D01*
X191253267Y-89673156D01*
X191303302Y-89629966D01*
X191360545Y-89574508D01*
X191426661Y-89505251D01*
X191592188Y-89319201D01*
X191813223Y-89059548D01*
X192103107Y-88714027D01*
X192312473Y-88884128D01*
X192233966Y-88975723D01*
X192106993Y-89149003D01*
X191981189Y-89310688D01*
X191856496Y-89460834D01*
X191732858Y-89599499D01*
X191610217Y-89726740D01*
X191488515Y-89842616D01*
X191367695Y-89947182D01*
X191247698Y-90040498D01*
X191128469Y-90122620D01*
X191009948Y-90193605D01*
X190892080Y-90253513D01*
X190774805Y-90302399D01*
X190716372Y-90322727D01*
X190658067Y-90340321D01*
X190599881Y-90355189D01*
X190541808Y-90367337D01*
X190483840Y-90376773D01*
X190425970Y-90383505D01*
X190368192Y-90387538D01*
X190310497Y-90388881D01*
X190279064Y-90388269D01*
X190248555Y-90386434D01*
X190218976Y-90383382D01*
X190190332Y-90379119D01*
X190162627Y-90373647D01*
X190135866Y-90366973D01*
X190110053Y-90359101D01*
X190085194Y-90350035D01*
X190061293Y-90339782D01*
X190038356Y-90328344D01*
X190016386Y-90315728D01*
X189995389Y-90301938D01*
X189975370Y-90286979D01*
X189956333Y-90270855D01*
X189938283Y-90253572D01*
X189921225Y-90235134D01*
X189905164Y-90215546D01*
X189890104Y-90194813D01*
X189876050Y-90172939D01*
X189863008Y-90149929D01*
X189850981Y-90125789D01*
X189839975Y-90100523D01*
X189829994Y-90074135D01*
X189821044Y-90046631D01*
X189813129Y-90018015D01*
X189806253Y-89988292D01*
X189800422Y-89957467D01*
X189795641Y-89925545D01*
X189789246Y-89858428D01*
X189787105Y-89786979D01*
X189789073Y-89734819D01*
X189795487Y-89673919D01*
X189807115Y-89600445D01*
X189824724Y-89510564D01*
X189849079Y-89400442D01*
X189880948Y-89266247D01*
X189970295Y-88910301D01*
X190768459Y-85861541D01*
X190791180Y-85772605D01*
X190810374Y-85692257D01*
X190826194Y-85620495D01*
X190838794Y-85557320D01*
X190848327Y-85502731D01*
X190854946Y-85456730D01*
X190857211Y-85436949D01*
X190858805Y-85419315D01*
X190859748Y-85403828D01*
X190860057Y-85390487D01*
X190859715Y-85375885D01*
X190858700Y-85361526D01*
X190857028Y-85347427D01*
X190854716Y-85333600D01*
X190851782Y-85320061D01*
X190848241Y-85306824D01*
X190844111Y-85293903D01*
X190839408Y-85281313D01*
X190834150Y-85269068D01*
X190828352Y-85257182D01*
X190822033Y-85245669D01*
X190815207Y-85234545D01*
X190807893Y-85223823D01*
X190800107Y-85213519D01*
X190791865Y-85203645D01*
X190783186Y-85194217D01*
X190774084Y-85185249D01*
X190764578Y-85176756D01*
X190754683Y-85168751D01*
X190744417Y-85161249D01*
X190733796Y-85154265D01*
X190722838Y-85147813D01*
X190711558Y-85141907D01*
X190699975Y-85136561D01*
X190688103Y-85131791D01*
X190675961Y-85127610D01*
X190663565Y-85124033D01*
X190650932Y-85121074D01*
X190638078Y-85118747D01*
X190625020Y-85117068D01*
X190611776Y-85116049D01*
X190598362Y-85115707D01*
X190561952Y-85117386D01*
X190523909Y-85122396D01*
X190443132Y-85142234D01*
X190356451Y-85174876D01*
X190264289Y-85219977D01*
X190167066Y-85277191D01*
X190065205Y-85346174D01*
X189959128Y-85426580D01*
X189849255Y-85518065D01*
X189736009Y-85620284D01*
X189619811Y-85732892D01*
X189501083Y-85855543D01*
X189380247Y-85987892D01*
X189257724Y-86129595D01*
X189133936Y-86280307D01*
X189009304Y-86439682D01*
X188884250Y-86607376D01*
X188650565Y-86943517D01*
X188544763Y-87109565D01*
X188445094Y-87277358D01*
X188350639Y-87449214D01*
X188260477Y-87627452D01*
X188173688Y-87814393D01*
X188089353Y-88012355D01*
X188006551Y-88223657D01*
X187924363Y-88450619D01*
X187758145Y-88960798D01*
X187583341Y-89561446D01*
X187392589Y-90271118D01*
X186385059Y-90271118D01*
X186581329Y-89569446D01*
X186653705Y-89323493D01*
X186693112Y-89196147D01*
X186738346Y-89054233D01*
X187102884Y-87776011D01*
X187264834Y-87189341D01*
X187407310Y-86659713D01*
X187525865Y-86203687D01*
X187616052Y-85837823D01*
X187673426Y-85578683D01*
X187688417Y-85494308D01*
X187693538Y-85442825D01*
X187693270Y-85423467D01*
X187692468Y-85404651D01*
X187691134Y-85386380D01*
X187689270Y-85368661D01*
X187686880Y-85351498D01*
X187683964Y-85334895D01*
X187680527Y-85318858D01*
X187676569Y-85303391D01*
X187672094Y-85288499D01*
X187667104Y-85274187D01*
X187661601Y-85260459D01*
X187655588Y-85247321D01*
X187649067Y-85234777D01*
X187642040Y-85222832D01*
X187634510Y-85211491D01*
X187626480Y-85200758D01*
X187617951Y-85190638D01*
X187608926Y-85181137D01*
X187599407Y-85172259D01*
X187589398Y-85164008D01*
X187578899Y-85156390D01*
X187567914Y-85149409D01*
X187556446Y-85143070D01*
X187544495Y-85137379D01*
X187532066Y-85132338D01*
X187519159Y-85127955D01*
X187505779Y-85124232D01*
X187491926Y-85121176D01*
X187477603Y-85118790D01*
X187462814Y-85117081D01*
X187447559Y-85116051D01*
X187431842Y-85115707D01*
X187387923Y-85117881D01*
X187342082Y-85124358D01*
X187244923Y-85149952D01*
X187140941Y-85191954D01*
X187030711Y-85249826D01*
X186914807Y-85323032D01*
X186793804Y-85411035D01*
X186668278Y-85513298D01*
X186538804Y-85629285D01*
X186405956Y-85758459D01*
X186270310Y-85900284D01*
X186132440Y-86054221D01*
X185992922Y-86219736D01*
X185852331Y-86396291D01*
X185711241Y-86583350D01*
X185570228Y-86780375D01*
X185429866Y-86986831D01*
X185264670Y-87241730D01*
X185116648Y-87500001D01*
X184977213Y-87782193D01*
X184837778Y-88108853D01*
X184689756Y-88500528D01*
X184524561Y-88977766D01*
X184333605Y-89561113D01*
X184108303Y-90271118D01*
X183113849Y-90271118D01*
X183333027Y-89464765D01*
X183459787Y-89021722D01*
X183650333Y-88373821D01*
X183981338Y-87207434D01*
X184237513Y-86275347D01*
X184332556Y-85913649D01*
X184402913Y-85630307D01*
X184446588Y-85431913D01*
X184457797Y-85366632D01*
X184461589Y-85325061D01*
X184461437Y-85317665D01*
X184460986Y-85310206D01*
X184460242Y-85302700D01*
X184459213Y-85295160D01*
X184457906Y-85287601D01*
X184456328Y-85280037D01*
X184454487Y-85272483D01*
X184452389Y-85264953D01*
X184450043Y-85257461D01*
X184447454Y-85250021D01*
X184444631Y-85242649D01*
X184441579Y-85235359D01*
X184438308Y-85228164D01*
X184434823Y-85221079D01*
X184431132Y-85214119D01*
X184427243Y-85207298D01*
X184423161Y-85200631D01*
X184418896Y-85194131D01*
X184414453Y-85187813D01*
X184409840Y-85181691D01*
X184405063Y-85175781D01*
X184400132Y-85170095D01*
X184395051Y-85164650D01*
X184389830Y-85159458D01*
X184384474Y-85154535D01*
X184378991Y-85149894D01*
X184373388Y-85145550D01*
X184367673Y-85141518D01*
X184361852Y-85137812D01*
X184355933Y-85134445D01*
X184349923Y-85131434D01*
X184343830Y-85128791D01*
X184299463Y-85102851D01*
X184279196Y-85092306D01*
X184258776Y-85083198D01*
X184237130Y-85075394D01*
X184213183Y-85068759D01*
X184185864Y-85063158D01*
X184154097Y-85058459D01*
X184116811Y-85054527D01*
X184072931Y-85051227D01*
X183961097Y-85045988D01*
X183611080Y-85037197D01*
X183611080Y-84827842D01*
X184271656Y-84709260D01*
X184764174Y-84615213D01*
X185730815Y-84422214D01*
X185770069Y-84448383D01*
X184971889Y-87222362D01*
X185201477Y-86873938D01*
X185424261Y-86549798D01*
X185640489Y-86249694D01*
X185850412Y-85973377D01*
X186054278Y-85720597D01*
X186252336Y-85491105D01*
X186444835Y-85284652D01*
X186632025Y-85100988D01*
X186814155Y-84939866D01*
X186903401Y-84867679D01*
X186991474Y-84801034D01*
X187078408Y-84739900D01*
X187164232Y-84684246D01*
X187248977Y-84634039D01*
X187332676Y-84589250D01*
X187415359Y-84549846D01*
X187497057Y-84515798D01*
X187577802Y-84487073D01*
X187657624Y-84463641D01*
X187736555Y-84445470D01*
X187814625Y-84432529D01*
X187891867Y-84424788D01*
X187968311Y-84422214D01*
X188009592Y-84423129D01*
X188050000Y-84425856D01*
X188089508Y-84430365D01*
X188128087Y-84436628D01*
X188165707Y-84444616D01*
X188202340Y-84454300D01*
X188237957Y-84465651D01*
X188272529Y-84478642D01*
X188306028Y-84493242D01*
X188338425Y-84509424D01*
X188369691Y-84527159D01*
X188399798Y-84546417D01*
X188428716Y-84567170D01*
X188456417Y-84589390D01*
X188482873Y-84613047D01*
X188508053Y-84638112D01*
X188531931Y-84664558D01*
X188554476Y-84692356D01*
X188575660Y-84721475D01*
X188595455Y-84751889D01*
X188613831Y-84783567D01*
X188630761Y-84816482D01*
X188646214Y-84850605D01*
X188660163Y-84885906D01*
X188672579Y-84922357D01*
X188683432Y-84959929D01*
X188692694Y-84998594D01*
X188700337Y-85038323D01*
X188706332Y-85079087D01*
X188710649Y-85120857D01*
X188713261Y-85163605D01*
X188714138Y-85207302D01*
X188711703Y-85261992D01*
X188704478Y-85327723D01*
X188676111Y-85491078D01*
X188629957Y-85694915D01*
X188566936Y-85936779D01*
X188487968Y-86214218D01*
X188393972Y-86524778D01*
X188285868Y-86866005D01*
X188164577Y-87235446D01*
X188334440Y-86972338D01*
X188496119Y-86727132D01*
X188650323Y-86499023D01*
X188797760Y-86287206D01*
X188939141Y-86090876D01*
X189075174Y-85909228D01*
X189206568Y-85741458D01*
X189334033Y-85586759D01*
X189458279Y-85444328D01*
X189580013Y-85313359D01*
X189699945Y-85193046D01*
X189818785Y-85082586D01*
X189937242Y-84981172D01*
X190056025Y-84888001D01*
X190175843Y-84802266D01*
X190297405Y-84723163D01*
X190355834Y-84685282D01*
X190413381Y-84650123D01*
X190470085Y-84617647D01*
X190525983Y-84587817D01*
X190581115Y-84560593D01*
X190635518Y-84535938D01*
X190689231Y-84513813D01*
X190742292Y-84494179D01*
X190794740Y-84476999D01*
X190846612Y-84462234D01*
X190897948Y-84449846D01*
X190948785Y-84439796D01*
X190999162Y-84432046D01*
X191049117Y-84426558D01*
X191098688Y-84423294D01*
X191147914Y-84422214D01*
X191188082Y-84423242D01*
G37*
G36*
X149394321Y-84448383D02*
G01*
X148190521Y-88714027D01*
X148180144Y-88753231D01*
X148168848Y-88792129D01*
X148156938Y-88830413D01*
X148144722Y-88867776D01*
X148098926Y-89001895D01*
X148070763Y-89092671D01*
X148045360Y-89178540D01*
X148023023Y-89259502D01*
X148004061Y-89335557D01*
X147988778Y-89406705D01*
X147982613Y-89440439D01*
X147977483Y-89472946D01*
X147973426Y-89504227D01*
X147970480Y-89534281D01*
X147968685Y-89563109D01*
X147968078Y-89590709D01*
X147968382Y-89600482D01*
X147969279Y-89610164D01*
X147970752Y-89619740D01*
X147972780Y-89629197D01*
X147975346Y-89638520D01*
X147978428Y-89647694D01*
X147982009Y-89656705D01*
X147986069Y-89665538D01*
X147990589Y-89674180D01*
X147995550Y-89682617D01*
X148000933Y-89690832D01*
X148006718Y-89698813D01*
X148012887Y-89706545D01*
X148019419Y-89714013D01*
X148026297Y-89721203D01*
X148033501Y-89728101D01*
X148041011Y-89734692D01*
X148048809Y-89740962D01*
X148056875Y-89746897D01*
X148065190Y-89752482D01*
X148073735Y-89757702D01*
X148082491Y-89762544D01*
X148091439Y-89766994D01*
X148100559Y-89771036D01*
X148109833Y-89774656D01*
X148119241Y-89777840D01*
X148128764Y-89780574D01*
X148138383Y-89782843D01*
X148148078Y-89784633D01*
X148157831Y-89785929D01*
X148167622Y-89786717D01*
X148177433Y-89786983D01*
X148200423Y-89785456D01*
X148225196Y-89780901D01*
X148251694Y-89773355D01*
X148279860Y-89762858D01*
X148309636Y-89749447D01*
X148340965Y-89733161D01*
X148373789Y-89714039D01*
X148408050Y-89692118D01*
X148443692Y-89667437D01*
X148480656Y-89640034D01*
X148518885Y-89609948D01*
X148558321Y-89577217D01*
X148598908Y-89541879D01*
X148640587Y-89503973D01*
X148683301Y-89463536D01*
X148726993Y-89420608D01*
X148774221Y-89372613D01*
X148820222Y-89323699D01*
X148868676Y-89269265D01*
X148923264Y-89204710D01*
X148987666Y-89125435D01*
X149065561Y-89026839D01*
X149276554Y-88753284D01*
X149446655Y-88910301D01*
X149307332Y-89110486D01*
X149173586Y-89294284D01*
X149044862Y-89462173D01*
X148920605Y-89614632D01*
X148800257Y-89752140D01*
X148683264Y-89875178D01*
X148569069Y-89984223D01*
X148457116Y-90079756D01*
X148401807Y-90122604D01*
X148346850Y-90162254D01*
X148292176Y-90198766D01*
X148237716Y-90232199D01*
X148183399Y-90262613D01*
X148129156Y-90290068D01*
X148074918Y-90314624D01*
X148020615Y-90336341D01*
X147966178Y-90355278D01*
X147911538Y-90371496D01*
X147856624Y-90385055D01*
X147801368Y-90396014D01*
X147745699Y-90404434D01*
X147689549Y-90410374D01*
X147632848Y-90413894D01*
X147575527Y-90415054D01*
X147539263Y-90414288D01*
X147504078Y-90411997D01*
X147469976Y-90408186D01*
X147436961Y-90402863D01*
X147405039Y-90396036D01*
X147374214Y-90387712D01*
X147344491Y-90377897D01*
X147315876Y-90366599D01*
X147288372Y-90353825D01*
X147261984Y-90339583D01*
X147236718Y-90323879D01*
X147212578Y-90306721D01*
X147189568Y-90288115D01*
X147167695Y-90268070D01*
X147146962Y-90246592D01*
X147127374Y-90223688D01*
X147108936Y-90199367D01*
X147091653Y-90173633D01*
X147075529Y-90146496D01*
X147060570Y-90117962D01*
X147046780Y-90088039D01*
X147034164Y-90056733D01*
X147022727Y-90024051D01*
X147012474Y-89990002D01*
X146995536Y-89917828D01*
X146983391Y-89840268D01*
X146976076Y-89757379D01*
X146973629Y-89669219D01*
X146977462Y-89564413D01*
X146989575Y-89444120D01*
X147010889Y-89305120D01*
X147042323Y-89144192D01*
X147084798Y-88958117D01*
X147139233Y-88743675D01*
X147206549Y-88497645D01*
X147287666Y-88216808D01*
X147941906Y-85874629D01*
X147987906Y-85690624D01*
X148007917Y-85607822D01*
X148025321Y-85531153D01*
X148039658Y-85460617D01*
X148045533Y-85427649D01*
X148050468Y-85396215D01*
X148054407Y-85366314D01*
X148057292Y-85337947D01*
X148059065Y-85311113D01*
X148059669Y-85285812D01*
X148060183Y-85239156D01*
X148056423Y-85197157D01*
X148047795Y-85159567D01*
X148041469Y-85142348D01*
X148033704Y-85126137D01*
X148024424Y-85110903D01*
X148013556Y-85096616D01*
X148001025Y-85083244D01*
X147986757Y-85070757D01*
X147970678Y-85059122D01*
X147952713Y-85048309D01*
X147910829Y-85029024D01*
X147860512Y-85012652D01*
X147801167Y-84998944D01*
X147732200Y-84987652D01*
X147653017Y-84978525D01*
X147563024Y-84971315D01*
X147461626Y-84965773D01*
X147222240Y-84958694D01*
X147222240Y-84749336D01*
X147410487Y-84733669D01*
X147592295Y-84714782D01*
X147782076Y-84690683D01*
X147994244Y-84659376D01*
X148543397Y-84567169D01*
X149355064Y-84422214D01*
X149394321Y-84448383D01*
G37*
G36*
X170865259Y-88545079D02*
G01*
X170895736Y-88352714D01*
X170937564Y-88158950D01*
X170990261Y-87964342D01*
X171053341Y-87769447D01*
X171126321Y-87574820D01*
X171208717Y-87381017D01*
X171300044Y-87188595D01*
X171399820Y-86998108D01*
X171507560Y-86810113D01*
X171622779Y-86625166D01*
X171873723Y-86266637D01*
X172148778Y-85926969D01*
X172444075Y-85610608D01*
X172598103Y-85462558D01*
X172755739Y-85322002D01*
X172916500Y-85189496D01*
X173079901Y-85065596D01*
X173245459Y-84950858D01*
X173412688Y-84845838D01*
X173581106Y-84751091D01*
X173750228Y-84667174D01*
X173919571Y-84594642D01*
X174088650Y-84534052D01*
X174256981Y-84485958D01*
X174424081Y-84450917D01*
X174589466Y-84429485D01*
X174752651Y-84422218D01*
X174847305Y-84424706D01*
X174935173Y-84432312D01*
X174976647Y-84438100D01*
X175016525Y-84445247D01*
X175054841Y-84453778D01*
X175091629Y-84463721D01*
X175126921Y-84475101D01*
X175160752Y-84487945D01*
X175193155Y-84502279D01*
X175224164Y-84518130D01*
X175253812Y-84535523D01*
X175282132Y-84554487D01*
X175309159Y-84575045D01*
X175334925Y-84597226D01*
X175359465Y-84621055D01*
X175382812Y-84646559D01*
X175404999Y-84673764D01*
X175426060Y-84702697D01*
X175446028Y-84733383D01*
X175464937Y-84765849D01*
X175482821Y-84800122D01*
X175499714Y-84836228D01*
X175515647Y-84874193D01*
X175530656Y-84914044D01*
X175558034Y-84999507D01*
X175582115Y-85092829D01*
X175603168Y-85194221D01*
X176205066Y-83009059D01*
X176274171Y-82766300D01*
X176326101Y-82580736D01*
X176346393Y-82506192D01*
X176363312Y-82442093D01*
X176377163Y-82387157D01*
X176388255Y-82340098D01*
X176396893Y-82299633D01*
X176403384Y-82264478D01*
X176408035Y-82233347D01*
X176411153Y-82204957D01*
X176413044Y-82178024D01*
X176414016Y-82151264D01*
X176414424Y-82093124D01*
X176413361Y-82042004D01*
X176409594Y-81996367D01*
X176402263Y-81955866D01*
X176390504Y-81920158D01*
X176382695Y-81903992D01*
X176373455Y-81888896D01*
X176362677Y-81874825D01*
X176350253Y-81861736D01*
X176336076Y-81849586D01*
X176320037Y-81838332D01*
X176302028Y-81827932D01*
X176281942Y-81818341D01*
X176235107Y-81801416D01*
X176178669Y-81787214D01*
X176111767Y-81775387D01*
X176033536Y-81765593D01*
X175943115Y-81757485D01*
X175839641Y-81750719D01*
X175590084Y-81739832D01*
X175590084Y-81517392D01*
X175888710Y-81487798D01*
X176161116Y-81457283D01*
X176414200Y-81424929D01*
X176654864Y-81389815D01*
X176890007Y-81351020D01*
X177126529Y-81307625D01*
X177371331Y-81258711D01*
X177631313Y-81203356D01*
X177696743Y-81281865D01*
X177215467Y-83086544D01*
X176859315Y-84394411D01*
X176581673Y-85375975D01*
X176335926Y-86201747D01*
X176166206Y-86761992D01*
X176003693Y-87312729D01*
X175853140Y-87837093D01*
X175719302Y-88318215D01*
X175606930Y-88739229D01*
X175520780Y-89083267D01*
X175465604Y-89333463D01*
X175451116Y-89418099D01*
X175446155Y-89472949D01*
X175446459Y-89486364D01*
X175447363Y-89499608D01*
X175448851Y-89512665D01*
X175450909Y-89525519D01*
X175453523Y-89538152D01*
X175456678Y-89550548D01*
X175460361Y-89562690D01*
X175464556Y-89574561D01*
X175469250Y-89586145D01*
X175474428Y-89597424D01*
X175480075Y-89608383D01*
X175486177Y-89619003D01*
X175492721Y-89629269D01*
X175499691Y-89639164D01*
X175507072Y-89648670D01*
X175514852Y-89657772D01*
X175523015Y-89666452D01*
X175531547Y-89674693D01*
X175540433Y-89682480D01*
X175549660Y-89689794D01*
X175559213Y-89696620D01*
X175569077Y-89702939D01*
X175579237Y-89708737D01*
X175589681Y-89713996D01*
X175600393Y-89718699D01*
X175611359Y-89722829D01*
X175622565Y-89726369D01*
X175633995Y-89729304D01*
X175645637Y-89731616D01*
X175657475Y-89733288D01*
X175669495Y-89734303D01*
X175681682Y-89734645D01*
X175724644Y-89733265D01*
X175765939Y-89728512D01*
X175806659Y-89719465D01*
X175847897Y-89705204D01*
X175890744Y-89684810D01*
X175936295Y-89657363D01*
X175985641Y-89621942D01*
X176039875Y-89577627D01*
X176100088Y-89523499D01*
X176167375Y-89458637D01*
X176242827Y-89382121D01*
X176327537Y-89293032D01*
X176529099Y-89073452D01*
X176780803Y-88792537D01*
X176937809Y-88936473D01*
X176809968Y-89110783D01*
X176681762Y-89275375D01*
X176553442Y-89430039D01*
X176425256Y-89574562D01*
X176297453Y-89708736D01*
X176170283Y-89832348D01*
X176043994Y-89945188D01*
X175918836Y-90047045D01*
X175795058Y-90137709D01*
X175672909Y-90216968D01*
X175552638Y-90284612D01*
X175434495Y-90340429D01*
X175376299Y-90363838D01*
X175318728Y-90384210D01*
X175261813Y-90401521D01*
X175205587Y-90415743D01*
X175150079Y-90426851D01*
X175095320Y-90434818D01*
X175041343Y-90439617D01*
X174988178Y-90441223D01*
X174957821Y-90440536D01*
X174928099Y-90438491D01*
X174899033Y-90435110D01*
X174870645Y-90430412D01*
X174842957Y-90424422D01*
X174815990Y-90417159D01*
X174789766Y-90408645D01*
X174764306Y-90398902D01*
X174739632Y-90387952D01*
X174715765Y-90375815D01*
X174692728Y-90362515D01*
X174670540Y-90348071D01*
X174649225Y-90332506D01*
X174628804Y-90315842D01*
X174609298Y-90298099D01*
X174590728Y-90279300D01*
X174573117Y-90259465D01*
X174556486Y-90238618D01*
X174540856Y-90216778D01*
X174526250Y-90193968D01*
X174512688Y-90170209D01*
X174500192Y-90145523D01*
X174488784Y-90119931D01*
X174478485Y-90093455D01*
X174469317Y-90066117D01*
X174461302Y-90037938D01*
X174454460Y-90008939D01*
X174448814Y-89979142D01*
X174444385Y-89948570D01*
X174441195Y-89917242D01*
X174439265Y-89885181D01*
X174438617Y-89852409D01*
X174440611Y-89742773D01*
X174447205Y-89635283D01*
X174459320Y-89523500D01*
X174477874Y-89400984D01*
X174503789Y-89261293D01*
X174537983Y-89097989D01*
X174634891Y-88674777D01*
X174464531Y-88909952D01*
X174301205Y-89125232D01*
X174143974Y-89321267D01*
X173991899Y-89498711D01*
X173844041Y-89658214D01*
X173699460Y-89800428D01*
X173557217Y-89926006D01*
X173416374Y-90035597D01*
X173346183Y-90084602D01*
X173275990Y-90129855D01*
X173205677Y-90171438D01*
X173135128Y-90209431D01*
X173064223Y-90243917D01*
X172992846Y-90274977D01*
X172920880Y-90302692D01*
X172848207Y-90327144D01*
X172774710Y-90348414D01*
X172700271Y-90366584D01*
X172624774Y-90381735D01*
X172548100Y-90393948D01*
X172390752Y-90409889D01*
X172227291Y-90415058D01*
X172146179Y-90413452D01*
X172067241Y-90408656D01*
X171990502Y-90400697D01*
X171915989Y-90389603D01*
X171843727Y-90375405D01*
X171773745Y-90358131D01*
X171706067Y-90337809D01*
X171640721Y-90314468D01*
X171577732Y-90288137D01*
X171517127Y-90258844D01*
X171458933Y-90226619D01*
X171403175Y-90191491D01*
X171349880Y-90153487D01*
X171299074Y-90112637D01*
X171250785Y-90068969D01*
X171205037Y-90022512D01*
X171161857Y-89973296D01*
X171121273Y-89921348D01*
X171083309Y-89866697D01*
X171047993Y-89809373D01*
X171015351Y-89749403D01*
X170985409Y-89686818D01*
X170958194Y-89621644D01*
X170933731Y-89553912D01*
X170912048Y-89483650D01*
X170893170Y-89410887D01*
X170877124Y-89335651D01*
X170863937Y-89257971D01*
X170853634Y-89177876D01*
X170846242Y-89095395D01*
X170841788Y-89010556D01*
X170840297Y-88923389D01*
X170841178Y-88897216D01*
X171991764Y-88897216D01*
X171992641Y-88946931D01*
X171995258Y-88995470D01*
X171999591Y-89042806D01*
X172005615Y-89088913D01*
X172013306Y-89133765D01*
X172022641Y-89177335D01*
X172033596Y-89219596D01*
X172046146Y-89260523D01*
X172060268Y-89300089D01*
X172075938Y-89338268D01*
X172093131Y-89375033D01*
X172111825Y-89410359D01*
X172131994Y-89444218D01*
X172153615Y-89476584D01*
X172176664Y-89507432D01*
X172201117Y-89536734D01*
X172226950Y-89564464D01*
X172254140Y-89590597D01*
X172282661Y-89615105D01*
X172312491Y-89637962D01*
X172343605Y-89659142D01*
X172375979Y-89678618D01*
X172409589Y-89696365D01*
X172444412Y-89712356D01*
X172480424Y-89726564D01*
X172517599Y-89738963D01*
X172555916Y-89749527D01*
X172595349Y-89758229D01*
X172635874Y-89765043D01*
X172677468Y-89769943D01*
X172720107Y-89772902D01*
X172763767Y-89773895D01*
X172832896Y-89771604D01*
X172902792Y-89764771D01*
X172973301Y-89753453D01*
X173044270Y-89737707D01*
X173115546Y-89717592D01*
X173186975Y-89693163D01*
X173258404Y-89664480D01*
X173329680Y-89631598D01*
X173400649Y-89594577D01*
X173471159Y-89553473D01*
X173541055Y-89508344D01*
X173610185Y-89459247D01*
X173678395Y-89406241D01*
X173745532Y-89349381D01*
X173811442Y-89288726D01*
X173875972Y-89224334D01*
X174039648Y-89040994D01*
X174196653Y-88845080D01*
X174346452Y-88637819D01*
X174488506Y-88420437D01*
X174622281Y-88194162D01*
X174747238Y-87960221D01*
X174862842Y-87719839D01*
X174968555Y-87474243D01*
X175063841Y-87224661D01*
X175148164Y-86972318D01*
X175220986Y-86718443D01*
X175281772Y-86464260D01*
X175329983Y-86210998D01*
X175365085Y-85959882D01*
X175386539Y-85712140D01*
X175393810Y-85468997D01*
X175393235Y-85425488D01*
X175391510Y-85383282D01*
X175388635Y-85342379D01*
X175384610Y-85302779D01*
X175379435Y-85264483D01*
X175373110Y-85227490D01*
X175365635Y-85191801D01*
X175357010Y-85157415D01*
X175347235Y-85124332D01*
X175336310Y-85092553D01*
X175324234Y-85062077D01*
X175311009Y-85032905D01*
X175296634Y-85005035D01*
X175281109Y-84978470D01*
X175264434Y-84953207D01*
X175246608Y-84929248D01*
X175227633Y-84906593D01*
X175207508Y-84885240D01*
X175186232Y-84865191D01*
X175163807Y-84846446D01*
X175140231Y-84829004D01*
X175115506Y-84812865D01*
X175089630Y-84798030D01*
X175062604Y-84784498D01*
X175034428Y-84772269D01*
X175005103Y-84761344D01*
X174974627Y-84751722D01*
X174943001Y-84743403D01*
X174910225Y-84736388D01*
X174876299Y-84730676D01*
X174841222Y-84726268D01*
X174804996Y-84723163D01*
X174732529Y-84721445D01*
X174657665Y-84725974D01*
X174580770Y-84736561D01*
X174502208Y-84753013D01*
X174422341Y-84775139D01*
X174341536Y-84802746D01*
X174260155Y-84835643D01*
X174178564Y-84873639D01*
X174097125Y-84916542D01*
X174016204Y-84964159D01*
X173936165Y-85016301D01*
X173857372Y-85072773D01*
X173780188Y-85133386D01*
X173704979Y-85197948D01*
X173632107Y-85266266D01*
X173561939Y-85338149D01*
X173397677Y-85519429D01*
X173239011Y-85713800D01*
X173086632Y-85919634D01*
X172941230Y-86135299D01*
X172803495Y-86359169D01*
X172674117Y-86589613D01*
X172553785Y-86825002D01*
X172443190Y-87063707D01*
X172343022Y-87304099D01*
X172253971Y-87544548D01*
X172176727Y-87783425D01*
X172111981Y-88019102D01*
X172060421Y-88249949D01*
X172022738Y-88474336D01*
X171999622Y-88690635D01*
X171991764Y-88897216D01*
X170841178Y-88897216D01*
X170846618Y-88735490D01*
X170865259Y-88545079D01*
G37*
G36*
X177857426Y-87305530D02*
G01*
X177938194Y-87121570D01*
X178027951Y-86939967D01*
X178126278Y-86761160D01*
X178232756Y-86585587D01*
X178346965Y-86413688D01*
X178468487Y-86245899D01*
X178596902Y-86082661D01*
X178731791Y-85924411D01*
X178872734Y-85771587D01*
X179019312Y-85624629D01*
X179171106Y-85483974D01*
X179327696Y-85350061D01*
X179488664Y-85223329D01*
X179653590Y-85104216D01*
X179822055Y-84993160D01*
X179993639Y-84890600D01*
X180167923Y-84796975D01*
X180344488Y-84712722D01*
X180522915Y-84638280D01*
X180702784Y-84574088D01*
X180883676Y-84520584D01*
X181065171Y-84478206D01*
X181246852Y-84447394D01*
X181428297Y-84428585D01*
X181609088Y-84422218D01*
X181669653Y-84423210D01*
X181728660Y-84426173D01*
X181786086Y-84431080D01*
X181841907Y-84437909D01*
X181896099Y-84446636D01*
X181948637Y-84457236D01*
X181999498Y-84469686D01*
X182048659Y-84483962D01*
X182096094Y-84500039D01*
X182141780Y-84517894D01*
X182185693Y-84537503D01*
X182227809Y-84558842D01*
X182268104Y-84581886D01*
X182306555Y-84606613D01*
X182343136Y-84632997D01*
X182377825Y-84661016D01*
X182410597Y-84690644D01*
X182441429Y-84721859D01*
X182470296Y-84754636D01*
X182497174Y-84788951D01*
X182522040Y-84824780D01*
X182544869Y-84862099D01*
X182565637Y-84900885D01*
X182584321Y-84941113D01*
X182600897Y-84982759D01*
X182615341Y-85025800D01*
X182627628Y-85070211D01*
X182637734Y-85115968D01*
X182645637Y-85163048D01*
X182651311Y-85211427D01*
X182654733Y-85261081D01*
X182655880Y-85311984D01*
X182651765Y-85418343D01*
X182639520Y-85523896D01*
X182619298Y-85628530D01*
X182591248Y-85732128D01*
X182555522Y-85834577D01*
X182512270Y-85935760D01*
X182461643Y-86035564D01*
X182403793Y-86133872D01*
X182267026Y-86325544D01*
X182103176Y-86509856D01*
X181913449Y-86685887D01*
X181699055Y-86852719D01*
X181461200Y-87009430D01*
X181201092Y-87155101D01*
X180919939Y-87288811D01*
X180618947Y-87409641D01*
X180299324Y-87516671D01*
X179962279Y-87608980D01*
X179609018Y-87685649D01*
X179240749Y-87745757D01*
X178874370Y-87798095D01*
X178834373Y-87963930D01*
X178802197Y-88101704D01*
X178777075Y-88216477D01*
X178766919Y-88266820D01*
X178758239Y-88313310D01*
X178750940Y-88356579D01*
X178744924Y-88397262D01*
X178740097Y-88435989D01*
X178736363Y-88473393D01*
X178733625Y-88510108D01*
X178731788Y-88546765D01*
X178730757Y-88583997D01*
X178730434Y-88622436D01*
X178731846Y-88689169D01*
X178736053Y-88754405D01*
X178743016Y-88818103D01*
X178752694Y-88880222D01*
X178765045Y-88940722D01*
X178780030Y-88999560D01*
X178797607Y-89056698D01*
X178817735Y-89112094D01*
X178840375Y-89165708D01*
X178865485Y-89217498D01*
X178893024Y-89267424D01*
X178922952Y-89315445D01*
X178955228Y-89361521D01*
X178989811Y-89405611D01*
X179026661Y-89447673D01*
X179065736Y-89487668D01*
X179106997Y-89525555D01*
X179150402Y-89561293D01*
X179195910Y-89594840D01*
X179243482Y-89626157D01*
X179293075Y-89655203D01*
X179344650Y-89681937D01*
X179398166Y-89706318D01*
X179453581Y-89728305D01*
X179510856Y-89747859D01*
X179569949Y-89764937D01*
X179630820Y-89779500D01*
X179693428Y-89791506D01*
X179757732Y-89800915D01*
X179823692Y-89807686D01*
X179891266Y-89811779D01*
X179960414Y-89813152D01*
X180066693Y-89810609D01*
X180170307Y-89802623D01*
X180272273Y-89788656D01*
X180373606Y-89768173D01*
X180475323Y-89740636D01*
X180578438Y-89705510D01*
X180683969Y-89662256D01*
X180792931Y-89610339D01*
X180906340Y-89549221D01*
X181025211Y-89478367D01*
X181150561Y-89397239D01*
X181283405Y-89305300D01*
X181424760Y-89202015D01*
X181575641Y-89086846D01*
X181737064Y-88959256D01*
X181910045Y-88818710D01*
X182080150Y-88988811D01*
X181927958Y-89151457D01*
X181770994Y-89305555D01*
X181609698Y-89450836D01*
X181444511Y-89587032D01*
X181275875Y-89713874D01*
X181104229Y-89831094D01*
X180930015Y-89938424D01*
X180753673Y-90035595D01*
X180575645Y-90122339D01*
X180396371Y-90198388D01*
X180216293Y-90263473D01*
X180035850Y-90317327D01*
X179855484Y-90359680D01*
X179675636Y-90390264D01*
X179496746Y-90408812D01*
X179319255Y-90415054D01*
X179223315Y-90412919D01*
X179129362Y-90406566D01*
X179037464Y-90396067D01*
X178947691Y-90381498D01*
X178860113Y-90362933D01*
X178774799Y-90340445D01*
X178691819Y-90314110D01*
X178611242Y-90284001D01*
X178533137Y-90250193D01*
X178457575Y-90212760D01*
X178384624Y-90171776D01*
X178314354Y-90127316D01*
X178246835Y-90079453D01*
X178182136Y-90028263D01*
X178120326Y-89973819D01*
X178061475Y-89916195D01*
X178005653Y-89855467D01*
X177952929Y-89791708D01*
X177903372Y-89724992D01*
X177857051Y-89655394D01*
X177814038Y-89582988D01*
X177774400Y-89507848D01*
X177738207Y-89430049D01*
X177705529Y-89349664D01*
X177676435Y-89266769D01*
X177650995Y-89181437D01*
X177629279Y-89093743D01*
X177611355Y-89003760D01*
X177597293Y-88911564D01*
X177587163Y-88817229D01*
X177581034Y-88720828D01*
X177578975Y-88622436D01*
X177585077Y-88434249D01*
X177603103Y-88245351D01*
X177632635Y-88056179D01*
X177673252Y-87867173D01*
X177724536Y-87678770D01*
X177779887Y-87510227D01*
X178965961Y-87510227D01*
X179174352Y-87456943D01*
X179368369Y-87404732D01*
X179548968Y-87353134D01*
X179717108Y-87301690D01*
X179873749Y-87249938D01*
X180019847Y-87197420D01*
X180156362Y-87143675D01*
X180284252Y-87088244D01*
X180404475Y-87030666D01*
X180517989Y-86970480D01*
X180625753Y-86907229D01*
X180728726Y-86840450D01*
X180827865Y-86769685D01*
X180924129Y-86694473D01*
X181018477Y-86614354D01*
X181111866Y-86528869D01*
X181188364Y-86454229D01*
X181260759Y-86377653D01*
X181328938Y-86299352D01*
X181392785Y-86219536D01*
X181452184Y-86138417D01*
X181507022Y-86056206D01*
X181557182Y-85973113D01*
X181602551Y-85889349D01*
X181643013Y-85805126D01*
X181678452Y-85720653D01*
X181708755Y-85636141D01*
X181733807Y-85551803D01*
X181753491Y-85467847D01*
X181767693Y-85384486D01*
X181776299Y-85301930D01*
X181779193Y-85220390D01*
X181778660Y-85192485D01*
X181777069Y-85165210D01*
X181774439Y-85138582D01*
X181770786Y-85112618D01*
X181766126Y-85087335D01*
X181760477Y-85062748D01*
X181753855Y-85038876D01*
X181746278Y-85015734D01*
X181737761Y-84993340D01*
X181728322Y-84971710D01*
X181717977Y-84950862D01*
X181706743Y-84930811D01*
X181694637Y-84911574D01*
X181681676Y-84893169D01*
X181667876Y-84875613D01*
X181653255Y-84858921D01*
X181637829Y-84843111D01*
X181621614Y-84828199D01*
X181604627Y-84814203D01*
X181586887Y-84801139D01*
X181568408Y-84789023D01*
X181549208Y-84777873D01*
X181529303Y-84767705D01*
X181508711Y-84758536D01*
X181487448Y-84750384D01*
X181465531Y-84743263D01*
X181442976Y-84737193D01*
X181419801Y-84732188D01*
X181396023Y-84728266D01*
X181371657Y-84725445D01*
X181346721Y-84723739D01*
X181321231Y-84723167D01*
X181257738Y-84726131D01*
X181192486Y-84734916D01*
X181125634Y-84749366D01*
X181057339Y-84769322D01*
X180987760Y-84794625D01*
X180917054Y-84825117D01*
X180772898Y-84901038D01*
X180626135Y-84995820D01*
X180478029Y-85108197D01*
X180329848Y-85236905D01*
X180182854Y-85380678D01*
X180038314Y-85538252D01*
X179897493Y-85708360D01*
X179761655Y-85889739D01*
X179632065Y-86081124D01*
X179509990Y-86281248D01*
X179396693Y-86488848D01*
X179293440Y-86702658D01*
X179201496Y-86921413D01*
X178965961Y-87510227D01*
X177779887Y-87510227D01*
X177786067Y-87491410D01*
X177857426Y-87305530D01*
G37*
G36*
X149270253Y-81596888D02*
G01*
X149302861Y-81599817D01*
X149335071Y-81604633D01*
X149366838Y-81611285D01*
X149398116Y-81619719D01*
X149428860Y-81629883D01*
X149459024Y-81641725D01*
X149488562Y-81655190D01*
X149517430Y-81670228D01*
X149545581Y-81686784D01*
X149572971Y-81704807D01*
X149599553Y-81724243D01*
X149625282Y-81745040D01*
X149650113Y-81767145D01*
X149673999Y-81790506D01*
X149696897Y-81815070D01*
X149718759Y-81840783D01*
X149739540Y-81867594D01*
X149759196Y-81895449D01*
X149777680Y-81924297D01*
X149794947Y-81954083D01*
X149810951Y-81984756D01*
X149825647Y-82016263D01*
X149838989Y-82048551D01*
X149850932Y-82081567D01*
X149861430Y-82115259D01*
X149870439Y-82149574D01*
X149877911Y-82184459D01*
X149883802Y-82219861D01*
X149888066Y-82255729D01*
X149890658Y-82292008D01*
X149891532Y-82328647D01*
X149890658Y-82361645D01*
X149888063Y-82394362D01*
X149883791Y-82426749D01*
X149877885Y-82458754D01*
X149870389Y-82490329D01*
X149861344Y-82521421D01*
X149850795Y-82551982D01*
X149838785Y-82581961D01*
X149825356Y-82611307D01*
X149810551Y-82639970D01*
X149794415Y-82667900D01*
X149776990Y-82695047D01*
X149758319Y-82721360D01*
X149738445Y-82746789D01*
X149717411Y-82771283D01*
X149695261Y-82794793D01*
X149672038Y-82817268D01*
X149647784Y-82838657D01*
X149622543Y-82858911D01*
X149596359Y-82877978D01*
X149569273Y-82895810D01*
X149541330Y-82912355D01*
X149512572Y-82927563D01*
X149483042Y-82941383D01*
X149452784Y-82953766D01*
X149421841Y-82964662D01*
X149390256Y-82974019D01*
X149358072Y-82981787D01*
X149325332Y-82987917D01*
X149292079Y-82992358D01*
X149258357Y-82995060D01*
X149224208Y-82995971D01*
X149189021Y-82995170D01*
X149154623Y-82992786D01*
X149121034Y-82988845D01*
X149088276Y-82983372D01*
X149056371Y-82976395D01*
X149025341Y-82967939D01*
X148995207Y-82958032D01*
X148965990Y-82946699D01*
X148937713Y-82933967D01*
X148910396Y-82919862D01*
X148884062Y-82904410D01*
X148858731Y-82887638D01*
X148834426Y-82869573D01*
X148811168Y-82850240D01*
X148788978Y-82829666D01*
X148767879Y-82807877D01*
X148747891Y-82784900D01*
X148729037Y-82760761D01*
X148711337Y-82735487D01*
X148694814Y-82709103D01*
X148679489Y-82681636D01*
X148665383Y-82653112D01*
X148652518Y-82623559D01*
X148640916Y-82593001D01*
X148630598Y-82561466D01*
X148621586Y-82528979D01*
X148613901Y-82495568D01*
X148607565Y-82461259D01*
X148602600Y-82426077D01*
X148599026Y-82390049D01*
X148596866Y-82353203D01*
X148596141Y-82315563D01*
X148596904Y-82276659D01*
X148599173Y-82238479D01*
X148602923Y-82201056D01*
X148608127Y-82164423D01*
X148614760Y-82128615D01*
X148622793Y-82093665D01*
X148632202Y-82059605D01*
X148642960Y-82026471D01*
X148655041Y-81994295D01*
X148668418Y-81963111D01*
X148683064Y-81932952D01*
X148698954Y-81903852D01*
X148716061Y-81875845D01*
X148734359Y-81848964D01*
X148753821Y-81823242D01*
X148774422Y-81798714D01*
X148796134Y-81775412D01*
X148818931Y-81753371D01*
X148842788Y-81732623D01*
X148867676Y-81713203D01*
X148893572Y-81695144D01*
X148920447Y-81678479D01*
X148948276Y-81663241D01*
X148977032Y-81649466D01*
X149006689Y-81637185D01*
X149037220Y-81626433D01*
X149068599Y-81617243D01*
X149100801Y-81609649D01*
X149133797Y-81603684D01*
X149167563Y-81599382D01*
X149202072Y-81596776D01*
X149237295Y-81595900D01*
X149270253Y-81596888D01*
G37*
D11*
X129442261Y-108989524D02*
X129442261Y-107846667D01*
X131442261Y-108418095D02*
X129442261Y-108418095D01*
X129442261Y-107370476D02*
X131442261Y-106037143D01*
X129442261Y-106037143D02*
X131442261Y-107370476D01*
X111402261Y-108703809D02*
X109402261Y-108703809D01*
X109402261Y-107941904D01*
X109497500Y-107751428D01*
X109592738Y-107656190D01*
X109783214Y-107560952D01*
X110068928Y-107560952D01*
X110259404Y-107656190D01*
X110354642Y-107751428D01*
X110449880Y-107941904D01*
X110449880Y-108703809D01*
X109402261Y-106894285D02*
X111402261Y-106418095D01*
X109973690Y-106037143D01*
X111402261Y-105656190D01*
X109402261Y-105180000D01*
X111402261Y-103275238D02*
X110449880Y-103941904D01*
X111402261Y-104418095D02*
X109402261Y-104418095D01*
X109402261Y-103656190D01*
X109497500Y-103465714D01*
X109592738Y-103370476D01*
X109783214Y-103275238D01*
X110068928Y-103275238D01*
X110259404Y-103370476D01*
X110354642Y-103465714D01*
X110449880Y-103656190D01*
X110449880Y-104418095D01*
X121442261Y-107560952D02*
X120489880Y-108227619D01*
X121442261Y-108703809D02*
X119442261Y-108703809D01*
X119442261Y-107941904D01*
X119537500Y-107751428D01*
X119632738Y-107656190D01*
X119823214Y-107560952D01*
X120108928Y-107560952D01*
X120299404Y-107656190D01*
X120394642Y-107751428D01*
X120489880Y-107941904D01*
X120489880Y-108703809D01*
X119442261Y-106894285D02*
X121442261Y-105560952D01*
X119442261Y-105560952D02*
X121442261Y-106894285D01*
M02*
