%TF.GenerationSoftware,KiCad,Pcbnew,(6.0.11)*%
%TF.CreationDate,2024-01-03T20:32:55+00:00*%
%TF.ProjectId,LeWiFiModemCase,4c655769-4669-44d6-9f64-656d43617365,rev?*%
%TF.SameCoordinates,Original*%
%TF.FileFunction,Drillmap*%
%TF.FilePolarity,Positive*%
%FSLAX45Y45*%
G04 Gerber Fmt 4.5, Leading zero omitted, Abs format (unit mm)*
G04 Created by KiCad (PCBNEW (6.0.11)) date 2024-01-03 20:32:55*
%MOMM*%
%LPD*%
G01*
G04 APERTURE LIST*
%ADD10C,0.100000*%
%ADD11C,0.200000*%
%ADD12C,0.320000*%
G04 APERTURE END LIST*
D10*
X9588750Y-10919500D02*
G75*
G03*
X9788750Y-11119500I200000J0D01*
G01*
X9787750Y-6051500D02*
G75*
G03*
X9587750Y-6251500I0J-200000D01*
G01*
X20450750Y-6251500D02*
X20451750Y-10919500D01*
X9588750Y-10919500D02*
X9587750Y-6251500D01*
X20251750Y-11119500D02*
G75*
G03*
X20451750Y-10919500I0J200000D01*
G01*
X9787750Y-6051500D02*
X20250750Y-6051500D01*
X20251750Y-11119500D02*
X9788750Y-11119500D01*
X20450750Y-6251500D02*
G75*
G03*
X20250750Y-6051500I-200000J0D01*
G01*
D11*
D12*
X9859750Y-6425500D02*
X10179750Y-6745500D01*
X10179750Y-6425500D02*
X9859750Y-6745500D01*
X9859750Y-10425500D02*
X10179750Y-10745500D01*
X10179750Y-10425500D02*
X9859750Y-10745500D01*
X19859750Y-6425500D02*
X20179750Y-6745500D01*
X20179750Y-6425500D02*
X19859750Y-6745500D01*
X19859750Y-10425500D02*
X20179750Y-10745500D01*
X20179750Y-10425500D02*
X19859750Y-10745500D01*
D11*
X9840369Y-11434976D02*
X9840369Y-11234976D01*
X9887988Y-11234976D01*
X9916560Y-11244500D01*
X9935607Y-11263548D01*
X9945131Y-11282595D01*
X9954655Y-11320690D01*
X9954655Y-11349262D01*
X9945131Y-11387357D01*
X9935607Y-11406405D01*
X9916560Y-11425452D01*
X9887988Y-11434976D01*
X9840369Y-11434976D01*
X10040369Y-11434976D02*
X10040369Y-11301643D01*
X10040369Y-11339738D02*
X10049893Y-11320690D01*
X10059417Y-11311167D01*
X10078464Y-11301643D01*
X10097512Y-11301643D01*
X10164179Y-11434976D02*
X10164179Y-11301643D01*
X10164179Y-11234976D02*
X10154655Y-11244500D01*
X10164179Y-11254024D01*
X10173702Y-11244500D01*
X10164179Y-11234976D01*
X10164179Y-11254024D01*
X10287988Y-11434976D02*
X10268940Y-11425452D01*
X10259417Y-11406405D01*
X10259417Y-11234976D01*
X10392750Y-11434976D02*
X10373702Y-11425452D01*
X10364179Y-11406405D01*
X10364179Y-11234976D01*
X10621321Y-11434976D02*
X10621321Y-11234976D01*
X10687988Y-11377833D01*
X10754655Y-11234976D01*
X10754655Y-11434976D01*
X10935607Y-11434976D02*
X10935607Y-11330214D01*
X10926083Y-11311167D01*
X10907036Y-11301643D01*
X10868940Y-11301643D01*
X10849893Y-11311167D01*
X10935607Y-11425452D02*
X10916560Y-11434976D01*
X10868940Y-11434976D01*
X10849893Y-11425452D01*
X10840369Y-11406405D01*
X10840369Y-11387357D01*
X10849893Y-11368309D01*
X10868940Y-11358786D01*
X10916560Y-11358786D01*
X10935607Y-11349262D01*
X11030845Y-11301643D02*
X11030845Y-11501643D01*
X11030845Y-11311167D02*
X11049893Y-11301643D01*
X11087988Y-11301643D01*
X11107036Y-11311167D01*
X11116560Y-11320690D01*
X11126083Y-11339738D01*
X11126083Y-11396881D01*
X11116560Y-11415928D01*
X11107036Y-11425452D01*
X11087988Y-11434976D01*
X11049893Y-11434976D01*
X11030845Y-11425452D01*
X11211798Y-11415928D02*
X11221321Y-11425452D01*
X11211798Y-11434976D01*
X11202274Y-11425452D01*
X11211798Y-11415928D01*
X11211798Y-11434976D01*
X11211798Y-11311167D02*
X11221321Y-11320690D01*
X11211798Y-11330214D01*
X11202274Y-11320690D01*
X11211798Y-11311167D01*
X11211798Y-11330214D01*
X9382750Y-11664500D02*
X9582750Y-11864500D01*
X9582750Y-11664500D02*
X9382750Y-11864500D01*
X9821321Y-11654976D02*
X9945131Y-11654976D01*
X9878464Y-11731167D01*
X9907036Y-11731167D01*
X9926083Y-11740690D01*
X9935607Y-11750214D01*
X9945131Y-11769262D01*
X9945131Y-11816881D01*
X9935607Y-11835928D01*
X9926083Y-11845452D01*
X9907036Y-11854976D01*
X9849893Y-11854976D01*
X9830845Y-11845452D01*
X9821321Y-11835928D01*
X10030845Y-11835928D02*
X10040369Y-11845452D01*
X10030845Y-11854976D01*
X10021321Y-11845452D01*
X10030845Y-11835928D01*
X10030845Y-11854976D01*
X10116560Y-11674024D02*
X10126083Y-11664500D01*
X10145131Y-11654976D01*
X10192750Y-11654976D01*
X10211798Y-11664500D01*
X10221321Y-11674024D01*
X10230845Y-11693071D01*
X10230845Y-11712119D01*
X10221321Y-11740690D01*
X10107036Y-11854976D01*
X10230845Y-11854976D01*
X10354655Y-11654976D02*
X10373702Y-11654976D01*
X10392750Y-11664500D01*
X10402274Y-11674024D01*
X10411798Y-11693071D01*
X10421321Y-11731167D01*
X10421321Y-11778786D01*
X10411798Y-11816881D01*
X10402274Y-11835928D01*
X10392750Y-11845452D01*
X10373702Y-11854976D01*
X10354655Y-11854976D01*
X10335607Y-11845452D01*
X10326083Y-11835928D01*
X10316560Y-11816881D01*
X10307036Y-11778786D01*
X10307036Y-11731167D01*
X10316560Y-11693071D01*
X10326083Y-11674024D01*
X10335607Y-11664500D01*
X10354655Y-11654976D01*
X10545131Y-11654976D02*
X10564179Y-11654976D01*
X10583226Y-11664500D01*
X10592750Y-11674024D01*
X10602274Y-11693071D01*
X10611798Y-11731167D01*
X10611798Y-11778786D01*
X10602274Y-11816881D01*
X10592750Y-11835928D01*
X10583226Y-11845452D01*
X10564179Y-11854976D01*
X10545131Y-11854976D01*
X10526083Y-11845452D01*
X10516560Y-11835928D01*
X10507036Y-11816881D01*
X10497512Y-11778786D01*
X10497512Y-11731167D01*
X10507036Y-11693071D01*
X10516560Y-11674024D01*
X10526083Y-11664500D01*
X10545131Y-11654976D01*
X10697512Y-11854976D02*
X10697512Y-11721643D01*
X10697512Y-11740690D02*
X10707036Y-11731167D01*
X10726083Y-11721643D01*
X10754655Y-11721643D01*
X10773702Y-11731167D01*
X10783226Y-11750214D01*
X10783226Y-11854976D01*
X10783226Y-11750214D02*
X10792750Y-11731167D01*
X10811798Y-11721643D01*
X10840369Y-11721643D01*
X10859417Y-11731167D01*
X10868940Y-11750214D01*
X10868940Y-11854976D01*
X10964179Y-11854976D02*
X10964179Y-11721643D01*
X10964179Y-11740690D02*
X10973702Y-11731167D01*
X10992750Y-11721643D01*
X11021321Y-11721643D01*
X11040369Y-11731167D01*
X11049893Y-11750214D01*
X11049893Y-11854976D01*
X11049893Y-11750214D02*
X11059417Y-11731167D01*
X11078464Y-11721643D01*
X11107036Y-11721643D01*
X11126083Y-11731167D01*
X11135607Y-11750214D01*
X11135607Y-11854976D01*
X11526083Y-11645452D02*
X11354655Y-11902595D01*
X11783226Y-11654976D02*
X11802274Y-11654976D01*
X11821321Y-11664500D01*
X11830845Y-11674024D01*
X11840369Y-11693071D01*
X11849893Y-11731167D01*
X11849893Y-11778786D01*
X11840369Y-11816881D01*
X11830845Y-11835928D01*
X11821321Y-11845452D01*
X11802274Y-11854976D01*
X11783226Y-11854976D01*
X11764178Y-11845452D01*
X11754655Y-11835928D01*
X11745131Y-11816881D01*
X11735607Y-11778786D01*
X11735607Y-11731167D01*
X11745131Y-11693071D01*
X11754655Y-11674024D01*
X11764178Y-11664500D01*
X11783226Y-11654976D01*
X11935607Y-11835928D02*
X11945131Y-11845452D01*
X11935607Y-11854976D01*
X11926083Y-11845452D01*
X11935607Y-11835928D01*
X11935607Y-11854976D01*
X12135607Y-11854976D02*
X12021321Y-11854976D01*
X12078464Y-11854976D02*
X12078464Y-11654976D01*
X12059417Y-11683548D01*
X12040369Y-11702595D01*
X12021321Y-11712119D01*
X12211798Y-11674024D02*
X12221321Y-11664500D01*
X12240369Y-11654976D01*
X12287988Y-11654976D01*
X12307036Y-11664500D01*
X12316559Y-11674024D01*
X12326083Y-11693071D01*
X12326083Y-11712119D01*
X12316559Y-11740690D01*
X12202274Y-11854976D01*
X12326083Y-11854976D01*
X12497512Y-11654976D02*
X12459417Y-11654976D01*
X12440369Y-11664500D01*
X12430845Y-11674024D01*
X12411798Y-11702595D01*
X12402274Y-11740690D01*
X12402274Y-11816881D01*
X12411798Y-11835928D01*
X12421321Y-11845452D01*
X12440369Y-11854976D01*
X12478464Y-11854976D01*
X12497512Y-11845452D01*
X12507036Y-11835928D01*
X12516559Y-11816881D01*
X12516559Y-11769262D01*
X12507036Y-11750214D01*
X12497512Y-11740690D01*
X12478464Y-11731167D01*
X12440369Y-11731167D01*
X12421321Y-11740690D01*
X12411798Y-11750214D01*
X12402274Y-11769262D01*
X12640369Y-11654976D02*
X12659417Y-11654976D01*
X12678464Y-11664500D01*
X12687988Y-11674024D01*
X12697512Y-11693071D01*
X12707036Y-11731167D01*
X12707036Y-11778786D01*
X12697512Y-11816881D01*
X12687988Y-11835928D01*
X12678464Y-11845452D01*
X12659417Y-11854976D01*
X12640369Y-11854976D01*
X12621321Y-11845452D01*
X12611798Y-11835928D01*
X12602274Y-11816881D01*
X12592750Y-11778786D01*
X12592750Y-11731167D01*
X12602274Y-11693071D01*
X12611798Y-11674024D01*
X12621321Y-11664500D01*
X12640369Y-11654976D01*
X12783226Y-11654976D02*
X12783226Y-11693071D01*
X12859417Y-11654976D02*
X12859417Y-11693071D01*
X13154655Y-11931167D02*
X13145131Y-11921643D01*
X13126083Y-11893071D01*
X13116559Y-11874024D01*
X13107036Y-11845452D01*
X13097512Y-11797833D01*
X13097512Y-11759738D01*
X13107036Y-11712119D01*
X13116559Y-11683548D01*
X13126083Y-11664500D01*
X13145131Y-11635928D01*
X13154655Y-11626405D01*
X13316559Y-11721643D02*
X13316559Y-11854976D01*
X13268940Y-11645452D02*
X13221321Y-11788309D01*
X13345131Y-11788309D01*
X13573702Y-11854976D02*
X13573702Y-11654976D01*
X13659417Y-11854976D02*
X13659417Y-11750214D01*
X13649893Y-11731167D01*
X13630845Y-11721643D01*
X13602274Y-11721643D01*
X13583226Y-11731167D01*
X13573702Y-11740690D01*
X13783226Y-11854976D02*
X13764178Y-11845452D01*
X13754655Y-11835928D01*
X13745131Y-11816881D01*
X13745131Y-11759738D01*
X13754655Y-11740690D01*
X13764178Y-11731167D01*
X13783226Y-11721643D01*
X13811798Y-11721643D01*
X13830845Y-11731167D01*
X13840369Y-11740690D01*
X13849893Y-11759738D01*
X13849893Y-11816881D01*
X13840369Y-11835928D01*
X13830845Y-11845452D01*
X13811798Y-11854976D01*
X13783226Y-11854976D01*
X13964178Y-11854976D02*
X13945131Y-11845452D01*
X13935607Y-11826405D01*
X13935607Y-11654976D01*
X14116559Y-11845452D02*
X14097512Y-11854976D01*
X14059417Y-11854976D01*
X14040369Y-11845452D01*
X14030845Y-11826405D01*
X14030845Y-11750214D01*
X14040369Y-11731167D01*
X14059417Y-11721643D01*
X14097512Y-11721643D01*
X14116559Y-11731167D01*
X14126083Y-11750214D01*
X14126083Y-11769262D01*
X14030845Y-11788309D01*
X14202274Y-11845452D02*
X14221321Y-11854976D01*
X14259417Y-11854976D01*
X14278464Y-11845452D01*
X14287988Y-11826405D01*
X14287988Y-11816881D01*
X14278464Y-11797833D01*
X14259417Y-11788309D01*
X14230845Y-11788309D01*
X14211798Y-11778786D01*
X14202274Y-11759738D01*
X14202274Y-11750214D01*
X14211798Y-11731167D01*
X14230845Y-11721643D01*
X14259417Y-11721643D01*
X14278464Y-11731167D01*
X14354655Y-11931167D02*
X14364178Y-11921643D01*
X14383226Y-11893071D01*
X14392750Y-11874024D01*
X14402274Y-11845452D01*
X14411798Y-11797833D01*
X14411798Y-11759738D01*
X14402274Y-11712119D01*
X14392750Y-11683548D01*
X14383226Y-11664500D01*
X14364178Y-11635928D01*
X14354655Y-11626405D01*
X14716559Y-11931167D02*
X14707036Y-11921643D01*
X14687988Y-11893071D01*
X14678464Y-11874024D01*
X14668940Y-11845452D01*
X14659417Y-11797833D01*
X14659417Y-11759738D01*
X14668940Y-11712119D01*
X14678464Y-11683548D01*
X14687988Y-11664500D01*
X14707036Y-11635928D01*
X14716559Y-11626405D01*
X14792750Y-11721643D02*
X14792750Y-11854976D01*
X14792750Y-11740690D02*
X14802274Y-11731167D01*
X14821321Y-11721643D01*
X14849893Y-11721643D01*
X14868940Y-11731167D01*
X14878464Y-11750214D01*
X14878464Y-11854976D01*
X15002274Y-11854976D02*
X14983226Y-11845452D01*
X14973702Y-11835928D01*
X14964178Y-11816881D01*
X14964178Y-11759738D01*
X14973702Y-11740690D01*
X14983226Y-11731167D01*
X15002274Y-11721643D01*
X15030845Y-11721643D01*
X15049893Y-11731167D01*
X15059417Y-11740690D01*
X15068940Y-11759738D01*
X15068940Y-11816881D01*
X15059417Y-11835928D01*
X15049893Y-11845452D01*
X15030845Y-11854976D01*
X15002274Y-11854976D01*
X15126083Y-11721643D02*
X15202274Y-11721643D01*
X15154655Y-11654976D02*
X15154655Y-11826405D01*
X15164178Y-11845452D01*
X15183226Y-11854976D01*
X15202274Y-11854976D01*
X15421321Y-11721643D02*
X15421321Y-11921643D01*
X15421321Y-11731167D02*
X15440369Y-11721643D01*
X15478464Y-11721643D01*
X15497512Y-11731167D01*
X15507036Y-11740690D01*
X15516559Y-11759738D01*
X15516559Y-11816881D01*
X15507036Y-11835928D01*
X15497512Y-11845452D01*
X15478464Y-11854976D01*
X15440369Y-11854976D01*
X15421321Y-11845452D01*
X15630845Y-11854976D02*
X15611798Y-11845452D01*
X15602274Y-11826405D01*
X15602274Y-11654976D01*
X15792750Y-11854976D02*
X15792750Y-11750214D01*
X15783226Y-11731167D01*
X15764178Y-11721643D01*
X15726083Y-11721643D01*
X15707036Y-11731167D01*
X15792750Y-11845452D02*
X15773702Y-11854976D01*
X15726083Y-11854976D01*
X15707036Y-11845452D01*
X15697512Y-11826405D01*
X15697512Y-11807357D01*
X15707036Y-11788309D01*
X15726083Y-11778786D01*
X15773702Y-11778786D01*
X15792750Y-11769262D01*
X15859417Y-11721643D02*
X15935607Y-11721643D01*
X15887988Y-11654976D02*
X15887988Y-11826405D01*
X15897512Y-11845452D01*
X15916559Y-11854976D01*
X15935607Y-11854976D01*
X16078464Y-11845452D02*
X16059417Y-11854976D01*
X16021321Y-11854976D01*
X16002274Y-11845452D01*
X15992750Y-11826405D01*
X15992750Y-11750214D01*
X16002274Y-11731167D01*
X16021321Y-11721643D01*
X16059417Y-11721643D01*
X16078464Y-11731167D01*
X16087988Y-11750214D01*
X16087988Y-11769262D01*
X15992750Y-11788309D01*
X16259417Y-11854976D02*
X16259417Y-11654976D01*
X16259417Y-11845452D02*
X16240369Y-11854976D01*
X16202274Y-11854976D01*
X16183226Y-11845452D01*
X16173702Y-11835928D01*
X16164178Y-11816881D01*
X16164178Y-11759738D01*
X16173702Y-11740690D01*
X16183226Y-11731167D01*
X16202274Y-11721643D01*
X16240369Y-11721643D01*
X16259417Y-11731167D01*
X16335607Y-11931167D02*
X16345131Y-11921643D01*
X16364178Y-11893071D01*
X16373702Y-11874024D01*
X16383226Y-11845452D01*
X16392750Y-11797833D01*
X16392750Y-11759738D01*
X16383226Y-11712119D01*
X16373702Y-11683548D01*
X16364178Y-11664500D01*
X16345131Y-11635928D01*
X16335607Y-11626405D01*
M02*
