M48
; DRILL file {KiCad (6.0.11)} date Wed Jan  3 20:30:27 2024
; FORMAT={-:-/ absolute / metric / decimal}
; #@! TF.CreationDate,2024-01-03T20:30:27+00:00
; #@! TF.GenerationSoftware,Kicad,Pcbnew,(6.0.11)
; #@! TF.FileFunction,Plated,1,2,PTH
FMAT,2
METRIC
; #@! TA.AperFunction,Plated,PTH,ViaDrill
T1C0.400
; #@! TA.AperFunction,Plated,PTH,ComponentDrill
T2C0.800
; #@! TA.AperFunction,Plated,PTH,ComponentDrill
T3C1.000
; #@! TA.AperFunction,Plated,PTH,ComponentDrill
T4C3.200
%
G90
G05
T1
X78.2Y-129.88
X87.91Y-129.85
X96.39Y-123.99
X97.82Y-129.85
X103.13Y-111.02
X103.31Y-109.8
X107.079Y-107.617
X108.055Y-107.4
X112.072Y-109.8
X112.072Y-111.14
X112.712Y-100.2
X114.71Y-103.71
T2
X123.28Y-96.885
X123.28Y-98.885
T3
X79.767Y-91.99
X81.153Y-89.15
X82.537Y-91.99
X83.922Y-89.15
X85.307Y-91.99
X86.692Y-89.15
X87.95Y-98.67
X87.95Y-101.21
X88.078Y-91.99
X89.462Y-89.15
X90.49Y-98.67
X90.49Y-101.21
X90.847Y-91.99
X92.233Y-89.15
X93.03Y-98.67
X93.03Y-101.21
X93.617Y-91.99
X95.002Y-89.15
X96.387Y-91.99
X97.772Y-89.15
X99.157Y-91.99
X100.542Y-89.15
X101.927Y-91.99
X103.312Y-89.15
X104.697Y-91.99
X106.082Y-89.15
X107.468Y-91.99
X108.852Y-89.15
X110.237Y-91.99
X111.622Y-89.15
X113.007Y-91.99
X129.123Y-98.93
X131.662Y-98.93
X137.135Y-89.35
X137.135Y-91.89
X137.135Y-94.43
X137.135Y-96.97
X137.135Y-99.51
X137.135Y-102.05
X137.135Y-104.59
X137.135Y-107.13
X159.995Y-89.35
X159.995Y-91.89
X159.995Y-94.43
X159.995Y-96.97
X159.995Y-99.51
X159.995Y-102.05
X159.995Y-104.59
X159.995Y-107.13
T4
X72.837Y-90.57
X119.938Y-90.57
T3
X125.697Y-90.71G85X125.697Y-92.71
G05
X131.398Y-88.71G85X129.398Y-88.71
G05
X131.398Y-94.71G85X129.398Y-94.71
G05
T0
M30
