%TF.GenerationSoftware,KiCad,Pcbnew,(6.0.11)*%
%TF.CreationDate,2024-01-03T20:30:30+00:00*%
%TF.ProjectId,LeWiFiModem,4c655769-4669-44d6-9f64-656d2e6b6963,rev?*%
%TF.SameCoordinates,Original*%
%TF.FileFunction,Paste,Top*%
%TF.FilePolarity,Positive*%
%FSLAX46Y46*%
G04 Gerber Fmt 4.6, Leading zero omitted, Abs format (unit mm)*
G04 Created by KiCad (PCBNEW (6.0.11)) date 2024-01-03 20:30:30*
%MOMM*%
%LPD*%
G01*
G04 APERTURE LIST*
G04 Aperture macros list*
%AMRoundRect*
0 Rectangle with rounded corners*
0 $1 Rounding radius*
0 $2 $3 $4 $5 $6 $7 $8 $9 X,Y pos of 4 corners*
0 Add a 4 corners polygon primitive as box body*
4,1,4,$2,$3,$4,$5,$6,$7,$8,$9,$2,$3,0*
0 Add four circle primitives for the rounded corners*
1,1,$1+$1,$2,$3*
1,1,$1+$1,$4,$5*
1,1,$1+$1,$6,$7*
1,1,$1+$1,$8,$9*
0 Add four rect primitives between the rounded corners*
20,1,$1+$1,$2,$3,$4,$5,0*
20,1,$1+$1,$4,$5,$6,$7,0*
20,1,$1+$1,$6,$7,$8,$9,0*
20,1,$1+$1,$8,$9,$2,$3,0*%
G04 Aperture macros list end*
%ADD10RoundRect,0.250000X0.475000X-0.250000X0.475000X0.250000X-0.475000X0.250000X-0.475000X-0.250000X0*%
%ADD11RoundRect,0.243750X0.243750X0.456250X-0.243750X0.456250X-0.243750X-0.456250X0.243750X-0.456250X0*%
%ADD12RoundRect,0.250000X-0.475000X0.250000X-0.475000X-0.250000X0.475000X-0.250000X0.475000X0.250000X0*%
%ADD13RoundRect,0.250000X0.262500X0.450000X-0.262500X0.450000X-0.262500X-0.450000X0.262500X-0.450000X0*%
%ADD14R,1.500000X0.650000*%
G04 APERTURE END LIST*
D10*
%TO.C,C1*%
X101482500Y-101960000D03*
X101482500Y-100060000D03*
%TD*%
D11*
%TO.C,D1*%
X76487500Y-129845000D03*
X74612500Y-129845000D03*
%TD*%
%TO.C,D3*%
X96487500Y-129845000D03*
X94612500Y-129845000D03*
%TD*%
D12*
%TO.C,C5*%
X112632500Y-101820000D03*
X112632500Y-103720000D03*
%TD*%
%TO.C,C3*%
X101482500Y-103760000D03*
X101482500Y-105660000D03*
%TD*%
D11*
%TO.C,D2*%
X86487500Y-129845000D03*
X84612500Y-129845000D03*
%TD*%
D13*
%TO.C,R1*%
X76482500Y-126950000D03*
X74657500Y-126950000D03*
%TD*%
D14*
%TO.C,U2*%
X104702500Y-102125000D03*
X104702500Y-103395000D03*
X104702500Y-104665000D03*
X104702500Y-105935000D03*
X104702500Y-107205000D03*
X104702500Y-108475000D03*
X104702500Y-109745000D03*
X104702500Y-111015000D03*
X110102500Y-111015000D03*
X110102500Y-109745000D03*
X110102500Y-108475000D03*
X110102500Y-107205000D03*
X110102500Y-105935000D03*
X110102500Y-104665000D03*
X110102500Y-103395000D03*
X110102500Y-102125000D03*
%TD*%
D13*
%TO.C,R3*%
X96482500Y-127010000D03*
X94657500Y-127010000D03*
%TD*%
%TO.C,R2*%
X86482500Y-127077142D03*
X84657500Y-127077142D03*
%TD*%
D12*
%TO.C,C2*%
X101482500Y-107440000D03*
X101482500Y-109340000D03*
%TD*%
%TO.C,C4*%
X101482500Y-111180000D03*
X101482500Y-113080000D03*
%TD*%
M02*
