%TF.GenerationSoftware,KiCad,Pcbnew,(6.0.11)*%
%TF.CreationDate,2024-01-03T20:30:30+00:00*%
%TF.ProjectId,LeWiFiModem,4c655769-4669-44d6-9f64-656d2e6b6963,rev?*%
%TF.SameCoordinates,Original*%
%TF.FileFunction,Copper,L1,Top*%
%TF.FilePolarity,Positive*%
%FSLAX46Y46*%
G04 Gerber Fmt 4.6, Leading zero omitted, Abs format (unit mm)*
G04 Created by KiCad (PCBNEW (6.0.11)) date 2024-01-03 20:30:30*
%MOMM*%
%LPD*%
G01*
G04 APERTURE LIST*
G04 Aperture macros list*
%AMRoundRect*
0 Rectangle with rounded corners*
0 $1 Rounding radius*
0 $2 $3 $4 $5 $6 $7 $8 $9 X,Y pos of 4 corners*
0 Add a 4 corners polygon primitive as box body*
4,1,4,$2,$3,$4,$5,$6,$7,$8,$9,$2,$3,0*
0 Add four circle primitives for the rounded corners*
1,1,$1+$1,$2,$3*
1,1,$1+$1,$4,$5*
1,1,$1+$1,$6,$7*
1,1,$1+$1,$8,$9*
0 Add four rect primitives between the rounded corners*
20,1,$1+$1,$2,$3,$4,$5,0*
20,1,$1+$1,$4,$5,$6,$7,0*
20,1,$1+$1,$6,$7,$8,$9,0*
20,1,$1+$1,$8,$9,$2,$3,0*%
G04 Aperture macros list end*
%TA.AperFunction,SMDPad,CuDef*%
%ADD10RoundRect,0.250000X0.475000X-0.250000X0.475000X0.250000X-0.475000X0.250000X-0.475000X-0.250000X0*%
%TD*%
%TA.AperFunction,ComponentPad*%
%ADD11R,3.500000X3.500000*%
%TD*%
%TA.AperFunction,ComponentPad*%
%ADD12RoundRect,0.750000X-1.000000X0.750000X-1.000000X-0.750000X1.000000X-0.750000X1.000000X0.750000X0*%
%TD*%
%TA.AperFunction,ComponentPad*%
%ADD13RoundRect,0.875000X-0.875000X0.875000X-0.875000X-0.875000X0.875000X-0.875000X0.875000X0.875000X0*%
%TD*%
%TA.AperFunction,SMDPad,CuDef*%
%ADD14RoundRect,0.243750X0.243750X0.456250X-0.243750X0.456250X-0.243750X-0.456250X0.243750X-0.456250X0*%
%TD*%
%TA.AperFunction,ComponentPad*%
%ADD15R,2.000000X2.000000*%
%TD*%
%TA.AperFunction,ComponentPad*%
%ADD16O,2.000000X1.600000*%
%TD*%
%TA.AperFunction,ComponentPad*%
%ADD17R,1.600000X1.600000*%
%TD*%
%TA.AperFunction,ComponentPad*%
%ADD18C,1.600000*%
%TD*%
%TA.AperFunction,SMDPad,CuDef*%
%ADD19RoundRect,0.250000X-0.475000X0.250000X-0.475000X-0.250000X0.475000X-0.250000X0.475000X0.250000X0*%
%TD*%
%TA.AperFunction,SMDPad,CuDef*%
%ADD20RoundRect,0.250000X0.262500X0.450000X-0.262500X0.450000X-0.262500X-0.450000X0.262500X-0.450000X0*%
%TD*%
%TA.AperFunction,ComponentPad*%
%ADD21R,1.700000X1.700000*%
%TD*%
%TA.AperFunction,ComponentPad*%
%ADD22O,1.700000X1.700000*%
%TD*%
%TA.AperFunction,SMDPad,CuDef*%
%ADD23R,1.500000X0.650000*%
%TD*%
%TA.AperFunction,ComponentPad*%
%ADD24C,4.000000*%
%TD*%
%TA.AperFunction,ViaPad*%
%ADD25C,0.800000*%
%TD*%
%TA.AperFunction,Conductor*%
%ADD26C,0.500000*%
%TD*%
%TA.AperFunction,Conductor*%
%ADD27C,0.250000*%
%TD*%
%TA.AperFunction,Conductor*%
%ADD28C,0.200000*%
%TD*%
G04 APERTURE END LIST*
D10*
%TO.P,C1,1*%
%TO.N,/C1+*%
X101482500Y-101960000D03*
%TO.P,C1,2*%
%TO.N,/C1-*%
X101482500Y-100060000D03*
%TD*%
D11*
%TO.P,J2,1*%
%TO.N,+5V*%
X130397500Y-94710000D03*
D12*
%TO.P,J2,2*%
%TO.N,GND*%
X130397500Y-88710000D03*
D13*
%TO.P,J2,3*%
%TO.N,N/C*%
X125697500Y-91710000D03*
%TD*%
D14*
%TO.P,D1,1,K*%
%TO.N,GND*%
X76487500Y-129845000D03*
%TO.P,D1,2,A*%
%TO.N,Net-(D1-Pad2)*%
X74612500Y-129845000D03*
%TD*%
D15*
%TO.P,U1,1,~{RST}*%
%TO.N,unconnected-(U1-Pad1)*%
X159995000Y-107130000D03*
D16*
%TO.P,U1,2,A0*%
%TO.N,unconnected-(U1-Pad2)*%
X159995000Y-104590000D03*
%TO.P,U1,3,D0*%
%TO.N,unconnected-(U1-Pad3)*%
X159995000Y-102050000D03*
%TO.P,U1,4,SCK/D5*%
%TO.N,unconnected-(U1-Pad4)*%
X159995000Y-99510000D03*
%TO.P,U1,5,MISO/D6*%
%TO.N,unconnected-(U1-Pad5)*%
X159995000Y-96970000D03*
%TO.P,U1,6,MOSI/D7*%
%TO.N,unconnected-(U1-Pad6)*%
X159995000Y-94430000D03*
%TO.P,U1,7,CS/D8*%
%TO.N,unconnected-(U1-Pad7)*%
X159995000Y-91890000D03*
%TO.P,U1,8,3V3*%
%TO.N,+3.3V*%
X159995000Y-89350000D03*
%TO.P,U1,9,5V*%
%TO.N,+5V*%
X137135000Y-89350000D03*
%TO.P,U1,10,GND*%
%TO.N,GND*%
X137135000Y-91890000D03*
%TO.P,U1,11,D4*%
%TO.N,unconnected-(U1-Pad11)*%
X137135000Y-94430000D03*
%TO.P,U1,12,D3*%
%TO.N,unconnected-(U1-Pad12)*%
X137135000Y-96970000D03*
%TO.P,U1,13,SDA/D2*%
%TO.N,/RTS0*%
X137135000Y-99510000D03*
%TO.P,U1,14,SCL/D1*%
%TO.N,/CTS0*%
X137135000Y-102050000D03*
%TO.P,U1,15,RX*%
%TO.N,/R1OUT*%
X137135000Y-104590000D03*
%TO.P,U1,16,TX*%
%TO.N,/T1IN*%
X137135000Y-107130000D03*
%TD*%
D14*
%TO.P,D3,1,K*%
%TO.N,/T1IN*%
X96487500Y-129845000D03*
%TO.P,D3,2,A*%
%TO.N,Net-(D3-Pad2)*%
X94612500Y-129845000D03*
%TD*%
D17*
%TO.P,C6,1*%
%TO.N,+5V*%
X123280000Y-98885113D03*
D18*
%TO.P,C6,2*%
%TO.N,GND*%
X123280000Y-96885113D03*
%TD*%
D19*
%TO.P,C5,1*%
%TO.N,+3.3V*%
X112632500Y-101820000D03*
%TO.P,C5,2*%
%TO.N,GND*%
X112632500Y-103720000D03*
%TD*%
%TO.P,C3,1*%
%TO.N,/V+*%
X101482500Y-103760000D03*
%TO.P,C3,2*%
%TO.N,GND*%
X101482500Y-105660000D03*
%TD*%
D14*
%TO.P,D2,1,K*%
%TO.N,/R1OUT*%
X86487500Y-129845000D03*
%TO.P,D2,2,A*%
%TO.N,Net-(D2-Pad2)*%
X84612500Y-129845000D03*
%TD*%
D20*
%TO.P,R1,1*%
%TO.N,+3.3V*%
X76482500Y-126950000D03*
%TO.P,R1,2*%
%TO.N,Net-(D1-Pad2)*%
X74657500Y-126950000D03*
%TD*%
D21*
%TO.P,J1,1,Pin_1*%
%TO.N,+5V*%
X129122500Y-98930000D03*
D22*
%TO.P,J1,2,Pin_2*%
%TO.N,GND*%
X131662500Y-98930000D03*
%TD*%
D23*
%TO.P,U2,1,C1+*%
%TO.N,/C1+*%
X104702500Y-102125000D03*
%TO.P,U2,2,V+*%
%TO.N,/V+*%
X104702500Y-103395000D03*
%TO.P,U2,3,C1-*%
%TO.N,/C1-*%
X104702500Y-104665000D03*
%TO.P,U2,4,C2+*%
%TO.N,/C2+*%
X104702500Y-105935000D03*
%TO.P,U2,5,C2-*%
%TO.N,/C2-*%
X104702500Y-107205000D03*
%TO.P,U2,6,V-*%
%TO.N,/V-*%
X104702500Y-108475000D03*
%TO.P,U2,7,T2OUT*%
%TO.N,/RTS{slash}DSR*%
X104702500Y-109745000D03*
%TO.P,U2,8,R2IN*%
%TO.N,/CTS{slash}DTR*%
X104702500Y-111015000D03*
%TO.P,U2,9,R2OUT*%
%TO.N,/CTS0*%
X110102500Y-111015000D03*
%TO.P,U2,10,T2IN*%
%TO.N,/RTS0*%
X110102500Y-109745000D03*
%TO.P,U2,11,T1IN*%
%TO.N,/T1IN*%
X110102500Y-108475000D03*
%TO.P,U2,12,R1OUT*%
%TO.N,/R1OUT*%
X110102500Y-107205000D03*
%TO.P,U2,13,R1IN*%
%TO.N,/R1IN*%
X110102500Y-105935000D03*
%TO.P,U2,14,T1OUT*%
%TO.N,/T1OUT*%
X110102500Y-104665000D03*
%TO.P,U2,15,GND*%
%TO.N,GND*%
X110102500Y-103395000D03*
%TO.P,U2,16,VCC*%
%TO.N,+3.3V*%
X110102500Y-102125000D03*
%TD*%
D20*
%TO.P,R3,1*%
%TO.N,+3.3V*%
X96482500Y-127010000D03*
%TO.P,R3,2*%
%TO.N,Net-(D3-Pad2)*%
X94657500Y-127010000D03*
%TD*%
D21*
%TO.P,JP2,1,A*%
%TO.N,/CTS1*%
X87950000Y-98670000D03*
D22*
%TO.P,JP2,2,C*%
%TO.N,/CTS{slash}DTR*%
X90490000Y-98670000D03*
%TO.P,JP2,3,B*%
%TO.N,/DTR1*%
X93030000Y-98670000D03*
%TD*%
D20*
%TO.P,R2,1*%
%TO.N,+3.3V*%
X86482500Y-127077142D03*
%TO.P,R2,2*%
%TO.N,Net-(D2-Pad2)*%
X84657500Y-127077142D03*
%TD*%
D21*
%TO.P,JP1,1,A*%
%TO.N,/RTS1*%
X87950000Y-101210000D03*
D22*
%TO.P,JP1,2,C*%
%TO.N,/RTS{slash}DSR*%
X90490000Y-101210000D03*
%TO.P,JP1,3,B*%
%TO.N,/DSR1*%
X93030000Y-101210000D03*
%TD*%
D19*
%TO.P,C2,1*%
%TO.N,/C2+*%
X101482500Y-107440000D03*
%TO.P,C2,2*%
%TO.N,/C2-*%
X101482500Y-109340000D03*
%TD*%
D24*
%TO.P,J3,0*%
%TO.N,N/C*%
X119937500Y-90570331D03*
X72837500Y-90570331D03*
D17*
%TO.P,J3,1,1*%
%TO.N,unconnected-(J3-Pad1)*%
X79767500Y-91990331D03*
D18*
%TO.P,J3,2,2*%
%TO.N,/R1IN*%
X82537500Y-91990331D03*
%TO.P,J3,3,3*%
%TO.N,/T1OUT*%
X85307500Y-91990331D03*
%TO.P,J3,4,4*%
%TO.N,/CTS1*%
X88077500Y-91990331D03*
%TO.P,J3,5,5*%
%TO.N,/RTS1*%
X90847500Y-91990331D03*
%TO.P,J3,6,6*%
%TO.N,/DSR1*%
X93617500Y-91990331D03*
%TO.P,J3,7,7*%
%TO.N,GND*%
X96387500Y-91990331D03*
%TO.P,J3,8,8*%
%TO.N,unconnected-(J3-Pad8)*%
X99157500Y-91990331D03*
%TO.P,J3,9,9*%
%TO.N,unconnected-(J3-Pad9)*%
X101927500Y-91990331D03*
%TO.P,J3,10,10*%
%TO.N,unconnected-(J3-Pad10)*%
X104697500Y-91990331D03*
%TO.P,J3,11,11*%
%TO.N,unconnected-(J3-Pad11)*%
X107467500Y-91990331D03*
%TO.P,J3,12,12*%
%TO.N,unconnected-(J3-Pad12)*%
X110237500Y-91990331D03*
%TO.P,J3,13,13*%
%TO.N,unconnected-(J3-Pad13)*%
X113007500Y-91990331D03*
%TO.P,J3,14,P14*%
%TO.N,unconnected-(J3-Pad14)*%
X81152500Y-89150331D03*
%TO.P,J3,15,P15*%
%TO.N,unconnected-(J3-Pad15)*%
X83922500Y-89150331D03*
%TO.P,J3,16,P16*%
%TO.N,unconnected-(J3-Pad16)*%
X86692500Y-89150331D03*
%TO.P,J3,17,P17*%
%TO.N,unconnected-(J3-Pad17)*%
X89462500Y-89150331D03*
%TO.P,J3,18,P18*%
%TO.N,unconnected-(J3-Pad18)*%
X92232500Y-89150331D03*
%TO.P,J3,19,P19*%
%TO.N,unconnected-(J3-Pad19)*%
X95002500Y-89150331D03*
%TO.P,J3,20,P20*%
%TO.N,/DTR1*%
X97772500Y-89150331D03*
%TO.P,J3,21,P21*%
%TO.N,unconnected-(J3-Pad21)*%
X100542500Y-89150331D03*
%TO.P,J3,22,P22*%
%TO.N,unconnected-(J3-Pad22)*%
X103312500Y-89150331D03*
%TO.P,J3,23,P23*%
%TO.N,unconnected-(J3-Pad23)*%
X106082500Y-89150331D03*
%TO.P,J3,24,P24*%
%TO.N,unconnected-(J3-Pad24)*%
X108852500Y-89150331D03*
%TO.P,J3,25,P25*%
%TO.N,unconnected-(J3-Pad25)*%
X111622500Y-89150331D03*
%TD*%
D19*
%TO.P,C4,1*%
%TO.N,/V-*%
X101482500Y-111180000D03*
%TO.P,C4,2*%
%TO.N,GND*%
X101482500Y-113080000D03*
%TD*%
D25*
%TO.N,+3.3V*%
X112712500Y-100200000D03*
X96390000Y-123990000D03*
%TO.N,GND*%
X114710000Y-103710000D03*
X78200000Y-129880000D03*
%TO.N,/RTS0*%
X112072500Y-109800000D03*
%TO.N,/CTS0*%
X112072500Y-111140000D03*
%TO.N,/R1OUT*%
X87910000Y-129850000D03*
X107079500Y-107616546D03*
%TO.N,/T1IN*%
X97820000Y-129850000D03*
X108055236Y-107399888D03*
%TO.N,/RTS{slash}DSR*%
X103310000Y-109800000D03*
%TO.N,/CTS{slash}DTR*%
X103130000Y-111020000D03*
%TD*%
D26*
%TO.N,+5V*%
X130397500Y-96132500D02*
X129120000Y-97410000D01*
X129120000Y-97410000D02*
X129122500Y-97412500D01*
X129122500Y-98930000D02*
X123324887Y-98930000D01*
X129122500Y-97412500D02*
X129122500Y-98930000D01*
X130397500Y-94710000D02*
X135757500Y-89350000D01*
X130397500Y-94710000D02*
X130397500Y-96132500D01*
X135757500Y-89350000D02*
X137135000Y-89350000D01*
X123324887Y-98930000D02*
X123280000Y-98885113D01*
D27*
%TO.N,Net-(D1-Pad2)*%
X74657500Y-129800000D02*
X74612500Y-129845000D01*
X74657500Y-126950000D02*
X74657500Y-129800000D01*
%TO.N,+3.3V*%
X85510000Y-125400000D02*
X86482500Y-126372500D01*
X112712500Y-101740000D02*
X112632500Y-101820000D01*
X96390000Y-126917500D02*
X96482500Y-127010000D01*
X96390000Y-123990000D02*
X96390000Y-126917500D01*
X78032500Y-125400000D02*
X85510000Y-125400000D01*
D26*
X112712500Y-100200000D02*
X112712500Y-101740000D01*
D27*
X76482500Y-126950000D02*
X78032500Y-125400000D01*
X96482500Y-126972500D02*
X96482500Y-127010000D01*
X86482500Y-127077142D02*
X88079642Y-125480000D01*
X94990000Y-125480000D02*
X96482500Y-126972500D01*
X88079642Y-125480000D02*
X94990000Y-125480000D01*
X112632500Y-101820000D02*
X112327500Y-102125000D01*
X86482500Y-126372500D02*
X86482500Y-127077142D01*
X112327500Y-102125000D02*
X110102500Y-102125000D01*
%TO.N,GND*%
X112632500Y-103720000D02*
X112307500Y-103395000D01*
X112307500Y-103395000D02*
X110102500Y-103395000D01*
%TO.N,/RTS0*%
X110102500Y-109745000D02*
X112017500Y-109745000D01*
X112017500Y-109745000D02*
X112072500Y-109800000D01*
%TO.N,/CTS0*%
X110102500Y-111015000D02*
X111947500Y-111015000D01*
X111947500Y-111015000D02*
X112072500Y-111140000D01*
%TO.N,/R1OUT*%
X119580000Y-104590000D02*
X137135000Y-104590000D01*
X109572888Y-106675388D02*
X107679957Y-106675388D01*
X107079500Y-107275845D02*
X107079500Y-107616546D01*
X110102500Y-107205000D02*
X109572888Y-106675388D01*
X107679957Y-106675388D02*
X107079500Y-107275845D01*
X116965000Y-107205000D02*
X119580000Y-104590000D01*
X110102500Y-107205000D02*
X116965000Y-107205000D01*
X86487500Y-129845000D02*
X87905000Y-129845000D01*
X87905000Y-129845000D02*
X87910000Y-129850000D01*
%TO.N,/T1IN*%
X109130348Y-108475000D02*
X108055236Y-107399888D01*
X110102500Y-108475000D02*
X109130348Y-108475000D01*
X118110000Y-107130000D02*
X137135000Y-107130000D01*
X96487500Y-129845000D02*
X97815000Y-129845000D01*
X97815000Y-129845000D02*
X97820000Y-129850000D01*
X116765000Y-108475000D02*
X118110000Y-107130000D01*
X110102500Y-108475000D02*
X116765000Y-108475000D01*
%TO.N,/T1OUT*%
X106989501Y-101977001D02*
X106989501Y-101313811D01*
X109677500Y-104665000D02*
X106989501Y-101977001D01*
X100435690Y-94760000D02*
X88077169Y-94760000D01*
X110102500Y-104665000D02*
X109677500Y-104665000D01*
X88077169Y-94760000D02*
X85307500Y-91990331D01*
X106989501Y-101313811D02*
X100435690Y-94760000D01*
%TO.N,/R1IN*%
X85756670Y-95209501D02*
X82537500Y-91990331D01*
X106540000Y-101500000D02*
X100249501Y-95209501D01*
X100249501Y-95209501D02*
X85756670Y-95209501D01*
X109677500Y-105935000D02*
X106540000Y-102797500D01*
X106540000Y-102797500D02*
X106540000Y-101500000D01*
X110102500Y-105935000D02*
X109677500Y-105935000D01*
%TO.N,/RTS{slash}DSR*%
X104702500Y-109745000D02*
X103365000Y-109745000D01*
X103365000Y-109745000D02*
X103310000Y-109800000D01*
D28*
%TO.N,/C1+*%
X101482500Y-101960000D02*
X101647500Y-102125000D01*
X101647500Y-102125000D02*
X104702500Y-102125000D01*
%TO.N,/C1-*%
X106102500Y-103690000D02*
X105127500Y-104665000D01*
X105127500Y-104665000D02*
X104702500Y-104665000D01*
X101482500Y-100060000D02*
X104472164Y-100060000D01*
X106102500Y-101690336D02*
X106102500Y-103690000D01*
X104472164Y-100060000D02*
X106102500Y-101690336D01*
%TO.N,/C2-*%
X101482500Y-109340000D02*
X103617500Y-107205000D01*
X103617500Y-107205000D02*
X104702500Y-107205000D01*
%TO.N,/V+*%
X101482500Y-103760000D02*
X101847500Y-103395000D01*
X101847500Y-103395000D02*
X104702500Y-103395000D01*
%TO.N,/V-*%
X102610500Y-109510257D02*
X103645757Y-108475000D01*
X102610500Y-110052000D02*
X102610500Y-109510257D01*
X103645757Y-108475000D02*
X104702500Y-108475000D01*
X101482500Y-111180000D02*
X102610500Y-110052000D01*
%TO.N,/C2+*%
X102987500Y-105935000D02*
X104702500Y-105935000D01*
X101482500Y-107440000D02*
X102987500Y-105935000D01*
D27*
%TO.N,Net-(D2-Pad2)*%
X84657500Y-129800000D02*
X84612500Y-129845000D01*
X84657500Y-127077142D02*
X84657500Y-129800000D01*
%TO.N,Net-(D3-Pad2)*%
X94657500Y-127010000D02*
X94657500Y-129800000D01*
X94657500Y-129800000D02*
X94612500Y-129845000D01*
%TO.N,/CTS{slash}DTR*%
X104702500Y-111015000D02*
X103135000Y-111015000D01*
X103135000Y-111015000D02*
X103130000Y-111020000D01*
%TD*%
%TA.AperFunction,Conductor*%
%TO.N,GND*%
G36*
X83712312Y-126053502D02*
G01*
X83758805Y-126107158D01*
X83768909Y-126177432D01*
X83751451Y-126225615D01*
X83702885Y-126304404D01*
X83676436Y-126384147D01*
X83655787Y-126446402D01*
X83647203Y-126472281D01*
X83636500Y-126576742D01*
X83636500Y-127577542D01*
X83636837Y-127580788D01*
X83636837Y-127580792D01*
X83640508Y-127616166D01*
X83647474Y-127683308D01*
X83649655Y-127689844D01*
X83649655Y-127689846D01*
X83681050Y-127783946D01*
X83703450Y-127851088D01*
X83796522Y-128001490D01*
X83921697Y-128126447D01*
X83927928Y-128130288D01*
X83927931Y-128130290D01*
X83964117Y-128152596D01*
X84011610Y-128205368D01*
X84024000Y-128259855D01*
X84024000Y-128647222D01*
X84003998Y-128715343D01*
X83964304Y-128754365D01*
X83898311Y-128795203D01*
X83774383Y-128919347D01*
X83682339Y-129068671D01*
X83680034Y-129075619D01*
X83680034Y-129075620D01*
X83629679Y-129227436D01*
X83627115Y-129235165D01*
X83616500Y-129338769D01*
X83616501Y-130351230D01*
X83627384Y-130456129D01*
X83629563Y-130462660D01*
X83629564Y-130462665D01*
X83652896Y-130532598D01*
X83682898Y-130622526D01*
X83730345Y-130699199D01*
X83749182Y-130767648D01*
X83728021Y-130835418D01*
X83673580Y-130880989D01*
X83623200Y-130891500D01*
X77476220Y-130891500D01*
X77408099Y-130871498D01*
X77361606Y-130817842D01*
X77351502Y-130747568D01*
X77368960Y-130699384D01*
X77413365Y-130627346D01*
X77419509Y-130614168D01*
X77470227Y-130461260D01*
X77473093Y-130447894D01*
X77482672Y-130354399D01*
X77483000Y-130347984D01*
X77483000Y-130117115D01*
X77478525Y-130101876D01*
X77477135Y-130100671D01*
X77469452Y-130099000D01*
X76359500Y-130099000D01*
X76291379Y-130078998D01*
X76244886Y-130025342D01*
X76233500Y-129973000D01*
X76233500Y-129572885D01*
X76741500Y-129572885D01*
X76745975Y-129588124D01*
X76747365Y-129589329D01*
X76755048Y-129591000D01*
X77464884Y-129591000D01*
X77480123Y-129586525D01*
X77481328Y-129585135D01*
X77482999Y-129577452D01*
X77482999Y-129342067D01*
X77482662Y-129335548D01*
X77472834Y-129240830D01*
X77469942Y-129227436D01*
X77418964Y-129074635D01*
X77412790Y-129061457D01*
X77328256Y-128924851D01*
X77319220Y-128913450D01*
X77205521Y-128799949D01*
X77194110Y-128790937D01*
X77057346Y-128706635D01*
X77044168Y-128700491D01*
X76891260Y-128649773D01*
X76877894Y-128646907D01*
X76784399Y-128637328D01*
X76777984Y-128637000D01*
X76759615Y-128637000D01*
X76744376Y-128641475D01*
X76743171Y-128642865D01*
X76741500Y-128650548D01*
X76741500Y-129572885D01*
X76233500Y-129572885D01*
X76233500Y-128655116D01*
X76229025Y-128639877D01*
X76227635Y-128638672D01*
X76219952Y-128637001D01*
X76197067Y-128637001D01*
X76190548Y-128637338D01*
X76095830Y-128647166D01*
X76082436Y-128650058D01*
X75929635Y-128701036D01*
X75916457Y-128707210D01*
X75779851Y-128791744D01*
X75768450Y-128800780D01*
X75654949Y-128914479D01*
X75649206Y-128921751D01*
X75591289Y-128962814D01*
X75520366Y-128966046D01*
X75458954Y-128930421D01*
X75453160Y-128923746D01*
X75449797Y-128918311D01*
X75327982Y-128796708D01*
X75293903Y-128734425D01*
X75291000Y-128707535D01*
X75291000Y-128132634D01*
X75311002Y-128064513D01*
X75350697Y-128025490D01*
X75388120Y-128002332D01*
X75394348Y-127998478D01*
X75480784Y-127911891D01*
X75543066Y-127877812D01*
X75613886Y-127882815D01*
X75658975Y-127911736D01*
X75674338Y-127927072D01*
X75746697Y-127999305D01*
X75752927Y-128003145D01*
X75752928Y-128003146D01*
X75890090Y-128087694D01*
X75897262Y-128092115D01*
X75977005Y-128118564D01*
X76058611Y-128145632D01*
X76058613Y-128145632D01*
X76065139Y-128147797D01*
X76071975Y-128148497D01*
X76071978Y-128148498D01*
X76111977Y-128152596D01*
X76169600Y-128158500D01*
X76795400Y-128158500D01*
X76798646Y-128158163D01*
X76798650Y-128158163D01*
X76894308Y-128148238D01*
X76894312Y-128148237D01*
X76901166Y-128147526D01*
X76907702Y-128145345D01*
X76907704Y-128145345D01*
X77039806Y-128101272D01*
X77068946Y-128091550D01*
X77219348Y-127998478D01*
X77344305Y-127873303D01*
X77350828Y-127862721D01*
X77433275Y-127728968D01*
X77433276Y-127728966D01*
X77437115Y-127722738D01*
X77484196Y-127580792D01*
X77490632Y-127561389D01*
X77490632Y-127561387D01*
X77492797Y-127554861D01*
X77495707Y-127526465D01*
X77503172Y-127453598D01*
X77503500Y-127450400D01*
X77503500Y-126877095D01*
X77523502Y-126808974D01*
X77540405Y-126787999D01*
X78258001Y-126070404D01*
X78320313Y-126036379D01*
X78347096Y-126033500D01*
X83644191Y-126033500D01*
X83712312Y-126053502D01*
G37*
%TD.AperFunction*%
%TA.AperFunction,Conductor*%
G36*
X167510018Y-81230000D02*
G01*
X167524851Y-81232310D01*
X167524855Y-81232310D01*
X167533724Y-81233691D01*
X167548981Y-81231696D01*
X167574302Y-81230953D01*
X167743285Y-81243039D01*
X167761064Y-81245596D01*
X167951392Y-81286999D01*
X167968641Y-81292063D01*
X168151150Y-81360136D01*
X168167502Y-81367604D01*
X168338458Y-81460952D01*
X168353582Y-81470672D01*
X168509514Y-81587402D01*
X168523100Y-81599175D01*
X168660825Y-81736900D01*
X168672598Y-81750486D01*
X168789328Y-81906418D01*
X168799048Y-81921542D01*
X168892396Y-82092498D01*
X168899864Y-82108850D01*
X168967937Y-82291359D01*
X168973001Y-82308607D01*
X169014404Y-82498936D01*
X169016961Y-82516715D01*
X169028540Y-82678601D01*
X169027793Y-82696565D01*
X169027692Y-82704845D01*
X169026309Y-82713724D01*
X169030446Y-82745356D01*
X169031510Y-82761664D01*
X169031592Y-83145223D01*
X169032085Y-85448386D01*
X169012098Y-85516511D01*
X168958452Y-85563015D01*
X168888180Y-85573134D01*
X168823593Y-85543655D01*
X168785196Y-85483937D01*
X168781636Y-85468124D01*
X168757169Y-85313648D01*
X168756653Y-85310387D01*
X168658978Y-84945857D01*
X168523734Y-84593535D01*
X168352403Y-84257280D01*
X168146863Y-83940775D01*
X167909365Y-83647489D01*
X167642511Y-83380635D01*
X167349225Y-83143137D01*
X167032720Y-82937597D01*
X167029786Y-82936102D01*
X167029779Y-82936098D01*
X166699405Y-82767764D01*
X166696465Y-82766266D01*
X166344143Y-82631022D01*
X165979613Y-82533347D01*
X165781647Y-82501992D01*
X165610119Y-82474824D01*
X165610111Y-82474823D01*
X165606871Y-82474310D01*
X165324280Y-82459500D01*
X165135720Y-82459500D01*
X164853129Y-82474310D01*
X164849889Y-82474823D01*
X164849881Y-82474824D01*
X164678353Y-82501992D01*
X164480387Y-82533347D01*
X164115857Y-82631022D01*
X163763535Y-82766266D01*
X163760595Y-82767764D01*
X163430221Y-82936098D01*
X163430214Y-82936102D01*
X163427280Y-82937597D01*
X163110775Y-83143137D01*
X162817489Y-83380635D01*
X162550635Y-83647489D01*
X162313137Y-83940775D01*
X162311335Y-83943550D01*
X162109395Y-84254510D01*
X162109393Y-84254513D01*
X162107597Y-84257279D01*
X162106102Y-84260213D01*
X162106098Y-84260220D01*
X161937764Y-84590595D01*
X161936266Y-84593535D01*
X161801022Y-84945857D01*
X161703347Y-85310387D01*
X161702831Y-85313648D01*
X161653441Y-85625481D01*
X161644310Y-85683129D01*
X161624559Y-86060000D01*
X161644310Y-86436871D01*
X161644823Y-86440111D01*
X161644824Y-86440119D01*
X161654754Y-86502814D01*
X161703347Y-86809613D01*
X161801022Y-87174143D01*
X161936266Y-87526465D01*
X161937764Y-87529405D01*
X162094651Y-87837312D01*
X162107597Y-87862720D01*
X162313137Y-88179225D01*
X162550635Y-88472511D01*
X162817489Y-88739365D01*
X163110775Y-88976863D01*
X163215807Y-89045072D01*
X163284844Y-89089904D01*
X163427280Y-89182403D01*
X163430214Y-89183898D01*
X163430221Y-89183902D01*
X163745461Y-89344525D01*
X163763535Y-89353734D01*
X164115857Y-89488978D01*
X164480387Y-89586653D01*
X164678353Y-89618008D01*
X164849881Y-89645176D01*
X164849889Y-89645177D01*
X164853129Y-89645690D01*
X165135720Y-89660500D01*
X165324280Y-89660500D01*
X165606871Y-89645690D01*
X165610111Y-89645177D01*
X165610119Y-89645176D01*
X165781647Y-89618008D01*
X165979613Y-89586653D01*
X166344143Y-89488978D01*
X166696465Y-89353734D01*
X166714539Y-89344525D01*
X167029779Y-89183902D01*
X167029786Y-89183898D01*
X167032720Y-89182403D01*
X167175157Y-89089904D01*
X167244193Y-89045072D01*
X167349225Y-88976863D01*
X167642511Y-88739365D01*
X167909365Y-88472511D01*
X168146863Y-88179225D01*
X168226589Y-88056457D01*
X168350605Y-87865490D01*
X168350607Y-87865487D01*
X168352403Y-87862721D01*
X168353903Y-87859779D01*
X168522236Y-87529405D01*
X168523734Y-87526465D01*
X168658978Y-87174143D01*
X168756653Y-86809613D01*
X168781898Y-86650224D01*
X168812311Y-86586071D01*
X168872579Y-86548544D01*
X168943568Y-86549558D01*
X169002740Y-86588791D01*
X169031308Y-86653786D01*
X169032347Y-86669907D01*
X169033422Y-91687363D01*
X169036941Y-108116133D01*
X169016954Y-108184258D01*
X168963308Y-108230762D01*
X168911282Y-108242160D01*
X161629840Y-108261852D01*
X161561666Y-108242034D01*
X161515028Y-108188504D01*
X161503500Y-108135852D01*
X161503500Y-106081866D01*
X161496745Y-106019684D01*
X161445615Y-105883295D01*
X161358261Y-105766739D01*
X161241705Y-105679385D01*
X161233296Y-105676233D01*
X161233293Y-105676231D01*
X161217232Y-105670210D01*
X161160467Y-105627569D01*
X161135766Y-105561008D01*
X161150973Y-105491659D01*
X161172365Y-105463133D01*
X161201198Y-105434300D01*
X161207009Y-105426002D01*
X161276679Y-105326502D01*
X161332523Y-105246749D01*
X161334846Y-105241767D01*
X161334849Y-105241762D01*
X161426961Y-105044225D01*
X161426961Y-105044224D01*
X161429284Y-105039243D01*
X161488543Y-104818087D01*
X161508498Y-104590000D01*
X161488543Y-104361913D01*
X161480726Y-104332738D01*
X161430707Y-104146067D01*
X161430706Y-104146065D01*
X161429284Y-104140757D01*
X161426961Y-104135775D01*
X161334849Y-103938238D01*
X161334846Y-103938233D01*
X161332523Y-103933251D01*
X161201198Y-103745700D01*
X161039300Y-103583802D01*
X161034792Y-103580645D01*
X161034789Y-103580643D01*
X160953721Y-103523879D01*
X160851749Y-103452477D01*
X160846767Y-103450154D01*
X160846762Y-103450151D01*
X160812543Y-103434195D01*
X160759258Y-103387278D01*
X160739797Y-103319001D01*
X160760339Y-103251041D01*
X160812543Y-103205805D01*
X160846762Y-103189849D01*
X160846767Y-103189846D01*
X160851749Y-103187523D01*
X160956611Y-103114098D01*
X161034789Y-103059357D01*
X161034792Y-103059355D01*
X161039300Y-103056198D01*
X161201198Y-102894300D01*
X161213829Y-102876262D01*
X161274738Y-102789274D01*
X161332523Y-102706749D01*
X161334846Y-102701767D01*
X161334849Y-102701762D01*
X161426961Y-102504225D01*
X161426961Y-102504224D01*
X161429284Y-102499243D01*
X161449644Y-102423261D01*
X161487119Y-102283402D01*
X161487119Y-102283400D01*
X161488543Y-102278087D01*
X161508498Y-102050000D01*
X161488543Y-101821913D01*
X161487119Y-101816598D01*
X161430707Y-101606067D01*
X161430706Y-101606065D01*
X161429284Y-101600757D01*
X161404968Y-101548611D01*
X161334849Y-101398238D01*
X161334846Y-101398233D01*
X161332523Y-101393251D01*
X161237891Y-101258103D01*
X161204357Y-101210211D01*
X161204355Y-101210208D01*
X161201198Y-101205700D01*
X161039300Y-101043802D01*
X161034792Y-101040645D01*
X161034789Y-101040643D01*
X160929404Y-100966852D01*
X160851749Y-100912477D01*
X160846767Y-100910154D01*
X160846762Y-100910151D01*
X160812543Y-100894195D01*
X160759258Y-100847278D01*
X160739797Y-100779001D01*
X160760339Y-100711041D01*
X160812543Y-100665805D01*
X160846762Y-100649849D01*
X160846767Y-100649846D01*
X160851749Y-100647523D01*
X160974614Y-100561492D01*
X161034789Y-100519357D01*
X161034792Y-100519355D01*
X161039300Y-100516198D01*
X161201198Y-100354300D01*
X161231872Y-100310494D01*
X161274451Y-100249684D01*
X161332523Y-100166749D01*
X161334846Y-100161767D01*
X161334849Y-100161762D01*
X161426961Y-99964225D01*
X161426961Y-99964224D01*
X161429284Y-99959243D01*
X161438886Y-99923410D01*
X161487119Y-99743402D01*
X161487119Y-99743400D01*
X161488543Y-99738087D01*
X161508498Y-99510000D01*
X161488543Y-99281913D01*
X161463506Y-99188475D01*
X161430707Y-99066067D01*
X161430706Y-99066065D01*
X161429284Y-99060757D01*
X161425125Y-99051837D01*
X161334849Y-98858238D01*
X161334846Y-98858233D01*
X161332523Y-98853251D01*
X161206565Y-98673365D01*
X161204357Y-98670211D01*
X161204355Y-98670208D01*
X161201198Y-98665700D01*
X161039300Y-98503802D01*
X161034792Y-98500645D01*
X161034789Y-98500643D01*
X160951526Y-98442342D01*
X160851749Y-98372477D01*
X160846767Y-98370154D01*
X160846762Y-98370151D01*
X160812543Y-98354195D01*
X160759258Y-98307278D01*
X160739797Y-98239001D01*
X160760339Y-98171041D01*
X160812543Y-98125805D01*
X160846762Y-98109849D01*
X160846767Y-98109846D01*
X160851749Y-98107523D01*
X160961620Y-98030590D01*
X161034789Y-97979357D01*
X161034792Y-97979355D01*
X161039300Y-97976198D01*
X161201198Y-97814300D01*
X161231872Y-97770494D01*
X161291477Y-97685369D01*
X161332523Y-97626749D01*
X161334846Y-97621767D01*
X161334849Y-97621762D01*
X161426961Y-97424225D01*
X161426961Y-97424224D01*
X161429284Y-97419243D01*
X161447284Y-97352069D01*
X161487119Y-97203402D01*
X161487119Y-97203400D01*
X161488543Y-97198087D01*
X161508498Y-96970000D01*
X161488543Y-96741913D01*
X161487119Y-96736598D01*
X161430707Y-96526067D01*
X161430706Y-96526065D01*
X161429284Y-96520757D01*
X161423398Y-96508134D01*
X161334849Y-96318238D01*
X161334846Y-96318233D01*
X161332523Y-96313251D01*
X161233663Y-96172065D01*
X161204357Y-96130211D01*
X161204355Y-96130208D01*
X161201198Y-96125700D01*
X161039300Y-95963802D01*
X161034792Y-95960645D01*
X161034789Y-95960643D01*
X160919484Y-95879906D01*
X160851749Y-95832477D01*
X160846767Y-95830154D01*
X160846762Y-95830151D01*
X160812543Y-95814195D01*
X160759258Y-95767278D01*
X160739797Y-95699001D01*
X160760339Y-95631041D01*
X160812543Y-95585805D01*
X160846762Y-95569849D01*
X160846767Y-95569846D01*
X160851749Y-95567523D01*
X160956611Y-95494098D01*
X161034789Y-95439357D01*
X161034792Y-95439355D01*
X161039300Y-95436198D01*
X161201198Y-95274300D01*
X161332523Y-95086749D01*
X161334846Y-95081767D01*
X161334849Y-95081762D01*
X161426961Y-94884225D01*
X161426961Y-94884224D01*
X161429284Y-94879243D01*
X161488543Y-94658087D01*
X161508498Y-94430000D01*
X161488543Y-94201913D01*
X161471282Y-94137495D01*
X161430707Y-93986067D01*
X161430706Y-93986065D01*
X161429284Y-93980757D01*
X161421724Y-93964544D01*
X161334849Y-93778238D01*
X161334846Y-93778233D01*
X161332523Y-93773251D01*
X161201198Y-93585700D01*
X161039300Y-93423802D01*
X161034792Y-93420645D01*
X161034789Y-93420643D01*
X160866560Y-93302848D01*
X160851749Y-93292477D01*
X160846767Y-93290154D01*
X160846762Y-93290151D01*
X160812543Y-93274195D01*
X160759258Y-93227278D01*
X160739797Y-93159001D01*
X160760339Y-93091041D01*
X160812543Y-93045805D01*
X160846762Y-93029849D01*
X160846767Y-93029846D01*
X160851749Y-93027523D01*
X160956611Y-92954098D01*
X161034789Y-92899357D01*
X161034792Y-92899355D01*
X161039300Y-92896198D01*
X161201198Y-92734300D01*
X161221429Y-92705408D01*
X161292492Y-92603919D01*
X161332523Y-92546749D01*
X161334846Y-92541767D01*
X161334849Y-92541762D01*
X161426961Y-92344225D01*
X161426961Y-92344224D01*
X161429284Y-92339243D01*
X161456225Y-92238701D01*
X161487119Y-92123402D01*
X161487119Y-92123400D01*
X161488543Y-92118087D01*
X161508498Y-91890000D01*
X161488543Y-91661913D01*
X161480535Y-91632027D01*
X161430707Y-91446067D01*
X161430706Y-91446065D01*
X161429284Y-91440757D01*
X161426961Y-91435775D01*
X161334849Y-91238238D01*
X161334846Y-91238233D01*
X161332523Y-91233251D01*
X161201198Y-91045700D01*
X161039300Y-90883802D01*
X161034792Y-90880645D01*
X161034789Y-90880643D01*
X160950594Y-90821689D01*
X160851749Y-90752477D01*
X160846767Y-90750154D01*
X160846762Y-90750151D01*
X160812543Y-90734195D01*
X160759258Y-90687278D01*
X160739797Y-90619001D01*
X160760339Y-90551041D01*
X160812543Y-90505805D01*
X160846762Y-90489849D01*
X160846767Y-90489846D01*
X160851749Y-90487523D01*
X160996684Y-90386038D01*
X161034789Y-90359357D01*
X161034792Y-90359355D01*
X161039300Y-90356198D01*
X161201198Y-90194300D01*
X161230375Y-90152632D01*
X161329366Y-90011257D01*
X161332523Y-90006749D01*
X161334846Y-90001767D01*
X161334849Y-90001762D01*
X161426961Y-89804225D01*
X161426961Y-89804224D01*
X161429284Y-89799243D01*
X161455397Y-89701791D01*
X161487119Y-89583402D01*
X161487119Y-89583400D01*
X161488543Y-89578087D01*
X161508498Y-89350000D01*
X161488543Y-89121913D01*
X161436510Y-88927724D01*
X161430707Y-88906067D01*
X161430706Y-88906065D01*
X161429284Y-88900757D01*
X161426961Y-88895775D01*
X161334849Y-88698238D01*
X161334846Y-88698233D01*
X161332523Y-88693251D01*
X161201198Y-88505700D01*
X161039300Y-88343802D01*
X161034792Y-88340645D01*
X161034789Y-88340643D01*
X160956611Y-88285902D01*
X160851749Y-88212477D01*
X160846767Y-88210154D01*
X160846762Y-88210151D01*
X160649225Y-88118039D01*
X160649224Y-88118039D01*
X160644243Y-88115716D01*
X160638935Y-88114294D01*
X160638933Y-88114293D01*
X160428402Y-88057881D01*
X160428400Y-88057881D01*
X160423087Y-88056457D01*
X160323520Y-88047746D01*
X160254851Y-88041738D01*
X160254844Y-88041738D01*
X160252127Y-88041500D01*
X159737873Y-88041500D01*
X159735156Y-88041738D01*
X159735149Y-88041738D01*
X159666480Y-88047746D01*
X159566913Y-88056457D01*
X159561600Y-88057881D01*
X159561598Y-88057881D01*
X159351067Y-88114293D01*
X159351065Y-88114294D01*
X159345757Y-88115716D01*
X159340776Y-88118039D01*
X159340775Y-88118039D01*
X159143238Y-88210151D01*
X159143233Y-88210154D01*
X159138251Y-88212477D01*
X159033389Y-88285902D01*
X158955211Y-88340643D01*
X158955208Y-88340645D01*
X158950700Y-88343802D01*
X158788802Y-88505700D01*
X158657477Y-88693251D01*
X158655154Y-88698233D01*
X158655151Y-88698238D01*
X158563039Y-88895775D01*
X158560716Y-88900757D01*
X158559294Y-88906065D01*
X158559293Y-88906067D01*
X158553490Y-88927724D01*
X158501457Y-89121913D01*
X158481502Y-89350000D01*
X158501457Y-89578087D01*
X158502881Y-89583400D01*
X158502881Y-89583402D01*
X158534604Y-89701791D01*
X158560716Y-89799243D01*
X158563039Y-89804224D01*
X158563039Y-89804225D01*
X158655151Y-90001762D01*
X158655154Y-90001767D01*
X158657477Y-90006749D01*
X158660634Y-90011257D01*
X158759626Y-90152632D01*
X158788802Y-90194300D01*
X158950700Y-90356198D01*
X158955208Y-90359355D01*
X158955211Y-90359357D01*
X158993316Y-90386038D01*
X159138251Y-90487523D01*
X159143233Y-90489846D01*
X159143238Y-90489849D01*
X159177457Y-90505805D01*
X159230742Y-90552722D01*
X159250203Y-90620999D01*
X159229661Y-90688959D01*
X159177457Y-90734195D01*
X159143238Y-90750151D01*
X159143233Y-90750154D01*
X159138251Y-90752477D01*
X159039406Y-90821689D01*
X158955211Y-90880643D01*
X158955208Y-90880645D01*
X158950700Y-90883802D01*
X158788802Y-91045700D01*
X158657477Y-91233251D01*
X158655154Y-91238233D01*
X158655151Y-91238238D01*
X158563039Y-91435775D01*
X158560716Y-91440757D01*
X158559294Y-91446065D01*
X158559293Y-91446067D01*
X158509465Y-91632027D01*
X158501457Y-91661913D01*
X158481502Y-91890000D01*
X158501457Y-92118087D01*
X158502881Y-92123400D01*
X158502881Y-92123402D01*
X158533776Y-92238701D01*
X158560716Y-92339243D01*
X158563039Y-92344224D01*
X158563039Y-92344225D01*
X158655151Y-92541762D01*
X158655154Y-92541767D01*
X158657477Y-92546749D01*
X158697508Y-92603919D01*
X158768572Y-92705408D01*
X158788802Y-92734300D01*
X158950700Y-92896198D01*
X158955208Y-92899355D01*
X158955211Y-92899357D01*
X159033389Y-92954098D01*
X159138251Y-93027523D01*
X159143233Y-93029846D01*
X159143238Y-93029849D01*
X159177457Y-93045805D01*
X159230742Y-93092722D01*
X159250203Y-93160999D01*
X159229661Y-93228959D01*
X159177457Y-93274195D01*
X159143238Y-93290151D01*
X159143233Y-93290154D01*
X159138251Y-93292477D01*
X159123440Y-93302848D01*
X158955211Y-93420643D01*
X158955208Y-93420645D01*
X158950700Y-93423802D01*
X158788802Y-93585700D01*
X158657477Y-93773251D01*
X158655154Y-93778233D01*
X158655151Y-93778238D01*
X158568276Y-93964544D01*
X158560716Y-93980757D01*
X158559294Y-93986065D01*
X158559293Y-93986067D01*
X158518718Y-94137495D01*
X158501457Y-94201913D01*
X158481502Y-94430000D01*
X158501457Y-94658087D01*
X158560716Y-94879243D01*
X158563039Y-94884224D01*
X158563039Y-94884225D01*
X158655151Y-95081762D01*
X158655154Y-95081767D01*
X158657477Y-95086749D01*
X158788802Y-95274300D01*
X158950700Y-95436198D01*
X158955208Y-95439355D01*
X158955211Y-95439357D01*
X159033389Y-95494098D01*
X159138251Y-95567523D01*
X159143233Y-95569846D01*
X159143238Y-95569849D01*
X159177457Y-95585805D01*
X159230742Y-95632722D01*
X159250203Y-95700999D01*
X159229661Y-95768959D01*
X159177457Y-95814195D01*
X159143238Y-95830151D01*
X159143233Y-95830154D01*
X159138251Y-95832477D01*
X159070516Y-95879906D01*
X158955211Y-95960643D01*
X158955208Y-95960645D01*
X158950700Y-95963802D01*
X158788802Y-96125700D01*
X158785645Y-96130208D01*
X158785643Y-96130211D01*
X158756337Y-96172065D01*
X158657477Y-96313251D01*
X158655154Y-96318233D01*
X158655151Y-96318238D01*
X158566602Y-96508134D01*
X158560716Y-96520757D01*
X158559294Y-96526065D01*
X158559293Y-96526067D01*
X158502881Y-96736598D01*
X158501457Y-96741913D01*
X158481502Y-96970000D01*
X158501457Y-97198087D01*
X158502881Y-97203400D01*
X158502881Y-97203402D01*
X158542717Y-97352069D01*
X158560716Y-97419243D01*
X158563039Y-97424224D01*
X158563039Y-97424225D01*
X158655151Y-97621762D01*
X158655154Y-97621767D01*
X158657477Y-97626749D01*
X158698523Y-97685369D01*
X158758129Y-97770494D01*
X158788802Y-97814300D01*
X158950700Y-97976198D01*
X158955208Y-97979355D01*
X158955211Y-97979357D01*
X159028380Y-98030590D01*
X159138251Y-98107523D01*
X159143233Y-98109846D01*
X159143238Y-98109849D01*
X159177457Y-98125805D01*
X159230742Y-98172722D01*
X159250203Y-98240999D01*
X159229661Y-98308959D01*
X159177457Y-98354195D01*
X159143238Y-98370151D01*
X159143233Y-98370154D01*
X159138251Y-98372477D01*
X159038474Y-98442342D01*
X158955211Y-98500643D01*
X158955208Y-98500645D01*
X158950700Y-98503802D01*
X158788802Y-98665700D01*
X158785645Y-98670208D01*
X158785643Y-98670211D01*
X158783435Y-98673365D01*
X158657477Y-98853251D01*
X158655154Y-98858233D01*
X158655151Y-98858238D01*
X158564875Y-99051837D01*
X158560716Y-99060757D01*
X158559294Y-99066065D01*
X158559293Y-99066067D01*
X158526494Y-99188475D01*
X158501457Y-99281913D01*
X158481502Y-99510000D01*
X158501457Y-99738087D01*
X158502881Y-99743400D01*
X158502881Y-99743402D01*
X158551115Y-99923410D01*
X158560716Y-99959243D01*
X158563039Y-99964224D01*
X158563039Y-99964225D01*
X158655151Y-100161762D01*
X158655154Y-100161767D01*
X158657477Y-100166749D01*
X158715549Y-100249684D01*
X158758129Y-100310494D01*
X158788802Y-100354300D01*
X158950700Y-100516198D01*
X158955208Y-100519355D01*
X158955211Y-100519357D01*
X159015386Y-100561492D01*
X159138251Y-100647523D01*
X159143233Y-100649846D01*
X159143238Y-100649849D01*
X159177457Y-100665805D01*
X159230742Y-100712722D01*
X159250203Y-100780999D01*
X159229661Y-100848959D01*
X159177457Y-100894195D01*
X159143238Y-100910151D01*
X159143233Y-100910154D01*
X159138251Y-100912477D01*
X159060596Y-100966852D01*
X158955211Y-101040643D01*
X158955208Y-101040645D01*
X158950700Y-101043802D01*
X158788802Y-101205700D01*
X158785645Y-101210208D01*
X158785643Y-101210211D01*
X158752109Y-101258103D01*
X158657477Y-101393251D01*
X158655154Y-101398233D01*
X158655151Y-101398238D01*
X158585032Y-101548611D01*
X158560716Y-101600757D01*
X158559294Y-101606065D01*
X158559293Y-101606067D01*
X158502881Y-101816598D01*
X158501457Y-101821913D01*
X158481502Y-102050000D01*
X158501457Y-102278087D01*
X158502881Y-102283400D01*
X158502881Y-102283402D01*
X158540357Y-102423261D01*
X158560716Y-102499243D01*
X158563039Y-102504224D01*
X158563039Y-102504225D01*
X158655151Y-102701762D01*
X158655154Y-102701767D01*
X158657477Y-102706749D01*
X158715262Y-102789274D01*
X158776172Y-102876262D01*
X158788802Y-102894300D01*
X158950700Y-103056198D01*
X158955208Y-103059355D01*
X158955211Y-103059357D01*
X159033389Y-103114098D01*
X159138251Y-103187523D01*
X159143233Y-103189846D01*
X159143238Y-103189849D01*
X159177457Y-103205805D01*
X159230742Y-103252722D01*
X159250203Y-103320999D01*
X159229661Y-103388959D01*
X159177457Y-103434195D01*
X159143238Y-103450151D01*
X159143233Y-103450154D01*
X159138251Y-103452477D01*
X159036279Y-103523879D01*
X158955211Y-103580643D01*
X158955208Y-103580645D01*
X158950700Y-103583802D01*
X158788802Y-103745700D01*
X158657477Y-103933251D01*
X158655154Y-103938233D01*
X158655151Y-103938238D01*
X158563039Y-104135775D01*
X158560716Y-104140757D01*
X158559294Y-104146065D01*
X158559293Y-104146067D01*
X158509274Y-104332738D01*
X158501457Y-104361913D01*
X158481502Y-104590000D01*
X158501457Y-104818087D01*
X158560716Y-105039243D01*
X158563039Y-105044224D01*
X158563039Y-105044225D01*
X158655151Y-105241762D01*
X158655154Y-105241767D01*
X158657477Y-105246749D01*
X158713321Y-105326502D01*
X158782992Y-105426002D01*
X158788802Y-105434300D01*
X158817635Y-105463133D01*
X158851661Y-105525445D01*
X158846596Y-105596260D01*
X158804049Y-105653096D01*
X158772768Y-105670210D01*
X158756707Y-105676231D01*
X158756704Y-105676233D01*
X158748295Y-105679385D01*
X158631739Y-105766739D01*
X158544385Y-105883295D01*
X158493255Y-106019684D01*
X158486500Y-106081866D01*
X158486500Y-108144692D01*
X158466498Y-108212813D01*
X158412842Y-108259306D01*
X158360841Y-108270692D01*
X142258451Y-108314239D01*
X138295071Y-108324958D01*
X138226896Y-108305140D01*
X138180258Y-108251610D01*
X138169964Y-108181364D01*
X138199283Y-108116703D01*
X138205635Y-108109863D01*
X138341198Y-107974300D01*
X138472523Y-107786749D01*
X138474846Y-107781767D01*
X138474849Y-107781762D01*
X138566961Y-107584225D01*
X138566961Y-107584224D01*
X138569284Y-107579243D01*
X138628543Y-107358087D01*
X138648498Y-107130000D01*
X138628543Y-106901913D01*
X138617589Y-106861032D01*
X138570707Y-106686067D01*
X138570706Y-106686065D01*
X138569284Y-106680757D01*
X138528620Y-106593552D01*
X138474849Y-106478238D01*
X138474846Y-106478233D01*
X138472523Y-106473251D01*
X138341198Y-106285700D01*
X138179300Y-106123802D01*
X138174792Y-106120645D01*
X138174789Y-106120643D01*
X138064103Y-106043140D01*
X137991749Y-105992477D01*
X137986767Y-105990154D01*
X137986762Y-105990151D01*
X137952543Y-105974195D01*
X137899258Y-105927278D01*
X137879797Y-105859001D01*
X137900339Y-105791041D01*
X137952543Y-105745805D01*
X137986762Y-105729849D01*
X137986767Y-105729846D01*
X137991749Y-105727523D01*
X138143165Y-105621500D01*
X138174789Y-105599357D01*
X138174792Y-105599355D01*
X138179300Y-105596198D01*
X138341198Y-105434300D01*
X138347009Y-105426002D01*
X138416679Y-105326502D01*
X138472523Y-105246749D01*
X138474846Y-105241767D01*
X138474849Y-105241762D01*
X138566961Y-105044225D01*
X138566961Y-105044224D01*
X138569284Y-105039243D01*
X138628543Y-104818087D01*
X138648498Y-104590000D01*
X138628543Y-104361913D01*
X138620726Y-104332738D01*
X138570707Y-104146067D01*
X138570706Y-104146065D01*
X138569284Y-104140757D01*
X138566961Y-104135775D01*
X138474849Y-103938238D01*
X138474846Y-103938233D01*
X138472523Y-103933251D01*
X138341198Y-103745700D01*
X138179300Y-103583802D01*
X138174792Y-103580645D01*
X138174789Y-103580643D01*
X138093721Y-103523879D01*
X137991749Y-103452477D01*
X137986767Y-103450154D01*
X137986762Y-103450151D01*
X137952543Y-103434195D01*
X137899258Y-103387278D01*
X137879797Y-103319001D01*
X137900339Y-103251041D01*
X137952543Y-103205805D01*
X137986762Y-103189849D01*
X137986767Y-103189846D01*
X137991749Y-103187523D01*
X138096611Y-103114098D01*
X138174789Y-103059357D01*
X138174792Y-103059355D01*
X138179300Y-103056198D01*
X138341198Y-102894300D01*
X138353829Y-102876262D01*
X138414738Y-102789274D01*
X138472523Y-102706749D01*
X138474846Y-102701767D01*
X138474849Y-102701762D01*
X138566961Y-102504225D01*
X138566961Y-102504224D01*
X138569284Y-102499243D01*
X138589644Y-102423261D01*
X138627119Y-102283402D01*
X138627119Y-102283400D01*
X138628543Y-102278087D01*
X138648498Y-102050000D01*
X138628543Y-101821913D01*
X138627119Y-101816598D01*
X138570707Y-101606067D01*
X138570706Y-101606065D01*
X138569284Y-101600757D01*
X138544968Y-101548611D01*
X138474849Y-101398238D01*
X138474846Y-101398233D01*
X138472523Y-101393251D01*
X138377891Y-101258103D01*
X138344357Y-101210211D01*
X138344355Y-101210208D01*
X138341198Y-101205700D01*
X138179300Y-101043802D01*
X138174792Y-101040645D01*
X138174789Y-101040643D01*
X138069404Y-100966852D01*
X137991749Y-100912477D01*
X137986767Y-100910154D01*
X137986762Y-100910151D01*
X137952543Y-100894195D01*
X137899258Y-100847278D01*
X137879797Y-100779001D01*
X137900339Y-100711041D01*
X137952543Y-100665805D01*
X137986762Y-100649849D01*
X137986767Y-100649846D01*
X137991749Y-100647523D01*
X138114614Y-100561492D01*
X138174789Y-100519357D01*
X138174792Y-100519355D01*
X138179300Y-100516198D01*
X138341198Y-100354300D01*
X138371872Y-100310494D01*
X138414451Y-100249684D01*
X138472523Y-100166749D01*
X138474846Y-100161767D01*
X138474849Y-100161762D01*
X138566961Y-99964225D01*
X138566961Y-99964224D01*
X138569284Y-99959243D01*
X138578886Y-99923410D01*
X138627119Y-99743402D01*
X138627119Y-99743400D01*
X138628543Y-99738087D01*
X138648498Y-99510000D01*
X138628543Y-99281913D01*
X138603506Y-99188475D01*
X138570707Y-99066067D01*
X138570706Y-99066065D01*
X138569284Y-99060757D01*
X138565125Y-99051837D01*
X138474849Y-98858238D01*
X138474846Y-98858233D01*
X138472523Y-98853251D01*
X138346565Y-98673365D01*
X138344357Y-98670211D01*
X138344355Y-98670208D01*
X138341198Y-98665700D01*
X138179300Y-98503802D01*
X138174792Y-98500645D01*
X138174789Y-98500643D01*
X138091526Y-98442342D01*
X137991749Y-98372477D01*
X137986767Y-98370154D01*
X137986762Y-98370151D01*
X137952543Y-98354195D01*
X137899258Y-98307278D01*
X137879797Y-98239001D01*
X137900339Y-98171041D01*
X137952543Y-98125805D01*
X137986762Y-98109849D01*
X137986767Y-98109846D01*
X137991749Y-98107523D01*
X138101620Y-98030590D01*
X138174789Y-97979357D01*
X138174792Y-97979355D01*
X138179300Y-97976198D01*
X138341198Y-97814300D01*
X138371872Y-97770494D01*
X138431477Y-97685369D01*
X138472523Y-97626749D01*
X138474846Y-97621767D01*
X138474849Y-97621762D01*
X138566961Y-97424225D01*
X138566961Y-97424224D01*
X138569284Y-97419243D01*
X138587284Y-97352069D01*
X138627119Y-97203402D01*
X138627119Y-97203400D01*
X138628543Y-97198087D01*
X138648498Y-96970000D01*
X138628543Y-96741913D01*
X138627119Y-96736598D01*
X138570707Y-96526067D01*
X138570706Y-96526065D01*
X138569284Y-96520757D01*
X138563398Y-96508134D01*
X138474849Y-96318238D01*
X138474846Y-96318233D01*
X138472523Y-96313251D01*
X138373663Y-96172065D01*
X138344357Y-96130211D01*
X138344355Y-96130208D01*
X138341198Y-96125700D01*
X138179300Y-95963802D01*
X138174792Y-95960645D01*
X138174789Y-95960643D01*
X138059484Y-95879906D01*
X137991749Y-95832477D01*
X137986767Y-95830154D01*
X137986762Y-95830151D01*
X137952543Y-95814195D01*
X137899258Y-95767278D01*
X137879797Y-95699001D01*
X137900339Y-95631041D01*
X137952543Y-95585805D01*
X137986762Y-95569849D01*
X137986767Y-95569846D01*
X137991749Y-95567523D01*
X138096611Y-95494098D01*
X138174789Y-95439357D01*
X138174792Y-95439355D01*
X138179300Y-95436198D01*
X138341198Y-95274300D01*
X138472523Y-95086749D01*
X138474846Y-95081767D01*
X138474849Y-95081762D01*
X138566961Y-94884225D01*
X138566961Y-94884224D01*
X138569284Y-94879243D01*
X138628543Y-94658087D01*
X138648498Y-94430000D01*
X138628543Y-94201913D01*
X138611282Y-94137495D01*
X138570707Y-93986067D01*
X138570706Y-93986065D01*
X138569284Y-93980757D01*
X138561724Y-93964544D01*
X138474849Y-93778238D01*
X138474846Y-93778233D01*
X138472523Y-93773251D01*
X138341198Y-93585700D01*
X138179300Y-93423802D01*
X138174792Y-93420645D01*
X138174789Y-93420643D01*
X138006560Y-93302848D01*
X137991749Y-93292477D01*
X137986767Y-93290154D01*
X137986762Y-93290151D01*
X137951951Y-93273919D01*
X137898666Y-93227002D01*
X137879205Y-93158725D01*
X137899747Y-93090765D01*
X137951951Y-93045529D01*
X137986511Y-93029414D01*
X137996007Y-93023931D01*
X138174467Y-92898972D01*
X138182875Y-92891916D01*
X138336916Y-92737875D01*
X138343972Y-92729467D01*
X138468931Y-92551007D01*
X138474414Y-92541511D01*
X138566490Y-92344053D01*
X138570236Y-92333761D01*
X138616394Y-92161497D01*
X138616058Y-92147401D01*
X138608116Y-92144000D01*
X135667033Y-92144000D01*
X135653502Y-92147973D01*
X135652273Y-92156522D01*
X135699764Y-92333761D01*
X135703510Y-92344053D01*
X135795586Y-92541511D01*
X135801069Y-92551007D01*
X135926028Y-92729467D01*
X135933084Y-92737875D01*
X136087125Y-92891916D01*
X136095533Y-92898972D01*
X136273993Y-93023931D01*
X136283489Y-93029414D01*
X136318049Y-93045529D01*
X136371334Y-93092446D01*
X136390795Y-93160723D01*
X136370253Y-93228683D01*
X136318049Y-93273919D01*
X136283238Y-93290151D01*
X136283233Y-93290154D01*
X136278251Y-93292477D01*
X136263440Y-93302848D01*
X136095211Y-93420643D01*
X136095208Y-93420645D01*
X136090700Y-93423802D01*
X135928802Y-93585700D01*
X135797477Y-93773251D01*
X135795154Y-93778233D01*
X135795151Y-93778238D01*
X135708276Y-93964544D01*
X135700716Y-93980757D01*
X135699294Y-93986065D01*
X135699293Y-93986067D01*
X135658718Y-94137495D01*
X135641457Y-94201913D01*
X135621502Y-94430000D01*
X135641457Y-94658087D01*
X135700716Y-94879243D01*
X135703039Y-94884224D01*
X135703039Y-94884225D01*
X135795151Y-95081762D01*
X135795154Y-95081767D01*
X135797477Y-95086749D01*
X135928802Y-95274300D01*
X136090700Y-95436198D01*
X136095208Y-95439355D01*
X136095211Y-95439357D01*
X136173389Y-95494098D01*
X136278251Y-95567523D01*
X136283233Y-95569846D01*
X136283238Y-95569849D01*
X136317457Y-95585805D01*
X136370742Y-95632722D01*
X136390203Y-95700999D01*
X136369661Y-95768959D01*
X136317457Y-95814195D01*
X136283238Y-95830151D01*
X136283233Y-95830154D01*
X136278251Y-95832477D01*
X136210516Y-95879906D01*
X136095211Y-95960643D01*
X136095208Y-95960645D01*
X136090700Y-95963802D01*
X135928802Y-96125700D01*
X135925645Y-96130208D01*
X135925643Y-96130211D01*
X135896337Y-96172065D01*
X135797477Y-96313251D01*
X135795154Y-96318233D01*
X135795151Y-96318238D01*
X135706602Y-96508134D01*
X135700716Y-96520757D01*
X135699294Y-96526065D01*
X135699293Y-96526067D01*
X135642881Y-96736598D01*
X135641457Y-96741913D01*
X135621502Y-96970000D01*
X135641457Y-97198087D01*
X135642881Y-97203400D01*
X135642881Y-97203402D01*
X135682717Y-97352069D01*
X135700716Y-97419243D01*
X135703039Y-97424224D01*
X135703039Y-97424225D01*
X135795151Y-97621762D01*
X135795154Y-97621767D01*
X135797477Y-97626749D01*
X135838523Y-97685369D01*
X135898129Y-97770494D01*
X135928802Y-97814300D01*
X136090700Y-97976198D01*
X136095208Y-97979355D01*
X136095211Y-97979357D01*
X136168380Y-98030590D01*
X136278251Y-98107523D01*
X136283233Y-98109846D01*
X136283238Y-98109849D01*
X136317457Y-98125805D01*
X136370742Y-98172722D01*
X136390203Y-98240999D01*
X136369661Y-98308959D01*
X136317457Y-98354195D01*
X136283238Y-98370151D01*
X136283233Y-98370154D01*
X136278251Y-98372477D01*
X136178474Y-98442342D01*
X136095211Y-98500643D01*
X136095208Y-98500645D01*
X136090700Y-98503802D01*
X135928802Y-98665700D01*
X135925645Y-98670208D01*
X135925643Y-98670211D01*
X135923435Y-98673365D01*
X135797477Y-98853251D01*
X135795154Y-98858233D01*
X135795151Y-98858238D01*
X135704875Y-99051837D01*
X135700716Y-99060757D01*
X135699294Y-99066065D01*
X135699293Y-99066067D01*
X135666494Y-99188475D01*
X135641457Y-99281913D01*
X135621502Y-99510000D01*
X135641457Y-99738087D01*
X135642881Y-99743400D01*
X135642881Y-99743402D01*
X135691115Y-99923410D01*
X135700716Y-99959243D01*
X135703039Y-99964224D01*
X135703039Y-99964225D01*
X135795151Y-100161762D01*
X135795154Y-100161767D01*
X135797477Y-100166749D01*
X135855549Y-100249684D01*
X135898129Y-100310494D01*
X135928802Y-100354300D01*
X136090700Y-100516198D01*
X136095208Y-100519355D01*
X136095211Y-100519357D01*
X136155386Y-100561492D01*
X136278251Y-100647523D01*
X136283233Y-100649846D01*
X136283238Y-100649849D01*
X136317457Y-100665805D01*
X136370742Y-100712722D01*
X136390203Y-100780999D01*
X136369661Y-100848959D01*
X136317457Y-100894195D01*
X136283238Y-100910151D01*
X136283233Y-100910154D01*
X136278251Y-100912477D01*
X136200596Y-100966852D01*
X136095211Y-101040643D01*
X136095208Y-101040645D01*
X136090700Y-101043802D01*
X135928802Y-101205700D01*
X135925645Y-101210208D01*
X135925643Y-101210211D01*
X135892109Y-101258103D01*
X135797477Y-101393251D01*
X135795154Y-101398233D01*
X135795151Y-101398238D01*
X135725032Y-101548611D01*
X135700716Y-101600757D01*
X135699294Y-101606065D01*
X135699293Y-101606067D01*
X135642881Y-101816598D01*
X135641457Y-101821913D01*
X135621502Y-102050000D01*
X135641457Y-102278087D01*
X135642881Y-102283400D01*
X135642881Y-102283402D01*
X135680357Y-102423261D01*
X135700716Y-102499243D01*
X135703039Y-102504224D01*
X135703039Y-102504225D01*
X135795151Y-102701762D01*
X135795154Y-102701767D01*
X135797477Y-102706749D01*
X135855262Y-102789274D01*
X135916172Y-102876262D01*
X135928802Y-102894300D01*
X136090700Y-103056198D01*
X136095208Y-103059355D01*
X136095211Y-103059357D01*
X136173389Y-103114098D01*
X136278251Y-103187523D01*
X136283233Y-103189846D01*
X136283238Y-103189849D01*
X136317457Y-103205805D01*
X136370742Y-103252722D01*
X136390203Y-103320999D01*
X136369661Y-103388959D01*
X136317457Y-103434195D01*
X136283238Y-103450151D01*
X136283233Y-103450154D01*
X136278251Y-103452477D01*
X136176279Y-103523879D01*
X136095211Y-103580643D01*
X136095208Y-103580645D01*
X136090700Y-103583802D01*
X135928802Y-103745700D01*
X135925645Y-103750208D01*
X135925643Y-103750211D01*
X135818819Y-103902771D01*
X135763362Y-103947099D01*
X135715606Y-103956500D01*
X119658763Y-103956500D01*
X119647579Y-103955973D01*
X119640091Y-103954299D01*
X119632168Y-103954548D01*
X119572033Y-103956438D01*
X119568075Y-103956500D01*
X119540144Y-103956500D01*
X119536229Y-103956995D01*
X119536225Y-103956995D01*
X119536167Y-103957003D01*
X119536138Y-103957006D01*
X119524296Y-103957939D01*
X119480110Y-103959327D01*
X119462744Y-103964372D01*
X119460658Y-103964978D01*
X119441306Y-103968986D01*
X119429068Y-103970532D01*
X119429066Y-103970533D01*
X119421203Y-103971526D01*
X119380086Y-103987806D01*
X119368885Y-103991641D01*
X119326406Y-104003982D01*
X119319587Y-104008015D01*
X119319582Y-104008017D01*
X119308971Y-104014293D01*
X119291221Y-104022990D01*
X119272383Y-104030448D01*
X119265967Y-104035109D01*
X119265966Y-104035110D01*
X119236625Y-104056428D01*
X119226701Y-104062947D01*
X119195460Y-104081422D01*
X119195455Y-104081426D01*
X119188637Y-104085458D01*
X119174313Y-104099782D01*
X119159281Y-104112621D01*
X119142893Y-104124528D01*
X119123945Y-104147432D01*
X119114712Y-104158593D01*
X119106722Y-104167373D01*
X116739500Y-106534595D01*
X116677188Y-106568621D01*
X116650405Y-106571500D01*
X111460623Y-106571500D01*
X111392502Y-106551498D01*
X111346009Y-106497842D01*
X111335905Y-106427568D01*
X111342641Y-106401271D01*
X111351471Y-106377718D01*
X111351473Y-106377712D01*
X111354245Y-106370316D01*
X111361000Y-106308134D01*
X111361000Y-105561866D01*
X111354245Y-105499684D01*
X111326623Y-105426002D01*
X111306266Y-105371699D01*
X111306264Y-105371696D01*
X111303115Y-105363295D01*
X111299773Y-105358836D01*
X111284970Y-105291152D01*
X111299567Y-105241439D01*
X111303115Y-105236705D01*
X111306987Y-105226379D01*
X111351471Y-105107715D01*
X111354245Y-105100316D01*
X111361000Y-105038134D01*
X111361000Y-104549780D01*
X111381002Y-104481659D01*
X111434658Y-104435166D01*
X111504932Y-104425062D01*
X111569512Y-104454556D01*
X111576018Y-104460607D01*
X111679329Y-104563739D01*
X111690740Y-104572751D01*
X111828743Y-104657816D01*
X111841924Y-104663963D01*
X111996210Y-104715138D01*
X112009586Y-104718005D01*
X112103938Y-104727672D01*
X112110354Y-104728000D01*
X112360385Y-104728000D01*
X112375624Y-104723525D01*
X112376829Y-104722135D01*
X112378500Y-104714452D01*
X112378500Y-104709884D01*
X112886500Y-104709884D01*
X112890975Y-104725123D01*
X112892365Y-104726328D01*
X112900048Y-104727999D01*
X113154595Y-104727999D01*
X113161114Y-104727662D01*
X113256706Y-104717743D01*
X113270100Y-104714851D01*
X113424284Y-104663412D01*
X113437462Y-104657239D01*
X113575307Y-104571937D01*
X113586708Y-104562901D01*
X113701239Y-104448171D01*
X113710251Y-104436760D01*
X113795316Y-104298757D01*
X113801463Y-104285576D01*
X113852638Y-104131290D01*
X113855505Y-104117914D01*
X113865172Y-104023562D01*
X113865500Y-104017146D01*
X113865500Y-103992115D01*
X113861025Y-103976876D01*
X113859635Y-103975671D01*
X113851952Y-103974000D01*
X112904615Y-103974000D01*
X112889376Y-103978475D01*
X112888171Y-103979865D01*
X112886500Y-103987548D01*
X112886500Y-104709884D01*
X112378500Y-104709884D01*
X112378500Y-103592000D01*
X112398502Y-103523879D01*
X112452158Y-103477386D01*
X112504500Y-103466000D01*
X113847384Y-103466000D01*
X113862623Y-103461525D01*
X113863828Y-103460135D01*
X113865499Y-103452452D01*
X113865499Y-103422905D01*
X113865162Y-103416386D01*
X113855243Y-103320794D01*
X113852351Y-103307400D01*
X113800912Y-103153216D01*
X113794739Y-103140038D01*
X113709437Y-103002193D01*
X113700401Y-102990792D01*
X113585672Y-102876262D01*
X113576738Y-102869206D01*
X113535677Y-102811288D01*
X113532447Y-102740365D01*
X113568074Y-102678954D01*
X113575907Y-102672154D01*
X113581848Y-102668478D01*
X113706805Y-102543303D01*
X113721767Y-102519030D01*
X113795775Y-102398968D01*
X113795776Y-102398966D01*
X113799615Y-102392738D01*
X113837643Y-102278087D01*
X113853132Y-102231389D01*
X113853132Y-102231387D01*
X113855297Y-102224861D01*
X113866000Y-102120400D01*
X113866000Y-101519600D01*
X113863234Y-101492939D01*
X113855738Y-101420692D01*
X113855737Y-101420688D01*
X113855026Y-101413834D01*
X113844083Y-101381032D01*
X113801368Y-101253002D01*
X113799050Y-101246054D01*
X113705978Y-101095652D01*
X113580803Y-100970695D01*
X113574569Y-100966852D01*
X113530883Y-100939923D01*
X113483390Y-100887151D01*
X113471000Y-100832664D01*
X113471000Y-100736999D01*
X113487881Y-100673999D01*
X113543723Y-100577279D01*
X113543724Y-100577278D01*
X113547027Y-100571556D01*
X113606042Y-100389928D01*
X113606811Y-100382617D01*
X113625314Y-100206565D01*
X113626004Y-100200000D01*
X113615227Y-100097464D01*
X113606732Y-100016635D01*
X113606732Y-100016633D01*
X113606042Y-100010072D01*
X113547027Y-99828444D01*
X113538977Y-99814500D01*
X113477778Y-99708502D01*
X113451540Y-99663056D01*
X113388118Y-99592618D01*
X113328175Y-99526045D01*
X113328174Y-99526044D01*
X113323753Y-99521134D01*
X113169252Y-99408882D01*
X113163224Y-99406198D01*
X113163222Y-99406197D01*
X113000819Y-99333891D01*
X113000818Y-99333891D01*
X112994788Y-99331206D01*
X112901387Y-99311353D01*
X112814444Y-99292872D01*
X112814439Y-99292872D01*
X112807987Y-99291500D01*
X112617013Y-99291500D01*
X112610561Y-99292872D01*
X112610556Y-99292872D01*
X112523613Y-99311353D01*
X112430212Y-99331206D01*
X112424182Y-99333891D01*
X112424181Y-99333891D01*
X112261778Y-99406197D01*
X112261776Y-99406198D01*
X112255748Y-99408882D01*
X112101247Y-99521134D01*
X112096826Y-99526044D01*
X112096825Y-99526045D01*
X112036883Y-99592618D01*
X111973460Y-99663056D01*
X111947222Y-99708502D01*
X111886024Y-99814500D01*
X111877973Y-99828444D01*
X111818958Y-100010072D01*
X111818268Y-100016633D01*
X111818268Y-100016635D01*
X111809773Y-100097464D01*
X111798996Y-100200000D01*
X111799686Y-100206565D01*
X111818190Y-100382617D01*
X111818958Y-100389928D01*
X111877973Y-100571556D01*
X111881276Y-100577278D01*
X111881277Y-100577279D01*
X111937119Y-100673999D01*
X111954000Y-100736999D01*
X111954000Y-100747475D01*
X111933998Y-100815596D01*
X111880342Y-100862089D01*
X111867877Y-100866998D01*
X111840507Y-100876129D01*
X111840497Y-100876133D01*
X111833554Y-100878450D01*
X111683152Y-100971522D01*
X111558195Y-101096697D01*
X111554355Y-101102927D01*
X111554354Y-101102928D01*
X111472542Y-101235652D01*
X111465385Y-101247262D01*
X111421120Y-101380717D01*
X111419859Y-101384520D01*
X111379429Y-101442880D01*
X111313865Y-101470117D01*
X111243983Y-101457584D01*
X111216600Y-101437859D01*
X111215761Y-101436739D01*
X111099205Y-101349385D01*
X110962816Y-101298255D01*
X110900634Y-101291500D01*
X109304366Y-101291500D01*
X109242184Y-101298255D01*
X109105795Y-101349385D01*
X108989239Y-101436739D01*
X108901885Y-101553295D01*
X108850755Y-101689684D01*
X108844000Y-101751866D01*
X108844000Y-102498134D01*
X108850755Y-102560316D01*
X108853529Y-102567715D01*
X108875722Y-102626915D01*
X108880905Y-102697722D01*
X108846984Y-102760091D01*
X108784729Y-102794221D01*
X108713905Y-102789274D01*
X108668645Y-102760240D01*
X107659906Y-101751501D01*
X107625880Y-101689189D01*
X107623001Y-101662406D01*
X107623001Y-101392574D01*
X107623528Y-101381390D01*
X107625202Y-101373902D01*
X107623063Y-101305843D01*
X107623001Y-101301886D01*
X107623001Y-101273955D01*
X107622495Y-101269949D01*
X107621562Y-101258103D01*
X107621222Y-101247262D01*
X107620174Y-101213921D01*
X107614523Y-101194469D01*
X107610515Y-101175117D01*
X107608969Y-101162879D01*
X107608968Y-101162877D01*
X107607975Y-101155014D01*
X107591695Y-101113897D01*
X107587860Y-101102696D01*
X107575519Y-101060217D01*
X107571486Y-101053398D01*
X107571484Y-101053393D01*
X107565208Y-101042782D01*
X107556511Y-101025032D01*
X107549053Y-101006194D01*
X107523072Y-100970434D01*
X107516554Y-100960512D01*
X107498079Y-100929271D01*
X107498075Y-100929266D01*
X107494043Y-100922448D01*
X107479719Y-100908124D01*
X107466877Y-100893089D01*
X107462563Y-100887151D01*
X107454973Y-100876704D01*
X107420907Y-100848522D01*
X107412128Y-100840533D01*
X103462183Y-96890588D01*
X121967483Y-96890588D01*
X121986472Y-97107632D01*
X121988375Y-97118425D01*
X122044764Y-97328874D01*
X122048510Y-97339166D01*
X122140586Y-97536624D01*
X122146071Y-97546124D01*
X122146701Y-97547023D01*
X122146856Y-97547483D01*
X122148818Y-97550881D01*
X122148135Y-97551275D01*
X122169388Y-97614297D01*
X122152102Y-97683157D01*
X122129066Y-97708916D01*
X122130270Y-97710120D01*
X122123919Y-97716471D01*
X122116739Y-97721852D01*
X122111358Y-97729032D01*
X122111355Y-97729035D01*
X122073132Y-97780036D01*
X122029385Y-97838408D01*
X121978255Y-97974797D01*
X121971500Y-98036979D01*
X121971500Y-99733247D01*
X121978255Y-99795429D01*
X122029385Y-99931818D01*
X122116739Y-100048374D01*
X122233295Y-100135728D01*
X122369684Y-100186858D01*
X122431866Y-100193613D01*
X124128134Y-100193613D01*
X124190316Y-100186858D01*
X124326705Y-100135728D01*
X124443261Y-100048374D01*
X124530615Y-99931818D01*
X124581745Y-99795429D01*
X124582598Y-99787573D01*
X124583126Y-99785354D01*
X124618344Y-99723707D01*
X124681299Y-99690887D01*
X124705709Y-99688500D01*
X127638000Y-99688500D01*
X127706121Y-99708502D01*
X127752614Y-99762158D01*
X127764000Y-99814500D01*
X127764000Y-99828134D01*
X127770755Y-99890316D01*
X127821885Y-100026705D01*
X127909239Y-100143261D01*
X128025795Y-100230615D01*
X128162184Y-100281745D01*
X128224366Y-100288500D01*
X130020634Y-100288500D01*
X130082816Y-100281745D01*
X130219205Y-100230615D01*
X130335761Y-100143261D01*
X130423115Y-100026705D01*
X130446538Y-99964225D01*
X130467298Y-99908848D01*
X130509940Y-99852084D01*
X130576501Y-99827384D01*
X130645850Y-99842592D01*
X130680517Y-99870580D01*
X130705718Y-99899673D01*
X130713080Y-99906883D01*
X130876934Y-100042916D01*
X130885381Y-100048831D01*
X131069256Y-100156279D01*
X131078542Y-100160729D01*
X131277501Y-100236703D01*
X131287399Y-100239579D01*
X131390750Y-100260606D01*
X131404799Y-100259410D01*
X131408500Y-100249065D01*
X131408500Y-100248517D01*
X131916500Y-100248517D01*
X131920564Y-100262359D01*
X131933978Y-100264393D01*
X131940684Y-100263534D01*
X131950762Y-100261392D01*
X132154755Y-100200191D01*
X132164342Y-100196433D01*
X132355595Y-100102739D01*
X132364445Y-100097464D01*
X132537828Y-99973792D01*
X132545700Y-99967139D01*
X132696552Y-99816812D01*
X132703230Y-99808965D01*
X132827503Y-99636020D01*
X132832813Y-99627183D01*
X132927170Y-99436267D01*
X132930969Y-99426672D01*
X132992877Y-99222910D01*
X132995055Y-99212837D01*
X132996486Y-99201962D01*
X132994275Y-99187778D01*
X132981117Y-99184000D01*
X131934615Y-99184000D01*
X131919376Y-99188475D01*
X131918171Y-99189865D01*
X131916500Y-99197548D01*
X131916500Y-100248517D01*
X131408500Y-100248517D01*
X131408500Y-98657885D01*
X131916500Y-98657885D01*
X131920975Y-98673124D01*
X131922365Y-98674329D01*
X131930048Y-98676000D01*
X132980844Y-98676000D01*
X132994375Y-98672027D01*
X132995680Y-98662947D01*
X132953714Y-98495875D01*
X132950394Y-98486124D01*
X132865472Y-98290814D01*
X132860605Y-98281739D01*
X132744926Y-98102926D01*
X132738636Y-98094757D01*
X132595306Y-97937240D01*
X132587773Y-97930215D01*
X132420639Y-97798222D01*
X132412052Y-97792517D01*
X132225617Y-97689599D01*
X132216205Y-97685369D01*
X132015459Y-97614280D01*
X132005488Y-97611646D01*
X131934337Y-97598972D01*
X131921040Y-97600432D01*
X131916500Y-97614989D01*
X131916500Y-98657885D01*
X131408500Y-98657885D01*
X131408500Y-97613102D01*
X131404582Y-97599758D01*
X131390306Y-97597771D01*
X131351824Y-97603660D01*
X131341788Y-97606051D01*
X131139368Y-97672212D01*
X131129859Y-97676209D01*
X130940963Y-97774542D01*
X130932238Y-97780036D01*
X130761933Y-97907905D01*
X130754226Y-97914748D01*
X130676978Y-97995584D01*
X130615454Y-98031014D01*
X130544542Y-98027557D01*
X130486755Y-97986311D01*
X130467902Y-97952763D01*
X130426267Y-97841703D01*
X130423115Y-97833295D01*
X130335761Y-97716739D01*
X130219205Y-97629385D01*
X130210804Y-97626236D01*
X130206823Y-97624056D01*
X130156677Y-97573797D01*
X130141664Y-97504406D01*
X130166550Y-97437914D01*
X130178238Y-97424442D01*
X130597275Y-97005405D01*
X130659587Y-96971379D01*
X130686370Y-96968500D01*
X132195634Y-96968500D01*
X132257816Y-96961745D01*
X132394205Y-96910615D01*
X132510761Y-96823261D01*
X132598115Y-96706705D01*
X132649245Y-96570316D01*
X132656000Y-96508134D01*
X132656000Y-93576371D01*
X132676002Y-93508250D01*
X132692905Y-93487276D01*
X135868247Y-90311935D01*
X135930559Y-90277909D01*
X136001375Y-90282974D01*
X136046437Y-90311935D01*
X136090700Y-90356198D01*
X136095208Y-90359355D01*
X136095211Y-90359357D01*
X136133316Y-90386038D01*
X136278251Y-90487523D01*
X136283233Y-90489846D01*
X136283238Y-90489849D01*
X136318049Y-90506081D01*
X136371334Y-90552998D01*
X136390795Y-90621275D01*
X136370253Y-90689235D01*
X136318049Y-90734471D01*
X136283489Y-90750586D01*
X136273993Y-90756069D01*
X136095533Y-90881028D01*
X136087125Y-90888084D01*
X135933084Y-91042125D01*
X135926028Y-91050533D01*
X135801069Y-91228993D01*
X135795586Y-91238489D01*
X135703510Y-91435947D01*
X135699764Y-91446239D01*
X135653606Y-91618503D01*
X135653942Y-91632599D01*
X135661884Y-91636000D01*
X138602967Y-91636000D01*
X138616498Y-91632027D01*
X138617727Y-91623478D01*
X138570236Y-91446239D01*
X138566490Y-91435947D01*
X138474414Y-91238489D01*
X138468931Y-91228993D01*
X138343972Y-91050533D01*
X138336916Y-91042125D01*
X138182875Y-90888084D01*
X138174467Y-90881028D01*
X137996007Y-90756069D01*
X137986511Y-90750586D01*
X137951951Y-90734471D01*
X137898666Y-90687554D01*
X137879205Y-90619277D01*
X137899747Y-90551317D01*
X137951951Y-90506081D01*
X137986762Y-90489849D01*
X137986767Y-90489846D01*
X137991749Y-90487523D01*
X138136684Y-90386038D01*
X138174789Y-90359357D01*
X138174792Y-90359355D01*
X138179300Y-90356198D01*
X138341198Y-90194300D01*
X138370375Y-90152632D01*
X138469366Y-90011257D01*
X138472523Y-90006749D01*
X138474846Y-90001767D01*
X138474849Y-90001762D01*
X138566961Y-89804225D01*
X138566961Y-89804224D01*
X138569284Y-89799243D01*
X138595397Y-89701791D01*
X138627119Y-89583402D01*
X138627119Y-89583400D01*
X138628543Y-89578087D01*
X138648498Y-89350000D01*
X138628543Y-89121913D01*
X138576510Y-88927724D01*
X138570707Y-88906067D01*
X138570706Y-88906065D01*
X138569284Y-88900757D01*
X138566961Y-88895775D01*
X138474849Y-88698238D01*
X138474846Y-88698233D01*
X138472523Y-88693251D01*
X138341198Y-88505700D01*
X138179300Y-88343802D01*
X138174792Y-88340645D01*
X138174789Y-88340643D01*
X138096611Y-88285902D01*
X137991749Y-88212477D01*
X137986767Y-88210154D01*
X137986762Y-88210151D01*
X137789225Y-88118039D01*
X137789224Y-88118039D01*
X137784243Y-88115716D01*
X137778935Y-88114294D01*
X137778933Y-88114293D01*
X137568402Y-88057881D01*
X137568400Y-88057881D01*
X137563087Y-88056457D01*
X137463520Y-88047746D01*
X137394851Y-88041738D01*
X137394844Y-88041738D01*
X137392127Y-88041500D01*
X136877873Y-88041500D01*
X136875156Y-88041738D01*
X136875149Y-88041738D01*
X136806480Y-88047746D01*
X136706913Y-88056457D01*
X136701600Y-88057881D01*
X136701598Y-88057881D01*
X136491067Y-88114293D01*
X136491065Y-88114294D01*
X136485757Y-88115716D01*
X136480776Y-88118039D01*
X136480775Y-88118039D01*
X136283238Y-88210151D01*
X136283233Y-88210154D01*
X136278251Y-88212477D01*
X136173389Y-88285902D01*
X136095211Y-88340643D01*
X136095208Y-88340645D01*
X136090700Y-88343802D01*
X135928802Y-88505700D01*
X135925645Y-88510208D01*
X135925643Y-88510211D01*
X135908409Y-88534824D01*
X135852952Y-88579152D01*
X135798795Y-88585617D01*
X135798706Y-88588157D01*
X135791384Y-88587901D01*
X135784151Y-88586801D01*
X135776859Y-88587394D01*
X135776856Y-88587394D01*
X135731482Y-88591085D01*
X135721267Y-88591500D01*
X135713207Y-88591500D01*
X135709573Y-88591924D01*
X135709567Y-88591924D01*
X135696542Y-88593443D01*
X135684980Y-88594791D01*
X135680632Y-88595221D01*
X135607864Y-88601140D01*
X135600903Y-88603395D01*
X135594963Y-88604582D01*
X135589088Y-88605971D01*
X135581819Y-88606818D01*
X135513170Y-88631736D01*
X135509042Y-88633153D01*
X135446564Y-88653393D01*
X135446562Y-88653394D01*
X135439601Y-88655649D01*
X135433346Y-88659445D01*
X135427872Y-88661951D01*
X135422442Y-88664670D01*
X135415563Y-88667167D01*
X135409443Y-88671180D01*
X135409442Y-88671180D01*
X135354524Y-88707186D01*
X135350820Y-88709523D01*
X135288393Y-88747405D01*
X135280016Y-88754803D01*
X135279992Y-88754776D01*
X135277000Y-88757429D01*
X135273767Y-88760132D01*
X135267648Y-88764144D01*
X135262616Y-88769456D01*
X135214372Y-88820383D01*
X135211994Y-88822825D01*
X131620224Y-92414595D01*
X131557912Y-92448621D01*
X131531129Y-92451500D01*
X128599366Y-92451500D01*
X128537184Y-92458255D01*
X128400795Y-92509385D01*
X128284239Y-92596739D01*
X128196885Y-92713295D01*
X128193736Y-92721696D01*
X128192519Y-92723918D01*
X128142260Y-92774064D01*
X128072869Y-92789077D01*
X128006377Y-92764191D01*
X127963895Y-92707307D01*
X127956000Y-92663408D01*
X127956000Y-90742636D01*
X127955672Y-90736564D01*
X127953117Y-90689401D01*
X127952881Y-90685043D01*
X127907880Y-90454607D01*
X127824696Y-90235048D01*
X127705709Y-90032644D01*
X127554319Y-89853181D01*
X127374856Y-89701791D01*
X127172452Y-89582804D01*
X127006582Y-89519961D01*
X128139501Y-89519961D01*
X128139709Y-89525071D01*
X128150582Y-89658767D01*
X128152352Y-89669320D01*
X128205467Y-89876185D01*
X128209201Y-89886731D01*
X128298010Y-90080705D01*
X128303546Y-90090412D01*
X128425303Y-90265597D01*
X128432476Y-90274176D01*
X128583324Y-90425024D01*
X128591903Y-90432197D01*
X128767088Y-90553954D01*
X128776795Y-90559490D01*
X128970769Y-90648299D01*
X128981315Y-90652033D01*
X129188179Y-90705147D01*
X129198734Y-90706918D01*
X129332430Y-90717793D01*
X129337536Y-90718000D01*
X130125385Y-90718000D01*
X130140624Y-90713525D01*
X130141829Y-90712135D01*
X130143500Y-90704452D01*
X130143500Y-90699884D01*
X130651500Y-90699884D01*
X130655975Y-90715123D01*
X130657365Y-90716328D01*
X130665048Y-90717999D01*
X131457461Y-90717999D01*
X131462571Y-90717791D01*
X131596267Y-90706918D01*
X131606820Y-90705148D01*
X131813685Y-90652033D01*
X131824231Y-90648299D01*
X132018205Y-90559490D01*
X132027912Y-90553954D01*
X132203097Y-90432197D01*
X132211676Y-90425024D01*
X132362524Y-90274176D01*
X132369697Y-90265597D01*
X132491454Y-90090412D01*
X132496990Y-90080705D01*
X132585799Y-89886731D01*
X132589533Y-89876185D01*
X132642647Y-89669321D01*
X132644418Y-89658766D01*
X132655293Y-89525070D01*
X132655500Y-89519964D01*
X132655500Y-88982115D01*
X132651025Y-88966876D01*
X132649635Y-88965671D01*
X132641952Y-88964000D01*
X130669615Y-88964000D01*
X130654376Y-88968475D01*
X130653171Y-88969865D01*
X130651500Y-88977548D01*
X130651500Y-90699884D01*
X130143500Y-90699884D01*
X130143500Y-88982115D01*
X130139025Y-88966876D01*
X130137635Y-88965671D01*
X130129952Y-88964000D01*
X128157616Y-88964000D01*
X128142377Y-88968475D01*
X128141172Y-88969865D01*
X128139501Y-88977548D01*
X128139501Y-89519961D01*
X127006582Y-89519961D01*
X126952893Y-89499620D01*
X126910351Y-89491312D01*
X126726743Y-89455456D01*
X126722457Y-89454619D01*
X126716727Y-89454309D01*
X126666552Y-89451591D01*
X126666537Y-89451591D01*
X126664864Y-89451500D01*
X124730136Y-89451500D01*
X124728463Y-89451591D01*
X124728448Y-89451591D01*
X124678273Y-89454309D01*
X124672543Y-89454619D01*
X124668257Y-89455456D01*
X124484650Y-89491312D01*
X124442107Y-89499620D01*
X124222548Y-89582804D01*
X124020144Y-89701791D01*
X123840681Y-89853181D01*
X123689291Y-90032644D01*
X123570304Y-90235048D01*
X123487120Y-90454607D01*
X123442119Y-90685043D01*
X123441883Y-90689401D01*
X123439329Y-90736564D01*
X123439000Y-90742636D01*
X123439000Y-92677364D01*
X123439091Y-92679037D01*
X123439091Y-92679052D01*
X123440862Y-92711755D01*
X123442119Y-92734957D01*
X123487120Y-92965393D01*
X123570304Y-93184952D01*
X123689291Y-93387356D01*
X123840681Y-93566819D01*
X124020144Y-93718209D01*
X124222548Y-93837196D01*
X124442107Y-93920380D01*
X124672543Y-93965381D01*
X124676901Y-93965617D01*
X124728448Y-93968409D01*
X124728463Y-93968409D01*
X124730136Y-93968500D01*
X126664864Y-93968500D01*
X126666537Y-93968409D01*
X126666552Y-93968409D01*
X126718099Y-93965617D01*
X126722457Y-93965381D01*
X126952893Y-93920380D01*
X127172452Y-93837196D01*
X127374856Y-93718209D01*
X127554319Y-93566819D01*
X127705709Y-93387356D01*
X127824696Y-93184952D01*
X127895173Y-92998932D01*
X127938012Y-92942317D01*
X128004660Y-92917849D01*
X128073955Y-92933298D01*
X128123898Y-92983759D01*
X128139000Y-93043573D01*
X128139000Y-96508134D01*
X128145755Y-96570316D01*
X128196885Y-96706705D01*
X128284239Y-96823261D01*
X128291419Y-96828642D01*
X128400795Y-96910615D01*
X128398762Y-96913327D01*
X128437305Y-96951953D01*
X128452322Y-97021344D01*
X128443520Y-97059316D01*
X128425402Y-97104275D01*
X128422696Y-97110499D01*
X128395378Y-97168950D01*
X128393886Y-97176122D01*
X128393886Y-97176123D01*
X128393445Y-97178244D01*
X128386954Y-97199676D01*
X128383402Y-97208489D01*
X128382302Y-97215719D01*
X128382301Y-97215723D01*
X128373699Y-97272270D01*
X128372492Y-97278978D01*
X128365728Y-97311500D01*
X128359360Y-97342115D01*
X128359558Y-97349426D01*
X128359617Y-97351594D01*
X128358229Y-97373962D01*
X128356801Y-97383349D01*
X128360323Y-97426638D01*
X128361026Y-97435283D01*
X128346613Y-97504802D01*
X128296904Y-97555492D01*
X128235441Y-97571500D01*
X128224366Y-97571500D01*
X128162184Y-97578255D01*
X128025795Y-97629385D01*
X127909239Y-97716739D01*
X127821885Y-97833295D01*
X127770755Y-97969684D01*
X127764000Y-98031866D01*
X127764000Y-98045500D01*
X127743998Y-98113621D01*
X127690342Y-98160114D01*
X127638000Y-98171500D01*
X124714500Y-98171500D01*
X124646379Y-98151498D01*
X124599886Y-98097842D01*
X124588500Y-98045500D01*
X124588500Y-98036979D01*
X124581745Y-97974797D01*
X124530615Y-97838408D01*
X124486868Y-97780036D01*
X124448645Y-97729035D01*
X124448642Y-97729032D01*
X124443261Y-97721852D01*
X124436081Y-97716471D01*
X124429730Y-97710120D01*
X124431872Y-97707978D01*
X124398436Y-97663267D01*
X124393406Y-97592449D01*
X124411523Y-97551078D01*
X124411182Y-97550881D01*
X124412952Y-97547815D01*
X124413299Y-97547023D01*
X124413929Y-97546124D01*
X124419414Y-97536624D01*
X124511490Y-97339166D01*
X124515236Y-97328874D01*
X124571625Y-97118425D01*
X124573528Y-97107632D01*
X124592517Y-96890588D01*
X124592517Y-96879638D01*
X124573528Y-96662594D01*
X124571625Y-96651801D01*
X124515236Y-96441352D01*
X124511490Y-96431060D01*
X124419414Y-96233602D01*
X124413931Y-96224107D01*
X124377491Y-96172065D01*
X124367012Y-96163689D01*
X124353566Y-96170757D01*
X123369095Y-97155228D01*
X123306783Y-97189254D01*
X123235968Y-97184189D01*
X123190905Y-97155228D01*
X122205713Y-96170036D01*
X122193938Y-96163606D01*
X122181923Y-96172902D01*
X122146069Y-96224107D01*
X122140586Y-96233602D01*
X122048510Y-96431060D01*
X122044764Y-96441352D01*
X121988375Y-96651801D01*
X121986472Y-96662594D01*
X121967483Y-96879638D01*
X121967483Y-96890588D01*
X103462183Y-96890588D01*
X102369696Y-95798101D01*
X122558576Y-95798101D01*
X122565644Y-95811547D01*
X123267188Y-96513091D01*
X123281132Y-96520705D01*
X123282965Y-96520574D01*
X123289580Y-96516323D01*
X123995077Y-95810826D01*
X124001507Y-95799051D01*
X123992211Y-95787036D01*
X123941006Y-95751182D01*
X123931511Y-95745699D01*
X123734053Y-95653623D01*
X123723761Y-95649877D01*
X123513312Y-95593488D01*
X123502519Y-95591585D01*
X123285475Y-95572596D01*
X123274525Y-95572596D01*
X123057481Y-95591585D01*
X123046688Y-95593488D01*
X122836239Y-95649877D01*
X122825947Y-95653623D01*
X122628489Y-95745699D01*
X122618994Y-95751182D01*
X122566952Y-95787622D01*
X122558576Y-95798101D01*
X102369696Y-95798101D01*
X100939342Y-94367747D01*
X100931802Y-94359461D01*
X100927690Y-94352982D01*
X100878038Y-94306356D01*
X100875197Y-94303602D01*
X100855460Y-94283865D01*
X100852263Y-94281385D01*
X100843241Y-94273680D01*
X100816790Y-94248841D01*
X100811011Y-94243414D01*
X100804065Y-94239595D01*
X100804062Y-94239593D01*
X100793256Y-94233652D01*
X100776737Y-94222801D01*
X100776273Y-94222441D01*
X100760731Y-94210386D01*
X100753462Y-94207241D01*
X100753458Y-94207238D01*
X100720153Y-94192826D01*
X100709503Y-94187609D01*
X100670750Y-94166305D01*
X100651127Y-94161267D01*
X100632424Y-94154863D01*
X100621110Y-94149967D01*
X100621109Y-94149967D01*
X100613835Y-94146819D01*
X100606012Y-94145580D01*
X100606002Y-94145577D01*
X100570166Y-94139901D01*
X100558546Y-94137495D01*
X100523401Y-94128472D01*
X100523400Y-94128472D01*
X100515720Y-94126500D01*
X100495466Y-94126500D01*
X100475755Y-94124949D01*
X100463576Y-94123020D01*
X100455747Y-94121780D01*
X100447855Y-94122526D01*
X100411729Y-94125941D01*
X100399871Y-94126500D01*
X88391764Y-94126500D01*
X88323643Y-94106498D01*
X88302669Y-94089595D01*
X87700445Y-93487371D01*
X87666419Y-93425059D01*
X87671484Y-93354244D01*
X87714031Y-93297408D01*
X87780551Y-93272597D01*
X87822152Y-93276570D01*
X87844091Y-93282449D01*
X87844102Y-93282451D01*
X87849413Y-93283874D01*
X88077500Y-93303829D01*
X88305587Y-93283874D01*
X88310900Y-93282450D01*
X88310902Y-93282450D01*
X88521433Y-93226038D01*
X88521435Y-93226037D01*
X88526743Y-93224615D01*
X88601943Y-93189549D01*
X88729262Y-93130180D01*
X88729267Y-93130177D01*
X88734249Y-93127854D01*
X88854614Y-93043573D01*
X88917289Y-92999688D01*
X88917292Y-92999686D01*
X88921800Y-92996529D01*
X89083698Y-92834631D01*
X89115596Y-92789077D01*
X89161220Y-92723918D01*
X89215023Y-92647080D01*
X89217346Y-92642098D01*
X89217349Y-92642093D01*
X89309461Y-92444556D01*
X89309461Y-92444555D01*
X89311784Y-92439574D01*
X89320769Y-92406044D01*
X89340793Y-92331312D01*
X89377745Y-92270689D01*
X89441606Y-92239668D01*
X89512100Y-92248096D01*
X89566847Y-92293299D01*
X89584207Y-92331312D01*
X89604232Y-92406044D01*
X89613216Y-92439574D01*
X89615539Y-92444555D01*
X89615539Y-92444556D01*
X89707651Y-92642093D01*
X89707654Y-92642098D01*
X89709977Y-92647080D01*
X89763780Y-92723918D01*
X89809405Y-92789077D01*
X89841302Y-92834631D01*
X90003200Y-92996529D01*
X90007708Y-92999686D01*
X90007711Y-92999688D01*
X90070386Y-93043573D01*
X90190751Y-93127854D01*
X90195733Y-93130177D01*
X90195738Y-93130180D01*
X90323057Y-93189549D01*
X90398257Y-93224615D01*
X90403565Y-93226037D01*
X90403567Y-93226038D01*
X90614098Y-93282450D01*
X90614100Y-93282450D01*
X90619413Y-93283874D01*
X90847500Y-93303829D01*
X91075587Y-93283874D01*
X91080900Y-93282450D01*
X91080902Y-93282450D01*
X91291433Y-93226038D01*
X91291435Y-93226037D01*
X91296743Y-93224615D01*
X91371943Y-93189549D01*
X91499262Y-93130180D01*
X91499267Y-93130177D01*
X91504249Y-93127854D01*
X91624614Y-93043573D01*
X91687289Y-92999688D01*
X91687292Y-92999686D01*
X91691800Y-92996529D01*
X91853698Y-92834631D01*
X91885596Y-92789077D01*
X91931220Y-92723918D01*
X91985023Y-92647080D01*
X91987346Y-92642098D01*
X91987349Y-92642093D01*
X92079461Y-92444556D01*
X92079461Y-92444555D01*
X92081784Y-92439574D01*
X92090769Y-92406044D01*
X92110793Y-92331312D01*
X92147745Y-92270689D01*
X92211606Y-92239668D01*
X92282100Y-92248096D01*
X92336847Y-92293299D01*
X92354207Y-92331312D01*
X92374232Y-92406044D01*
X92383216Y-92439574D01*
X92385539Y-92444555D01*
X92385539Y-92444556D01*
X92477651Y-92642093D01*
X92477654Y-92642098D01*
X92479977Y-92647080D01*
X92533780Y-92723918D01*
X92579405Y-92789077D01*
X92611302Y-92834631D01*
X92773200Y-92996529D01*
X92777708Y-92999686D01*
X92777711Y-92999688D01*
X92840386Y-93043573D01*
X92960751Y-93127854D01*
X92965733Y-93130177D01*
X92965738Y-93130180D01*
X93093057Y-93189549D01*
X93168257Y-93224615D01*
X93173565Y-93226037D01*
X93173567Y-93226038D01*
X93384098Y-93282450D01*
X93384100Y-93282450D01*
X93389413Y-93283874D01*
X93617500Y-93303829D01*
X93845587Y-93283874D01*
X93850900Y-93282450D01*
X93850902Y-93282450D01*
X94061433Y-93226038D01*
X94061435Y-93226037D01*
X94066743Y-93224615D01*
X94141943Y-93189549D01*
X94269262Y-93130180D01*
X94269267Y-93130177D01*
X94274249Y-93127854D01*
X94347742Y-93076393D01*
X95665993Y-93076393D01*
X95675289Y-93088408D01*
X95726494Y-93124262D01*
X95735989Y-93129745D01*
X95933447Y-93221821D01*
X95943739Y-93225567D01*
X96154188Y-93281956D01*
X96164981Y-93283859D01*
X96382025Y-93302848D01*
X96392975Y-93302848D01*
X96610019Y-93283859D01*
X96620812Y-93281956D01*
X96831261Y-93225567D01*
X96841553Y-93221821D01*
X97039011Y-93129745D01*
X97048506Y-93124262D01*
X97100548Y-93087822D01*
X97108924Y-93077343D01*
X97101856Y-93063897D01*
X96400312Y-92362353D01*
X96386368Y-92354739D01*
X96384535Y-92354870D01*
X96377920Y-92359121D01*
X95672423Y-93064618D01*
X95665993Y-93076393D01*
X94347742Y-93076393D01*
X94394614Y-93043573D01*
X94457289Y-92999688D01*
X94457292Y-92999686D01*
X94461800Y-92996529D01*
X94623698Y-92834631D01*
X94655596Y-92789077D01*
X94701220Y-92723918D01*
X94755023Y-92647080D01*
X94757346Y-92642098D01*
X94757349Y-92642093D01*
X94849461Y-92444556D01*
X94849461Y-92444555D01*
X94851784Y-92439574D01*
X94881052Y-92330345D01*
X94918004Y-92269723D01*
X94981865Y-92238701D01*
X95052359Y-92247130D01*
X95107106Y-92292333D01*
X95124466Y-92330346D01*
X95152264Y-92434092D01*
X95156010Y-92444384D01*
X95248086Y-92641842D01*
X95253569Y-92651337D01*
X95290009Y-92703379D01*
X95300488Y-92711755D01*
X95313934Y-92704687D01*
X96015478Y-92003143D01*
X96021856Y-91991463D01*
X96751908Y-91991463D01*
X96752039Y-91993296D01*
X96756290Y-91999911D01*
X97461787Y-92705408D01*
X97473562Y-92711838D01*
X97485577Y-92702542D01*
X97521431Y-92651337D01*
X97526914Y-92641842D01*
X97618990Y-92444384D01*
X97622736Y-92434092D01*
X97650534Y-92330346D01*
X97687485Y-92269723D01*
X97751346Y-92238702D01*
X97821840Y-92247130D01*
X97876588Y-92292333D01*
X97893948Y-92330345D01*
X97923216Y-92439574D01*
X97925539Y-92444555D01*
X97925539Y-92444556D01*
X98017651Y-92642093D01*
X98017654Y-92642098D01*
X98019977Y-92647080D01*
X98073780Y-92723918D01*
X98119405Y-92789077D01*
X98151302Y-92834631D01*
X98313200Y-92996529D01*
X98317708Y-92999686D01*
X98317711Y-92999688D01*
X98380386Y-93043573D01*
X98500751Y-93127854D01*
X98505733Y-93130177D01*
X98505738Y-93130180D01*
X98633057Y-93189549D01*
X98708257Y-93224615D01*
X98713565Y-93226037D01*
X98713567Y-93226038D01*
X98924098Y-93282450D01*
X98924100Y-93282450D01*
X98929413Y-93283874D01*
X99157500Y-93303829D01*
X99385587Y-93283874D01*
X99390900Y-93282450D01*
X99390902Y-93282450D01*
X99601433Y-93226038D01*
X99601435Y-93226037D01*
X99606743Y-93224615D01*
X99681943Y-93189549D01*
X99809262Y-93130180D01*
X99809267Y-93130177D01*
X99814249Y-93127854D01*
X99934614Y-93043573D01*
X99997289Y-92999688D01*
X99997292Y-92999686D01*
X100001800Y-92996529D01*
X100163698Y-92834631D01*
X100195596Y-92789077D01*
X100241220Y-92723918D01*
X100295023Y-92647080D01*
X100297346Y-92642098D01*
X100297349Y-92642093D01*
X100389461Y-92444556D01*
X100389461Y-92444555D01*
X100391784Y-92439574D01*
X100400769Y-92406044D01*
X100420793Y-92331312D01*
X100457745Y-92270689D01*
X100521606Y-92239668D01*
X100592100Y-92248096D01*
X100646847Y-92293299D01*
X100664207Y-92331312D01*
X100684232Y-92406044D01*
X100693216Y-92439574D01*
X100695539Y-92444555D01*
X100695539Y-92444556D01*
X100787651Y-92642093D01*
X100787654Y-92642098D01*
X100789977Y-92647080D01*
X100843780Y-92723918D01*
X100889405Y-92789077D01*
X100921302Y-92834631D01*
X101083200Y-92996529D01*
X101087708Y-92999686D01*
X101087711Y-92999688D01*
X101150386Y-93043573D01*
X101270751Y-93127854D01*
X101275733Y-93130177D01*
X101275738Y-93130180D01*
X101403057Y-93189549D01*
X101478257Y-93224615D01*
X101483565Y-93226037D01*
X101483567Y-93226038D01*
X101694098Y-93282450D01*
X101694100Y-93282450D01*
X101699413Y-93283874D01*
X101927500Y-93303829D01*
X102155587Y-93283874D01*
X102160900Y-93282450D01*
X102160902Y-93282450D01*
X102371433Y-93226038D01*
X102371435Y-93226037D01*
X102376743Y-93224615D01*
X102451943Y-93189549D01*
X102579262Y-93130180D01*
X102579267Y-93130177D01*
X102584249Y-93127854D01*
X102704614Y-93043573D01*
X102767289Y-92999688D01*
X102767292Y-92999686D01*
X102771800Y-92996529D01*
X102933698Y-92834631D01*
X102965596Y-92789077D01*
X103011220Y-92723918D01*
X103065023Y-92647080D01*
X103067346Y-92642098D01*
X103067349Y-92642093D01*
X103159461Y-92444556D01*
X103159461Y-92444555D01*
X103161784Y-92439574D01*
X103170769Y-92406044D01*
X103190793Y-92331312D01*
X103227745Y-92270689D01*
X103291606Y-92239668D01*
X103362100Y-92248096D01*
X103416847Y-92293299D01*
X103434207Y-92331312D01*
X103454232Y-92406044D01*
X103463216Y-92439574D01*
X103465539Y-92444555D01*
X103465539Y-92444556D01*
X103557651Y-92642093D01*
X103557654Y-92642098D01*
X103559977Y-92647080D01*
X103613780Y-92723918D01*
X103659405Y-92789077D01*
X103691302Y-92834631D01*
X103853200Y-92996529D01*
X103857708Y-92999686D01*
X103857711Y-92999688D01*
X103920386Y-93043573D01*
X104040751Y-93127854D01*
X104045733Y-93130177D01*
X104045738Y-93130180D01*
X104173057Y-93189549D01*
X104248257Y-93224615D01*
X104253565Y-93226037D01*
X104253567Y-93226038D01*
X104464098Y-93282450D01*
X104464100Y-93282450D01*
X104469413Y-93283874D01*
X104697500Y-93303829D01*
X104925587Y-93283874D01*
X104930900Y-93282450D01*
X104930902Y-93282450D01*
X105141433Y-93226038D01*
X105141435Y-93226037D01*
X105146743Y-93224615D01*
X105221943Y-93189549D01*
X105349262Y-93130180D01*
X105349267Y-93130177D01*
X105354249Y-93127854D01*
X105474614Y-93043573D01*
X105537289Y-92999688D01*
X105537292Y-92999686D01*
X105541800Y-92996529D01*
X105703698Y-92834631D01*
X105735596Y-92789077D01*
X105781220Y-92723918D01*
X105835023Y-92647080D01*
X105837346Y-92642098D01*
X105837349Y-92642093D01*
X105929461Y-92444556D01*
X105929461Y-92444555D01*
X105931784Y-92439574D01*
X105940769Y-92406044D01*
X105960793Y-92331312D01*
X105997745Y-92270689D01*
X106061606Y-92239668D01*
X106132100Y-92248096D01*
X106186847Y-92293299D01*
X106204207Y-92331312D01*
X106224232Y-92406044D01*
X106233216Y-92439574D01*
X106235539Y-92444555D01*
X106235539Y-92444556D01*
X106327651Y-92642093D01*
X106327654Y-92642098D01*
X106329977Y-92647080D01*
X106383780Y-92723918D01*
X106429405Y-92789077D01*
X106461302Y-92834631D01*
X106623200Y-92996529D01*
X106627708Y-92999686D01*
X106627711Y-92999688D01*
X106690386Y-93043573D01*
X106810751Y-93127854D01*
X106815733Y-93130177D01*
X106815738Y-93130180D01*
X106943057Y-93189549D01*
X107018257Y-93224615D01*
X107023565Y-93226037D01*
X107023567Y-93226038D01*
X107234098Y-93282450D01*
X107234100Y-93282450D01*
X107239413Y-93283874D01*
X107467500Y-93303829D01*
X107695587Y-93283874D01*
X107700900Y-93282450D01*
X107700902Y-93282450D01*
X107911433Y-93226038D01*
X107911435Y-93226037D01*
X107916743Y-93224615D01*
X107991943Y-93189549D01*
X108119262Y-93130180D01*
X108119267Y-93130177D01*
X108124249Y-93127854D01*
X108244614Y-93043573D01*
X108307289Y-92999688D01*
X108307292Y-92999686D01*
X108311800Y-92996529D01*
X108473698Y-92834631D01*
X108505596Y-92789077D01*
X108551220Y-92723918D01*
X108605023Y-92647080D01*
X108607346Y-92642098D01*
X108607349Y-92642093D01*
X108699461Y-92444556D01*
X108699461Y-92444555D01*
X108701784Y-92439574D01*
X108710769Y-92406044D01*
X108730793Y-92331312D01*
X108767745Y-92270689D01*
X108831606Y-92239668D01*
X108902100Y-92248096D01*
X108956847Y-92293299D01*
X108974207Y-92331312D01*
X108994232Y-92406044D01*
X109003216Y-92439574D01*
X109005539Y-92444555D01*
X109005539Y-92444556D01*
X109097651Y-92642093D01*
X109097654Y-92642098D01*
X109099977Y-92647080D01*
X109153780Y-92723918D01*
X109199405Y-92789077D01*
X109231302Y-92834631D01*
X109393200Y-92996529D01*
X109397708Y-92999686D01*
X109397711Y-92999688D01*
X109460386Y-93043573D01*
X109580751Y-93127854D01*
X109585733Y-93130177D01*
X109585738Y-93130180D01*
X109713057Y-93189549D01*
X109788257Y-93224615D01*
X109793565Y-93226037D01*
X109793567Y-93226038D01*
X110004098Y-93282450D01*
X110004100Y-93282450D01*
X110009413Y-93283874D01*
X110237500Y-93303829D01*
X110465587Y-93283874D01*
X110470900Y-93282450D01*
X110470902Y-93282450D01*
X110681433Y-93226038D01*
X110681435Y-93226037D01*
X110686743Y-93224615D01*
X110761943Y-93189549D01*
X110889262Y-93130180D01*
X110889267Y-93130177D01*
X110894249Y-93127854D01*
X111014614Y-93043573D01*
X111077289Y-92999688D01*
X111077292Y-92999686D01*
X111081800Y-92996529D01*
X111243698Y-92834631D01*
X111275596Y-92789077D01*
X111321220Y-92723918D01*
X111375023Y-92647080D01*
X111377346Y-92642098D01*
X111377349Y-92642093D01*
X111469461Y-92444556D01*
X111469461Y-92444555D01*
X111471784Y-92439574D01*
X111480769Y-92406044D01*
X111500793Y-92331312D01*
X111537745Y-92270689D01*
X111601606Y-92239668D01*
X111672100Y-92248096D01*
X111726847Y-92293299D01*
X111744207Y-92331312D01*
X111764232Y-92406044D01*
X111773216Y-92439574D01*
X111775539Y-92444555D01*
X111775539Y-92444556D01*
X111867651Y-92642093D01*
X111867654Y-92642098D01*
X111869977Y-92647080D01*
X111923780Y-92723918D01*
X111969405Y-92789077D01*
X112001302Y-92834631D01*
X112163200Y-92996529D01*
X112167708Y-92999686D01*
X112167711Y-92999688D01*
X112230386Y-93043573D01*
X112350751Y-93127854D01*
X112355733Y-93130177D01*
X112355738Y-93130180D01*
X112483057Y-93189549D01*
X112558257Y-93224615D01*
X112563565Y-93226037D01*
X112563567Y-93226038D01*
X112774098Y-93282450D01*
X112774100Y-93282450D01*
X112779413Y-93283874D01*
X113007500Y-93303829D01*
X113235587Y-93283874D01*
X113240900Y-93282450D01*
X113240902Y-93282450D01*
X113451433Y-93226038D01*
X113451435Y-93226037D01*
X113456743Y-93224615D01*
X113531943Y-93189549D01*
X113659262Y-93130180D01*
X113659267Y-93130177D01*
X113664249Y-93127854D01*
X113784614Y-93043573D01*
X113847289Y-92999688D01*
X113847292Y-92999686D01*
X113851800Y-92996529D01*
X114013698Y-92834631D01*
X114045596Y-92789077D01*
X114091220Y-92723918D01*
X114145023Y-92647080D01*
X114147346Y-92642098D01*
X114147349Y-92642093D01*
X114239461Y-92444556D01*
X114239461Y-92444555D01*
X114241784Y-92439574D01*
X114250769Y-92406044D01*
X114299619Y-92223733D01*
X114299619Y-92223731D01*
X114301043Y-92218418D01*
X114320998Y-91990331D01*
X114301043Y-91762244D01*
X114287037Y-91709973D01*
X114243207Y-91546398D01*
X114243206Y-91546395D01*
X114241784Y-91541088D01*
X114227957Y-91511436D01*
X114147349Y-91338569D01*
X114147346Y-91338564D01*
X114145023Y-91333582D01*
X114013698Y-91146031D01*
X113851800Y-90984133D01*
X113847292Y-90980976D01*
X113847289Y-90980974D01*
X113721420Y-90892840D01*
X113664249Y-90852808D01*
X113659267Y-90850485D01*
X113659262Y-90850482D01*
X113461725Y-90758370D01*
X113461724Y-90758370D01*
X113456743Y-90756047D01*
X113451435Y-90754625D01*
X113451433Y-90754624D01*
X113240902Y-90698212D01*
X113240900Y-90698212D01*
X113235587Y-90696788D01*
X113007500Y-90676833D01*
X112779413Y-90696788D01*
X112774100Y-90698212D01*
X112774098Y-90698212D01*
X112563567Y-90754624D01*
X112563565Y-90754625D01*
X112558257Y-90756047D01*
X112553276Y-90758370D01*
X112553275Y-90758370D01*
X112355738Y-90850482D01*
X112355733Y-90850485D01*
X112350751Y-90852808D01*
X112293580Y-90892840D01*
X112167711Y-90980974D01*
X112167708Y-90980976D01*
X112163200Y-90984133D01*
X112001302Y-91146031D01*
X111869977Y-91333582D01*
X111867654Y-91338564D01*
X111867651Y-91338569D01*
X111787043Y-91511436D01*
X111773216Y-91541088D01*
X111771794Y-91546395D01*
X111771793Y-91546398D01*
X111744207Y-91649350D01*
X111707255Y-91709973D01*
X111643394Y-91740994D01*
X111572900Y-91732566D01*
X111518153Y-91687363D01*
X111500793Y-91649350D01*
X111473207Y-91546398D01*
X111473206Y-91546395D01*
X111471784Y-91541088D01*
X111457957Y-91511436D01*
X111377349Y-91338569D01*
X111377346Y-91338564D01*
X111375023Y-91333582D01*
X111243698Y-91146031D01*
X111081800Y-90984133D01*
X111077292Y-90980976D01*
X111077289Y-90980974D01*
X110951420Y-90892840D01*
X110894249Y-90852808D01*
X110889267Y-90850485D01*
X110889262Y-90850482D01*
X110691725Y-90758370D01*
X110691724Y-90758370D01*
X110686743Y-90756047D01*
X110681435Y-90754625D01*
X110681433Y-90754624D01*
X110470902Y-90698212D01*
X110470900Y-90698212D01*
X110465587Y-90696788D01*
X110237500Y-90676833D01*
X110009413Y-90696788D01*
X110004100Y-90698212D01*
X110004098Y-90698212D01*
X109793567Y-90754624D01*
X109793565Y-90754625D01*
X109788257Y-90756047D01*
X109783276Y-90758370D01*
X109783275Y-90758370D01*
X109585738Y-90850482D01*
X109585733Y-90850485D01*
X109580751Y-90852808D01*
X109523580Y-90892840D01*
X109397711Y-90980974D01*
X109397708Y-90980976D01*
X109393200Y-90984133D01*
X109231302Y-91146031D01*
X109099977Y-91333582D01*
X109097654Y-91338564D01*
X109097651Y-91338569D01*
X109017043Y-91511436D01*
X109003216Y-91541088D01*
X109001794Y-91546395D01*
X109001793Y-91546398D01*
X108974207Y-91649350D01*
X108937255Y-91709973D01*
X108873394Y-91740994D01*
X108802900Y-91732566D01*
X108748153Y-91687363D01*
X108730793Y-91649350D01*
X108703207Y-91546398D01*
X108703206Y-91546395D01*
X108701784Y-91541088D01*
X108687957Y-91511436D01*
X108607349Y-91338569D01*
X108607346Y-91338564D01*
X108605023Y-91333582D01*
X108473698Y-91146031D01*
X108311800Y-90984133D01*
X108307292Y-90980976D01*
X108307289Y-90980974D01*
X108181420Y-90892840D01*
X108124249Y-90852808D01*
X108119267Y-90850485D01*
X108119262Y-90850482D01*
X107921725Y-90758370D01*
X107921724Y-90758370D01*
X107916743Y-90756047D01*
X107911435Y-90754625D01*
X107911433Y-90754624D01*
X107700902Y-90698212D01*
X107700900Y-90698212D01*
X107695587Y-90696788D01*
X107467500Y-90676833D01*
X107239413Y-90696788D01*
X107234100Y-90698212D01*
X107234098Y-90698212D01*
X107023567Y-90754624D01*
X107023565Y-90754625D01*
X107018257Y-90756047D01*
X107013276Y-90758370D01*
X107013275Y-90758370D01*
X106815738Y-90850482D01*
X106815733Y-90850485D01*
X106810751Y-90852808D01*
X106753580Y-90892840D01*
X106627711Y-90980974D01*
X106627708Y-90980976D01*
X106623200Y-90984133D01*
X106461302Y-91146031D01*
X106329977Y-91333582D01*
X106327654Y-91338564D01*
X106327651Y-91338569D01*
X106247043Y-91511436D01*
X106233216Y-91541088D01*
X106231794Y-91546395D01*
X106231793Y-91546398D01*
X106204207Y-91649350D01*
X106167255Y-91709973D01*
X106103394Y-91740994D01*
X106032900Y-91732566D01*
X105978153Y-91687363D01*
X105960793Y-91649350D01*
X105933207Y-91546398D01*
X105933206Y-91546395D01*
X105931784Y-91541088D01*
X105917957Y-91511436D01*
X105837349Y-91338569D01*
X105837346Y-91338564D01*
X105835023Y-91333582D01*
X105703698Y-91146031D01*
X105541800Y-90984133D01*
X105537292Y-90980976D01*
X105537289Y-90980974D01*
X105411420Y-90892840D01*
X105354249Y-90852808D01*
X105349267Y-90850485D01*
X105349262Y-90850482D01*
X105151725Y-90758370D01*
X105151724Y-90758370D01*
X105146743Y-90756047D01*
X105141435Y-90754625D01*
X105141433Y-90754624D01*
X104930902Y-90698212D01*
X104930900Y-90698212D01*
X104925587Y-90696788D01*
X104697500Y-90676833D01*
X104469413Y-90696788D01*
X104464100Y-90698212D01*
X104464098Y-90698212D01*
X104253567Y-90754624D01*
X104253565Y-90754625D01*
X104248257Y-90756047D01*
X104243276Y-90758370D01*
X104243275Y-90758370D01*
X104045738Y-90850482D01*
X104045733Y-90850485D01*
X104040751Y-90852808D01*
X103983580Y-90892840D01*
X103857711Y-90980974D01*
X103857708Y-90980976D01*
X103853200Y-90984133D01*
X103691302Y-91146031D01*
X103559977Y-91333582D01*
X103557654Y-91338564D01*
X103557651Y-91338569D01*
X103477043Y-91511436D01*
X103463216Y-91541088D01*
X103461794Y-91546395D01*
X103461793Y-91546398D01*
X103434207Y-91649350D01*
X103397255Y-91709973D01*
X103333394Y-91740994D01*
X103262900Y-91732566D01*
X103208153Y-91687363D01*
X103190793Y-91649350D01*
X103163207Y-91546398D01*
X103163206Y-91546395D01*
X103161784Y-91541088D01*
X103147957Y-91511436D01*
X103067349Y-91338569D01*
X103067346Y-91338564D01*
X103065023Y-91333582D01*
X102933698Y-91146031D01*
X102771800Y-90984133D01*
X102767292Y-90980976D01*
X102767289Y-90980974D01*
X102641420Y-90892840D01*
X102584249Y-90852808D01*
X102579267Y-90850485D01*
X102579262Y-90850482D01*
X102381725Y-90758370D01*
X102381724Y-90758370D01*
X102376743Y-90756047D01*
X102371435Y-90754625D01*
X102371433Y-90754624D01*
X102160902Y-90698212D01*
X102160900Y-90698212D01*
X102155587Y-90696788D01*
X101927500Y-90676833D01*
X101699413Y-90696788D01*
X101694100Y-90698212D01*
X101694098Y-90698212D01*
X101483567Y-90754624D01*
X101483565Y-90754625D01*
X101478257Y-90756047D01*
X101473276Y-90758370D01*
X101473275Y-90758370D01*
X101275738Y-90850482D01*
X101275733Y-90850485D01*
X101270751Y-90852808D01*
X101213580Y-90892840D01*
X101087711Y-90980974D01*
X101087708Y-90980976D01*
X101083200Y-90984133D01*
X100921302Y-91146031D01*
X100789977Y-91333582D01*
X100787654Y-91338564D01*
X100787651Y-91338569D01*
X100707043Y-91511436D01*
X100693216Y-91541088D01*
X100691794Y-91546395D01*
X100691793Y-91546398D01*
X100664207Y-91649350D01*
X100627255Y-91709973D01*
X100563394Y-91740994D01*
X100492900Y-91732566D01*
X100438153Y-91687363D01*
X100420793Y-91649350D01*
X100393207Y-91546398D01*
X100393206Y-91546395D01*
X100391784Y-91541088D01*
X100377957Y-91511436D01*
X100297349Y-91338569D01*
X100297346Y-91338564D01*
X100295023Y-91333582D01*
X100163698Y-91146031D01*
X100001800Y-90984133D01*
X99997292Y-90980976D01*
X99997289Y-90980974D01*
X99871420Y-90892840D01*
X99814249Y-90852808D01*
X99809267Y-90850485D01*
X99809262Y-90850482D01*
X99611725Y-90758370D01*
X99611724Y-90758370D01*
X99606743Y-90756047D01*
X99601435Y-90754625D01*
X99601433Y-90754624D01*
X99390902Y-90698212D01*
X99390900Y-90698212D01*
X99385587Y-90696788D01*
X99157500Y-90676833D01*
X98929413Y-90696788D01*
X98924100Y-90698212D01*
X98924098Y-90698212D01*
X98713567Y-90754624D01*
X98713565Y-90754625D01*
X98708257Y-90756047D01*
X98703276Y-90758370D01*
X98703275Y-90758370D01*
X98505738Y-90850482D01*
X98505733Y-90850485D01*
X98500751Y-90852808D01*
X98443580Y-90892840D01*
X98317711Y-90980974D01*
X98317708Y-90980976D01*
X98313200Y-90984133D01*
X98151302Y-91146031D01*
X98019977Y-91333582D01*
X98017654Y-91338564D01*
X98017651Y-91338569D01*
X97937043Y-91511436D01*
X97923216Y-91541088D01*
X97921794Y-91546395D01*
X97893948Y-91650317D01*
X97856996Y-91710939D01*
X97793135Y-91741961D01*
X97722641Y-91733532D01*
X97667894Y-91688329D01*
X97650534Y-91650316D01*
X97622736Y-91546570D01*
X97618990Y-91536278D01*
X97526914Y-91338820D01*
X97521431Y-91329325D01*
X97484991Y-91277283D01*
X97474512Y-91268907D01*
X97461066Y-91275975D01*
X96759522Y-91977519D01*
X96751908Y-91991463D01*
X96021856Y-91991463D01*
X96023092Y-91989199D01*
X96022961Y-91987366D01*
X96018710Y-91980751D01*
X95313213Y-91275254D01*
X95301438Y-91268824D01*
X95289423Y-91278120D01*
X95253569Y-91329325D01*
X95248086Y-91338820D01*
X95156010Y-91536278D01*
X95152264Y-91546570D01*
X95124466Y-91650316D01*
X95087515Y-91710939D01*
X95023654Y-91741960D01*
X94953160Y-91733532D01*
X94898412Y-91688329D01*
X94881052Y-91650317D01*
X94853206Y-91546395D01*
X94851784Y-91541088D01*
X94837957Y-91511436D01*
X94757349Y-91338569D01*
X94757346Y-91338564D01*
X94755023Y-91333582D01*
X94623698Y-91146031D01*
X94461800Y-90984133D01*
X94457292Y-90980976D01*
X94457289Y-90980974D01*
X94346386Y-90903319D01*
X95666076Y-90903319D01*
X95673144Y-90916765D01*
X96374688Y-91618309D01*
X96388632Y-91625923D01*
X96390465Y-91625792D01*
X96397080Y-91621541D01*
X97102577Y-90916044D01*
X97109007Y-90904269D01*
X97099711Y-90892254D01*
X97048506Y-90856400D01*
X97039011Y-90850917D01*
X96841553Y-90758841D01*
X96831261Y-90755095D01*
X96620812Y-90698706D01*
X96610019Y-90696803D01*
X96392975Y-90677814D01*
X96382025Y-90677814D01*
X96164981Y-90696803D01*
X96154188Y-90698706D01*
X95943739Y-90755095D01*
X95933447Y-90758841D01*
X95735989Y-90850917D01*
X95726494Y-90856400D01*
X95674452Y-90892840D01*
X95666076Y-90903319D01*
X94346386Y-90903319D01*
X94331420Y-90892840D01*
X94274249Y-90852808D01*
X94269267Y-90850485D01*
X94269262Y-90850482D01*
X94071725Y-90758370D01*
X94071724Y-90758370D01*
X94066743Y-90756047D01*
X94061435Y-90754625D01*
X94061433Y-90754624D01*
X93850902Y-90698212D01*
X93850900Y-90698212D01*
X93845587Y-90696788D01*
X93617500Y-90676833D01*
X93389413Y-90696788D01*
X93384100Y-90698212D01*
X93384098Y-90698212D01*
X93173567Y-90754624D01*
X93173565Y-90754625D01*
X93168257Y-90756047D01*
X93163276Y-90758370D01*
X93163275Y-90758370D01*
X92965738Y-90850482D01*
X92965733Y-90850485D01*
X92960751Y-90852808D01*
X92903580Y-90892840D01*
X92777711Y-90980974D01*
X92777708Y-90980976D01*
X92773200Y-90984133D01*
X92611302Y-91146031D01*
X92479977Y-91333582D01*
X92477654Y-91338564D01*
X92477651Y-91338569D01*
X92397043Y-91511436D01*
X92383216Y-91541088D01*
X92381794Y-91546395D01*
X92381793Y-91546398D01*
X92354207Y-91649350D01*
X92317255Y-91709973D01*
X92253394Y-91740994D01*
X92182900Y-91732566D01*
X92128153Y-91687363D01*
X92110793Y-91649350D01*
X92083207Y-91546398D01*
X92083206Y-91546395D01*
X92081784Y-91541088D01*
X92067957Y-91511436D01*
X91987349Y-91338569D01*
X91987346Y-91338564D01*
X91985023Y-91333582D01*
X91853698Y-91146031D01*
X91691800Y-90984133D01*
X91687292Y-90980976D01*
X91687289Y-90980974D01*
X91561420Y-90892840D01*
X91504249Y-90852808D01*
X91499267Y-90850485D01*
X91499262Y-90850482D01*
X91301725Y-90758370D01*
X91301724Y-90758370D01*
X91296743Y-90756047D01*
X91291435Y-90754625D01*
X91291433Y-90754624D01*
X91080902Y-90698212D01*
X91080900Y-90698212D01*
X91075587Y-90696788D01*
X90847500Y-90676833D01*
X90619413Y-90696788D01*
X90614100Y-90698212D01*
X90614098Y-90698212D01*
X90403567Y-90754624D01*
X90403565Y-90754625D01*
X90398257Y-90756047D01*
X90393276Y-90758370D01*
X90393275Y-90758370D01*
X90195738Y-90850482D01*
X90195733Y-90850485D01*
X90190751Y-90852808D01*
X90133580Y-90892840D01*
X90007711Y-90980974D01*
X90007708Y-90980976D01*
X90003200Y-90984133D01*
X89841302Y-91146031D01*
X89709977Y-91333582D01*
X89707654Y-91338564D01*
X89707651Y-91338569D01*
X89627043Y-91511436D01*
X89613216Y-91541088D01*
X89611794Y-91546395D01*
X89611793Y-91546398D01*
X89584207Y-91649350D01*
X89547255Y-91709973D01*
X89483394Y-91740994D01*
X89412900Y-91732566D01*
X89358153Y-91687363D01*
X89340793Y-91649350D01*
X89313207Y-91546398D01*
X89313206Y-91546395D01*
X89311784Y-91541088D01*
X89297957Y-91511436D01*
X89217349Y-91338569D01*
X89217346Y-91338564D01*
X89215023Y-91333582D01*
X89083698Y-91146031D01*
X88921800Y-90984133D01*
X88917292Y-90980976D01*
X88917289Y-90980974D01*
X88791420Y-90892840D01*
X88734249Y-90852808D01*
X88729267Y-90850485D01*
X88729262Y-90850482D01*
X88531725Y-90758370D01*
X88531724Y-90758370D01*
X88526743Y-90756047D01*
X88521435Y-90754625D01*
X88521433Y-90754624D01*
X88310902Y-90698212D01*
X88310900Y-90698212D01*
X88305587Y-90696788D01*
X88077500Y-90676833D01*
X87849413Y-90696788D01*
X87844100Y-90698212D01*
X87844098Y-90698212D01*
X87633567Y-90754624D01*
X87633565Y-90754625D01*
X87628257Y-90756047D01*
X87623276Y-90758370D01*
X87623275Y-90758370D01*
X87425738Y-90850482D01*
X87425733Y-90850485D01*
X87420751Y-90852808D01*
X87363580Y-90892840D01*
X87237711Y-90980974D01*
X87237708Y-90980976D01*
X87233200Y-90984133D01*
X87071302Y-91146031D01*
X86939977Y-91333582D01*
X86937654Y-91338564D01*
X86937651Y-91338569D01*
X86857043Y-91511436D01*
X86843216Y-91541088D01*
X86841794Y-91546395D01*
X86841793Y-91546398D01*
X86814207Y-91649350D01*
X86777255Y-91709973D01*
X86713394Y-91740994D01*
X86642900Y-91732566D01*
X86588153Y-91687363D01*
X86570793Y-91649350D01*
X86543207Y-91546398D01*
X86543206Y-91546395D01*
X86541784Y-91541088D01*
X86527957Y-91511436D01*
X86447349Y-91338569D01*
X86447346Y-91338564D01*
X86445023Y-91333582D01*
X86313698Y-91146031D01*
X86151800Y-90984133D01*
X86147292Y-90980976D01*
X86147289Y-90980974D01*
X86021420Y-90892840D01*
X85964249Y-90852808D01*
X85959267Y-90850485D01*
X85959262Y-90850482D01*
X85761725Y-90758370D01*
X85761724Y-90758370D01*
X85756743Y-90756047D01*
X85751435Y-90754625D01*
X85751433Y-90754624D01*
X85540902Y-90698212D01*
X85540900Y-90698212D01*
X85535587Y-90696788D01*
X85307500Y-90676833D01*
X85079413Y-90696788D01*
X85074100Y-90698212D01*
X85074098Y-90698212D01*
X84863567Y-90754624D01*
X84863565Y-90754625D01*
X84858257Y-90756047D01*
X84853276Y-90758370D01*
X84853275Y-90758370D01*
X84655738Y-90850482D01*
X84655733Y-90850485D01*
X84650751Y-90852808D01*
X84593580Y-90892840D01*
X84467711Y-90980974D01*
X84467708Y-90980976D01*
X84463200Y-90984133D01*
X84301302Y-91146031D01*
X84169977Y-91333582D01*
X84167654Y-91338564D01*
X84167651Y-91338569D01*
X84087043Y-91511436D01*
X84073216Y-91541088D01*
X84071794Y-91546395D01*
X84071793Y-91546398D01*
X84044207Y-91649350D01*
X84007255Y-91709973D01*
X83943394Y-91740994D01*
X83872900Y-91732566D01*
X83818153Y-91687363D01*
X83800793Y-91649350D01*
X83773207Y-91546398D01*
X83773206Y-91546395D01*
X83771784Y-91541088D01*
X83757957Y-91511436D01*
X83677349Y-91338569D01*
X83677346Y-91338564D01*
X83675023Y-91333582D01*
X83543698Y-91146031D01*
X83381800Y-90984133D01*
X83377292Y-90980976D01*
X83377289Y-90980974D01*
X83251420Y-90892840D01*
X83194249Y-90852808D01*
X83189267Y-90850485D01*
X83189262Y-90850482D01*
X82991725Y-90758370D01*
X82991724Y-90758370D01*
X82986743Y-90756047D01*
X82981435Y-90754625D01*
X82981433Y-90754624D01*
X82770902Y-90698212D01*
X82770900Y-90698212D01*
X82765587Y-90696788D01*
X82537500Y-90676833D01*
X82309413Y-90696788D01*
X82304100Y-90698212D01*
X82304098Y-90698212D01*
X82093567Y-90754624D01*
X82093565Y-90754625D01*
X82088257Y-90756047D01*
X82083276Y-90758370D01*
X82083275Y-90758370D01*
X81885738Y-90850482D01*
X81885733Y-90850485D01*
X81880751Y-90852808D01*
X81823580Y-90892840D01*
X81697711Y-90980974D01*
X81697708Y-90980976D01*
X81693200Y-90984133D01*
X81531302Y-91146031D01*
X81399977Y-91333582D01*
X81397654Y-91338564D01*
X81397651Y-91338569D01*
X81316195Y-91513254D01*
X81269278Y-91566539D01*
X81201001Y-91586000D01*
X81133041Y-91565458D01*
X81086975Y-91511436D01*
X81076000Y-91460004D01*
X81076000Y-91142197D01*
X81069245Y-91080015D01*
X81018115Y-90943626D01*
X80930761Y-90827070D01*
X80814205Y-90739716D01*
X80677816Y-90688586D01*
X80615634Y-90681831D01*
X78919366Y-90681831D01*
X78857184Y-90688586D01*
X78720795Y-90739716D01*
X78604239Y-90827070D01*
X78516885Y-90943626D01*
X78465755Y-91080015D01*
X78459000Y-91142197D01*
X78459000Y-92838465D01*
X78465755Y-92900647D01*
X78516885Y-93037036D01*
X78604239Y-93153592D01*
X78720795Y-93240946D01*
X78857184Y-93292076D01*
X78919366Y-93298831D01*
X80615634Y-93298831D01*
X80677816Y-93292076D01*
X80814205Y-93240946D01*
X80930761Y-93153592D01*
X81018115Y-93037036D01*
X81069245Y-92900647D01*
X81076000Y-92838465D01*
X81076000Y-92520658D01*
X81096002Y-92452537D01*
X81149658Y-92406044D01*
X81219932Y-92395940D01*
X81284512Y-92425434D01*
X81316195Y-92467408D01*
X81397651Y-92642093D01*
X81397654Y-92642098D01*
X81399977Y-92647080D01*
X81453780Y-92723918D01*
X81499405Y-92789077D01*
X81531302Y-92834631D01*
X81693200Y-92996529D01*
X81697708Y-92999686D01*
X81697711Y-92999688D01*
X81760386Y-93043573D01*
X81880751Y-93127854D01*
X81885733Y-93130177D01*
X81885738Y-93130180D01*
X82013057Y-93189549D01*
X82088257Y-93224615D01*
X82093565Y-93226037D01*
X82093567Y-93226038D01*
X82304098Y-93282450D01*
X82304100Y-93282450D01*
X82309413Y-93283874D01*
X82537500Y-93303829D01*
X82765587Y-93283874D01*
X82770898Y-93282451D01*
X82770909Y-93282449D01*
X82829041Y-93266872D01*
X82900017Y-93268561D01*
X82950748Y-93299483D01*
X84145297Y-94494033D01*
X85253018Y-95601754D01*
X85260558Y-95610040D01*
X85264670Y-95616519D01*
X85270447Y-95621944D01*
X85314321Y-95663144D01*
X85317163Y-95665899D01*
X85336900Y-95685636D01*
X85340097Y-95688116D01*
X85349117Y-95695819D01*
X85381349Y-95726087D01*
X85388295Y-95729906D01*
X85388298Y-95729908D01*
X85399104Y-95735849D01*
X85415623Y-95746700D01*
X85431629Y-95759115D01*
X85438898Y-95762260D01*
X85438902Y-95762263D01*
X85472207Y-95776675D01*
X85482857Y-95781892D01*
X85521610Y-95803196D01*
X85529285Y-95805167D01*
X85529286Y-95805167D01*
X85541232Y-95808234D01*
X85559937Y-95814638D01*
X85578525Y-95822682D01*
X85586348Y-95823921D01*
X85586358Y-95823924D01*
X85622194Y-95829600D01*
X85633814Y-95832006D01*
X85668959Y-95841029D01*
X85676640Y-95843001D01*
X85696894Y-95843001D01*
X85716604Y-95844552D01*
X85736613Y-95847721D01*
X85744505Y-95846975D01*
X85780631Y-95843560D01*
X85792489Y-95843001D01*
X99934907Y-95843001D01*
X100003028Y-95863003D01*
X100024002Y-95879906D01*
X103380500Y-99236405D01*
X103414526Y-99298717D01*
X103409461Y-99369533D01*
X103366914Y-99426368D01*
X103300394Y-99451179D01*
X103291405Y-99451500D01*
X102697869Y-99451500D01*
X102629748Y-99431498D01*
X102590728Y-99391807D01*
X102555978Y-99335652D01*
X102430803Y-99210695D01*
X102387496Y-99184000D01*
X102286468Y-99121725D01*
X102286466Y-99121724D01*
X102280238Y-99117885D01*
X102119754Y-99064655D01*
X102118889Y-99064368D01*
X102118887Y-99064368D01*
X102112361Y-99062203D01*
X102105525Y-99061503D01*
X102105522Y-99061502D01*
X102062469Y-99057091D01*
X102007900Y-99051500D01*
X100957100Y-99051500D01*
X100953854Y-99051837D01*
X100953850Y-99051837D01*
X100858192Y-99061762D01*
X100858188Y-99061763D01*
X100851334Y-99062474D01*
X100844798Y-99064655D01*
X100844796Y-99064655D01*
X100840564Y-99066067D01*
X100683554Y-99118450D01*
X100533152Y-99211522D01*
X100408195Y-99336697D01*
X100404355Y-99342927D01*
X100404354Y-99342928D01*
X100349759Y-99431498D01*
X100315385Y-99487262D01*
X100313081Y-99494209D01*
X100268976Y-99627183D01*
X100259703Y-99655139D01*
X100249000Y-99759600D01*
X100249000Y-100360400D01*
X100249337Y-100363646D01*
X100249337Y-100363650D01*
X100252064Y-100389928D01*
X100259974Y-100466166D01*
X100315950Y-100633946D01*
X100409022Y-100784348D01*
X100534197Y-100909305D01*
X100538416Y-100911906D01*
X100578917Y-100969030D01*
X100582149Y-101039953D01*
X100546524Y-101101365D01*
X100538970Y-101107922D01*
X100533152Y-101111522D01*
X100408195Y-101236697D01*
X100404355Y-101242927D01*
X100404354Y-101242928D01*
X100374612Y-101291179D01*
X100315385Y-101387262D01*
X100259703Y-101555139D01*
X100249000Y-101659600D01*
X100249000Y-102260400D01*
X100249337Y-102263646D01*
X100249337Y-102263650D01*
X100251387Y-102283402D01*
X100259974Y-102366166D01*
X100262155Y-102372702D01*
X100262155Y-102372704D01*
X100276627Y-102416081D01*
X100315950Y-102533946D01*
X100409022Y-102684348D01*
X100485047Y-102760240D01*
X100495609Y-102770784D01*
X100529688Y-102833066D01*
X100524685Y-102903886D01*
X100495764Y-102948975D01*
X100408195Y-103036697D01*
X100404355Y-103042927D01*
X100404354Y-103042928D01*
X100398577Y-103052301D01*
X100315385Y-103187262D01*
X100259703Y-103355139D01*
X100249000Y-103459600D01*
X100249000Y-104060400D01*
X100249337Y-104063646D01*
X100249337Y-104063650D01*
X100257889Y-104146067D01*
X100259974Y-104166166D01*
X100315950Y-104333946D01*
X100409022Y-104484348D01*
X100534197Y-104609305D01*
X100538735Y-104612102D01*
X100579324Y-104669353D01*
X100582554Y-104740276D01*
X100546928Y-104801687D01*
X100538432Y-104809062D01*
X100528293Y-104817098D01*
X100413761Y-104931829D01*
X100404749Y-104943240D01*
X100319684Y-105081243D01*
X100313537Y-105094424D01*
X100262362Y-105248710D01*
X100259495Y-105262086D01*
X100249828Y-105356438D01*
X100249500Y-105362855D01*
X100249500Y-105387885D01*
X100253975Y-105403124D01*
X100255365Y-105404329D01*
X100263048Y-105406000D01*
X101610500Y-105406000D01*
X101678621Y-105426002D01*
X101725114Y-105479658D01*
X101736500Y-105532000D01*
X101736500Y-105788000D01*
X101716498Y-105856121D01*
X101662842Y-105902614D01*
X101610500Y-105914000D01*
X100267616Y-105914000D01*
X100252377Y-105918475D01*
X100251172Y-105919865D01*
X100249501Y-105927548D01*
X100249501Y-105957095D01*
X100249838Y-105963614D01*
X100259757Y-106059206D01*
X100262649Y-106072600D01*
X100314088Y-106226784D01*
X100320261Y-106239962D01*
X100405563Y-106377807D01*
X100414599Y-106389209D01*
X100485963Y-106460449D01*
X100520041Y-106522732D01*
X100515038Y-106593552D01*
X100486117Y-106638639D01*
X100408195Y-106716697D01*
X100404355Y-106722927D01*
X100404354Y-106722928D01*
X100337204Y-106831866D01*
X100315385Y-106867262D01*
X100259703Y-107035139D01*
X100249000Y-107139600D01*
X100249000Y-107740400D01*
X100249337Y-107743646D01*
X100249337Y-107743650D01*
X100259179Y-107838500D01*
X100259974Y-107846166D01*
X100262155Y-107852702D01*
X100262155Y-107852704D01*
X100301218Y-107969789D01*
X100315950Y-108013946D01*
X100409022Y-108164348D01*
X100534197Y-108289305D01*
X100538416Y-108291906D01*
X100578917Y-108349030D01*
X100582149Y-108419953D01*
X100546524Y-108481365D01*
X100538970Y-108487922D01*
X100533152Y-108491522D01*
X100408195Y-108616697D01*
X100315385Y-108767262D01*
X100259703Y-108935139D01*
X100259003Y-108941975D01*
X100259002Y-108941978D01*
X100254740Y-108983580D01*
X100249000Y-109039600D01*
X100249000Y-109640400D01*
X100259974Y-109746166D01*
X100315950Y-109913946D01*
X100409022Y-110064348D01*
X100414204Y-110069521D01*
X100515609Y-110170749D01*
X100549688Y-110233031D01*
X100544685Y-110303851D01*
X100515764Y-110348940D01*
X100408195Y-110456697D01*
X100315385Y-110607262D01*
X100302774Y-110645283D01*
X100261924Y-110768444D01*
X100259703Y-110775139D01*
X100249000Y-110879600D01*
X100249000Y-111480400D01*
X100249337Y-111483646D01*
X100249337Y-111483650D01*
X100259158Y-111578297D01*
X100259974Y-111586166D01*
X100315950Y-111753946D01*
X100409022Y-111904348D01*
X100534197Y-112029305D01*
X100538735Y-112032102D01*
X100579324Y-112089353D01*
X100582554Y-112160276D01*
X100546928Y-112221687D01*
X100538432Y-112229062D01*
X100528293Y-112237098D01*
X100413761Y-112351829D01*
X100404749Y-112363240D01*
X100319684Y-112501243D01*
X100313537Y-112514424D01*
X100262362Y-112668710D01*
X100259495Y-112682086D01*
X100249828Y-112776438D01*
X100249500Y-112782855D01*
X100249500Y-112807885D01*
X100253975Y-112823124D01*
X100255365Y-112824329D01*
X100263048Y-112826000D01*
X102697384Y-112826000D01*
X102712623Y-112821525D01*
X102713828Y-112820135D01*
X102715499Y-112812452D01*
X102715499Y-112782905D01*
X102715162Y-112776386D01*
X102705243Y-112680794D01*
X102702351Y-112667400D01*
X102650912Y-112513216D01*
X102644739Y-112500038D01*
X102559437Y-112362193D01*
X102550401Y-112350792D01*
X102435672Y-112236262D01*
X102426738Y-112229206D01*
X102385677Y-112171288D01*
X102382447Y-112100365D01*
X102418074Y-112038954D01*
X102425907Y-112032154D01*
X102431848Y-112028478D01*
X102556805Y-111903303D01*
X102568638Y-111884107D01*
X102621409Y-111836613D01*
X102691481Y-111825189D01*
X102727145Y-111835115D01*
X102742038Y-111841745D01*
X102837185Y-111884107D01*
X102847712Y-111888794D01*
X102940341Y-111908483D01*
X103028056Y-111927128D01*
X103028061Y-111927128D01*
X103034513Y-111928500D01*
X103225487Y-111928500D01*
X103231939Y-111927128D01*
X103231944Y-111927128D01*
X103319659Y-111908483D01*
X103412288Y-111888794D01*
X103418319Y-111886109D01*
X103580724Y-111813802D01*
X103580725Y-111813801D01*
X103586752Y-111811118D01*
X103592089Y-111807240D01*
X103597814Y-111803935D01*
X103598603Y-111805301D01*
X103657915Y-111784134D01*
X103709345Y-111791946D01*
X103842184Y-111841745D01*
X103904366Y-111848500D01*
X105500634Y-111848500D01*
X105562816Y-111841745D01*
X105699205Y-111790615D01*
X105815761Y-111703261D01*
X105903115Y-111586705D01*
X105954245Y-111450316D01*
X105961000Y-111388134D01*
X105961000Y-110641866D01*
X105954245Y-110579684D01*
X105920738Y-110490303D01*
X105906266Y-110451699D01*
X105906264Y-110451696D01*
X105903115Y-110443295D01*
X105899773Y-110438836D01*
X105884970Y-110371152D01*
X105899567Y-110321439D01*
X105903115Y-110316705D01*
X105954245Y-110180316D01*
X105961000Y-110118134D01*
X105961000Y-109371866D01*
X105954245Y-109309684D01*
X105936524Y-109262414D01*
X105906266Y-109181699D01*
X105906264Y-109181696D01*
X105903115Y-109173295D01*
X105899773Y-109168836D01*
X105884970Y-109101152D01*
X105899567Y-109051439D01*
X105903115Y-109046705D01*
X105906578Y-109037469D01*
X105946872Y-108929984D01*
X105954245Y-108910316D01*
X105961000Y-108848134D01*
X105961000Y-108101866D01*
X105954245Y-108039684D01*
X105903115Y-107903295D01*
X105899773Y-107898836D01*
X105884970Y-107831152D01*
X105899567Y-107781439D01*
X105903115Y-107776705D01*
X105906265Y-107768303D01*
X105906267Y-107768299D01*
X105934111Y-107694023D01*
X105976752Y-107637258D01*
X106043313Y-107612558D01*
X106112662Y-107627765D01*
X106162781Y-107678051D01*
X106177403Y-107725081D01*
X106185268Y-107799911D01*
X106185958Y-107806474D01*
X106244973Y-107988102D01*
X106248276Y-107993824D01*
X106248277Y-107993825D01*
X106259894Y-108013946D01*
X106340460Y-108153490D01*
X106344878Y-108158397D01*
X106344879Y-108158398D01*
X106435737Y-108259306D01*
X106468247Y-108295412D01*
X106510510Y-108326118D01*
X106598516Y-108390058D01*
X106622748Y-108407664D01*
X106628776Y-108410348D01*
X106628778Y-108410349D01*
X106788284Y-108481365D01*
X106797212Y-108485340D01*
X106890613Y-108505193D01*
X106977556Y-108523674D01*
X106977561Y-108523674D01*
X106984013Y-108525046D01*
X107174987Y-108525046D01*
X107181439Y-108523674D01*
X107181444Y-108523674D01*
X107268388Y-108505193D01*
X107361788Y-108485340D01*
X107370716Y-108481365D01*
X107530222Y-108410349D01*
X107530224Y-108410348D01*
X107536252Y-108407664D01*
X107560485Y-108390058D01*
X107690753Y-108295412D01*
X107692254Y-108297479D01*
X107745914Y-108271719D01*
X107792430Y-108272823D01*
X107953292Y-108307016D01*
X107953297Y-108307016D01*
X107959749Y-108308388D01*
X108015641Y-108308388D01*
X108083762Y-108328390D01*
X108104737Y-108345293D01*
X108626701Y-108867258D01*
X108634235Y-108875537D01*
X108638348Y-108882018D01*
X108659443Y-108901827D01*
X108687999Y-108928643D01*
X108690841Y-108931398D01*
X108710578Y-108951135D01*
X108713775Y-108953615D01*
X108722795Y-108961318D01*
X108755027Y-108991586D01*
X108761973Y-108995405D01*
X108761976Y-108995407D01*
X108772782Y-109001348D01*
X108789301Y-109012199D01*
X108805307Y-109024614D01*
X108826338Y-109033715D01*
X108880912Y-109079124D01*
X108902273Y-109146831D01*
X108894280Y-109193581D01*
X108850755Y-109309684D01*
X108844000Y-109371866D01*
X108844000Y-110118134D01*
X108850755Y-110180316D01*
X108901885Y-110316705D01*
X108905227Y-110321164D01*
X108920030Y-110388848D01*
X108905433Y-110438561D01*
X108901885Y-110443295D01*
X108898736Y-110451696D01*
X108898734Y-110451699D01*
X108884262Y-110490303D01*
X108850755Y-110579684D01*
X108844000Y-110641866D01*
X108844000Y-111388134D01*
X108850755Y-111450316D01*
X108901885Y-111586705D01*
X108989239Y-111703261D01*
X109105795Y-111790615D01*
X109242184Y-111841745D01*
X109304366Y-111848500D01*
X110900634Y-111848500D01*
X110962816Y-111841745D01*
X111099205Y-111790615D01*
X111208038Y-111709049D01*
X111274544Y-111684201D01*
X111343927Y-111699254D01*
X111377235Y-111725561D01*
X111461247Y-111818866D01*
X111615748Y-111931118D01*
X111621776Y-111933802D01*
X111621778Y-111933803D01*
X111784181Y-112006109D01*
X111790212Y-112008794D01*
X111862367Y-112024131D01*
X111970556Y-112047128D01*
X111970561Y-112047128D01*
X111977013Y-112048500D01*
X112167987Y-112048500D01*
X112174439Y-112047128D01*
X112174444Y-112047128D01*
X112282633Y-112024131D01*
X112354788Y-112008794D01*
X112360819Y-112006109D01*
X112523222Y-111933803D01*
X112523224Y-111933802D01*
X112529252Y-111931118D01*
X112683753Y-111818866D01*
X112811540Y-111676944D01*
X112907027Y-111511556D01*
X112966042Y-111329928D01*
X112986004Y-111140000D01*
X112966042Y-110950072D01*
X112907027Y-110768444D01*
X112811540Y-110603056D01*
X112767649Y-110554310D01*
X112736931Y-110490303D01*
X112745696Y-110419849D01*
X112767649Y-110385690D01*
X112807121Y-110341852D01*
X112807122Y-110341851D01*
X112811540Y-110336944D01*
X112897698Y-110187715D01*
X112903723Y-110177279D01*
X112903724Y-110177278D01*
X112907027Y-110171556D01*
X112966042Y-109989928D01*
X112986004Y-109800000D01*
X112966042Y-109610072D01*
X112907027Y-109428444D01*
X112831426Y-109297499D01*
X112814688Y-109228505D01*
X112837908Y-109161413D01*
X112893715Y-109117526D01*
X112940545Y-109108500D01*
X116686233Y-109108500D01*
X116697416Y-109109027D01*
X116704909Y-109110702D01*
X116712835Y-109110453D01*
X116712836Y-109110453D01*
X116772986Y-109108562D01*
X116776945Y-109108500D01*
X116804856Y-109108500D01*
X116808791Y-109108003D01*
X116808856Y-109107995D01*
X116820693Y-109107062D01*
X116852951Y-109106048D01*
X116856970Y-109105922D01*
X116864889Y-109105673D01*
X116884343Y-109100021D01*
X116903700Y-109096013D01*
X116915930Y-109094468D01*
X116915931Y-109094468D01*
X116923797Y-109093474D01*
X116931168Y-109090555D01*
X116931170Y-109090555D01*
X116964912Y-109077196D01*
X116976142Y-109073351D01*
X117010983Y-109063229D01*
X117010984Y-109063229D01*
X117018593Y-109061018D01*
X117025412Y-109056985D01*
X117025417Y-109056983D01*
X117036028Y-109050707D01*
X117053776Y-109042012D01*
X117072617Y-109034552D01*
X117108387Y-109008564D01*
X117118307Y-109002048D01*
X117149535Y-108983580D01*
X117149538Y-108983578D01*
X117156362Y-108979542D01*
X117170683Y-108965221D01*
X117185717Y-108952380D01*
X117195694Y-108945131D01*
X117202107Y-108940472D01*
X117230298Y-108906395D01*
X117238288Y-108897616D01*
X118335499Y-107800405D01*
X118397811Y-107766379D01*
X118424594Y-107763500D01*
X135715606Y-107763500D01*
X135783727Y-107783502D01*
X135818819Y-107817229D01*
X135884968Y-107911699D01*
X135928802Y-107974300D01*
X136070620Y-108116118D01*
X136104646Y-108178430D01*
X136099581Y-108249245D01*
X136057034Y-108306081D01*
X135990514Y-108330892D01*
X135981866Y-108331213D01*
X121577358Y-108370169D01*
X121559243Y-108370218D01*
X121559255Y-108383707D01*
X121559255Y-108383708D01*
X121574327Y-125048605D01*
X121579363Y-130615578D01*
X121579498Y-130765386D01*
X121559558Y-130833525D01*
X121505944Y-130880066D01*
X121453498Y-130891500D01*
X98307169Y-130891500D01*
X98239048Y-130871498D01*
X98192555Y-130817842D01*
X98182451Y-130747568D01*
X98211945Y-130682988D01*
X98255920Y-130650393D01*
X98270722Y-130643803D01*
X98270724Y-130643802D01*
X98276752Y-130641118D01*
X98295708Y-130627346D01*
X98334685Y-130599027D01*
X98431253Y-130528866D01*
X98502919Y-130449273D01*
X98554621Y-130391852D01*
X98554622Y-130391851D01*
X98559040Y-130386944D01*
X98654527Y-130221556D01*
X98713542Y-130039928D01*
X98715680Y-130019591D01*
X98732814Y-129856565D01*
X98733504Y-129850000D01*
X98729446Y-129811392D01*
X98714232Y-129666635D01*
X98714232Y-129666633D01*
X98713542Y-129660072D01*
X98654527Y-129478444D01*
X98559040Y-129313056D01*
X98494008Y-129240830D01*
X98435675Y-129176045D01*
X98435674Y-129176044D01*
X98431253Y-129171134D01*
X98298434Y-129074635D01*
X98282094Y-129062763D01*
X98282093Y-129062762D01*
X98276752Y-129058882D01*
X98270724Y-129056198D01*
X98270722Y-129056197D01*
X98108319Y-128983891D01*
X98108318Y-128983891D01*
X98102288Y-128981206D01*
X98008887Y-128961353D01*
X97921944Y-128942872D01*
X97921939Y-128942872D01*
X97915487Y-128941500D01*
X97724513Y-128941500D01*
X97718061Y-128942872D01*
X97718056Y-128942872D01*
X97631113Y-128961353D01*
X97537712Y-128981206D01*
X97531685Y-128983889D01*
X97531677Y-128983892D01*
X97501804Y-128997193D01*
X97431437Y-129006628D01*
X97367139Y-128976522D01*
X97343412Y-128948393D01*
X97324797Y-128918311D01*
X97200653Y-128794383D01*
X97051329Y-128702339D01*
X97044380Y-128700034D01*
X96891366Y-128649281D01*
X96891364Y-128649281D01*
X96884835Y-128647115D01*
X96781231Y-128636500D01*
X96489766Y-128636500D01*
X96193770Y-128636501D01*
X96088871Y-128647384D01*
X96082340Y-128649563D01*
X96082335Y-128649564D01*
X95934189Y-128698990D01*
X95922474Y-128702898D01*
X95773311Y-128795203D01*
X95649383Y-128919347D01*
X95647581Y-128922270D01*
X95590971Y-128962408D01*
X95520048Y-128965642D01*
X95458636Y-128930018D01*
X95453084Y-128923622D01*
X95449797Y-128918311D01*
X95327982Y-128796708D01*
X95293903Y-128734425D01*
X95291000Y-128707535D01*
X95291000Y-128192634D01*
X95311002Y-128124513D01*
X95350697Y-128085490D01*
X95388120Y-128062332D01*
X95394348Y-128058478D01*
X95480784Y-127971891D01*
X95543066Y-127937812D01*
X95613886Y-127942815D01*
X95658975Y-127971736D01*
X95690440Y-128003146D01*
X95746697Y-128059305D01*
X95752927Y-128063145D01*
X95752928Y-128063146D01*
X95890090Y-128147694D01*
X95897262Y-128152115D01*
X95970630Y-128176450D01*
X96058611Y-128205632D01*
X96058613Y-128205632D01*
X96065139Y-128207797D01*
X96071975Y-128208497D01*
X96071978Y-128208498D01*
X96115031Y-128212909D01*
X96169600Y-128218500D01*
X96795400Y-128218500D01*
X96798646Y-128218163D01*
X96798650Y-128218163D01*
X96894308Y-128208238D01*
X96894312Y-128208237D01*
X96901166Y-128207526D01*
X96907702Y-128205345D01*
X96907704Y-128205345D01*
X97048114Y-128158500D01*
X97068946Y-128151550D01*
X97219348Y-128058478D01*
X97252315Y-128025454D01*
X97339134Y-127938483D01*
X97344305Y-127933303D01*
X97357599Y-127911736D01*
X97433275Y-127788968D01*
X97433276Y-127788966D01*
X97437115Y-127782738D01*
X97492797Y-127614861D01*
X97503500Y-127510400D01*
X97503500Y-126509600D01*
X97503163Y-126506350D01*
X97493238Y-126410692D01*
X97493237Y-126410688D01*
X97492526Y-126403834D01*
X97475226Y-126351978D01*
X97438868Y-126243002D01*
X97436550Y-126236054D01*
X97343478Y-126085652D01*
X97314475Y-126056699D01*
X97223483Y-125965866D01*
X97218303Y-125960695D01*
X97130714Y-125906704D01*
X97083384Y-125877529D01*
X97035890Y-125824756D01*
X97023500Y-125770269D01*
X97023500Y-124692524D01*
X97043502Y-124624403D01*
X97055858Y-124608221D01*
X97129040Y-124526944D01*
X97224527Y-124361556D01*
X97283542Y-124179928D01*
X97303504Y-123990000D01*
X97283542Y-123800072D01*
X97224527Y-123618444D01*
X97129040Y-123453056D01*
X97065943Y-123382979D01*
X97005675Y-123316045D01*
X97005674Y-123316044D01*
X97001253Y-123311134D01*
X96846752Y-123198882D01*
X96840724Y-123196198D01*
X96840722Y-123196197D01*
X96678319Y-123123891D01*
X96678318Y-123123891D01*
X96672288Y-123121206D01*
X96578887Y-123101353D01*
X96491944Y-123082872D01*
X96491939Y-123082872D01*
X96485487Y-123081500D01*
X96294513Y-123081500D01*
X96288061Y-123082872D01*
X96288056Y-123082872D01*
X96201113Y-123101353D01*
X96107712Y-123121206D01*
X96101682Y-123123891D01*
X96101681Y-123123891D01*
X95939278Y-123196197D01*
X95939276Y-123196198D01*
X95933248Y-123198882D01*
X95778747Y-123311134D01*
X95774326Y-123316044D01*
X95774325Y-123316045D01*
X95714058Y-123382979D01*
X95650960Y-123453056D01*
X95555473Y-123618444D01*
X95496458Y-123800072D01*
X95476496Y-123990000D01*
X95496458Y-124179928D01*
X95555473Y-124361556D01*
X95650960Y-124526944D01*
X95724137Y-124608215D01*
X95754853Y-124672221D01*
X95756500Y-124692524D01*
X95756500Y-125046405D01*
X95736498Y-125114526D01*
X95682842Y-125161019D01*
X95612568Y-125171123D01*
X95547988Y-125141629D01*
X95541405Y-125135500D01*
X95493652Y-125087747D01*
X95486112Y-125079461D01*
X95482000Y-125072982D01*
X95432348Y-125026356D01*
X95429507Y-125023602D01*
X95409770Y-125003865D01*
X95406573Y-125001385D01*
X95397551Y-124993680D01*
X95393397Y-124989779D01*
X95365321Y-124963414D01*
X95358375Y-124959595D01*
X95358372Y-124959593D01*
X95347566Y-124953652D01*
X95331047Y-124942801D01*
X95328257Y-124940637D01*
X95315041Y-124930386D01*
X95307772Y-124927241D01*
X95307768Y-124927238D01*
X95274463Y-124912826D01*
X95263813Y-124907609D01*
X95225060Y-124886305D01*
X95213801Y-124883414D01*
X95205438Y-124881267D01*
X95186734Y-124874863D01*
X95175420Y-124869967D01*
X95175419Y-124869967D01*
X95168145Y-124866819D01*
X95160322Y-124865580D01*
X95160312Y-124865577D01*
X95124476Y-124859901D01*
X95112856Y-124857495D01*
X95077711Y-124848472D01*
X95077710Y-124848472D01*
X95070030Y-124846500D01*
X95049776Y-124846500D01*
X95030065Y-124844949D01*
X95017886Y-124843020D01*
X95010057Y-124841780D01*
X94980786Y-124844547D01*
X94966039Y-124845941D01*
X94954181Y-124846500D01*
X88158409Y-124846500D01*
X88147226Y-124845973D01*
X88139733Y-124844298D01*
X88131807Y-124844547D01*
X88131806Y-124844547D01*
X88071643Y-124846438D01*
X88067685Y-124846500D01*
X88039786Y-124846500D01*
X88035796Y-124847004D01*
X88023962Y-124847936D01*
X87979753Y-124849326D01*
X87972139Y-124851538D01*
X87972134Y-124851539D01*
X87960301Y-124854977D01*
X87940938Y-124858988D01*
X87920845Y-124861526D01*
X87913478Y-124864443D01*
X87913473Y-124864444D01*
X87879734Y-124877802D01*
X87868507Y-124881646D01*
X87826049Y-124893982D01*
X87819223Y-124898019D01*
X87808614Y-124904293D01*
X87790866Y-124912988D01*
X87772025Y-124920448D01*
X87765609Y-124925110D01*
X87765608Y-124925110D01*
X87736255Y-124946436D01*
X87726335Y-124952952D01*
X87695107Y-124971420D01*
X87695104Y-124971422D01*
X87688280Y-124975458D01*
X87673959Y-124989779D01*
X87658926Y-125002619D01*
X87642535Y-125014528D01*
X87633859Y-125025016D01*
X87614344Y-125048605D01*
X87606354Y-125057384D01*
X86923917Y-125739821D01*
X86861605Y-125773847D01*
X86790790Y-125768782D01*
X86745727Y-125739821D01*
X86013648Y-125007742D01*
X86006113Y-124999462D01*
X86002000Y-124992982D01*
X85952348Y-124946356D01*
X85949507Y-124943602D01*
X85929770Y-124923865D01*
X85926573Y-124921385D01*
X85917551Y-124913680D01*
X85885321Y-124883414D01*
X85878375Y-124879595D01*
X85878372Y-124879593D01*
X85867566Y-124873652D01*
X85851047Y-124862801D01*
X85846131Y-124858988D01*
X85835041Y-124850386D01*
X85827772Y-124847241D01*
X85827768Y-124847238D01*
X85794463Y-124832826D01*
X85783813Y-124827609D01*
X85745060Y-124806305D01*
X85725437Y-124801267D01*
X85706734Y-124794863D01*
X85695420Y-124789967D01*
X85695419Y-124789967D01*
X85688145Y-124786819D01*
X85680322Y-124785580D01*
X85680312Y-124785577D01*
X85644476Y-124779901D01*
X85632856Y-124777495D01*
X85597711Y-124768472D01*
X85597710Y-124768472D01*
X85590030Y-124766500D01*
X85569776Y-124766500D01*
X85550065Y-124764949D01*
X85537886Y-124763020D01*
X85530057Y-124761780D01*
X85500786Y-124764547D01*
X85486039Y-124765941D01*
X85474181Y-124766500D01*
X78111267Y-124766500D01*
X78100084Y-124765973D01*
X78092591Y-124764298D01*
X78084665Y-124764547D01*
X78084664Y-124764547D01*
X78024514Y-124766438D01*
X78020555Y-124766500D01*
X77992644Y-124766500D01*
X77988710Y-124766997D01*
X77988709Y-124766997D01*
X77988644Y-124767005D01*
X77976807Y-124767938D01*
X77944549Y-124768952D01*
X77940530Y-124769078D01*
X77932611Y-124769327D01*
X77913157Y-124774979D01*
X77893800Y-124778987D01*
X77881570Y-124780532D01*
X77881569Y-124780532D01*
X77873703Y-124781526D01*
X77866332Y-124784445D01*
X77866330Y-124784445D01*
X77832588Y-124797804D01*
X77821358Y-124801649D01*
X77786517Y-124811771D01*
X77786516Y-124811771D01*
X77778907Y-124813982D01*
X77772088Y-124818015D01*
X77772083Y-124818017D01*
X77761472Y-124824293D01*
X77743724Y-124832988D01*
X77724883Y-124840448D01*
X77718467Y-124845110D01*
X77718466Y-124845110D01*
X77689113Y-124866436D01*
X77679193Y-124872952D01*
X77647965Y-124891420D01*
X77647962Y-124891422D01*
X77641138Y-124895458D01*
X77626817Y-124909779D01*
X77611784Y-124922619D01*
X77595393Y-124934528D01*
X77590343Y-124940632D01*
X77590338Y-124940637D01*
X77567207Y-124968598D01*
X77559217Y-124977379D01*
X76831999Y-125704596D01*
X76769687Y-125738621D01*
X76742904Y-125741500D01*
X76169600Y-125741500D01*
X76166354Y-125741837D01*
X76166350Y-125741837D01*
X76070692Y-125751762D01*
X76070688Y-125751763D01*
X76063834Y-125752474D01*
X76057298Y-125754655D01*
X76057296Y-125754655D01*
X75925194Y-125798728D01*
X75896054Y-125808450D01*
X75745652Y-125901522D01*
X75740479Y-125906704D01*
X75659216Y-125988109D01*
X75596934Y-126022188D01*
X75526114Y-126017185D01*
X75481025Y-125988264D01*
X75398483Y-125905866D01*
X75393303Y-125900695D01*
X75270108Y-125824756D01*
X75248968Y-125811725D01*
X75248966Y-125811724D01*
X75242738Y-125807885D01*
X75129329Y-125770269D01*
X75081389Y-125754368D01*
X75081387Y-125754368D01*
X75074861Y-125752203D01*
X75068025Y-125751503D01*
X75068022Y-125751502D01*
X75024969Y-125747091D01*
X74970400Y-125741500D01*
X74344600Y-125741500D01*
X74341354Y-125741837D01*
X74341350Y-125741837D01*
X74245692Y-125751762D01*
X74245688Y-125751763D01*
X74238834Y-125752474D01*
X74232298Y-125754655D01*
X74232296Y-125754655D01*
X74100194Y-125798728D01*
X74071054Y-125808450D01*
X73920652Y-125901522D01*
X73795695Y-126026697D01*
X73791855Y-126032927D01*
X73791854Y-126032928D01*
X73719441Y-126150404D01*
X73702885Y-126177262D01*
X73700581Y-126184209D01*
X73662781Y-126298174D01*
X73647203Y-126345139D01*
X73636500Y-126449600D01*
X73636500Y-127450400D01*
X73636837Y-127453646D01*
X73636837Y-127453650D01*
X73643063Y-127513650D01*
X73647474Y-127556166D01*
X73649655Y-127562702D01*
X73649655Y-127562704D01*
X73669234Y-127621389D01*
X73703450Y-127723946D01*
X73796522Y-127874348D01*
X73921697Y-127999305D01*
X73927928Y-128003146D01*
X73927931Y-128003148D01*
X73964117Y-128025454D01*
X74011610Y-128078226D01*
X74024000Y-128132713D01*
X74024000Y-128647222D01*
X74003998Y-128715343D01*
X73964304Y-128754365D01*
X73898311Y-128795203D01*
X73774383Y-128919347D01*
X73682339Y-129068671D01*
X73680034Y-129075619D01*
X73680034Y-129075620D01*
X73629679Y-129227436D01*
X73627115Y-129235165D01*
X73616500Y-129338769D01*
X73616501Y-130351230D01*
X73627384Y-130456129D01*
X73629563Y-130462660D01*
X73629564Y-130462665D01*
X73652896Y-130532598D01*
X73682898Y-130622526D01*
X73730345Y-130699199D01*
X73749182Y-130767648D01*
X73728021Y-130835418D01*
X73673580Y-130880989D01*
X73623200Y-130891500D01*
X62969367Y-130891500D01*
X62949982Y-130890000D01*
X62935149Y-130887690D01*
X62935145Y-130887690D01*
X62926276Y-130886309D01*
X62911019Y-130888304D01*
X62885698Y-130889047D01*
X62716715Y-130876961D01*
X62698936Y-130874404D01*
X62508607Y-130833001D01*
X62491359Y-130827937D01*
X62308850Y-130759864D01*
X62292498Y-130752396D01*
X62121542Y-130659048D01*
X62106418Y-130649328D01*
X61950486Y-130532598D01*
X61936900Y-130520825D01*
X61799175Y-130383100D01*
X61787402Y-130369514D01*
X61670672Y-130213582D01*
X61660952Y-130198458D01*
X61567604Y-130027502D01*
X61560136Y-130011150D01*
X61492063Y-129828641D01*
X61486999Y-129811392D01*
X61463402Y-129702919D01*
X61445596Y-129621064D01*
X61443038Y-129603278D01*
X61442041Y-129589329D01*
X61431719Y-129445011D01*
X61432805Y-129422245D01*
X61432334Y-129422203D01*
X61432770Y-129417345D01*
X61433576Y-129412552D01*
X61433729Y-129400000D01*
X61429762Y-129372297D01*
X61428490Y-129354464D01*
X61428466Y-129240830D01*
X61427915Y-126671617D01*
X61447902Y-126603493D01*
X61501548Y-126556989D01*
X61571820Y-126546870D01*
X61636407Y-126576349D01*
X61674804Y-126636067D01*
X61678364Y-126651880D01*
X61702830Y-126806352D01*
X61702832Y-126806361D01*
X61703347Y-126809613D01*
X61801022Y-127174143D01*
X61936266Y-127526465D01*
X61937764Y-127529405D01*
X62104845Y-127857318D01*
X62107597Y-127862720D01*
X62109393Y-127865486D01*
X62109395Y-127865489D01*
X62200400Y-128005625D01*
X62313137Y-128179225D01*
X62550635Y-128472511D01*
X62817489Y-128739365D01*
X63110775Y-128976863D01*
X63113550Y-128978665D01*
X63417490Y-129176045D01*
X63427280Y-129182403D01*
X63430214Y-129183898D01*
X63430221Y-129183902D01*
X63740478Y-129341986D01*
X63763535Y-129353734D01*
X64115857Y-129488978D01*
X64480387Y-129586653D01*
X64642081Y-129612263D01*
X64849881Y-129645176D01*
X64849889Y-129645177D01*
X64853129Y-129645690D01*
X65135720Y-129660500D01*
X65324280Y-129660500D01*
X65606871Y-129645690D01*
X65610111Y-129645177D01*
X65610119Y-129645176D01*
X65817919Y-129612263D01*
X65979613Y-129586653D01*
X66344143Y-129488978D01*
X66696465Y-129353734D01*
X66719522Y-129341986D01*
X67029779Y-129183902D01*
X67029786Y-129183898D01*
X67032720Y-129182403D01*
X67042511Y-129176045D01*
X67346450Y-128978665D01*
X67349225Y-128976863D01*
X67642511Y-128739365D01*
X67909365Y-128472511D01*
X68146863Y-128179225D01*
X68266330Y-127995262D01*
X68350605Y-127865490D01*
X68350607Y-127865487D01*
X68352403Y-127862721D01*
X68353903Y-127859779D01*
X68522236Y-127529405D01*
X68523734Y-127526465D01*
X68658978Y-127174143D01*
X68756653Y-126809613D01*
X68793027Y-126579959D01*
X68815176Y-126440119D01*
X68815177Y-126440111D01*
X68815690Y-126436871D01*
X68835441Y-126060000D01*
X68815690Y-125683129D01*
X68797842Y-125570438D01*
X68781333Y-125466210D01*
X68756653Y-125310387D01*
X68658978Y-124945857D01*
X68651613Y-124926669D01*
X68524918Y-124596620D01*
X68523734Y-124593535D01*
X68486891Y-124521226D01*
X68353902Y-124260221D01*
X68353898Y-124260214D01*
X68352403Y-124257280D01*
X68146863Y-123940775D01*
X67909365Y-123647489D01*
X67642511Y-123380635D01*
X67349225Y-123143137D01*
X67032720Y-122937597D01*
X67029786Y-122936102D01*
X67029779Y-122936098D01*
X66699405Y-122767764D01*
X66696465Y-122766266D01*
X66344143Y-122631022D01*
X65979613Y-122533347D01*
X65781647Y-122501992D01*
X65610119Y-122474824D01*
X65610111Y-122474823D01*
X65606871Y-122474310D01*
X65324280Y-122459500D01*
X65135720Y-122459500D01*
X64853129Y-122474310D01*
X64849889Y-122474823D01*
X64849881Y-122474824D01*
X64678353Y-122501992D01*
X64480387Y-122533347D01*
X64115857Y-122631022D01*
X63763535Y-122766266D01*
X63760595Y-122767764D01*
X63430221Y-122936098D01*
X63430214Y-122936102D01*
X63427280Y-122937597D01*
X63110775Y-123143137D01*
X62817489Y-123380635D01*
X62550635Y-123647489D01*
X62313137Y-123940775D01*
X62311335Y-123943550D01*
X62109395Y-124254510D01*
X62109393Y-124254513D01*
X62107597Y-124257279D01*
X62106102Y-124260213D01*
X62106098Y-124260220D01*
X62054465Y-124361556D01*
X61936266Y-124593535D01*
X61935082Y-124596620D01*
X61808388Y-124926669D01*
X61801022Y-124945857D01*
X61703347Y-125310387D01*
X61678667Y-125466210D01*
X61678103Y-125469772D01*
X61647691Y-125533925D01*
X61587422Y-125571452D01*
X61516433Y-125570438D01*
X61457261Y-125531205D01*
X61428693Y-125466210D01*
X61427654Y-125450088D01*
X61425068Y-113377095D01*
X100249501Y-113377095D01*
X100249838Y-113383614D01*
X100259757Y-113479206D01*
X100262649Y-113492600D01*
X100314088Y-113646784D01*
X100320261Y-113659962D01*
X100405563Y-113797807D01*
X100414599Y-113809208D01*
X100529329Y-113923739D01*
X100540740Y-113932751D01*
X100678743Y-114017816D01*
X100691924Y-114023963D01*
X100846210Y-114075138D01*
X100859586Y-114078005D01*
X100953938Y-114087672D01*
X100960354Y-114088000D01*
X101210385Y-114088000D01*
X101225624Y-114083525D01*
X101226829Y-114082135D01*
X101228500Y-114074452D01*
X101228500Y-114069884D01*
X101736500Y-114069884D01*
X101740975Y-114085123D01*
X101742365Y-114086328D01*
X101750048Y-114087999D01*
X102004595Y-114087999D01*
X102011114Y-114087662D01*
X102106706Y-114077743D01*
X102120100Y-114074851D01*
X102274284Y-114023412D01*
X102287462Y-114017239D01*
X102425307Y-113931937D01*
X102436708Y-113922901D01*
X102551239Y-113808171D01*
X102560251Y-113796760D01*
X102645316Y-113658757D01*
X102651463Y-113645576D01*
X102702638Y-113491290D01*
X102705505Y-113477914D01*
X102715172Y-113383562D01*
X102715500Y-113377146D01*
X102715500Y-113352115D01*
X102711025Y-113336876D01*
X102709635Y-113335671D01*
X102701952Y-113334000D01*
X101754615Y-113334000D01*
X101739376Y-113338475D01*
X101738171Y-113339865D01*
X101736500Y-113347548D01*
X101736500Y-114069884D01*
X101228500Y-114069884D01*
X101228500Y-113352115D01*
X101224025Y-113336876D01*
X101222635Y-113335671D01*
X101214952Y-113334000D01*
X100267616Y-113334000D01*
X100252377Y-113338475D01*
X100251172Y-113339865D01*
X100249501Y-113347548D01*
X100249501Y-113377095D01*
X61425068Y-113377095D01*
X61422654Y-102108134D01*
X86591500Y-102108134D01*
X86598255Y-102170316D01*
X86649385Y-102306705D01*
X86736739Y-102423261D01*
X86853295Y-102510615D01*
X86989684Y-102561745D01*
X87051866Y-102568500D01*
X88848134Y-102568500D01*
X88910316Y-102561745D01*
X89046705Y-102510615D01*
X89163261Y-102423261D01*
X89250615Y-102306705D01*
X89259351Y-102283402D01*
X89294598Y-102189382D01*
X89337240Y-102132618D01*
X89403802Y-102107918D01*
X89473150Y-102123126D01*
X89507817Y-102151114D01*
X89536250Y-102183938D01*
X89708126Y-102326632D01*
X89901000Y-102439338D01*
X90109692Y-102519030D01*
X90114760Y-102520061D01*
X90114763Y-102520062D01*
X90213627Y-102540176D01*
X90328597Y-102563567D01*
X90333772Y-102563757D01*
X90333774Y-102563757D01*
X90546673Y-102571564D01*
X90546677Y-102571564D01*
X90551837Y-102571753D01*
X90556957Y-102571097D01*
X90556959Y-102571097D01*
X90768288Y-102544025D01*
X90768289Y-102544025D01*
X90773416Y-102543368D01*
X90778366Y-102541883D01*
X90982429Y-102480661D01*
X90982434Y-102480659D01*
X90987384Y-102479174D01*
X91187994Y-102380896D01*
X91369860Y-102251173D01*
X91528096Y-102093489D01*
X91658453Y-101912077D01*
X91659776Y-101913028D01*
X91706645Y-101869857D01*
X91776580Y-101857625D01*
X91842026Y-101885144D01*
X91869875Y-101916994D01*
X91929987Y-102015088D01*
X92076250Y-102183938D01*
X92248126Y-102326632D01*
X92441000Y-102439338D01*
X92649692Y-102519030D01*
X92654760Y-102520061D01*
X92654763Y-102520062D01*
X92753627Y-102540176D01*
X92868597Y-102563567D01*
X92873772Y-102563757D01*
X92873774Y-102563757D01*
X93086673Y-102571564D01*
X93086677Y-102571564D01*
X93091837Y-102571753D01*
X93096957Y-102571097D01*
X93096959Y-102571097D01*
X93308288Y-102544025D01*
X93308289Y-102544025D01*
X93313416Y-102543368D01*
X93318366Y-102541883D01*
X93522429Y-102480661D01*
X93522434Y-102480659D01*
X93527384Y-102479174D01*
X93727994Y-102380896D01*
X93909860Y-102251173D01*
X94068096Y-102093489D01*
X94198453Y-101912077D01*
X94219320Y-101869857D01*
X94295136Y-101716453D01*
X94295137Y-101716451D01*
X94297430Y-101711811D01*
X94342953Y-101561978D01*
X94360865Y-101503023D01*
X94360865Y-101503021D01*
X94362370Y-101498069D01*
X94391529Y-101276590D01*
X94391779Y-101266368D01*
X94393074Y-101213365D01*
X94393074Y-101213361D01*
X94393156Y-101210000D01*
X94374852Y-100987361D01*
X94320431Y-100770702D01*
X94231354Y-100565840D01*
X94121613Y-100396206D01*
X94112822Y-100382617D01*
X94112820Y-100382614D01*
X94110014Y-100378277D01*
X93959670Y-100213051D01*
X93955619Y-100209852D01*
X93955615Y-100209848D01*
X93788414Y-100077800D01*
X93788410Y-100077798D01*
X93784359Y-100074598D01*
X93743053Y-100051796D01*
X93693084Y-100001364D01*
X93678312Y-99931921D01*
X93703428Y-99865516D01*
X93730780Y-99838909D01*
X93791737Y-99795429D01*
X93909860Y-99711173D01*
X93932613Y-99688500D01*
X94053616Y-99567918D01*
X94068096Y-99553489D01*
X94087817Y-99526045D01*
X94195435Y-99376277D01*
X94198453Y-99372077D01*
X94212860Y-99342928D01*
X94295136Y-99176453D01*
X94295137Y-99176451D01*
X94297430Y-99171811D01*
X94362370Y-98958069D01*
X94391529Y-98736590D01*
X94391611Y-98733240D01*
X94393074Y-98673365D01*
X94393074Y-98673361D01*
X94393156Y-98670000D01*
X94374852Y-98447361D01*
X94320431Y-98230702D01*
X94231354Y-98025840D01*
X94159485Y-97914748D01*
X94112822Y-97842617D01*
X94112820Y-97842614D01*
X94110014Y-97838277D01*
X93959670Y-97673051D01*
X93955619Y-97669852D01*
X93955615Y-97669848D01*
X93788414Y-97537800D01*
X93788410Y-97537798D01*
X93784359Y-97534598D01*
X93746385Y-97513635D01*
X93729666Y-97504406D01*
X93588789Y-97426638D01*
X93583920Y-97424914D01*
X93583916Y-97424912D01*
X93383087Y-97353795D01*
X93383083Y-97353794D01*
X93378212Y-97352069D01*
X93373119Y-97351162D01*
X93373116Y-97351161D01*
X93163373Y-97313800D01*
X93163367Y-97313799D01*
X93158284Y-97312894D01*
X93084452Y-97311992D01*
X92940081Y-97310228D01*
X92940079Y-97310228D01*
X92934911Y-97310165D01*
X92714091Y-97343955D01*
X92501756Y-97413357D01*
X92303607Y-97516507D01*
X92299474Y-97519610D01*
X92299471Y-97519612D01*
X92129100Y-97647530D01*
X92124965Y-97650635D01*
X92121393Y-97654373D01*
X92013729Y-97767037D01*
X91970629Y-97812138D01*
X91863201Y-97969621D01*
X91808293Y-98014621D01*
X91737768Y-98022792D01*
X91674021Y-97991538D01*
X91653324Y-97967054D01*
X91572822Y-97842617D01*
X91572820Y-97842614D01*
X91570014Y-97838277D01*
X91419670Y-97673051D01*
X91415619Y-97669852D01*
X91415615Y-97669848D01*
X91248414Y-97537800D01*
X91248410Y-97537798D01*
X91244359Y-97534598D01*
X91206385Y-97513635D01*
X91189666Y-97504406D01*
X91048789Y-97426638D01*
X91043920Y-97424914D01*
X91043916Y-97424912D01*
X90843087Y-97353795D01*
X90843083Y-97353794D01*
X90838212Y-97352069D01*
X90833119Y-97351162D01*
X90833116Y-97351161D01*
X90623373Y-97313800D01*
X90623367Y-97313799D01*
X90618284Y-97312894D01*
X90544452Y-97311992D01*
X90400081Y-97310228D01*
X90400079Y-97310228D01*
X90394911Y-97310165D01*
X90174091Y-97343955D01*
X89961756Y-97413357D01*
X89763607Y-97516507D01*
X89759474Y-97519610D01*
X89759471Y-97519612D01*
X89589100Y-97647530D01*
X89584965Y-97650635D01*
X89516909Y-97721852D01*
X89504283Y-97735064D01*
X89442759Y-97770494D01*
X89371846Y-97767037D01*
X89314060Y-97725791D01*
X89295207Y-97692243D01*
X89253767Y-97581703D01*
X89250615Y-97573295D01*
X89163261Y-97456739D01*
X89046705Y-97369385D01*
X88910316Y-97318255D01*
X88848134Y-97311500D01*
X87051866Y-97311500D01*
X86989684Y-97318255D01*
X86853295Y-97369385D01*
X86736739Y-97456739D01*
X86649385Y-97573295D01*
X86598255Y-97709684D01*
X86591500Y-97771866D01*
X86591500Y-99568134D01*
X86598255Y-99630316D01*
X86649385Y-99766705D01*
X86713373Y-99852084D01*
X86722630Y-99864435D01*
X86747478Y-99930941D01*
X86732425Y-100000324D01*
X86722632Y-100015562D01*
X86649385Y-100113295D01*
X86598255Y-100249684D01*
X86591500Y-100311866D01*
X86591500Y-102108134D01*
X61422654Y-102108134D01*
X61420182Y-90570331D01*
X70324040Y-90570331D01*
X70343859Y-90885351D01*
X70403005Y-91195403D01*
X70429609Y-91277283D01*
X70481163Y-91435947D01*
X70500544Y-91495597D01*
X70502231Y-91499183D01*
X70502233Y-91499187D01*
X70633250Y-91777614D01*
X70633254Y-91777621D01*
X70634938Y-91781200D01*
X70804068Y-92047706D01*
X70806593Y-92050758D01*
X70969846Y-92248096D01*
X71005267Y-92290913D01*
X71235360Y-92506985D01*
X71238562Y-92509312D01*
X71238564Y-92509313D01*
X71254179Y-92520658D01*
X71490721Y-92692515D01*
X71494190Y-92694422D01*
X71494193Y-92694424D01*
X71763852Y-92842671D01*
X71767321Y-92844578D01*
X71770990Y-92846031D01*
X71770995Y-92846033D01*
X72014181Y-92942317D01*
X72060798Y-92960774D01*
X72366525Y-93039271D01*
X72679679Y-93078831D01*
X72995321Y-93078831D01*
X73308475Y-93039271D01*
X73614202Y-92960774D01*
X73660819Y-92942317D01*
X73904005Y-92846033D01*
X73904010Y-92846031D01*
X73907679Y-92844578D01*
X73911148Y-92842671D01*
X74180807Y-92694424D01*
X74180810Y-92694422D01*
X74184279Y-92692515D01*
X74420821Y-92520658D01*
X74436436Y-92509313D01*
X74436438Y-92509312D01*
X74439640Y-92506985D01*
X74669733Y-92290913D01*
X74705155Y-92248096D01*
X74868407Y-92050758D01*
X74870932Y-92047706D01*
X75040062Y-91781200D01*
X75041746Y-91777621D01*
X75041750Y-91777614D01*
X75172767Y-91499187D01*
X75172769Y-91499183D01*
X75174456Y-91495597D01*
X75193838Y-91435947D01*
X75245391Y-91277283D01*
X75271995Y-91195403D01*
X75331141Y-90885351D01*
X75350960Y-90570331D01*
X117424040Y-90570331D01*
X117443859Y-90885351D01*
X117503005Y-91195403D01*
X117529609Y-91277283D01*
X117581163Y-91435947D01*
X117600544Y-91495597D01*
X117602231Y-91499183D01*
X117602233Y-91499187D01*
X117733250Y-91777614D01*
X117733254Y-91777621D01*
X117734938Y-91781200D01*
X117904068Y-92047706D01*
X117906593Y-92050758D01*
X118069846Y-92248096D01*
X118105267Y-92290913D01*
X118335360Y-92506985D01*
X118338562Y-92509312D01*
X118338564Y-92509313D01*
X118354179Y-92520658D01*
X118590721Y-92692515D01*
X118594190Y-92694422D01*
X118594193Y-92694424D01*
X118863852Y-92842671D01*
X118867321Y-92844578D01*
X118870990Y-92846031D01*
X118870995Y-92846033D01*
X119114181Y-92942317D01*
X119160798Y-92960774D01*
X119466525Y-93039271D01*
X119779679Y-93078831D01*
X120095321Y-93078831D01*
X120408475Y-93039271D01*
X120714202Y-92960774D01*
X120760819Y-92942317D01*
X121004005Y-92846033D01*
X121004010Y-92846031D01*
X121007679Y-92844578D01*
X121011148Y-92842671D01*
X121280807Y-92694424D01*
X121280810Y-92694422D01*
X121284279Y-92692515D01*
X121520821Y-92520658D01*
X121536436Y-92509313D01*
X121536438Y-92509312D01*
X121539640Y-92506985D01*
X121769733Y-92290913D01*
X121805155Y-92248096D01*
X121968407Y-92050758D01*
X121970932Y-92047706D01*
X122140062Y-91781200D01*
X122141746Y-91777621D01*
X122141750Y-91777614D01*
X122272767Y-91499187D01*
X122272769Y-91499183D01*
X122274456Y-91495597D01*
X122293838Y-91435947D01*
X122345391Y-91277283D01*
X122371995Y-91195403D01*
X122431141Y-90885351D01*
X122450960Y-90570331D01*
X122431141Y-90255311D01*
X122371995Y-89945259D01*
X122274456Y-89645065D01*
X122250551Y-89594264D01*
X122141750Y-89363048D01*
X122141746Y-89363041D01*
X122140062Y-89359462D01*
X121970932Y-89092956D01*
X121825309Y-88916929D01*
X121772258Y-88852801D01*
X121772257Y-88852800D01*
X121769733Y-88849749D01*
X121539640Y-88633677D01*
X121506109Y-88609315D01*
X121475937Y-88587394D01*
X121284279Y-88448147D01*
X121265613Y-88437885D01*
X128139500Y-88437885D01*
X128143975Y-88453124D01*
X128145365Y-88454329D01*
X128153048Y-88456000D01*
X130125385Y-88456000D01*
X130140624Y-88451525D01*
X130141829Y-88450135D01*
X130143500Y-88442452D01*
X130143500Y-88437885D01*
X130651500Y-88437885D01*
X130655975Y-88453124D01*
X130657365Y-88454329D01*
X130665048Y-88456000D01*
X132637384Y-88456000D01*
X132652623Y-88451525D01*
X132653828Y-88450135D01*
X132655499Y-88442452D01*
X132655499Y-87900039D01*
X132655291Y-87894929D01*
X132644418Y-87761233D01*
X132642648Y-87750680D01*
X132589533Y-87543815D01*
X132585799Y-87533269D01*
X132496990Y-87339295D01*
X132491454Y-87329588D01*
X132369697Y-87154403D01*
X132362524Y-87145824D01*
X132211676Y-86994976D01*
X132203097Y-86987803D01*
X132027912Y-86866046D01*
X132018205Y-86860510D01*
X131824231Y-86771701D01*
X131813685Y-86767967D01*
X131606821Y-86714853D01*
X131596266Y-86713082D01*
X131462570Y-86702207D01*
X131457464Y-86702000D01*
X130669615Y-86702000D01*
X130654376Y-86706475D01*
X130653171Y-86707865D01*
X130651500Y-86715548D01*
X130651500Y-88437885D01*
X130143500Y-88437885D01*
X130143500Y-86720116D01*
X130139025Y-86704877D01*
X130137635Y-86703672D01*
X130129952Y-86702001D01*
X129337539Y-86702001D01*
X129332429Y-86702209D01*
X129198733Y-86713082D01*
X129188180Y-86714852D01*
X128981315Y-86767967D01*
X128970769Y-86771701D01*
X128776795Y-86860510D01*
X128767088Y-86866046D01*
X128591903Y-86987803D01*
X128583324Y-86994976D01*
X128432476Y-87145824D01*
X128425303Y-87154403D01*
X128303546Y-87329588D01*
X128298010Y-87339295D01*
X128209201Y-87533269D01*
X128205467Y-87543815D01*
X128152353Y-87750679D01*
X128150582Y-87761234D01*
X128139707Y-87894930D01*
X128139500Y-87900036D01*
X128139500Y-88437885D01*
X121265613Y-88437885D01*
X121094478Y-88343802D01*
X121011148Y-88297991D01*
X121011147Y-88297990D01*
X121007679Y-88296084D01*
X121004010Y-88294631D01*
X121004005Y-88294629D01*
X120717872Y-88181341D01*
X120717871Y-88181341D01*
X120714202Y-88179888D01*
X120408475Y-88101391D01*
X120095321Y-88061831D01*
X119779679Y-88061831D01*
X119466525Y-88101391D01*
X119160798Y-88179888D01*
X119157129Y-88181341D01*
X119157128Y-88181341D01*
X118870995Y-88294629D01*
X118870990Y-88294631D01*
X118867321Y-88296084D01*
X118863853Y-88297990D01*
X118863852Y-88297991D01*
X118780523Y-88343802D01*
X118590721Y-88448147D01*
X118399063Y-88587394D01*
X118368892Y-88609315D01*
X118335360Y-88633677D01*
X118105267Y-88849749D01*
X118102743Y-88852800D01*
X118102742Y-88852801D01*
X118049691Y-88916929D01*
X117904068Y-89092956D01*
X117734938Y-89359462D01*
X117733254Y-89363041D01*
X117733250Y-89363048D01*
X117624449Y-89594264D01*
X117600544Y-89645065D01*
X117503005Y-89945259D01*
X117443859Y-90255311D01*
X117424040Y-90570331D01*
X75350960Y-90570331D01*
X75331141Y-90255311D01*
X75271995Y-89945259D01*
X75174456Y-89645065D01*
X75150551Y-89594264D01*
X75041750Y-89363048D01*
X75041746Y-89363041D01*
X75040062Y-89359462D01*
X74907343Y-89150331D01*
X79839002Y-89150331D01*
X79858957Y-89378418D01*
X79860381Y-89383731D01*
X79860381Y-89383733D01*
X79912459Y-89578087D01*
X79918216Y-89599574D01*
X79920539Y-89604555D01*
X79920539Y-89604556D01*
X80012651Y-89802093D01*
X80012654Y-89802098D01*
X80014977Y-89807080D01*
X80146302Y-89994631D01*
X80308200Y-90156529D01*
X80312708Y-90159686D01*
X80312711Y-90159688D01*
X80355700Y-90189789D01*
X80495751Y-90287854D01*
X80500733Y-90290177D01*
X80500738Y-90290180D01*
X80698275Y-90382292D01*
X80703257Y-90384615D01*
X80708565Y-90386037D01*
X80708567Y-90386038D01*
X80919098Y-90442450D01*
X80919100Y-90442450D01*
X80924413Y-90443874D01*
X81152500Y-90463829D01*
X81380587Y-90443874D01*
X81385900Y-90442450D01*
X81385902Y-90442450D01*
X81596433Y-90386038D01*
X81596435Y-90386037D01*
X81601743Y-90384615D01*
X81606725Y-90382292D01*
X81804262Y-90290180D01*
X81804267Y-90290177D01*
X81809249Y-90287854D01*
X81949300Y-90189789D01*
X81992289Y-90159688D01*
X81992292Y-90159686D01*
X81996800Y-90156529D01*
X82158698Y-89994631D01*
X82290023Y-89807080D01*
X82292346Y-89802098D01*
X82292349Y-89802093D01*
X82384461Y-89604556D01*
X82384461Y-89604555D01*
X82386784Y-89599574D01*
X82392542Y-89578087D01*
X82415793Y-89491312D01*
X82452745Y-89430689D01*
X82516606Y-89399668D01*
X82587100Y-89408096D01*
X82641847Y-89453299D01*
X82659207Y-89491312D01*
X82682459Y-89578087D01*
X82688216Y-89599574D01*
X82690539Y-89604555D01*
X82690539Y-89604556D01*
X82782651Y-89802093D01*
X82782654Y-89802098D01*
X82784977Y-89807080D01*
X82916302Y-89994631D01*
X83078200Y-90156529D01*
X83082708Y-90159686D01*
X83082711Y-90159688D01*
X83125700Y-90189789D01*
X83265751Y-90287854D01*
X83270733Y-90290177D01*
X83270738Y-90290180D01*
X83468275Y-90382292D01*
X83473257Y-90384615D01*
X83478565Y-90386037D01*
X83478567Y-90386038D01*
X83689098Y-90442450D01*
X83689100Y-90442450D01*
X83694413Y-90443874D01*
X83922500Y-90463829D01*
X84150587Y-90443874D01*
X84155900Y-90442450D01*
X84155902Y-90442450D01*
X84366433Y-90386038D01*
X84366435Y-90386037D01*
X84371743Y-90384615D01*
X84376725Y-90382292D01*
X84574262Y-90290180D01*
X84574267Y-90290177D01*
X84579249Y-90287854D01*
X84719300Y-90189789D01*
X84762289Y-90159688D01*
X84762292Y-90159686D01*
X84766800Y-90156529D01*
X84928698Y-89994631D01*
X85060023Y-89807080D01*
X85062346Y-89802098D01*
X85062349Y-89802093D01*
X85154461Y-89604556D01*
X85154461Y-89604555D01*
X85156784Y-89599574D01*
X85162542Y-89578087D01*
X85185793Y-89491312D01*
X85222745Y-89430689D01*
X85286606Y-89399668D01*
X85357100Y-89408096D01*
X85411847Y-89453299D01*
X85429207Y-89491312D01*
X85452459Y-89578087D01*
X85458216Y-89599574D01*
X85460539Y-89604555D01*
X85460539Y-89604556D01*
X85552651Y-89802093D01*
X85552654Y-89802098D01*
X85554977Y-89807080D01*
X85686302Y-89994631D01*
X85848200Y-90156529D01*
X85852708Y-90159686D01*
X85852711Y-90159688D01*
X85895700Y-90189789D01*
X86035751Y-90287854D01*
X86040733Y-90290177D01*
X86040738Y-90290180D01*
X86238275Y-90382292D01*
X86243257Y-90384615D01*
X86248565Y-90386037D01*
X86248567Y-90386038D01*
X86459098Y-90442450D01*
X86459100Y-90442450D01*
X86464413Y-90443874D01*
X86692500Y-90463829D01*
X86920587Y-90443874D01*
X86925900Y-90442450D01*
X86925902Y-90442450D01*
X87136433Y-90386038D01*
X87136435Y-90386037D01*
X87141743Y-90384615D01*
X87146725Y-90382292D01*
X87344262Y-90290180D01*
X87344267Y-90290177D01*
X87349249Y-90287854D01*
X87489300Y-90189789D01*
X87532289Y-90159688D01*
X87532292Y-90159686D01*
X87536800Y-90156529D01*
X87698698Y-89994631D01*
X87830023Y-89807080D01*
X87832346Y-89802098D01*
X87832349Y-89802093D01*
X87924461Y-89604556D01*
X87924461Y-89604555D01*
X87926784Y-89599574D01*
X87932542Y-89578087D01*
X87955793Y-89491312D01*
X87992745Y-89430689D01*
X88056606Y-89399668D01*
X88127100Y-89408096D01*
X88181847Y-89453299D01*
X88199207Y-89491312D01*
X88222459Y-89578087D01*
X88228216Y-89599574D01*
X88230539Y-89604555D01*
X88230539Y-89604556D01*
X88322651Y-89802093D01*
X88322654Y-89802098D01*
X88324977Y-89807080D01*
X88456302Y-89994631D01*
X88618200Y-90156529D01*
X88622708Y-90159686D01*
X88622711Y-90159688D01*
X88665700Y-90189789D01*
X88805751Y-90287854D01*
X88810733Y-90290177D01*
X88810738Y-90290180D01*
X89008275Y-90382292D01*
X89013257Y-90384615D01*
X89018565Y-90386037D01*
X89018567Y-90386038D01*
X89229098Y-90442450D01*
X89229100Y-90442450D01*
X89234413Y-90443874D01*
X89462500Y-90463829D01*
X89690587Y-90443874D01*
X89695900Y-90442450D01*
X89695902Y-90442450D01*
X89906433Y-90386038D01*
X89906435Y-90386037D01*
X89911743Y-90384615D01*
X89916725Y-90382292D01*
X90114262Y-90290180D01*
X90114267Y-90290177D01*
X90119249Y-90287854D01*
X90259300Y-90189789D01*
X90302289Y-90159688D01*
X90302292Y-90159686D01*
X90306800Y-90156529D01*
X90468698Y-89994631D01*
X90600023Y-89807080D01*
X90602346Y-89802098D01*
X90602349Y-89802093D01*
X90694461Y-89604556D01*
X90694461Y-89604555D01*
X90696784Y-89599574D01*
X90702542Y-89578087D01*
X90725793Y-89491312D01*
X90762745Y-89430689D01*
X90826606Y-89399668D01*
X90897100Y-89408096D01*
X90951847Y-89453299D01*
X90969207Y-89491312D01*
X90992459Y-89578087D01*
X90998216Y-89599574D01*
X91000539Y-89604555D01*
X91000539Y-89604556D01*
X91092651Y-89802093D01*
X91092654Y-89802098D01*
X91094977Y-89807080D01*
X91226302Y-89994631D01*
X91388200Y-90156529D01*
X91392708Y-90159686D01*
X91392711Y-90159688D01*
X91435700Y-90189789D01*
X91575751Y-90287854D01*
X91580733Y-90290177D01*
X91580738Y-90290180D01*
X91778275Y-90382292D01*
X91783257Y-90384615D01*
X91788565Y-90386037D01*
X91788567Y-90386038D01*
X91999098Y-90442450D01*
X91999100Y-90442450D01*
X92004413Y-90443874D01*
X92232500Y-90463829D01*
X92460587Y-90443874D01*
X92465900Y-90442450D01*
X92465902Y-90442450D01*
X92676433Y-90386038D01*
X92676435Y-90386037D01*
X92681743Y-90384615D01*
X92686725Y-90382292D01*
X92884262Y-90290180D01*
X92884267Y-90290177D01*
X92889249Y-90287854D01*
X93029300Y-90189789D01*
X93072289Y-90159688D01*
X93072292Y-90159686D01*
X93076800Y-90156529D01*
X93238698Y-89994631D01*
X93370023Y-89807080D01*
X93372346Y-89802098D01*
X93372349Y-89802093D01*
X93464461Y-89604556D01*
X93464461Y-89604555D01*
X93466784Y-89599574D01*
X93472542Y-89578087D01*
X93495793Y-89491312D01*
X93532745Y-89430689D01*
X93596606Y-89399668D01*
X93667100Y-89408096D01*
X93721847Y-89453299D01*
X93739207Y-89491312D01*
X93762459Y-89578087D01*
X93768216Y-89599574D01*
X93770539Y-89604555D01*
X93770539Y-89604556D01*
X93862651Y-89802093D01*
X93862654Y-89802098D01*
X93864977Y-89807080D01*
X93996302Y-89994631D01*
X94158200Y-90156529D01*
X94162708Y-90159686D01*
X94162711Y-90159688D01*
X94205700Y-90189789D01*
X94345751Y-90287854D01*
X94350733Y-90290177D01*
X94350738Y-90290180D01*
X94548275Y-90382292D01*
X94553257Y-90384615D01*
X94558565Y-90386037D01*
X94558567Y-90386038D01*
X94769098Y-90442450D01*
X94769100Y-90442450D01*
X94774413Y-90443874D01*
X95002500Y-90463829D01*
X95230587Y-90443874D01*
X95235900Y-90442450D01*
X95235902Y-90442450D01*
X95446433Y-90386038D01*
X95446435Y-90386037D01*
X95451743Y-90384615D01*
X95456725Y-90382292D01*
X95654262Y-90290180D01*
X95654267Y-90290177D01*
X95659249Y-90287854D01*
X95799300Y-90189789D01*
X95842289Y-90159688D01*
X95842292Y-90159686D01*
X95846800Y-90156529D01*
X96008698Y-89994631D01*
X96140023Y-89807080D01*
X96142346Y-89802098D01*
X96142349Y-89802093D01*
X96234461Y-89604556D01*
X96234461Y-89604555D01*
X96236784Y-89599574D01*
X96242542Y-89578087D01*
X96265793Y-89491312D01*
X96302745Y-89430689D01*
X96366606Y-89399668D01*
X96437100Y-89408096D01*
X96491847Y-89453299D01*
X96509207Y-89491312D01*
X96532459Y-89578087D01*
X96538216Y-89599574D01*
X96540539Y-89604555D01*
X96540539Y-89604556D01*
X96632651Y-89802093D01*
X96632654Y-89802098D01*
X96634977Y-89807080D01*
X96766302Y-89994631D01*
X96928200Y-90156529D01*
X96932708Y-90159686D01*
X96932711Y-90159688D01*
X96975700Y-90189789D01*
X97115751Y-90287854D01*
X97120733Y-90290177D01*
X97120738Y-90290180D01*
X97318275Y-90382292D01*
X97323257Y-90384615D01*
X97328565Y-90386037D01*
X97328567Y-90386038D01*
X97539098Y-90442450D01*
X97539100Y-90442450D01*
X97544413Y-90443874D01*
X97772500Y-90463829D01*
X98000587Y-90443874D01*
X98005900Y-90442450D01*
X98005902Y-90442450D01*
X98216433Y-90386038D01*
X98216435Y-90386037D01*
X98221743Y-90384615D01*
X98226725Y-90382292D01*
X98424262Y-90290180D01*
X98424267Y-90290177D01*
X98429249Y-90287854D01*
X98569300Y-90189789D01*
X98612289Y-90159688D01*
X98612292Y-90159686D01*
X98616800Y-90156529D01*
X98778698Y-89994631D01*
X98910023Y-89807080D01*
X98912346Y-89802098D01*
X98912349Y-89802093D01*
X99004461Y-89604556D01*
X99004461Y-89604555D01*
X99006784Y-89599574D01*
X99012542Y-89578087D01*
X99035793Y-89491312D01*
X99072745Y-89430689D01*
X99136606Y-89399668D01*
X99207100Y-89408096D01*
X99261847Y-89453299D01*
X99279207Y-89491312D01*
X99302459Y-89578087D01*
X99308216Y-89599574D01*
X99310539Y-89604555D01*
X99310539Y-89604556D01*
X99402651Y-89802093D01*
X99402654Y-89802098D01*
X99404977Y-89807080D01*
X99536302Y-89994631D01*
X99698200Y-90156529D01*
X99702708Y-90159686D01*
X99702711Y-90159688D01*
X99745700Y-90189789D01*
X99885751Y-90287854D01*
X99890733Y-90290177D01*
X99890738Y-90290180D01*
X100088275Y-90382292D01*
X100093257Y-90384615D01*
X100098565Y-90386037D01*
X100098567Y-90386038D01*
X100309098Y-90442450D01*
X100309100Y-90442450D01*
X100314413Y-90443874D01*
X100542500Y-90463829D01*
X100770587Y-90443874D01*
X100775900Y-90442450D01*
X100775902Y-90442450D01*
X100986433Y-90386038D01*
X100986435Y-90386037D01*
X100991743Y-90384615D01*
X100996725Y-90382292D01*
X101194262Y-90290180D01*
X101194267Y-90290177D01*
X101199249Y-90287854D01*
X101339300Y-90189789D01*
X101382289Y-90159688D01*
X101382292Y-90159686D01*
X101386800Y-90156529D01*
X101548698Y-89994631D01*
X101680023Y-89807080D01*
X101682346Y-89802098D01*
X101682349Y-89802093D01*
X101774461Y-89604556D01*
X101774461Y-89604555D01*
X101776784Y-89599574D01*
X101782542Y-89578087D01*
X101805793Y-89491312D01*
X101842745Y-89430689D01*
X101906606Y-89399668D01*
X101977100Y-89408096D01*
X102031847Y-89453299D01*
X102049207Y-89491312D01*
X102072459Y-89578087D01*
X102078216Y-89599574D01*
X102080539Y-89604555D01*
X102080539Y-89604556D01*
X102172651Y-89802093D01*
X102172654Y-89802098D01*
X102174977Y-89807080D01*
X102306302Y-89994631D01*
X102468200Y-90156529D01*
X102472708Y-90159686D01*
X102472711Y-90159688D01*
X102515700Y-90189789D01*
X102655751Y-90287854D01*
X102660733Y-90290177D01*
X102660738Y-90290180D01*
X102858275Y-90382292D01*
X102863257Y-90384615D01*
X102868565Y-90386037D01*
X102868567Y-90386038D01*
X103079098Y-90442450D01*
X103079100Y-90442450D01*
X103084413Y-90443874D01*
X103312500Y-90463829D01*
X103540587Y-90443874D01*
X103545900Y-90442450D01*
X103545902Y-90442450D01*
X103756433Y-90386038D01*
X103756435Y-90386037D01*
X103761743Y-90384615D01*
X103766725Y-90382292D01*
X103964262Y-90290180D01*
X103964267Y-90290177D01*
X103969249Y-90287854D01*
X104109300Y-90189789D01*
X104152289Y-90159688D01*
X104152292Y-90159686D01*
X104156800Y-90156529D01*
X104318698Y-89994631D01*
X104450023Y-89807080D01*
X104452346Y-89802098D01*
X104452349Y-89802093D01*
X104544461Y-89604556D01*
X104544461Y-89604555D01*
X104546784Y-89599574D01*
X104552542Y-89578087D01*
X104575793Y-89491312D01*
X104612745Y-89430689D01*
X104676606Y-89399668D01*
X104747100Y-89408096D01*
X104801847Y-89453299D01*
X104819207Y-89491312D01*
X104842459Y-89578087D01*
X104848216Y-89599574D01*
X104850539Y-89604555D01*
X104850539Y-89604556D01*
X104942651Y-89802093D01*
X104942654Y-89802098D01*
X104944977Y-89807080D01*
X105076302Y-89994631D01*
X105238200Y-90156529D01*
X105242708Y-90159686D01*
X105242711Y-90159688D01*
X105285700Y-90189789D01*
X105425751Y-90287854D01*
X105430733Y-90290177D01*
X105430738Y-90290180D01*
X105628275Y-90382292D01*
X105633257Y-90384615D01*
X105638565Y-90386037D01*
X105638567Y-90386038D01*
X105849098Y-90442450D01*
X105849100Y-90442450D01*
X105854413Y-90443874D01*
X106082500Y-90463829D01*
X106310587Y-90443874D01*
X106315900Y-90442450D01*
X106315902Y-90442450D01*
X106526433Y-90386038D01*
X106526435Y-90386037D01*
X106531743Y-90384615D01*
X106536725Y-90382292D01*
X106734262Y-90290180D01*
X106734267Y-90290177D01*
X106739249Y-90287854D01*
X106879300Y-90189789D01*
X106922289Y-90159688D01*
X106922292Y-90159686D01*
X106926800Y-90156529D01*
X107088698Y-89994631D01*
X107220023Y-89807080D01*
X107222346Y-89802098D01*
X107222349Y-89802093D01*
X107314461Y-89604556D01*
X107314461Y-89604555D01*
X107316784Y-89599574D01*
X107322542Y-89578087D01*
X107345793Y-89491312D01*
X107382745Y-89430689D01*
X107446606Y-89399668D01*
X107517100Y-89408096D01*
X107571847Y-89453299D01*
X107589207Y-89491312D01*
X107612459Y-89578087D01*
X107618216Y-89599574D01*
X107620539Y-89604555D01*
X107620539Y-89604556D01*
X107712651Y-89802093D01*
X107712654Y-89802098D01*
X107714977Y-89807080D01*
X107846302Y-89994631D01*
X108008200Y-90156529D01*
X108012708Y-90159686D01*
X108012711Y-90159688D01*
X108055700Y-90189789D01*
X108195751Y-90287854D01*
X108200733Y-90290177D01*
X108200738Y-90290180D01*
X108398275Y-90382292D01*
X108403257Y-90384615D01*
X108408565Y-90386037D01*
X108408567Y-90386038D01*
X108619098Y-90442450D01*
X108619100Y-90442450D01*
X108624413Y-90443874D01*
X108852500Y-90463829D01*
X109080587Y-90443874D01*
X109085900Y-90442450D01*
X109085902Y-90442450D01*
X109296433Y-90386038D01*
X109296435Y-90386037D01*
X109301743Y-90384615D01*
X109306725Y-90382292D01*
X109504262Y-90290180D01*
X109504267Y-90290177D01*
X109509249Y-90287854D01*
X109649300Y-90189789D01*
X109692289Y-90159688D01*
X109692292Y-90159686D01*
X109696800Y-90156529D01*
X109858698Y-89994631D01*
X109990023Y-89807080D01*
X109992346Y-89802098D01*
X109992349Y-89802093D01*
X110084461Y-89604556D01*
X110084461Y-89604555D01*
X110086784Y-89599574D01*
X110092542Y-89578087D01*
X110115793Y-89491312D01*
X110152745Y-89430689D01*
X110216606Y-89399668D01*
X110287100Y-89408096D01*
X110341847Y-89453299D01*
X110359207Y-89491312D01*
X110382459Y-89578087D01*
X110388216Y-89599574D01*
X110390539Y-89604555D01*
X110390539Y-89604556D01*
X110482651Y-89802093D01*
X110482654Y-89802098D01*
X110484977Y-89807080D01*
X110616302Y-89994631D01*
X110778200Y-90156529D01*
X110782708Y-90159686D01*
X110782711Y-90159688D01*
X110825700Y-90189789D01*
X110965751Y-90287854D01*
X110970733Y-90290177D01*
X110970738Y-90290180D01*
X111168275Y-90382292D01*
X111173257Y-90384615D01*
X111178565Y-90386037D01*
X111178567Y-90386038D01*
X111389098Y-90442450D01*
X111389100Y-90442450D01*
X111394413Y-90443874D01*
X111622500Y-90463829D01*
X111850587Y-90443874D01*
X111855900Y-90442450D01*
X111855902Y-90442450D01*
X112066433Y-90386038D01*
X112066435Y-90386037D01*
X112071743Y-90384615D01*
X112076725Y-90382292D01*
X112274262Y-90290180D01*
X112274267Y-90290177D01*
X112279249Y-90287854D01*
X112419300Y-90189789D01*
X112462289Y-90159688D01*
X112462292Y-90159686D01*
X112466800Y-90156529D01*
X112628698Y-89994631D01*
X112760023Y-89807080D01*
X112762346Y-89802098D01*
X112762349Y-89802093D01*
X112854461Y-89604556D01*
X112854461Y-89604555D01*
X112856784Y-89599574D01*
X112862542Y-89578087D01*
X112914619Y-89383733D01*
X112914619Y-89383731D01*
X112916043Y-89378418D01*
X112935998Y-89150331D01*
X112916043Y-88922244D01*
X112914619Y-88916929D01*
X112858207Y-88706398D01*
X112858206Y-88706396D01*
X112856784Y-88701088D01*
X112853130Y-88693251D01*
X112762349Y-88498569D01*
X112762346Y-88498564D01*
X112760023Y-88493582D01*
X112686598Y-88388720D01*
X112631857Y-88310542D01*
X112631855Y-88310539D01*
X112628698Y-88306031D01*
X112466800Y-88144133D01*
X112462292Y-88140976D01*
X112462289Y-88140974D01*
X112384111Y-88086233D01*
X112279249Y-88012808D01*
X112274267Y-88010485D01*
X112274262Y-88010482D01*
X112076725Y-87918370D01*
X112076724Y-87918370D01*
X112071743Y-87916047D01*
X112066435Y-87914625D01*
X112066433Y-87914624D01*
X111855902Y-87858212D01*
X111855900Y-87858212D01*
X111850587Y-87856788D01*
X111622500Y-87836833D01*
X111394413Y-87856788D01*
X111389100Y-87858212D01*
X111389098Y-87858212D01*
X111178567Y-87914624D01*
X111178565Y-87914625D01*
X111173257Y-87916047D01*
X111168276Y-87918370D01*
X111168275Y-87918370D01*
X110970738Y-88010482D01*
X110970733Y-88010485D01*
X110965751Y-88012808D01*
X110860889Y-88086233D01*
X110782711Y-88140974D01*
X110782708Y-88140976D01*
X110778200Y-88144133D01*
X110616302Y-88306031D01*
X110613145Y-88310539D01*
X110613143Y-88310542D01*
X110558402Y-88388720D01*
X110484977Y-88493582D01*
X110482654Y-88498564D01*
X110482651Y-88498569D01*
X110391870Y-88693251D01*
X110388216Y-88701088D01*
X110386794Y-88706396D01*
X110386793Y-88706398D01*
X110359207Y-88809350D01*
X110322255Y-88869973D01*
X110258394Y-88900994D01*
X110187900Y-88892566D01*
X110133153Y-88847363D01*
X110115793Y-88809350D01*
X110088207Y-88706398D01*
X110088206Y-88706396D01*
X110086784Y-88701088D01*
X110083130Y-88693251D01*
X109992349Y-88498569D01*
X109992346Y-88498564D01*
X109990023Y-88493582D01*
X109916598Y-88388720D01*
X109861857Y-88310542D01*
X109861855Y-88310539D01*
X109858698Y-88306031D01*
X109696800Y-88144133D01*
X109692292Y-88140976D01*
X109692289Y-88140974D01*
X109614111Y-88086233D01*
X109509249Y-88012808D01*
X109504267Y-88010485D01*
X109504262Y-88010482D01*
X109306725Y-87918370D01*
X109306724Y-87918370D01*
X109301743Y-87916047D01*
X109296435Y-87914625D01*
X109296433Y-87914624D01*
X109085902Y-87858212D01*
X109085900Y-87858212D01*
X109080587Y-87856788D01*
X108852500Y-87836833D01*
X108624413Y-87856788D01*
X108619100Y-87858212D01*
X108619098Y-87858212D01*
X108408567Y-87914624D01*
X108408565Y-87914625D01*
X108403257Y-87916047D01*
X108398276Y-87918370D01*
X108398275Y-87918370D01*
X108200738Y-88010482D01*
X108200733Y-88010485D01*
X108195751Y-88012808D01*
X108090889Y-88086233D01*
X108012711Y-88140974D01*
X108012708Y-88140976D01*
X108008200Y-88144133D01*
X107846302Y-88306031D01*
X107843145Y-88310539D01*
X107843143Y-88310542D01*
X107788402Y-88388720D01*
X107714977Y-88493582D01*
X107712654Y-88498564D01*
X107712651Y-88498569D01*
X107621870Y-88693251D01*
X107618216Y-88701088D01*
X107616794Y-88706396D01*
X107616793Y-88706398D01*
X107589207Y-88809350D01*
X107552255Y-88869973D01*
X107488394Y-88900994D01*
X107417900Y-88892566D01*
X107363153Y-88847363D01*
X107345793Y-88809350D01*
X107318207Y-88706398D01*
X107318206Y-88706396D01*
X107316784Y-88701088D01*
X107313130Y-88693251D01*
X107222349Y-88498569D01*
X107222346Y-88498564D01*
X107220023Y-88493582D01*
X107146598Y-88388720D01*
X107091857Y-88310542D01*
X107091855Y-88310539D01*
X107088698Y-88306031D01*
X106926800Y-88144133D01*
X106922292Y-88140976D01*
X106922289Y-88140974D01*
X106844111Y-88086233D01*
X106739249Y-88012808D01*
X106734267Y-88010485D01*
X106734262Y-88010482D01*
X106536725Y-87918370D01*
X106536724Y-87918370D01*
X106531743Y-87916047D01*
X106526435Y-87914625D01*
X106526433Y-87914624D01*
X106315902Y-87858212D01*
X106315900Y-87858212D01*
X106310587Y-87856788D01*
X106082500Y-87836833D01*
X105854413Y-87856788D01*
X105849100Y-87858212D01*
X105849098Y-87858212D01*
X105638567Y-87914624D01*
X105638565Y-87914625D01*
X105633257Y-87916047D01*
X105628276Y-87918370D01*
X105628275Y-87918370D01*
X105430738Y-88010482D01*
X105430733Y-88010485D01*
X105425751Y-88012808D01*
X105320889Y-88086233D01*
X105242711Y-88140974D01*
X105242708Y-88140976D01*
X105238200Y-88144133D01*
X105076302Y-88306031D01*
X105073145Y-88310539D01*
X105073143Y-88310542D01*
X105018402Y-88388720D01*
X104944977Y-88493582D01*
X104942654Y-88498564D01*
X104942651Y-88498569D01*
X104851870Y-88693251D01*
X104848216Y-88701088D01*
X104846794Y-88706396D01*
X104846793Y-88706398D01*
X104819207Y-88809350D01*
X104782255Y-88869973D01*
X104718394Y-88900994D01*
X104647900Y-88892566D01*
X104593153Y-88847363D01*
X104575793Y-88809350D01*
X104548207Y-88706398D01*
X104548206Y-88706396D01*
X104546784Y-88701088D01*
X104543130Y-88693251D01*
X104452349Y-88498569D01*
X104452346Y-88498564D01*
X104450023Y-88493582D01*
X104376598Y-88388720D01*
X104321857Y-88310542D01*
X104321855Y-88310539D01*
X104318698Y-88306031D01*
X104156800Y-88144133D01*
X104152292Y-88140976D01*
X104152289Y-88140974D01*
X104074111Y-88086233D01*
X103969249Y-88012808D01*
X103964267Y-88010485D01*
X103964262Y-88010482D01*
X103766725Y-87918370D01*
X103766724Y-87918370D01*
X103761743Y-87916047D01*
X103756435Y-87914625D01*
X103756433Y-87914624D01*
X103545902Y-87858212D01*
X103545900Y-87858212D01*
X103540587Y-87856788D01*
X103312500Y-87836833D01*
X103084413Y-87856788D01*
X103079100Y-87858212D01*
X103079098Y-87858212D01*
X102868567Y-87914624D01*
X102868565Y-87914625D01*
X102863257Y-87916047D01*
X102858276Y-87918370D01*
X102858275Y-87918370D01*
X102660738Y-88010482D01*
X102660733Y-88010485D01*
X102655751Y-88012808D01*
X102550889Y-88086233D01*
X102472711Y-88140974D01*
X102472708Y-88140976D01*
X102468200Y-88144133D01*
X102306302Y-88306031D01*
X102303145Y-88310539D01*
X102303143Y-88310542D01*
X102248402Y-88388720D01*
X102174977Y-88493582D01*
X102172654Y-88498564D01*
X102172651Y-88498569D01*
X102081870Y-88693251D01*
X102078216Y-88701088D01*
X102076794Y-88706396D01*
X102076793Y-88706398D01*
X102049207Y-88809350D01*
X102012255Y-88869973D01*
X101948394Y-88900994D01*
X101877900Y-88892566D01*
X101823153Y-88847363D01*
X101805793Y-88809350D01*
X101778207Y-88706398D01*
X101778206Y-88706396D01*
X101776784Y-88701088D01*
X101773130Y-88693251D01*
X101682349Y-88498569D01*
X101682346Y-88498564D01*
X101680023Y-88493582D01*
X101606598Y-88388720D01*
X101551857Y-88310542D01*
X101551855Y-88310539D01*
X101548698Y-88306031D01*
X101386800Y-88144133D01*
X101382292Y-88140976D01*
X101382289Y-88140974D01*
X101304111Y-88086233D01*
X101199249Y-88012808D01*
X101194267Y-88010485D01*
X101194262Y-88010482D01*
X100996725Y-87918370D01*
X100996724Y-87918370D01*
X100991743Y-87916047D01*
X100986435Y-87914625D01*
X100986433Y-87914624D01*
X100775902Y-87858212D01*
X100775900Y-87858212D01*
X100770587Y-87856788D01*
X100542500Y-87836833D01*
X100314413Y-87856788D01*
X100309100Y-87858212D01*
X100309098Y-87858212D01*
X100098567Y-87914624D01*
X100098565Y-87914625D01*
X100093257Y-87916047D01*
X100088276Y-87918370D01*
X100088275Y-87918370D01*
X99890738Y-88010482D01*
X99890733Y-88010485D01*
X99885751Y-88012808D01*
X99780889Y-88086233D01*
X99702711Y-88140974D01*
X99702708Y-88140976D01*
X99698200Y-88144133D01*
X99536302Y-88306031D01*
X99533145Y-88310539D01*
X99533143Y-88310542D01*
X99478402Y-88388720D01*
X99404977Y-88493582D01*
X99402654Y-88498564D01*
X99402651Y-88498569D01*
X99311870Y-88693251D01*
X99308216Y-88701088D01*
X99306794Y-88706396D01*
X99306793Y-88706398D01*
X99279207Y-88809350D01*
X99242255Y-88869973D01*
X99178394Y-88900994D01*
X99107900Y-88892566D01*
X99053153Y-88847363D01*
X99035793Y-88809350D01*
X99008207Y-88706398D01*
X99008206Y-88706396D01*
X99006784Y-88701088D01*
X99003130Y-88693251D01*
X98912349Y-88498569D01*
X98912346Y-88498564D01*
X98910023Y-88493582D01*
X98836598Y-88388720D01*
X98781857Y-88310542D01*
X98781855Y-88310539D01*
X98778698Y-88306031D01*
X98616800Y-88144133D01*
X98612292Y-88140976D01*
X98612289Y-88140974D01*
X98534111Y-88086233D01*
X98429249Y-88012808D01*
X98424267Y-88010485D01*
X98424262Y-88010482D01*
X98226725Y-87918370D01*
X98226724Y-87918370D01*
X98221743Y-87916047D01*
X98216435Y-87914625D01*
X98216433Y-87914624D01*
X98005902Y-87858212D01*
X98005900Y-87858212D01*
X98000587Y-87856788D01*
X97772500Y-87836833D01*
X97544413Y-87856788D01*
X97539100Y-87858212D01*
X97539098Y-87858212D01*
X97328567Y-87914624D01*
X97328565Y-87914625D01*
X97323257Y-87916047D01*
X97318276Y-87918370D01*
X97318275Y-87918370D01*
X97120738Y-88010482D01*
X97120733Y-88010485D01*
X97115751Y-88012808D01*
X97010889Y-88086233D01*
X96932711Y-88140974D01*
X96932708Y-88140976D01*
X96928200Y-88144133D01*
X96766302Y-88306031D01*
X96763145Y-88310539D01*
X96763143Y-88310542D01*
X96708402Y-88388720D01*
X96634977Y-88493582D01*
X96632654Y-88498564D01*
X96632651Y-88498569D01*
X96541870Y-88693251D01*
X96538216Y-88701088D01*
X96536794Y-88706396D01*
X96536793Y-88706398D01*
X96509207Y-88809350D01*
X96472255Y-88869973D01*
X96408394Y-88900994D01*
X96337900Y-88892566D01*
X96283153Y-88847363D01*
X96265793Y-88809350D01*
X96238207Y-88706398D01*
X96238206Y-88706396D01*
X96236784Y-88701088D01*
X96233130Y-88693251D01*
X96142349Y-88498569D01*
X96142346Y-88498564D01*
X96140023Y-88493582D01*
X96066598Y-88388720D01*
X96011857Y-88310542D01*
X96011855Y-88310539D01*
X96008698Y-88306031D01*
X95846800Y-88144133D01*
X95842292Y-88140976D01*
X95842289Y-88140974D01*
X95764111Y-88086233D01*
X95659249Y-88012808D01*
X95654267Y-88010485D01*
X95654262Y-88010482D01*
X95456725Y-87918370D01*
X95456724Y-87918370D01*
X95451743Y-87916047D01*
X95446435Y-87914625D01*
X95446433Y-87914624D01*
X95235902Y-87858212D01*
X95235900Y-87858212D01*
X95230587Y-87856788D01*
X95002500Y-87836833D01*
X94774413Y-87856788D01*
X94769100Y-87858212D01*
X94769098Y-87858212D01*
X94558567Y-87914624D01*
X94558565Y-87914625D01*
X94553257Y-87916047D01*
X94548276Y-87918370D01*
X94548275Y-87918370D01*
X94350738Y-88010482D01*
X94350733Y-88010485D01*
X94345751Y-88012808D01*
X94240889Y-88086233D01*
X94162711Y-88140974D01*
X94162708Y-88140976D01*
X94158200Y-88144133D01*
X93996302Y-88306031D01*
X93993145Y-88310539D01*
X93993143Y-88310542D01*
X93938402Y-88388720D01*
X93864977Y-88493582D01*
X93862654Y-88498564D01*
X93862651Y-88498569D01*
X93771870Y-88693251D01*
X93768216Y-88701088D01*
X93766794Y-88706396D01*
X93766793Y-88706398D01*
X93739207Y-88809350D01*
X93702255Y-88869973D01*
X93638394Y-88900994D01*
X93567900Y-88892566D01*
X93513153Y-88847363D01*
X93495793Y-88809350D01*
X93468207Y-88706398D01*
X93468206Y-88706396D01*
X93466784Y-88701088D01*
X93463130Y-88693251D01*
X93372349Y-88498569D01*
X93372346Y-88498564D01*
X93370023Y-88493582D01*
X93296598Y-88388720D01*
X93241857Y-88310542D01*
X93241855Y-88310539D01*
X93238698Y-88306031D01*
X93076800Y-88144133D01*
X93072292Y-88140976D01*
X93072289Y-88140974D01*
X92994111Y-88086233D01*
X92889249Y-88012808D01*
X92884267Y-88010485D01*
X92884262Y-88010482D01*
X92686725Y-87918370D01*
X92686724Y-87918370D01*
X92681743Y-87916047D01*
X92676435Y-87914625D01*
X92676433Y-87914624D01*
X92465902Y-87858212D01*
X92465900Y-87858212D01*
X92460587Y-87856788D01*
X92232500Y-87836833D01*
X92004413Y-87856788D01*
X91999100Y-87858212D01*
X91999098Y-87858212D01*
X91788567Y-87914624D01*
X91788565Y-87914625D01*
X91783257Y-87916047D01*
X91778276Y-87918370D01*
X91778275Y-87918370D01*
X91580738Y-88010482D01*
X91580733Y-88010485D01*
X91575751Y-88012808D01*
X91470889Y-88086233D01*
X91392711Y-88140974D01*
X91392708Y-88140976D01*
X91388200Y-88144133D01*
X91226302Y-88306031D01*
X91223145Y-88310539D01*
X91223143Y-88310542D01*
X91168402Y-88388720D01*
X91094977Y-88493582D01*
X91092654Y-88498564D01*
X91092651Y-88498569D01*
X91001870Y-88693251D01*
X90998216Y-88701088D01*
X90996794Y-88706396D01*
X90996793Y-88706398D01*
X90969207Y-88809350D01*
X90932255Y-88869973D01*
X90868394Y-88900994D01*
X90797900Y-88892566D01*
X90743153Y-88847363D01*
X90725793Y-88809350D01*
X90698207Y-88706398D01*
X90698206Y-88706396D01*
X90696784Y-88701088D01*
X90693130Y-88693251D01*
X90602349Y-88498569D01*
X90602346Y-88498564D01*
X90600023Y-88493582D01*
X90526598Y-88388720D01*
X90471857Y-88310542D01*
X90471855Y-88310539D01*
X90468698Y-88306031D01*
X90306800Y-88144133D01*
X90302292Y-88140976D01*
X90302289Y-88140974D01*
X90224111Y-88086233D01*
X90119249Y-88012808D01*
X90114267Y-88010485D01*
X90114262Y-88010482D01*
X89916725Y-87918370D01*
X89916724Y-87918370D01*
X89911743Y-87916047D01*
X89906435Y-87914625D01*
X89906433Y-87914624D01*
X89695902Y-87858212D01*
X89695900Y-87858212D01*
X89690587Y-87856788D01*
X89462500Y-87836833D01*
X89234413Y-87856788D01*
X89229100Y-87858212D01*
X89229098Y-87858212D01*
X89018567Y-87914624D01*
X89018565Y-87914625D01*
X89013257Y-87916047D01*
X89008276Y-87918370D01*
X89008275Y-87918370D01*
X88810738Y-88010482D01*
X88810733Y-88010485D01*
X88805751Y-88012808D01*
X88700889Y-88086233D01*
X88622711Y-88140974D01*
X88622708Y-88140976D01*
X88618200Y-88144133D01*
X88456302Y-88306031D01*
X88453145Y-88310539D01*
X88453143Y-88310542D01*
X88398402Y-88388720D01*
X88324977Y-88493582D01*
X88322654Y-88498564D01*
X88322651Y-88498569D01*
X88231870Y-88693251D01*
X88228216Y-88701088D01*
X88226794Y-88706396D01*
X88226793Y-88706398D01*
X88199207Y-88809350D01*
X88162255Y-88869973D01*
X88098394Y-88900994D01*
X88027900Y-88892566D01*
X87973153Y-88847363D01*
X87955793Y-88809350D01*
X87928207Y-88706398D01*
X87928206Y-88706396D01*
X87926784Y-88701088D01*
X87923130Y-88693251D01*
X87832349Y-88498569D01*
X87832346Y-88498564D01*
X87830023Y-88493582D01*
X87756598Y-88388720D01*
X87701857Y-88310542D01*
X87701855Y-88310539D01*
X87698698Y-88306031D01*
X87536800Y-88144133D01*
X87532292Y-88140976D01*
X87532289Y-88140974D01*
X87454111Y-88086233D01*
X87349249Y-88012808D01*
X87344267Y-88010485D01*
X87344262Y-88010482D01*
X87146725Y-87918370D01*
X87146724Y-87918370D01*
X87141743Y-87916047D01*
X87136435Y-87914625D01*
X87136433Y-87914624D01*
X86925902Y-87858212D01*
X86925900Y-87858212D01*
X86920587Y-87856788D01*
X86692500Y-87836833D01*
X86464413Y-87856788D01*
X86459100Y-87858212D01*
X86459098Y-87858212D01*
X86248567Y-87914624D01*
X86248565Y-87914625D01*
X86243257Y-87916047D01*
X86238276Y-87918370D01*
X86238275Y-87918370D01*
X86040738Y-88010482D01*
X86040733Y-88010485D01*
X86035751Y-88012808D01*
X85930889Y-88086233D01*
X85852711Y-88140974D01*
X85852708Y-88140976D01*
X85848200Y-88144133D01*
X85686302Y-88306031D01*
X85683145Y-88310539D01*
X85683143Y-88310542D01*
X85628402Y-88388720D01*
X85554977Y-88493582D01*
X85552654Y-88498564D01*
X85552651Y-88498569D01*
X85461870Y-88693251D01*
X85458216Y-88701088D01*
X85456794Y-88706396D01*
X85456793Y-88706398D01*
X85429207Y-88809350D01*
X85392255Y-88869973D01*
X85328394Y-88900994D01*
X85257900Y-88892566D01*
X85203153Y-88847363D01*
X85185793Y-88809350D01*
X85158207Y-88706398D01*
X85158206Y-88706396D01*
X85156784Y-88701088D01*
X85153130Y-88693251D01*
X85062349Y-88498569D01*
X85062346Y-88498564D01*
X85060023Y-88493582D01*
X84986598Y-88388720D01*
X84931857Y-88310542D01*
X84931855Y-88310539D01*
X84928698Y-88306031D01*
X84766800Y-88144133D01*
X84762292Y-88140976D01*
X84762289Y-88140974D01*
X84684111Y-88086233D01*
X84579249Y-88012808D01*
X84574267Y-88010485D01*
X84574262Y-88010482D01*
X84376725Y-87918370D01*
X84376724Y-87918370D01*
X84371743Y-87916047D01*
X84366435Y-87914625D01*
X84366433Y-87914624D01*
X84155902Y-87858212D01*
X84155900Y-87858212D01*
X84150587Y-87856788D01*
X83922500Y-87836833D01*
X83694413Y-87856788D01*
X83689100Y-87858212D01*
X83689098Y-87858212D01*
X83478567Y-87914624D01*
X83478565Y-87914625D01*
X83473257Y-87916047D01*
X83468276Y-87918370D01*
X83468275Y-87918370D01*
X83270738Y-88010482D01*
X83270733Y-88010485D01*
X83265751Y-88012808D01*
X83160889Y-88086233D01*
X83082711Y-88140974D01*
X83082708Y-88140976D01*
X83078200Y-88144133D01*
X82916302Y-88306031D01*
X82913145Y-88310539D01*
X82913143Y-88310542D01*
X82858402Y-88388720D01*
X82784977Y-88493582D01*
X82782654Y-88498564D01*
X82782651Y-88498569D01*
X82691870Y-88693251D01*
X82688216Y-88701088D01*
X82686794Y-88706396D01*
X82686793Y-88706398D01*
X82659207Y-88809350D01*
X82622255Y-88869973D01*
X82558394Y-88900994D01*
X82487900Y-88892566D01*
X82433153Y-88847363D01*
X82415793Y-88809350D01*
X82388207Y-88706398D01*
X82388206Y-88706396D01*
X82386784Y-88701088D01*
X82383130Y-88693251D01*
X82292349Y-88498569D01*
X82292346Y-88498564D01*
X82290023Y-88493582D01*
X82216598Y-88388720D01*
X82161857Y-88310542D01*
X82161855Y-88310539D01*
X82158698Y-88306031D01*
X81996800Y-88144133D01*
X81992292Y-88140976D01*
X81992289Y-88140974D01*
X81914111Y-88086233D01*
X81809249Y-88012808D01*
X81804267Y-88010485D01*
X81804262Y-88010482D01*
X81606725Y-87918370D01*
X81606724Y-87918370D01*
X81601743Y-87916047D01*
X81596435Y-87914625D01*
X81596433Y-87914624D01*
X81385902Y-87858212D01*
X81385900Y-87858212D01*
X81380587Y-87856788D01*
X81152500Y-87836833D01*
X80924413Y-87856788D01*
X80919100Y-87858212D01*
X80919098Y-87858212D01*
X80708567Y-87914624D01*
X80708565Y-87914625D01*
X80703257Y-87916047D01*
X80698276Y-87918370D01*
X80698275Y-87918370D01*
X80500738Y-88010482D01*
X80500733Y-88010485D01*
X80495751Y-88012808D01*
X80390889Y-88086233D01*
X80312711Y-88140974D01*
X80312708Y-88140976D01*
X80308200Y-88144133D01*
X80146302Y-88306031D01*
X80143145Y-88310539D01*
X80143143Y-88310542D01*
X80088402Y-88388720D01*
X80014977Y-88493582D01*
X80012654Y-88498564D01*
X80012651Y-88498569D01*
X79921870Y-88693251D01*
X79918216Y-88701088D01*
X79916794Y-88706396D01*
X79916793Y-88706398D01*
X79860381Y-88916929D01*
X79858957Y-88922244D01*
X79839002Y-89150331D01*
X74907343Y-89150331D01*
X74870932Y-89092956D01*
X74725309Y-88916929D01*
X74672258Y-88852801D01*
X74672257Y-88852800D01*
X74669733Y-88849749D01*
X74439640Y-88633677D01*
X74406109Y-88609315D01*
X74375937Y-88587394D01*
X74184279Y-88448147D01*
X73994478Y-88343802D01*
X73911148Y-88297991D01*
X73911147Y-88297990D01*
X73907679Y-88296084D01*
X73904010Y-88294631D01*
X73904005Y-88294629D01*
X73617872Y-88181341D01*
X73617871Y-88181341D01*
X73614202Y-88179888D01*
X73308475Y-88101391D01*
X72995321Y-88061831D01*
X72679679Y-88061831D01*
X72366525Y-88101391D01*
X72060798Y-88179888D01*
X72057129Y-88181341D01*
X72057128Y-88181341D01*
X71770995Y-88294629D01*
X71770990Y-88294631D01*
X71767321Y-88296084D01*
X71763853Y-88297990D01*
X71763852Y-88297991D01*
X71680523Y-88343802D01*
X71490721Y-88448147D01*
X71299063Y-88587394D01*
X71268892Y-88609315D01*
X71235360Y-88633677D01*
X71005267Y-88849749D01*
X71002743Y-88852800D01*
X71002742Y-88852801D01*
X70949691Y-88916929D01*
X70804068Y-89092956D01*
X70634938Y-89359462D01*
X70633254Y-89363041D01*
X70633250Y-89363048D01*
X70524449Y-89594264D01*
X70500544Y-89645065D01*
X70403005Y-89945259D01*
X70343859Y-90255311D01*
X70324040Y-90570331D01*
X61420182Y-90570331D01*
X61419335Y-86617443D01*
X61439322Y-86549318D01*
X61492968Y-86502814D01*
X61563240Y-86492695D01*
X61627827Y-86522174D01*
X61666224Y-86581892D01*
X61669783Y-86597702D01*
X61703347Y-86809613D01*
X61801022Y-87174143D01*
X61936266Y-87526465D01*
X61937764Y-87529405D01*
X62094651Y-87837312D01*
X62107597Y-87862720D01*
X62313137Y-88179225D01*
X62550635Y-88472511D01*
X62817489Y-88739365D01*
X63110775Y-88976863D01*
X63215807Y-89045072D01*
X63284844Y-89089904D01*
X63427280Y-89182403D01*
X63430214Y-89183898D01*
X63430221Y-89183902D01*
X63745461Y-89344525D01*
X63763535Y-89353734D01*
X64115857Y-89488978D01*
X64480387Y-89586653D01*
X64678353Y-89618008D01*
X64849881Y-89645176D01*
X64849889Y-89645177D01*
X64853129Y-89645690D01*
X65135720Y-89660500D01*
X65324280Y-89660500D01*
X65606871Y-89645690D01*
X65610111Y-89645177D01*
X65610119Y-89645176D01*
X65781647Y-89618008D01*
X65979613Y-89586653D01*
X66344143Y-89488978D01*
X66696465Y-89353734D01*
X66714539Y-89344525D01*
X67029779Y-89183902D01*
X67029786Y-89183898D01*
X67032720Y-89182403D01*
X67175157Y-89089904D01*
X67244193Y-89045072D01*
X67349225Y-88976863D01*
X67642511Y-88739365D01*
X67909365Y-88472511D01*
X68146863Y-88179225D01*
X68226589Y-88056457D01*
X68350605Y-87865490D01*
X68350607Y-87865487D01*
X68352403Y-87862721D01*
X68353903Y-87859779D01*
X68522236Y-87529405D01*
X68523734Y-87526465D01*
X68658978Y-87174143D01*
X68756653Y-86809613D01*
X68805246Y-86502814D01*
X68815176Y-86440119D01*
X68815177Y-86440111D01*
X68815690Y-86436871D01*
X68835441Y-86060000D01*
X68815690Y-85683129D01*
X68806560Y-85625481D01*
X68757169Y-85313648D01*
X68756653Y-85310387D01*
X68658978Y-84945857D01*
X68523734Y-84593535D01*
X68352403Y-84257280D01*
X68146863Y-83940775D01*
X67909365Y-83647489D01*
X67642511Y-83380635D01*
X67349225Y-83143137D01*
X67032720Y-82937597D01*
X67029786Y-82936102D01*
X67029779Y-82936098D01*
X66699405Y-82767764D01*
X66696465Y-82766266D01*
X66344143Y-82631022D01*
X65979613Y-82533347D01*
X65781647Y-82501992D01*
X65610119Y-82474824D01*
X65610111Y-82474823D01*
X65606871Y-82474310D01*
X65324280Y-82459500D01*
X65135720Y-82459500D01*
X64853129Y-82474310D01*
X64849889Y-82474823D01*
X64849881Y-82474824D01*
X64678353Y-82501992D01*
X64480387Y-82533347D01*
X64115857Y-82631022D01*
X63763535Y-82766266D01*
X63760595Y-82767764D01*
X63430221Y-82936098D01*
X63430214Y-82936102D01*
X63427280Y-82937597D01*
X63110775Y-83143137D01*
X62817489Y-83380635D01*
X62550635Y-83647489D01*
X62313137Y-83940775D01*
X62311335Y-83943550D01*
X62109395Y-84254510D01*
X62109393Y-84254513D01*
X62107597Y-84257279D01*
X62106102Y-84260213D01*
X62106098Y-84260220D01*
X61937764Y-84590595D01*
X61936266Y-84593535D01*
X61801022Y-84945857D01*
X61703347Y-85310387D01*
X61702831Y-85313648D01*
X61669545Y-85523801D01*
X61639132Y-85587954D01*
X61578864Y-85625481D01*
X61507875Y-85624467D01*
X61448703Y-85585234D01*
X61420135Y-85520239D01*
X61419096Y-85504117D01*
X61419089Y-85468124D01*
X61418511Y-82773206D01*
X61420258Y-82752276D01*
X61422769Y-82737354D01*
X61422770Y-82737343D01*
X61423576Y-82732552D01*
X61423729Y-82720000D01*
X61423040Y-82715186D01*
X61423039Y-82715176D01*
X61422157Y-82709017D01*
X61421206Y-82682172D01*
X61433038Y-82516723D01*
X61435596Y-82498934D01*
X61476999Y-82308607D01*
X61482063Y-82291359D01*
X61550136Y-82108850D01*
X61557604Y-82092498D01*
X61650952Y-81921542D01*
X61660672Y-81906418D01*
X61777402Y-81750486D01*
X61789175Y-81736900D01*
X61926900Y-81599175D01*
X61940486Y-81587402D01*
X62096418Y-81470672D01*
X62111542Y-81460952D01*
X62282498Y-81367604D01*
X62298850Y-81360136D01*
X62481359Y-81292063D01*
X62498608Y-81286999D01*
X62688936Y-81245596D01*
X62706715Y-81243039D01*
X62868605Y-81231460D01*
X62886565Y-81232207D01*
X62894845Y-81232308D01*
X62903724Y-81233691D01*
X62935286Y-81229564D01*
X62951621Y-81228500D01*
X167490633Y-81228500D01*
X167510018Y-81230000D01*
G37*
%TD.AperFunction*%
%TD*%
M02*
