%TF.GenerationSoftware,KiCad,Pcbnew,(6.0.11)*%
%TF.CreationDate,2024-01-03T20:30:28+00:00*%
%TF.ProjectId,LeWiFiModem,4c655769-4669-44d6-9f64-656d2e6b6963,rev?*%
%TF.SameCoordinates,Original*%
%TF.FileFunction,Drillmap*%
%TF.FilePolarity,Positive*%
%FSLAX45Y45*%
G04 Gerber Fmt 4.5, Leading zero omitted, Abs format (unit mm)*
G04 Created by KiCad (PCBNEW (6.0.11)) date 2024-01-03 20:30:28*
%MOMM*%
%LPD*%
G01*
G04 APERTURE LIST*
%ADD10C,0.100000*%
%ADD11C,0.200000*%
%ADD12C,0.040000*%
%ADD13C,0.080000*%
%ADD14C,0.320000*%
G04 APERTURE END LIST*
D10*
X16755000Y-13140000D02*
G75*
G03*
X16955000Y-12940000I0J200000D01*
G01*
X16954000Y-8272000D02*
G75*
G03*
X16754000Y-8072000I-200000J0D01*
G01*
X6291000Y-8072000D02*
X16754000Y-8072000D01*
X16755000Y-13140000D02*
X6292000Y-13140000D01*
X16954000Y-8272000D02*
X16955000Y-12940000D01*
X6291000Y-8072000D02*
G75*
G03*
X6091000Y-8272000I0J-200000D01*
G01*
X6092000Y-12940000D02*
X6091000Y-8272000D01*
X6092000Y-12940000D02*
G75*
G03*
X6292000Y-13140000I200000J0D01*
G01*
D11*
D12*
X7800000Y-12968000D02*
X7840000Y-13008000D01*
X7840000Y-12968000D02*
X7800000Y-13008000D01*
X8771000Y-12965000D02*
X8811000Y-13005000D01*
X8811000Y-12965000D02*
X8771000Y-13005000D01*
X9619000Y-12379000D02*
X9659000Y-12419000D01*
X9659000Y-12379000D02*
X9619000Y-12419000D01*
X9762000Y-12965000D02*
X9802000Y-13005000D01*
X9802000Y-12965000D02*
X9762000Y-13005000D01*
X10293000Y-11082000D02*
X10333000Y-11122000D01*
X10333000Y-11082000D02*
X10293000Y-11122000D01*
X10311000Y-10960000D02*
X10351000Y-11000000D01*
X10351000Y-10960000D02*
X10311000Y-11000000D01*
X10687950Y-10741655D02*
X10727950Y-10781655D01*
X10727950Y-10741655D02*
X10687950Y-10781655D01*
X10785524Y-10719989D02*
X10825524Y-10759989D01*
X10825524Y-10719989D02*
X10785524Y-10759989D01*
X11187250Y-10960000D02*
X11227250Y-11000000D01*
X11227250Y-10960000D02*
X11187250Y-11000000D01*
X11187250Y-11094000D02*
X11227250Y-11134000D01*
X11227250Y-11094000D02*
X11187250Y-11134000D01*
X11251250Y-10000000D02*
X11291250Y-10040000D01*
X11291250Y-10000000D02*
X11251250Y-10040000D01*
X11451000Y-10351000D02*
X11491000Y-10391000D01*
X11491000Y-10351000D02*
X11451000Y-10391000D01*
D13*
X12368000Y-9688511D02*
G75*
G03*
X12368000Y-9688511I-40000J0D01*
G01*
X12368000Y-9888511D02*
G75*
G03*
X12368000Y-9888511I-40000J0D01*
G01*
D10*
X7976750Y-9149033D02*
X7976750Y-9249033D01*
X7926750Y-9199033D02*
X8026750Y-9199033D01*
X8115250Y-8865033D02*
X8115250Y-8965033D01*
X8065250Y-8915033D02*
X8165250Y-8915033D01*
X8253750Y-9149033D02*
X8253750Y-9249033D01*
X8203750Y-9199033D02*
X8303750Y-9199033D01*
X8392250Y-8865033D02*
X8392250Y-8965033D01*
X8342250Y-8915033D02*
X8442250Y-8915033D01*
X8530750Y-9149033D02*
X8530750Y-9249033D01*
X8480750Y-9199033D02*
X8580750Y-9199033D01*
X8669250Y-8865033D02*
X8669250Y-8965033D01*
X8619250Y-8915033D02*
X8719250Y-8915033D01*
X8795000Y-9817000D02*
X8795000Y-9917000D01*
X8745000Y-9867000D02*
X8845000Y-9867000D01*
X8795000Y-10071000D02*
X8795000Y-10171000D01*
X8745000Y-10121000D02*
X8845000Y-10121000D01*
X8807750Y-9149033D02*
X8807750Y-9249033D01*
X8757750Y-9199033D02*
X8857750Y-9199033D01*
X8946250Y-8865033D02*
X8946250Y-8965033D01*
X8896250Y-8915033D02*
X8996250Y-8915033D01*
X9049000Y-9817000D02*
X9049000Y-9917000D01*
X8999000Y-9867000D02*
X9099000Y-9867000D01*
X9049000Y-10071000D02*
X9049000Y-10171000D01*
X8999000Y-10121000D02*
X9099000Y-10121000D01*
X9084750Y-9149033D02*
X9084750Y-9249033D01*
X9034750Y-9199033D02*
X9134750Y-9199033D01*
X9223250Y-8865033D02*
X9223250Y-8965033D01*
X9173250Y-8915033D02*
X9273250Y-8915033D01*
X9303000Y-9817000D02*
X9303000Y-9917000D01*
X9253000Y-9867000D02*
X9353000Y-9867000D01*
X9303000Y-10071000D02*
X9303000Y-10171000D01*
X9253000Y-10121000D02*
X9353000Y-10121000D01*
X9361750Y-9149033D02*
X9361750Y-9249033D01*
X9311750Y-9199033D02*
X9411750Y-9199033D01*
X9500250Y-8865033D02*
X9500250Y-8965033D01*
X9450250Y-8915033D02*
X9550250Y-8915033D01*
X9638750Y-9149033D02*
X9638750Y-9249033D01*
X9588750Y-9199033D02*
X9688750Y-9199033D01*
X9777250Y-8865033D02*
X9777250Y-8965033D01*
X9727250Y-8915033D02*
X9827250Y-8915033D01*
X9915750Y-9149033D02*
X9915750Y-9249033D01*
X9865750Y-9199033D02*
X9965750Y-9199033D01*
X10054250Y-8865033D02*
X10054250Y-8965033D01*
X10004250Y-8915033D02*
X10104250Y-8915033D01*
X10192750Y-9149033D02*
X10192750Y-9249033D01*
X10142750Y-9199033D02*
X10242750Y-9199033D01*
X10331250Y-8865033D02*
X10331250Y-8965033D01*
X10281250Y-8915033D02*
X10381250Y-8915033D01*
X10469750Y-9149033D02*
X10469750Y-9249033D01*
X10419750Y-9199033D02*
X10519750Y-9199033D01*
X10608250Y-8865033D02*
X10608250Y-8965033D01*
X10558250Y-8915033D02*
X10658250Y-8915033D01*
X10746750Y-9149033D02*
X10746750Y-9249033D01*
X10696750Y-9199033D02*
X10796750Y-9199033D01*
X10885250Y-8865033D02*
X10885250Y-8965033D01*
X10835250Y-8915033D02*
X10935250Y-8915033D01*
X11023750Y-9149033D02*
X11023750Y-9249033D01*
X10973750Y-9199033D02*
X11073750Y-9199033D01*
X11162250Y-8865033D02*
X11162250Y-8965033D01*
X11112250Y-8915033D02*
X11212250Y-8915033D01*
X11300750Y-9149033D02*
X11300750Y-9249033D01*
X11250750Y-9199033D02*
X11350750Y-9199033D01*
X12569750Y-9121000D02*
X12569750Y-9221000D01*
X12519750Y-9171000D02*
X12619750Y-9171000D01*
D11*
X12519750Y-9071000D02*
X12519750Y-9271000D01*
X12619750Y-9071000D02*
X12619750Y-9271000D01*
X12519750Y-9271000D02*
G75*
G03*
X12619750Y-9271000I50000J0D01*
G01*
X12619750Y-9071000D02*
G75*
G03*
X12519750Y-9071000I-50000J0D01*
G01*
D10*
X12912250Y-9843000D02*
X12912250Y-9943000D01*
X12862250Y-9893000D02*
X12962250Y-9893000D01*
X13039750Y-8821000D02*
X13039750Y-8921000D01*
X12989750Y-8871000D02*
X13089750Y-8871000D01*
D11*
X13139750Y-8821000D02*
X12939750Y-8821000D01*
X13139750Y-8921000D02*
X12939750Y-8921000D01*
X12939750Y-8821000D02*
G75*
G03*
X12939750Y-8921000I0J-50000D01*
G01*
X13139750Y-8921000D02*
G75*
G03*
X13139750Y-8821000I0J50000D01*
G01*
D10*
X13039750Y-9421000D02*
X13039750Y-9521000D01*
X12989750Y-9471000D02*
X13089750Y-9471000D01*
D11*
X13139750Y-9421000D02*
X12939750Y-9421000D01*
X13139750Y-9521000D02*
X12939750Y-9521000D01*
X12939750Y-9421000D02*
G75*
G03*
X12939750Y-9521000I0J-50000D01*
G01*
X13139750Y-9521000D02*
G75*
G03*
X13139750Y-9421000I0J50000D01*
G01*
D10*
X13166250Y-9843000D02*
X13166250Y-9943000D01*
X13116250Y-9893000D02*
X13216250Y-9893000D01*
X13713500Y-8885000D02*
X13713500Y-8985000D01*
X13663500Y-8935000D02*
X13763500Y-8935000D01*
X13713500Y-9139000D02*
X13713500Y-9239000D01*
X13663500Y-9189000D02*
X13763500Y-9189000D01*
X13713500Y-9393000D02*
X13713500Y-9493000D01*
X13663500Y-9443000D02*
X13763500Y-9443000D01*
X13713500Y-9647000D02*
X13713500Y-9747000D01*
X13663500Y-9697000D02*
X13763500Y-9697000D01*
X13713500Y-9901000D02*
X13713500Y-10001000D01*
X13663500Y-9951000D02*
X13763500Y-9951000D01*
X13713500Y-10155000D02*
X13713500Y-10255000D01*
X13663500Y-10205000D02*
X13763500Y-10205000D01*
X13713500Y-10409000D02*
X13713500Y-10509000D01*
X13663500Y-10459000D02*
X13763500Y-10459000D01*
X13713500Y-10663000D02*
X13713500Y-10763000D01*
X13663500Y-10713000D02*
X13763500Y-10713000D01*
X15999500Y-8885000D02*
X15999500Y-8985000D01*
X15949500Y-8935000D02*
X16049500Y-8935000D01*
X15999500Y-9139000D02*
X15999500Y-9239000D01*
X15949500Y-9189000D02*
X16049500Y-9189000D01*
X15999500Y-9393000D02*
X15999500Y-9493000D01*
X15949500Y-9443000D02*
X16049500Y-9443000D01*
X15999500Y-9647000D02*
X15999500Y-9747000D01*
X15949500Y-9697000D02*
X16049500Y-9697000D01*
X15999500Y-9901000D02*
X15999500Y-10001000D01*
X15949500Y-9951000D02*
X16049500Y-9951000D01*
X15999500Y-10155000D02*
X15999500Y-10255000D01*
X15949500Y-10205000D02*
X16049500Y-10205000D01*
X15999500Y-10409000D02*
X15999500Y-10509000D01*
X15949500Y-10459000D02*
X16049500Y-10459000D01*
X15999500Y-10663000D02*
X15999500Y-10763000D01*
X15949500Y-10713000D02*
X16049500Y-10713000D01*
D14*
X7396888Y-9170171D02*
X7396888Y-8943895D01*
X7170612Y-8943895D01*
X7170612Y-9170171D01*
X7396888Y-9170171D01*
X12106888Y-9170171D02*
X12106888Y-8943895D01*
X11880612Y-8943895D01*
X11880612Y-9170171D01*
X12106888Y-9170171D01*
D11*
X6343619Y-13455476D02*
X6343619Y-13255476D01*
X6391238Y-13255476D01*
X6419809Y-13265000D01*
X6438857Y-13284048D01*
X6448381Y-13303095D01*
X6457905Y-13341190D01*
X6457905Y-13369762D01*
X6448381Y-13407857D01*
X6438857Y-13426905D01*
X6419809Y-13445952D01*
X6391238Y-13455476D01*
X6343619Y-13455476D01*
X6543619Y-13455476D02*
X6543619Y-13322143D01*
X6543619Y-13360238D02*
X6553143Y-13341190D01*
X6562667Y-13331667D01*
X6581714Y-13322143D01*
X6600762Y-13322143D01*
X6667428Y-13455476D02*
X6667428Y-13322143D01*
X6667428Y-13255476D02*
X6657905Y-13265000D01*
X6667428Y-13274524D01*
X6676952Y-13265000D01*
X6667428Y-13255476D01*
X6667428Y-13274524D01*
X6791238Y-13455476D02*
X6772190Y-13445952D01*
X6762667Y-13426905D01*
X6762667Y-13255476D01*
X6896000Y-13455476D02*
X6876952Y-13445952D01*
X6867428Y-13426905D01*
X6867428Y-13255476D01*
X7124571Y-13455476D02*
X7124571Y-13255476D01*
X7191238Y-13398333D01*
X7257905Y-13255476D01*
X7257905Y-13455476D01*
X7438857Y-13455476D02*
X7438857Y-13350714D01*
X7429333Y-13331667D01*
X7410286Y-13322143D01*
X7372190Y-13322143D01*
X7353143Y-13331667D01*
X7438857Y-13445952D02*
X7419809Y-13455476D01*
X7372190Y-13455476D01*
X7353143Y-13445952D01*
X7343619Y-13426905D01*
X7343619Y-13407857D01*
X7353143Y-13388809D01*
X7372190Y-13379286D01*
X7419809Y-13379286D01*
X7438857Y-13369762D01*
X7534095Y-13322143D02*
X7534095Y-13522143D01*
X7534095Y-13331667D02*
X7553143Y-13322143D01*
X7591238Y-13322143D01*
X7610286Y-13331667D01*
X7619809Y-13341190D01*
X7629333Y-13360238D01*
X7629333Y-13417381D01*
X7619809Y-13436428D01*
X7610286Y-13445952D01*
X7591238Y-13455476D01*
X7553143Y-13455476D01*
X7534095Y-13445952D01*
X7715048Y-13436428D02*
X7724571Y-13445952D01*
X7715048Y-13455476D01*
X7705524Y-13445952D01*
X7715048Y-13436428D01*
X7715048Y-13455476D01*
X7715048Y-13331667D02*
X7724571Y-13341190D01*
X7715048Y-13350714D01*
X7705524Y-13341190D01*
X7715048Y-13331667D01*
X7715048Y-13350714D01*
D12*
X6046000Y-13765000D02*
X6086000Y-13805000D01*
X6086000Y-13765000D02*
X6046000Y-13805000D01*
D11*
X6381714Y-13675476D02*
X6400762Y-13675476D01*
X6419809Y-13685000D01*
X6429333Y-13694524D01*
X6438857Y-13713571D01*
X6448381Y-13751667D01*
X6448381Y-13799286D01*
X6438857Y-13837381D01*
X6429333Y-13856428D01*
X6419809Y-13865952D01*
X6400762Y-13875476D01*
X6381714Y-13875476D01*
X6362667Y-13865952D01*
X6353143Y-13856428D01*
X6343619Y-13837381D01*
X6334095Y-13799286D01*
X6334095Y-13751667D01*
X6343619Y-13713571D01*
X6353143Y-13694524D01*
X6362667Y-13685000D01*
X6381714Y-13675476D01*
X6534095Y-13856428D02*
X6543619Y-13865952D01*
X6534095Y-13875476D01*
X6524571Y-13865952D01*
X6534095Y-13856428D01*
X6534095Y-13875476D01*
X6715048Y-13742143D02*
X6715048Y-13875476D01*
X6667428Y-13665952D02*
X6619809Y-13808809D01*
X6743619Y-13808809D01*
X6857905Y-13675476D02*
X6876952Y-13675476D01*
X6896000Y-13685000D01*
X6905524Y-13694524D01*
X6915048Y-13713571D01*
X6924571Y-13751667D01*
X6924571Y-13799286D01*
X6915048Y-13837381D01*
X6905524Y-13856428D01*
X6896000Y-13865952D01*
X6876952Y-13875476D01*
X6857905Y-13875476D01*
X6838857Y-13865952D01*
X6829333Y-13856428D01*
X6819809Y-13837381D01*
X6810286Y-13799286D01*
X6810286Y-13751667D01*
X6819809Y-13713571D01*
X6829333Y-13694524D01*
X6838857Y-13685000D01*
X6857905Y-13675476D01*
X7048381Y-13675476D02*
X7067428Y-13675476D01*
X7086476Y-13685000D01*
X7096000Y-13694524D01*
X7105524Y-13713571D01*
X7115048Y-13751667D01*
X7115048Y-13799286D01*
X7105524Y-13837381D01*
X7096000Y-13856428D01*
X7086476Y-13865952D01*
X7067428Y-13875476D01*
X7048381Y-13875476D01*
X7029333Y-13865952D01*
X7019809Y-13856428D01*
X7010286Y-13837381D01*
X7000762Y-13799286D01*
X7000762Y-13751667D01*
X7010286Y-13713571D01*
X7019809Y-13694524D01*
X7029333Y-13685000D01*
X7048381Y-13675476D01*
X7200762Y-13875476D02*
X7200762Y-13742143D01*
X7200762Y-13761190D02*
X7210286Y-13751667D01*
X7229333Y-13742143D01*
X7257905Y-13742143D01*
X7276952Y-13751667D01*
X7286476Y-13770714D01*
X7286476Y-13875476D01*
X7286476Y-13770714D02*
X7296000Y-13751667D01*
X7315048Y-13742143D01*
X7343619Y-13742143D01*
X7362667Y-13751667D01*
X7372190Y-13770714D01*
X7372190Y-13875476D01*
X7467428Y-13875476D02*
X7467428Y-13742143D01*
X7467428Y-13761190D02*
X7476952Y-13751667D01*
X7496000Y-13742143D01*
X7524571Y-13742143D01*
X7543619Y-13751667D01*
X7553143Y-13770714D01*
X7553143Y-13875476D01*
X7553143Y-13770714D02*
X7562667Y-13751667D01*
X7581714Y-13742143D01*
X7610286Y-13742143D01*
X7629333Y-13751667D01*
X7638857Y-13770714D01*
X7638857Y-13875476D01*
X8029333Y-13665952D02*
X7857905Y-13923095D01*
X8286476Y-13675476D02*
X8305524Y-13675476D01*
X8324571Y-13685000D01*
X8334095Y-13694524D01*
X8343619Y-13713571D01*
X8353143Y-13751667D01*
X8353143Y-13799286D01*
X8343619Y-13837381D01*
X8334095Y-13856428D01*
X8324571Y-13865952D01*
X8305524Y-13875476D01*
X8286476Y-13875476D01*
X8267428Y-13865952D01*
X8257905Y-13856428D01*
X8248381Y-13837381D01*
X8238857Y-13799286D01*
X8238857Y-13751667D01*
X8248381Y-13713571D01*
X8257905Y-13694524D01*
X8267428Y-13685000D01*
X8286476Y-13675476D01*
X8438857Y-13856428D02*
X8448381Y-13865952D01*
X8438857Y-13875476D01*
X8429333Y-13865952D01*
X8438857Y-13856428D01*
X8438857Y-13875476D01*
X8572190Y-13675476D02*
X8591238Y-13675476D01*
X8610286Y-13685000D01*
X8619810Y-13694524D01*
X8629333Y-13713571D01*
X8638857Y-13751667D01*
X8638857Y-13799286D01*
X8629333Y-13837381D01*
X8619810Y-13856428D01*
X8610286Y-13865952D01*
X8591238Y-13875476D01*
X8572190Y-13875476D01*
X8553143Y-13865952D01*
X8543619Y-13856428D01*
X8534095Y-13837381D01*
X8524571Y-13799286D01*
X8524571Y-13751667D01*
X8534095Y-13713571D01*
X8543619Y-13694524D01*
X8553143Y-13685000D01*
X8572190Y-13675476D01*
X8829333Y-13875476D02*
X8715048Y-13875476D01*
X8772190Y-13875476D02*
X8772190Y-13675476D01*
X8753143Y-13704048D01*
X8734095Y-13723095D01*
X8715048Y-13732619D01*
X9010286Y-13675476D02*
X8915048Y-13675476D01*
X8905524Y-13770714D01*
X8915048Y-13761190D01*
X8934095Y-13751667D01*
X8981714Y-13751667D01*
X9000762Y-13761190D01*
X9010286Y-13770714D01*
X9019810Y-13789762D01*
X9019810Y-13837381D01*
X9010286Y-13856428D01*
X9000762Y-13865952D01*
X8981714Y-13875476D01*
X8934095Y-13875476D01*
X8915048Y-13865952D01*
X8905524Y-13856428D01*
X9086476Y-13675476D02*
X9219810Y-13675476D01*
X9134095Y-13875476D01*
X9286476Y-13675476D02*
X9286476Y-13713571D01*
X9362667Y-13675476D02*
X9362667Y-13713571D01*
X9657905Y-13951667D02*
X9648381Y-13942143D01*
X9629333Y-13913571D01*
X9619810Y-13894524D01*
X9610286Y-13865952D01*
X9600762Y-13818333D01*
X9600762Y-13780238D01*
X9610286Y-13732619D01*
X9619810Y-13704048D01*
X9629333Y-13685000D01*
X9648381Y-13656428D01*
X9657905Y-13646905D01*
X9838857Y-13875476D02*
X9724571Y-13875476D01*
X9781714Y-13875476D02*
X9781714Y-13675476D01*
X9762667Y-13704048D01*
X9743619Y-13723095D01*
X9724571Y-13732619D01*
X9915048Y-13694524D02*
X9924571Y-13685000D01*
X9943619Y-13675476D01*
X9991238Y-13675476D01*
X10010286Y-13685000D01*
X10019810Y-13694524D01*
X10029333Y-13713571D01*
X10029333Y-13732619D01*
X10019810Y-13761190D01*
X9905524Y-13875476D01*
X10029333Y-13875476D01*
X10267429Y-13875476D02*
X10267429Y-13675476D01*
X10353143Y-13875476D02*
X10353143Y-13770714D01*
X10343619Y-13751667D01*
X10324571Y-13742143D01*
X10296000Y-13742143D01*
X10276952Y-13751667D01*
X10267429Y-13761190D01*
X10476952Y-13875476D02*
X10457905Y-13865952D01*
X10448381Y-13856428D01*
X10438857Y-13837381D01*
X10438857Y-13780238D01*
X10448381Y-13761190D01*
X10457905Y-13751667D01*
X10476952Y-13742143D01*
X10505524Y-13742143D01*
X10524571Y-13751667D01*
X10534095Y-13761190D01*
X10543619Y-13780238D01*
X10543619Y-13837381D01*
X10534095Y-13856428D01*
X10524571Y-13865952D01*
X10505524Y-13875476D01*
X10476952Y-13875476D01*
X10657905Y-13875476D02*
X10638857Y-13865952D01*
X10629333Y-13846905D01*
X10629333Y-13675476D01*
X10810286Y-13865952D02*
X10791238Y-13875476D01*
X10753143Y-13875476D01*
X10734095Y-13865952D01*
X10724571Y-13846905D01*
X10724571Y-13770714D01*
X10734095Y-13751667D01*
X10753143Y-13742143D01*
X10791238Y-13742143D01*
X10810286Y-13751667D01*
X10819810Y-13770714D01*
X10819810Y-13789762D01*
X10724571Y-13808809D01*
X10896000Y-13865952D02*
X10915048Y-13875476D01*
X10953143Y-13875476D01*
X10972190Y-13865952D01*
X10981714Y-13846905D01*
X10981714Y-13837381D01*
X10972190Y-13818333D01*
X10953143Y-13808809D01*
X10924571Y-13808809D01*
X10905524Y-13799286D01*
X10896000Y-13780238D01*
X10896000Y-13770714D01*
X10905524Y-13751667D01*
X10924571Y-13742143D01*
X10953143Y-13742143D01*
X10972190Y-13751667D01*
X11048381Y-13951667D02*
X11057905Y-13942143D01*
X11076952Y-13913571D01*
X11086476Y-13894524D01*
X11096000Y-13865952D01*
X11105524Y-13818333D01*
X11105524Y-13780238D01*
X11096000Y-13732619D01*
X11086476Y-13704048D01*
X11076952Y-13685000D01*
X11057905Y-13656428D01*
X11048381Y-13646905D01*
D13*
X6086000Y-14049000D02*
G75*
G03*
X6086000Y-14049000I-40000J0D01*
G01*
D11*
X6381714Y-13939476D02*
X6400762Y-13939476D01*
X6419809Y-13949000D01*
X6429333Y-13958524D01*
X6438857Y-13977571D01*
X6448381Y-14015667D01*
X6448381Y-14063286D01*
X6438857Y-14101381D01*
X6429333Y-14120428D01*
X6419809Y-14129952D01*
X6400762Y-14139476D01*
X6381714Y-14139476D01*
X6362667Y-14129952D01*
X6353143Y-14120428D01*
X6343619Y-14101381D01*
X6334095Y-14063286D01*
X6334095Y-14015667D01*
X6343619Y-13977571D01*
X6353143Y-13958524D01*
X6362667Y-13949000D01*
X6381714Y-13939476D01*
X6534095Y-14120428D02*
X6543619Y-14129952D01*
X6534095Y-14139476D01*
X6524571Y-14129952D01*
X6534095Y-14120428D01*
X6534095Y-14139476D01*
X6657905Y-14025190D02*
X6638857Y-14015667D01*
X6629333Y-14006143D01*
X6619809Y-13987095D01*
X6619809Y-13977571D01*
X6629333Y-13958524D01*
X6638857Y-13949000D01*
X6657905Y-13939476D01*
X6696000Y-13939476D01*
X6715048Y-13949000D01*
X6724571Y-13958524D01*
X6734095Y-13977571D01*
X6734095Y-13987095D01*
X6724571Y-14006143D01*
X6715048Y-14015667D01*
X6696000Y-14025190D01*
X6657905Y-14025190D01*
X6638857Y-14034714D01*
X6629333Y-14044238D01*
X6619809Y-14063286D01*
X6619809Y-14101381D01*
X6629333Y-14120428D01*
X6638857Y-14129952D01*
X6657905Y-14139476D01*
X6696000Y-14139476D01*
X6715048Y-14129952D01*
X6724571Y-14120428D01*
X6734095Y-14101381D01*
X6734095Y-14063286D01*
X6724571Y-14044238D01*
X6715048Y-14034714D01*
X6696000Y-14025190D01*
X6857905Y-13939476D02*
X6876952Y-13939476D01*
X6896000Y-13949000D01*
X6905524Y-13958524D01*
X6915048Y-13977571D01*
X6924571Y-14015667D01*
X6924571Y-14063286D01*
X6915048Y-14101381D01*
X6905524Y-14120428D01*
X6896000Y-14129952D01*
X6876952Y-14139476D01*
X6857905Y-14139476D01*
X6838857Y-14129952D01*
X6829333Y-14120428D01*
X6819809Y-14101381D01*
X6810286Y-14063286D01*
X6810286Y-14015667D01*
X6819809Y-13977571D01*
X6829333Y-13958524D01*
X6838857Y-13949000D01*
X6857905Y-13939476D01*
X7048381Y-13939476D02*
X7067428Y-13939476D01*
X7086476Y-13949000D01*
X7096000Y-13958524D01*
X7105524Y-13977571D01*
X7115048Y-14015667D01*
X7115048Y-14063286D01*
X7105524Y-14101381D01*
X7096000Y-14120428D01*
X7086476Y-14129952D01*
X7067428Y-14139476D01*
X7048381Y-14139476D01*
X7029333Y-14129952D01*
X7019809Y-14120428D01*
X7010286Y-14101381D01*
X7000762Y-14063286D01*
X7000762Y-14015667D01*
X7010286Y-13977571D01*
X7019809Y-13958524D01*
X7029333Y-13949000D01*
X7048381Y-13939476D01*
X7200762Y-14139476D02*
X7200762Y-14006143D01*
X7200762Y-14025190D02*
X7210286Y-14015667D01*
X7229333Y-14006143D01*
X7257905Y-14006143D01*
X7276952Y-14015667D01*
X7286476Y-14034714D01*
X7286476Y-14139476D01*
X7286476Y-14034714D02*
X7296000Y-14015667D01*
X7315048Y-14006143D01*
X7343619Y-14006143D01*
X7362667Y-14015667D01*
X7372190Y-14034714D01*
X7372190Y-14139476D01*
X7467428Y-14139476D02*
X7467428Y-14006143D01*
X7467428Y-14025190D02*
X7476952Y-14015667D01*
X7496000Y-14006143D01*
X7524571Y-14006143D01*
X7543619Y-14015667D01*
X7553143Y-14034714D01*
X7553143Y-14139476D01*
X7553143Y-14034714D02*
X7562667Y-14015667D01*
X7581714Y-14006143D01*
X7610286Y-14006143D01*
X7629333Y-14015667D01*
X7638857Y-14034714D01*
X7638857Y-14139476D01*
X8029333Y-13929952D02*
X7857905Y-14187095D01*
X8286476Y-13939476D02*
X8305524Y-13939476D01*
X8324571Y-13949000D01*
X8334095Y-13958524D01*
X8343619Y-13977571D01*
X8353143Y-14015667D01*
X8353143Y-14063286D01*
X8343619Y-14101381D01*
X8334095Y-14120428D01*
X8324571Y-14129952D01*
X8305524Y-14139476D01*
X8286476Y-14139476D01*
X8267428Y-14129952D01*
X8257905Y-14120428D01*
X8248381Y-14101381D01*
X8238857Y-14063286D01*
X8238857Y-14015667D01*
X8248381Y-13977571D01*
X8257905Y-13958524D01*
X8267428Y-13949000D01*
X8286476Y-13939476D01*
X8438857Y-14120428D02*
X8448381Y-14129952D01*
X8438857Y-14139476D01*
X8429333Y-14129952D01*
X8438857Y-14120428D01*
X8438857Y-14139476D01*
X8572190Y-13939476D02*
X8591238Y-13939476D01*
X8610286Y-13949000D01*
X8619810Y-13958524D01*
X8629333Y-13977571D01*
X8638857Y-14015667D01*
X8638857Y-14063286D01*
X8629333Y-14101381D01*
X8619810Y-14120428D01*
X8610286Y-14129952D01*
X8591238Y-14139476D01*
X8572190Y-14139476D01*
X8553143Y-14129952D01*
X8543619Y-14120428D01*
X8534095Y-14101381D01*
X8524571Y-14063286D01*
X8524571Y-14015667D01*
X8534095Y-13977571D01*
X8543619Y-13958524D01*
X8553143Y-13949000D01*
X8572190Y-13939476D01*
X8705524Y-13939476D02*
X8829333Y-13939476D01*
X8762667Y-14015667D01*
X8791238Y-14015667D01*
X8810286Y-14025190D01*
X8819810Y-14034714D01*
X8829333Y-14053762D01*
X8829333Y-14101381D01*
X8819810Y-14120428D01*
X8810286Y-14129952D01*
X8791238Y-14139476D01*
X8734095Y-14139476D01*
X8715048Y-14129952D01*
X8705524Y-14120428D01*
X9019810Y-14139476D02*
X8905524Y-14139476D01*
X8962667Y-14139476D02*
X8962667Y-13939476D01*
X8943619Y-13968048D01*
X8924571Y-13987095D01*
X8905524Y-13996619D01*
X9200762Y-13939476D02*
X9105524Y-13939476D01*
X9096000Y-14034714D01*
X9105524Y-14025190D01*
X9124571Y-14015667D01*
X9172190Y-14015667D01*
X9191238Y-14025190D01*
X9200762Y-14034714D01*
X9210286Y-14053762D01*
X9210286Y-14101381D01*
X9200762Y-14120428D01*
X9191238Y-14129952D01*
X9172190Y-14139476D01*
X9124571Y-14139476D01*
X9105524Y-14129952D01*
X9096000Y-14120428D01*
X9286476Y-13939476D02*
X9286476Y-13977571D01*
X9362667Y-13939476D02*
X9362667Y-13977571D01*
X9657905Y-14215667D02*
X9648381Y-14206143D01*
X9629333Y-14177571D01*
X9619810Y-14158524D01*
X9610286Y-14129952D01*
X9600762Y-14082333D01*
X9600762Y-14044238D01*
X9610286Y-13996619D01*
X9619810Y-13968048D01*
X9629333Y-13949000D01*
X9648381Y-13920428D01*
X9657905Y-13910905D01*
X9724571Y-13958524D02*
X9734095Y-13949000D01*
X9753143Y-13939476D01*
X9800762Y-13939476D01*
X9819810Y-13949000D01*
X9829333Y-13958524D01*
X9838857Y-13977571D01*
X9838857Y-13996619D01*
X9829333Y-14025190D01*
X9715048Y-14139476D01*
X9838857Y-14139476D01*
X10076952Y-14139476D02*
X10076952Y-13939476D01*
X10162667Y-14139476D02*
X10162667Y-14034714D01*
X10153143Y-14015667D01*
X10134095Y-14006143D01*
X10105524Y-14006143D01*
X10086476Y-14015667D01*
X10076952Y-14025190D01*
X10286476Y-14139476D02*
X10267429Y-14129952D01*
X10257905Y-14120428D01*
X10248381Y-14101381D01*
X10248381Y-14044238D01*
X10257905Y-14025190D01*
X10267429Y-14015667D01*
X10286476Y-14006143D01*
X10315048Y-14006143D01*
X10334095Y-14015667D01*
X10343619Y-14025190D01*
X10353143Y-14044238D01*
X10353143Y-14101381D01*
X10343619Y-14120428D01*
X10334095Y-14129952D01*
X10315048Y-14139476D01*
X10286476Y-14139476D01*
X10467429Y-14139476D02*
X10448381Y-14129952D01*
X10438857Y-14110905D01*
X10438857Y-13939476D01*
X10619810Y-14129952D02*
X10600762Y-14139476D01*
X10562667Y-14139476D01*
X10543619Y-14129952D01*
X10534095Y-14110905D01*
X10534095Y-14034714D01*
X10543619Y-14015667D01*
X10562667Y-14006143D01*
X10600762Y-14006143D01*
X10619810Y-14015667D01*
X10629333Y-14034714D01*
X10629333Y-14053762D01*
X10534095Y-14072809D01*
X10705524Y-14129952D02*
X10724571Y-14139476D01*
X10762667Y-14139476D01*
X10781714Y-14129952D01*
X10791238Y-14110905D01*
X10791238Y-14101381D01*
X10781714Y-14082333D01*
X10762667Y-14072809D01*
X10734095Y-14072809D01*
X10715048Y-14063286D01*
X10705524Y-14044238D01*
X10705524Y-14034714D01*
X10715048Y-14015667D01*
X10734095Y-14006143D01*
X10762667Y-14006143D01*
X10781714Y-14015667D01*
X10857905Y-14215667D02*
X10867429Y-14206143D01*
X10886476Y-14177571D01*
X10896000Y-14158524D01*
X10905524Y-14129952D01*
X10915048Y-14082333D01*
X10915048Y-14044238D01*
X10905524Y-13996619D01*
X10896000Y-13968048D01*
X10886476Y-13949000D01*
X10867429Y-13920428D01*
X10857905Y-13910905D01*
D10*
X6036000Y-14263000D02*
X6036000Y-14363000D01*
X5986000Y-14313000D02*
X6086000Y-14313000D01*
D11*
X6448381Y-14403476D02*
X6334095Y-14403476D01*
X6391238Y-14403476D02*
X6391238Y-14203476D01*
X6372190Y-14232048D01*
X6353143Y-14251095D01*
X6334095Y-14260619D01*
X6534095Y-14384428D02*
X6543619Y-14393952D01*
X6534095Y-14403476D01*
X6524571Y-14393952D01*
X6534095Y-14384428D01*
X6534095Y-14403476D01*
X6667428Y-14203476D02*
X6686476Y-14203476D01*
X6705524Y-14213000D01*
X6715048Y-14222524D01*
X6724571Y-14241571D01*
X6734095Y-14279667D01*
X6734095Y-14327286D01*
X6724571Y-14365381D01*
X6715048Y-14384428D01*
X6705524Y-14393952D01*
X6686476Y-14403476D01*
X6667428Y-14403476D01*
X6648381Y-14393952D01*
X6638857Y-14384428D01*
X6629333Y-14365381D01*
X6619809Y-14327286D01*
X6619809Y-14279667D01*
X6629333Y-14241571D01*
X6638857Y-14222524D01*
X6648381Y-14213000D01*
X6667428Y-14203476D01*
X6857905Y-14203476D02*
X6876952Y-14203476D01*
X6896000Y-14213000D01*
X6905524Y-14222524D01*
X6915048Y-14241571D01*
X6924571Y-14279667D01*
X6924571Y-14327286D01*
X6915048Y-14365381D01*
X6905524Y-14384428D01*
X6896000Y-14393952D01*
X6876952Y-14403476D01*
X6857905Y-14403476D01*
X6838857Y-14393952D01*
X6829333Y-14384428D01*
X6819809Y-14365381D01*
X6810286Y-14327286D01*
X6810286Y-14279667D01*
X6819809Y-14241571D01*
X6829333Y-14222524D01*
X6838857Y-14213000D01*
X6857905Y-14203476D01*
X7048381Y-14203476D02*
X7067428Y-14203476D01*
X7086476Y-14213000D01*
X7096000Y-14222524D01*
X7105524Y-14241571D01*
X7115048Y-14279667D01*
X7115048Y-14327286D01*
X7105524Y-14365381D01*
X7096000Y-14384428D01*
X7086476Y-14393952D01*
X7067428Y-14403476D01*
X7048381Y-14403476D01*
X7029333Y-14393952D01*
X7019809Y-14384428D01*
X7010286Y-14365381D01*
X7000762Y-14327286D01*
X7000762Y-14279667D01*
X7010286Y-14241571D01*
X7019809Y-14222524D01*
X7029333Y-14213000D01*
X7048381Y-14203476D01*
X7200762Y-14403476D02*
X7200762Y-14270143D01*
X7200762Y-14289190D02*
X7210286Y-14279667D01*
X7229333Y-14270143D01*
X7257905Y-14270143D01*
X7276952Y-14279667D01*
X7286476Y-14298714D01*
X7286476Y-14403476D01*
X7286476Y-14298714D02*
X7296000Y-14279667D01*
X7315048Y-14270143D01*
X7343619Y-14270143D01*
X7362667Y-14279667D01*
X7372190Y-14298714D01*
X7372190Y-14403476D01*
X7467428Y-14403476D02*
X7467428Y-14270143D01*
X7467428Y-14289190D02*
X7476952Y-14279667D01*
X7496000Y-14270143D01*
X7524571Y-14270143D01*
X7543619Y-14279667D01*
X7553143Y-14298714D01*
X7553143Y-14403476D01*
X7553143Y-14298714D02*
X7562667Y-14279667D01*
X7581714Y-14270143D01*
X7610286Y-14270143D01*
X7629333Y-14279667D01*
X7638857Y-14298714D01*
X7638857Y-14403476D01*
X8029333Y-14193952D02*
X7857905Y-14451095D01*
X8286476Y-14203476D02*
X8305524Y-14203476D01*
X8324571Y-14213000D01*
X8334095Y-14222524D01*
X8343619Y-14241571D01*
X8353143Y-14279667D01*
X8353143Y-14327286D01*
X8343619Y-14365381D01*
X8334095Y-14384428D01*
X8324571Y-14393952D01*
X8305524Y-14403476D01*
X8286476Y-14403476D01*
X8267428Y-14393952D01*
X8257905Y-14384428D01*
X8248381Y-14365381D01*
X8238857Y-14327286D01*
X8238857Y-14279667D01*
X8248381Y-14241571D01*
X8257905Y-14222524D01*
X8267428Y-14213000D01*
X8286476Y-14203476D01*
X8438857Y-14384428D02*
X8448381Y-14393952D01*
X8438857Y-14403476D01*
X8429333Y-14393952D01*
X8438857Y-14384428D01*
X8438857Y-14403476D01*
X8572190Y-14203476D02*
X8591238Y-14203476D01*
X8610286Y-14213000D01*
X8619810Y-14222524D01*
X8629333Y-14241571D01*
X8638857Y-14279667D01*
X8638857Y-14327286D01*
X8629333Y-14365381D01*
X8619810Y-14384428D01*
X8610286Y-14393952D01*
X8591238Y-14403476D01*
X8572190Y-14403476D01*
X8553143Y-14393952D01*
X8543619Y-14384428D01*
X8534095Y-14365381D01*
X8524571Y-14327286D01*
X8524571Y-14279667D01*
X8534095Y-14241571D01*
X8543619Y-14222524D01*
X8553143Y-14213000D01*
X8572190Y-14203476D01*
X8705524Y-14203476D02*
X8829333Y-14203476D01*
X8762667Y-14279667D01*
X8791238Y-14279667D01*
X8810286Y-14289190D01*
X8819810Y-14298714D01*
X8829333Y-14317762D01*
X8829333Y-14365381D01*
X8819810Y-14384428D01*
X8810286Y-14393952D01*
X8791238Y-14403476D01*
X8734095Y-14403476D01*
X8715048Y-14393952D01*
X8705524Y-14384428D01*
X8924571Y-14403476D02*
X8962667Y-14403476D01*
X8981714Y-14393952D01*
X8991238Y-14384428D01*
X9010286Y-14355857D01*
X9019810Y-14317762D01*
X9019810Y-14241571D01*
X9010286Y-14222524D01*
X9000762Y-14213000D01*
X8981714Y-14203476D01*
X8943619Y-14203476D01*
X8924571Y-14213000D01*
X8915048Y-14222524D01*
X8905524Y-14241571D01*
X8905524Y-14289190D01*
X8915048Y-14308238D01*
X8924571Y-14317762D01*
X8943619Y-14327286D01*
X8981714Y-14327286D01*
X9000762Y-14317762D01*
X9010286Y-14308238D01*
X9019810Y-14289190D01*
X9191238Y-14270143D02*
X9191238Y-14403476D01*
X9143619Y-14193952D02*
X9096000Y-14336809D01*
X9219810Y-14336809D01*
X9286476Y-14203476D02*
X9286476Y-14241571D01*
X9362667Y-14203476D02*
X9362667Y-14241571D01*
X9657905Y-14479667D02*
X9648381Y-14470143D01*
X9629333Y-14441571D01*
X9619810Y-14422524D01*
X9610286Y-14393952D01*
X9600762Y-14346333D01*
X9600762Y-14308238D01*
X9610286Y-14260619D01*
X9619810Y-14232048D01*
X9629333Y-14213000D01*
X9648381Y-14184428D01*
X9657905Y-14174905D01*
X9819810Y-14270143D02*
X9819810Y-14403476D01*
X9772190Y-14193952D02*
X9724571Y-14336809D01*
X9848381Y-14336809D01*
X9934095Y-14403476D02*
X9972190Y-14403476D01*
X9991238Y-14393952D01*
X10000762Y-14384428D01*
X10019810Y-14355857D01*
X10029333Y-14317762D01*
X10029333Y-14241571D01*
X10019810Y-14222524D01*
X10010286Y-14213000D01*
X9991238Y-14203476D01*
X9953143Y-14203476D01*
X9934095Y-14213000D01*
X9924571Y-14222524D01*
X9915048Y-14241571D01*
X9915048Y-14289190D01*
X9924571Y-14308238D01*
X9934095Y-14317762D01*
X9953143Y-14327286D01*
X9991238Y-14327286D01*
X10010286Y-14317762D01*
X10019810Y-14308238D01*
X10029333Y-14289190D01*
X10267429Y-14403476D02*
X10267429Y-14203476D01*
X10353143Y-14403476D02*
X10353143Y-14298714D01*
X10343619Y-14279667D01*
X10324571Y-14270143D01*
X10296000Y-14270143D01*
X10276952Y-14279667D01*
X10267429Y-14289190D01*
X10476952Y-14403476D02*
X10457905Y-14393952D01*
X10448381Y-14384428D01*
X10438857Y-14365381D01*
X10438857Y-14308238D01*
X10448381Y-14289190D01*
X10457905Y-14279667D01*
X10476952Y-14270143D01*
X10505524Y-14270143D01*
X10524571Y-14279667D01*
X10534095Y-14289190D01*
X10543619Y-14308238D01*
X10543619Y-14365381D01*
X10534095Y-14384428D01*
X10524571Y-14393952D01*
X10505524Y-14403476D01*
X10476952Y-14403476D01*
X10657905Y-14403476D02*
X10638857Y-14393952D01*
X10629333Y-14374905D01*
X10629333Y-14203476D01*
X10810286Y-14393952D02*
X10791238Y-14403476D01*
X10753143Y-14403476D01*
X10734095Y-14393952D01*
X10724571Y-14374905D01*
X10724571Y-14298714D01*
X10734095Y-14279667D01*
X10753143Y-14270143D01*
X10791238Y-14270143D01*
X10810286Y-14279667D01*
X10819810Y-14298714D01*
X10819810Y-14317762D01*
X10724571Y-14336809D01*
X10896000Y-14393952D02*
X10915048Y-14403476D01*
X10953143Y-14403476D01*
X10972190Y-14393952D01*
X10981714Y-14374905D01*
X10981714Y-14365381D01*
X10972190Y-14346333D01*
X10953143Y-14336809D01*
X10924571Y-14336809D01*
X10905524Y-14327286D01*
X10896000Y-14308238D01*
X10896000Y-14298714D01*
X10905524Y-14279667D01*
X10924571Y-14270143D01*
X10953143Y-14270143D01*
X10972190Y-14279667D01*
X11219809Y-14327286D02*
X11372190Y-14327286D01*
X11296000Y-14403476D02*
X11296000Y-14251095D01*
X11600762Y-14203476D02*
X11724571Y-14203476D01*
X11657905Y-14279667D01*
X11686476Y-14279667D01*
X11705524Y-14289190D01*
X11715048Y-14298714D01*
X11724571Y-14317762D01*
X11724571Y-14365381D01*
X11715048Y-14384428D01*
X11705524Y-14393952D01*
X11686476Y-14403476D01*
X11629333Y-14403476D01*
X11610286Y-14393952D01*
X11600762Y-14384428D01*
X11953143Y-14393952D02*
X11972190Y-14403476D01*
X12010286Y-14403476D01*
X12029333Y-14393952D01*
X12038857Y-14374905D01*
X12038857Y-14365381D01*
X12029333Y-14346333D01*
X12010286Y-14336809D01*
X11981714Y-14336809D01*
X11962667Y-14327286D01*
X11953143Y-14308238D01*
X11953143Y-14298714D01*
X11962667Y-14279667D01*
X11981714Y-14270143D01*
X12010286Y-14270143D01*
X12029333Y-14279667D01*
X12153143Y-14403476D02*
X12134095Y-14393952D01*
X12124571Y-14374905D01*
X12124571Y-14203476D01*
X12257905Y-14403476D02*
X12238857Y-14393952D01*
X12229333Y-14384428D01*
X12219809Y-14365381D01*
X12219809Y-14308238D01*
X12229333Y-14289190D01*
X12238857Y-14279667D01*
X12257905Y-14270143D01*
X12286476Y-14270143D01*
X12305524Y-14279667D01*
X12315048Y-14289190D01*
X12324571Y-14308238D01*
X12324571Y-14365381D01*
X12315048Y-14384428D01*
X12305524Y-14393952D01*
X12286476Y-14403476D01*
X12257905Y-14403476D01*
X12381714Y-14270143D02*
X12457905Y-14270143D01*
X12410286Y-14203476D02*
X12410286Y-14374905D01*
X12419809Y-14393952D01*
X12438857Y-14403476D01*
X12457905Y-14403476D01*
X12515048Y-14393952D02*
X12534095Y-14403476D01*
X12572190Y-14403476D01*
X12591238Y-14393952D01*
X12600762Y-14374905D01*
X12600762Y-14365381D01*
X12591238Y-14346333D01*
X12572190Y-14336809D01*
X12543619Y-14336809D01*
X12524571Y-14327286D01*
X12515048Y-14308238D01*
X12515048Y-14298714D01*
X12524571Y-14279667D01*
X12543619Y-14270143D01*
X12572190Y-14270143D01*
X12591238Y-14279667D01*
X12667428Y-14479667D02*
X12676952Y-14470143D01*
X12696000Y-14441571D01*
X12705524Y-14422524D01*
X12715048Y-14393952D01*
X12724571Y-14346333D01*
X12724571Y-14308238D01*
X12715048Y-14260619D01*
X12705524Y-14232048D01*
X12696000Y-14213000D01*
X12676952Y-14184428D01*
X12667428Y-14174905D01*
X6056711Y-14647711D02*
X6056711Y-14506289D01*
X5915289Y-14506289D01*
X5915289Y-14647711D01*
X6056711Y-14647711D01*
X6324571Y-14467476D02*
X6448381Y-14467476D01*
X6381714Y-14543667D01*
X6410286Y-14543667D01*
X6429333Y-14553190D01*
X6438857Y-14562714D01*
X6448381Y-14581762D01*
X6448381Y-14629381D01*
X6438857Y-14648428D01*
X6429333Y-14657952D01*
X6410286Y-14667476D01*
X6353143Y-14667476D01*
X6334095Y-14657952D01*
X6324571Y-14648428D01*
X6534095Y-14648428D02*
X6543619Y-14657952D01*
X6534095Y-14667476D01*
X6524571Y-14657952D01*
X6534095Y-14648428D01*
X6534095Y-14667476D01*
X6619809Y-14486524D02*
X6629333Y-14477000D01*
X6648381Y-14467476D01*
X6696000Y-14467476D01*
X6715048Y-14477000D01*
X6724571Y-14486524D01*
X6734095Y-14505571D01*
X6734095Y-14524619D01*
X6724571Y-14553190D01*
X6610286Y-14667476D01*
X6734095Y-14667476D01*
X6857905Y-14467476D02*
X6876952Y-14467476D01*
X6896000Y-14477000D01*
X6905524Y-14486524D01*
X6915048Y-14505571D01*
X6924571Y-14543667D01*
X6924571Y-14591286D01*
X6915048Y-14629381D01*
X6905524Y-14648428D01*
X6896000Y-14657952D01*
X6876952Y-14667476D01*
X6857905Y-14667476D01*
X6838857Y-14657952D01*
X6829333Y-14648428D01*
X6819809Y-14629381D01*
X6810286Y-14591286D01*
X6810286Y-14543667D01*
X6819809Y-14505571D01*
X6829333Y-14486524D01*
X6838857Y-14477000D01*
X6857905Y-14467476D01*
X7048381Y-14467476D02*
X7067428Y-14467476D01*
X7086476Y-14477000D01*
X7096000Y-14486524D01*
X7105524Y-14505571D01*
X7115048Y-14543667D01*
X7115048Y-14591286D01*
X7105524Y-14629381D01*
X7096000Y-14648428D01*
X7086476Y-14657952D01*
X7067428Y-14667476D01*
X7048381Y-14667476D01*
X7029333Y-14657952D01*
X7019809Y-14648428D01*
X7010286Y-14629381D01*
X7000762Y-14591286D01*
X7000762Y-14543667D01*
X7010286Y-14505571D01*
X7019809Y-14486524D01*
X7029333Y-14477000D01*
X7048381Y-14467476D01*
X7200762Y-14667476D02*
X7200762Y-14534143D01*
X7200762Y-14553190D02*
X7210286Y-14543667D01*
X7229333Y-14534143D01*
X7257905Y-14534143D01*
X7276952Y-14543667D01*
X7286476Y-14562714D01*
X7286476Y-14667476D01*
X7286476Y-14562714D02*
X7296000Y-14543667D01*
X7315048Y-14534143D01*
X7343619Y-14534143D01*
X7362667Y-14543667D01*
X7372190Y-14562714D01*
X7372190Y-14667476D01*
X7467428Y-14667476D02*
X7467428Y-14534143D01*
X7467428Y-14553190D02*
X7476952Y-14543667D01*
X7496000Y-14534143D01*
X7524571Y-14534143D01*
X7543619Y-14543667D01*
X7553143Y-14562714D01*
X7553143Y-14667476D01*
X7553143Y-14562714D02*
X7562667Y-14543667D01*
X7581714Y-14534143D01*
X7610286Y-14534143D01*
X7629333Y-14543667D01*
X7638857Y-14562714D01*
X7638857Y-14667476D01*
X8029333Y-14457952D02*
X7857905Y-14715095D01*
X8286476Y-14467476D02*
X8305524Y-14467476D01*
X8324571Y-14477000D01*
X8334095Y-14486524D01*
X8343619Y-14505571D01*
X8353143Y-14543667D01*
X8353143Y-14591286D01*
X8343619Y-14629381D01*
X8334095Y-14648428D01*
X8324571Y-14657952D01*
X8305524Y-14667476D01*
X8286476Y-14667476D01*
X8267428Y-14657952D01*
X8257905Y-14648428D01*
X8248381Y-14629381D01*
X8238857Y-14591286D01*
X8238857Y-14543667D01*
X8248381Y-14505571D01*
X8257905Y-14486524D01*
X8267428Y-14477000D01*
X8286476Y-14467476D01*
X8438857Y-14648428D02*
X8448381Y-14657952D01*
X8438857Y-14667476D01*
X8429333Y-14657952D01*
X8438857Y-14648428D01*
X8438857Y-14667476D01*
X8638857Y-14667476D02*
X8524571Y-14667476D01*
X8581714Y-14667476D02*
X8581714Y-14467476D01*
X8562667Y-14496048D01*
X8543619Y-14515095D01*
X8524571Y-14524619D01*
X8715048Y-14486524D02*
X8724571Y-14477000D01*
X8743619Y-14467476D01*
X8791238Y-14467476D01*
X8810286Y-14477000D01*
X8819810Y-14486524D01*
X8829333Y-14505571D01*
X8829333Y-14524619D01*
X8819810Y-14553190D01*
X8705524Y-14667476D01*
X8829333Y-14667476D01*
X9000762Y-14467476D02*
X8962667Y-14467476D01*
X8943619Y-14477000D01*
X8934095Y-14486524D01*
X8915048Y-14515095D01*
X8905524Y-14553190D01*
X8905524Y-14629381D01*
X8915048Y-14648428D01*
X8924571Y-14657952D01*
X8943619Y-14667476D01*
X8981714Y-14667476D01*
X9000762Y-14657952D01*
X9010286Y-14648428D01*
X9019810Y-14629381D01*
X9019810Y-14581762D01*
X9010286Y-14562714D01*
X9000762Y-14553190D01*
X8981714Y-14543667D01*
X8943619Y-14543667D01*
X8924571Y-14553190D01*
X8915048Y-14562714D01*
X8905524Y-14581762D01*
X9143619Y-14467476D02*
X9162667Y-14467476D01*
X9181714Y-14477000D01*
X9191238Y-14486524D01*
X9200762Y-14505571D01*
X9210286Y-14543667D01*
X9210286Y-14591286D01*
X9200762Y-14629381D01*
X9191238Y-14648428D01*
X9181714Y-14657952D01*
X9162667Y-14667476D01*
X9143619Y-14667476D01*
X9124571Y-14657952D01*
X9115048Y-14648428D01*
X9105524Y-14629381D01*
X9096000Y-14591286D01*
X9096000Y-14543667D01*
X9105524Y-14505571D01*
X9115048Y-14486524D01*
X9124571Y-14477000D01*
X9143619Y-14467476D01*
X9286476Y-14467476D02*
X9286476Y-14505571D01*
X9362667Y-14467476D02*
X9362667Y-14505571D01*
X9657905Y-14743667D02*
X9648381Y-14734143D01*
X9629333Y-14705571D01*
X9619810Y-14686524D01*
X9610286Y-14657952D01*
X9600762Y-14610333D01*
X9600762Y-14572238D01*
X9610286Y-14524619D01*
X9619810Y-14496048D01*
X9629333Y-14477000D01*
X9648381Y-14448428D01*
X9657905Y-14438905D01*
X9724571Y-14486524D02*
X9734095Y-14477000D01*
X9753143Y-14467476D01*
X9800762Y-14467476D01*
X9819810Y-14477000D01*
X9829333Y-14486524D01*
X9838857Y-14505571D01*
X9838857Y-14524619D01*
X9829333Y-14553190D01*
X9715048Y-14667476D01*
X9838857Y-14667476D01*
X10076952Y-14667476D02*
X10076952Y-14467476D01*
X10162667Y-14667476D02*
X10162667Y-14562714D01*
X10153143Y-14543667D01*
X10134095Y-14534143D01*
X10105524Y-14534143D01*
X10086476Y-14543667D01*
X10076952Y-14553190D01*
X10286476Y-14667476D02*
X10267429Y-14657952D01*
X10257905Y-14648428D01*
X10248381Y-14629381D01*
X10248381Y-14572238D01*
X10257905Y-14553190D01*
X10267429Y-14543667D01*
X10286476Y-14534143D01*
X10315048Y-14534143D01*
X10334095Y-14543667D01*
X10343619Y-14553190D01*
X10353143Y-14572238D01*
X10353143Y-14629381D01*
X10343619Y-14648428D01*
X10334095Y-14657952D01*
X10315048Y-14667476D01*
X10286476Y-14667476D01*
X10467429Y-14667476D02*
X10448381Y-14657952D01*
X10438857Y-14638905D01*
X10438857Y-14467476D01*
X10619810Y-14657952D02*
X10600762Y-14667476D01*
X10562667Y-14667476D01*
X10543619Y-14657952D01*
X10534095Y-14638905D01*
X10534095Y-14562714D01*
X10543619Y-14543667D01*
X10562667Y-14534143D01*
X10600762Y-14534143D01*
X10619810Y-14543667D01*
X10629333Y-14562714D01*
X10629333Y-14581762D01*
X10534095Y-14600809D01*
X10705524Y-14657952D02*
X10724571Y-14667476D01*
X10762667Y-14667476D01*
X10781714Y-14657952D01*
X10791238Y-14638905D01*
X10791238Y-14629381D01*
X10781714Y-14610333D01*
X10762667Y-14600809D01*
X10734095Y-14600809D01*
X10715048Y-14591286D01*
X10705524Y-14572238D01*
X10705524Y-14562714D01*
X10715048Y-14543667D01*
X10734095Y-14534143D01*
X10762667Y-14534143D01*
X10781714Y-14543667D01*
X10857905Y-14743667D02*
X10867429Y-14734143D01*
X10886476Y-14705571D01*
X10896000Y-14686524D01*
X10905524Y-14657952D01*
X10915048Y-14610333D01*
X10915048Y-14572238D01*
X10905524Y-14524619D01*
X10896000Y-14496048D01*
X10886476Y-14477000D01*
X10867429Y-14448428D01*
X10857905Y-14438905D01*
M02*
