%TF.GenerationSoftware,KiCad,Pcbnew,(6.0.11)*%
%TF.CreationDate,2024-01-03T20:30:30+00:00*%
%TF.ProjectId,LeWiFiModem,4c655769-4669-44d6-9f64-656d2e6b6963,rev?*%
%TF.SameCoordinates,Original*%
%TF.FileFunction,Legend,Bot*%
%TF.FilePolarity,Positive*%
%FSLAX46Y46*%
G04 Gerber Fmt 4.6, Leading zero omitted, Abs format (unit mm)*
G04 Created by KiCad (PCBNEW (6.0.11)) date 2024-01-03 20:30:30*
%MOMM*%
%LPD*%
G01*
G04 APERTURE LIST*
%ADD10C,0.400000*%
G04 APERTURE END LIST*
D10*
X147011904Y-115084761D02*
X147011904Y-113084761D01*
X146154761Y-115084761D02*
X146154761Y-114037142D01*
X146250000Y-113846666D01*
X146440476Y-113751428D01*
X146726190Y-113751428D01*
X146916666Y-113846666D01*
X147011904Y-113941904D01*
X145488095Y-113751428D02*
X144726190Y-113751428D01*
X145202380Y-113084761D02*
X145202380Y-114799047D01*
X145107142Y-114989523D01*
X144916666Y-115084761D01*
X144726190Y-115084761D01*
X144345238Y-113751428D02*
X143583333Y-113751428D01*
X144059523Y-113084761D02*
X144059523Y-114799047D01*
X143964285Y-114989523D01*
X143773809Y-115084761D01*
X143583333Y-115084761D01*
X142916666Y-113751428D02*
X142916666Y-115751428D01*
X142916666Y-113846666D02*
X142726190Y-113751428D01*
X142345238Y-113751428D01*
X142154761Y-113846666D01*
X142059523Y-113941904D01*
X141964285Y-114132380D01*
X141964285Y-114703809D01*
X142059523Y-114894285D01*
X142154761Y-114989523D01*
X142345238Y-115084761D01*
X142726190Y-115084761D01*
X142916666Y-114989523D01*
X141202380Y-114989523D02*
X141011904Y-115084761D01*
X140630952Y-115084761D01*
X140440476Y-114989523D01*
X140345238Y-114799047D01*
X140345238Y-114703809D01*
X140440476Y-114513333D01*
X140630952Y-114418095D01*
X140916666Y-114418095D01*
X141107142Y-114322857D01*
X141202380Y-114132380D01*
X141202380Y-114037142D01*
X141107142Y-113846666D01*
X140916666Y-113751428D01*
X140630952Y-113751428D01*
X140440476Y-113846666D01*
X139488095Y-114894285D02*
X139392857Y-114989523D01*
X139488095Y-115084761D01*
X139583333Y-114989523D01*
X139488095Y-114894285D01*
X139488095Y-115084761D01*
X139488095Y-113846666D02*
X139392857Y-113941904D01*
X139488095Y-114037142D01*
X139583333Y-113941904D01*
X139488095Y-113846666D01*
X139488095Y-114037142D01*
X137107142Y-112989523D02*
X138821428Y-115560952D01*
X135011904Y-112989523D02*
X136726190Y-115560952D01*
X133488095Y-113751428D02*
X133488095Y-115370476D01*
X133583333Y-115560952D01*
X133678571Y-115656190D01*
X133869047Y-115751428D01*
X134154761Y-115751428D01*
X134345238Y-115656190D01*
X133488095Y-114989523D02*
X133678571Y-115084761D01*
X134059523Y-115084761D01*
X134250000Y-114989523D01*
X134345238Y-114894285D01*
X134440476Y-114703809D01*
X134440476Y-114132380D01*
X134345238Y-113941904D01*
X134250000Y-113846666D01*
X134059523Y-113751428D01*
X133678571Y-113751428D01*
X133488095Y-113846666D01*
X132535714Y-115084761D02*
X132535714Y-113751428D01*
X132535714Y-113084761D02*
X132630952Y-113180000D01*
X132535714Y-113275238D01*
X132440476Y-113180000D01*
X132535714Y-113084761D01*
X132535714Y-113275238D01*
X131869047Y-113751428D02*
X131107142Y-113751428D01*
X131583333Y-113084761D02*
X131583333Y-114799047D01*
X131488095Y-114989523D01*
X131297619Y-115084761D01*
X131107142Y-115084761D01*
X130440476Y-115084761D02*
X130440476Y-113084761D01*
X129583333Y-115084761D02*
X129583333Y-114037142D01*
X129678571Y-113846666D01*
X129869047Y-113751428D01*
X130154761Y-113751428D01*
X130345238Y-113846666D01*
X130440476Y-113941904D01*
X127773809Y-113751428D02*
X127773809Y-115084761D01*
X128630952Y-113751428D02*
X128630952Y-114799047D01*
X128535714Y-114989523D01*
X128345238Y-115084761D01*
X128059523Y-115084761D01*
X127869047Y-114989523D01*
X127773809Y-114894285D01*
X126821428Y-115084761D02*
X126821428Y-113084761D01*
X126821428Y-113846666D02*
X126630952Y-113751428D01*
X126250000Y-113751428D01*
X126059523Y-113846666D01*
X125964285Y-113941904D01*
X125869047Y-114132380D01*
X125869047Y-114703809D01*
X125964285Y-114894285D01*
X126059523Y-114989523D01*
X126250000Y-115084761D01*
X126630952Y-115084761D01*
X126821428Y-114989523D01*
X125011904Y-114894285D02*
X124916666Y-114989523D01*
X125011904Y-115084761D01*
X125107142Y-114989523D01*
X125011904Y-114894285D01*
X125011904Y-115084761D01*
X123202380Y-114989523D02*
X123392857Y-115084761D01*
X123773809Y-115084761D01*
X123964285Y-114989523D01*
X124059523Y-114894285D01*
X124154761Y-114703809D01*
X124154761Y-114132380D01*
X124059523Y-113941904D01*
X123964285Y-113846666D01*
X123773809Y-113751428D01*
X123392857Y-113751428D01*
X123202380Y-113846666D01*
X122059523Y-115084761D02*
X122250000Y-114989523D01*
X122345238Y-114894285D01*
X122440476Y-114703809D01*
X122440476Y-114132380D01*
X122345238Y-113941904D01*
X122250000Y-113846666D01*
X122059523Y-113751428D01*
X121773809Y-113751428D01*
X121583333Y-113846666D01*
X121488095Y-113941904D01*
X121392857Y-114132380D01*
X121392857Y-114703809D01*
X121488095Y-114894285D01*
X121583333Y-114989523D01*
X121773809Y-115084761D01*
X122059523Y-115084761D01*
X120535714Y-115084761D02*
X120535714Y-113751428D01*
X120535714Y-113941904D02*
X120440476Y-113846666D01*
X120250000Y-113751428D01*
X119964285Y-113751428D01*
X119773809Y-113846666D01*
X119678571Y-114037142D01*
X119678571Y-115084761D01*
X119678571Y-114037142D02*
X119583333Y-113846666D01*
X119392857Y-113751428D01*
X119107142Y-113751428D01*
X118916666Y-113846666D01*
X118821428Y-114037142D01*
X118821428Y-115084761D01*
X116440476Y-112989523D02*
X118154761Y-115560952D01*
X115773809Y-115084761D02*
X115773809Y-113751428D01*
X115773809Y-113941904D02*
X115678571Y-113846666D01*
X115488095Y-113751428D01*
X115202380Y-113751428D01*
X115011904Y-113846666D01*
X114916666Y-114037142D01*
X114916666Y-115084761D01*
X114916666Y-114037142D02*
X114821428Y-113846666D01*
X114630952Y-113751428D01*
X114345238Y-113751428D01*
X114154761Y-113846666D01*
X114059523Y-114037142D01*
X114059523Y-115084761D01*
X112250000Y-115084761D02*
X112250000Y-114037142D01*
X112345238Y-113846666D01*
X112535714Y-113751428D01*
X112916666Y-113751428D01*
X113107142Y-113846666D01*
X112250000Y-114989523D02*
X112440476Y-115084761D01*
X112916666Y-115084761D01*
X113107142Y-114989523D01*
X113202380Y-114799047D01*
X113202380Y-114608571D01*
X113107142Y-114418095D01*
X112916666Y-114322857D01*
X112440476Y-114322857D01*
X112250000Y-114227619D01*
X111297619Y-115084761D02*
X111297619Y-113751428D01*
X111297619Y-114132380D02*
X111202380Y-113941904D01*
X111107142Y-113846666D01*
X110916666Y-113751428D01*
X110726190Y-113751428D01*
X110059523Y-115084761D02*
X110059523Y-113751428D01*
X110059523Y-114132380D02*
X109964285Y-113941904D01*
X109869047Y-113846666D01*
X109678571Y-113751428D01*
X109488095Y-113751428D01*
X108535714Y-115084761D02*
X108726190Y-114989523D01*
X108821428Y-114894285D01*
X108916666Y-114703809D01*
X108916666Y-114132380D01*
X108821428Y-113941904D01*
X108726190Y-113846666D01*
X108535714Y-113751428D01*
X108250000Y-113751428D01*
X108059523Y-113846666D01*
X107964285Y-113941904D01*
X107869047Y-114132380D01*
X107869047Y-114703809D01*
X107964285Y-114894285D01*
X108059523Y-114989523D01*
X108250000Y-115084761D01*
X108535714Y-115084761D01*
X106726190Y-115084761D02*
X106916666Y-114989523D01*
X107011904Y-114799047D01*
X107011904Y-113084761D01*
X105107142Y-115084761D02*
X105107142Y-113084761D01*
X105107142Y-114989523D02*
X105297619Y-115084761D01*
X105678571Y-115084761D01*
X105869047Y-114989523D01*
X105964285Y-114894285D01*
X106059523Y-114703809D01*
X106059523Y-114132380D01*
X105964285Y-113941904D01*
X105869047Y-113846666D01*
X105678571Y-113751428D01*
X105297619Y-113751428D01*
X105107142Y-113846666D01*
X102726190Y-112989523D02*
X104440476Y-115560952D01*
X101107142Y-115084761D02*
X102059523Y-115084761D01*
X102059523Y-113084761D01*
X99678571Y-114989523D02*
X99869047Y-115084761D01*
X100250000Y-115084761D01*
X100440476Y-114989523D01*
X100535714Y-114799047D01*
X100535714Y-114037142D01*
X100440476Y-113846666D01*
X100250000Y-113751428D01*
X99869047Y-113751428D01*
X99678571Y-113846666D01*
X99583333Y-114037142D01*
X99583333Y-114227619D01*
X100535714Y-114418095D01*
X98916666Y-113084761D02*
X98440476Y-115084761D01*
X98059523Y-113656190D01*
X97678571Y-115084761D01*
X97202380Y-113084761D01*
X96440476Y-115084761D02*
X96440476Y-113751428D01*
X96440476Y-113084761D02*
X96535714Y-113180000D01*
X96440476Y-113275238D01*
X96345238Y-113180000D01*
X96440476Y-113084761D01*
X96440476Y-113275238D01*
X94821428Y-114037142D02*
X95488095Y-114037142D01*
X95488095Y-115084761D02*
X95488095Y-113084761D01*
X94535714Y-113084761D01*
X93773809Y-115084761D02*
X93773809Y-113751428D01*
X93773809Y-113084761D02*
X93869047Y-113180000D01*
X93773809Y-113275238D01*
X93678571Y-113180000D01*
X93773809Y-113084761D01*
X93773809Y-113275238D01*
X92821428Y-115084761D02*
X92821428Y-113084761D01*
X92154761Y-114513333D01*
X91488095Y-113084761D01*
X91488095Y-115084761D01*
X90250000Y-115084761D02*
X90440476Y-114989523D01*
X90535714Y-114894285D01*
X90630952Y-114703809D01*
X90630952Y-114132380D01*
X90535714Y-113941904D01*
X90440476Y-113846666D01*
X90250000Y-113751428D01*
X89964285Y-113751428D01*
X89773809Y-113846666D01*
X89678571Y-113941904D01*
X89583333Y-114132380D01*
X89583333Y-114703809D01*
X89678571Y-114894285D01*
X89773809Y-114989523D01*
X89964285Y-115084761D01*
X90250000Y-115084761D01*
X87869047Y-115084761D02*
X87869047Y-113084761D01*
X87869047Y-114989523D02*
X88059523Y-115084761D01*
X88440476Y-115084761D01*
X88630952Y-114989523D01*
X88726190Y-114894285D01*
X88821428Y-114703809D01*
X88821428Y-114132380D01*
X88726190Y-113941904D01*
X88630952Y-113846666D01*
X88440476Y-113751428D01*
X88059523Y-113751428D01*
X87869047Y-113846666D01*
X86154761Y-114989523D02*
X86345238Y-115084761D01*
X86726190Y-115084761D01*
X86916666Y-114989523D01*
X87011904Y-114799047D01*
X87011904Y-114037142D01*
X86916666Y-113846666D01*
X86726190Y-113751428D01*
X86345238Y-113751428D01*
X86154761Y-113846666D01*
X86059523Y-114037142D01*
X86059523Y-114227619D01*
X87011904Y-114418095D01*
X85202380Y-115084761D02*
X85202380Y-113751428D01*
X85202380Y-113941904D02*
X85107142Y-113846666D01*
X84916666Y-113751428D01*
X84630952Y-113751428D01*
X84440476Y-113846666D01*
X84345238Y-114037142D01*
X84345238Y-115084761D01*
X84345238Y-114037142D02*
X84250000Y-113846666D01*
X84059523Y-113751428D01*
X83773809Y-113751428D01*
X83583333Y-113846666D01*
X83488095Y-114037142D01*
X83488095Y-115084761D01*
X131202380Y-121524761D02*
X131202380Y-119524761D01*
X130440476Y-119524761D01*
X130250000Y-119620000D01*
X130154761Y-119715238D01*
X130059523Y-119905714D01*
X130059523Y-120191428D01*
X130154761Y-120381904D01*
X130250000Y-120477142D01*
X130440476Y-120572380D01*
X131202380Y-120572380D01*
X128916666Y-121524761D02*
X129107142Y-121429523D01*
X129202380Y-121334285D01*
X129297619Y-121143809D01*
X129297619Y-120572380D01*
X129202380Y-120381904D01*
X129107142Y-120286666D01*
X128916666Y-120191428D01*
X128630952Y-120191428D01*
X128440476Y-120286666D01*
X128345238Y-120381904D01*
X128250000Y-120572380D01*
X128250000Y-121143809D01*
X128345238Y-121334285D01*
X128440476Y-121429523D01*
X128630952Y-121524761D01*
X128916666Y-121524761D01*
X127583333Y-120191428D02*
X127202380Y-121524761D01*
X126821428Y-120572380D01*
X126440476Y-121524761D01*
X126059523Y-120191428D01*
X124535714Y-121429523D02*
X124726190Y-121524761D01*
X125107142Y-121524761D01*
X125297619Y-121429523D01*
X125392857Y-121239047D01*
X125392857Y-120477142D01*
X125297619Y-120286666D01*
X125107142Y-120191428D01*
X124726190Y-120191428D01*
X124535714Y-120286666D01*
X124440476Y-120477142D01*
X124440476Y-120667619D01*
X125392857Y-120858095D01*
X123583333Y-121524761D02*
X123583333Y-120191428D01*
X123583333Y-120572380D02*
X123488095Y-120381904D01*
X123392857Y-120286666D01*
X123202380Y-120191428D01*
X123011904Y-120191428D01*
X121583333Y-121429523D02*
X121773809Y-121524761D01*
X122154761Y-121524761D01*
X122345238Y-121429523D01*
X122440476Y-121239047D01*
X122440476Y-120477142D01*
X122345238Y-120286666D01*
X122154761Y-120191428D01*
X121773809Y-120191428D01*
X121583333Y-120286666D01*
X121488095Y-120477142D01*
X121488095Y-120667619D01*
X122440476Y-120858095D01*
X119773809Y-121524761D02*
X119773809Y-119524761D01*
X119773809Y-121429523D02*
X119964285Y-121524761D01*
X120345238Y-121524761D01*
X120535714Y-121429523D01*
X120630952Y-121334285D01*
X120726190Y-121143809D01*
X120726190Y-120572380D01*
X120630952Y-120381904D01*
X120535714Y-120286666D01*
X120345238Y-120191428D01*
X119964285Y-120191428D01*
X119773809Y-120286666D01*
X117297619Y-121524761D02*
X117297619Y-119524761D01*
X117297619Y-120286666D02*
X117107142Y-120191428D01*
X116726190Y-120191428D01*
X116535714Y-120286666D01*
X116440476Y-120381904D01*
X116345238Y-120572380D01*
X116345238Y-121143809D01*
X116440476Y-121334285D01*
X116535714Y-121429523D01*
X116726190Y-121524761D01*
X117107142Y-121524761D01*
X117297619Y-121429523D01*
X115678571Y-120191428D02*
X115202380Y-121524761D01*
X114726190Y-120191428D02*
X115202380Y-121524761D01*
X115392857Y-122000952D01*
X115488095Y-122096190D01*
X115678571Y-122191428D01*
X112630952Y-119524761D02*
X111297619Y-119524761D01*
X112630952Y-121524761D01*
X111297619Y-121524761D01*
X110535714Y-121524761D02*
X110535714Y-120191428D01*
X110535714Y-119524761D02*
X110630952Y-119620000D01*
X110535714Y-119715238D01*
X110440476Y-119620000D01*
X110535714Y-119524761D01*
X110535714Y-119715238D01*
X109583333Y-121524761D02*
X109583333Y-119524761D01*
X108916666Y-120953333D01*
X108250000Y-119524761D01*
X108250000Y-121524761D01*
X107011904Y-121524761D02*
X107202380Y-121429523D01*
X107297619Y-121334285D01*
X107392857Y-121143809D01*
X107392857Y-120572380D01*
X107297619Y-120381904D01*
X107202380Y-120286666D01*
X107011904Y-120191428D01*
X106726190Y-120191428D01*
X106535714Y-120286666D01*
X106440476Y-120381904D01*
X106345238Y-120572380D01*
X106345238Y-121143809D01*
X106440476Y-121334285D01*
X106535714Y-121429523D01*
X106726190Y-121524761D01*
X107011904Y-121524761D01*
X104630952Y-121524761D02*
X104630952Y-119524761D01*
X104630952Y-121429523D02*
X104821428Y-121524761D01*
X105202380Y-121524761D01*
X105392857Y-121429523D01*
X105488095Y-121334285D01*
X105583333Y-121143809D01*
X105583333Y-120572380D01*
X105488095Y-120381904D01*
X105392857Y-120286666D01*
X105202380Y-120191428D01*
X104821428Y-120191428D01*
X104630952Y-120286666D01*
X102916666Y-121429523D02*
X103107142Y-121524761D01*
X103488095Y-121524761D01*
X103678571Y-121429523D01*
X103773809Y-121239047D01*
X103773809Y-120477142D01*
X103678571Y-120286666D01*
X103488095Y-120191428D01*
X103107142Y-120191428D01*
X102916666Y-120286666D01*
X102821428Y-120477142D01*
X102821428Y-120667619D01*
X103773809Y-120858095D01*
X101964285Y-121524761D02*
X101964285Y-120191428D01*
X101964285Y-120381904D02*
X101869047Y-120286666D01*
X101678571Y-120191428D01*
X101392857Y-120191428D01*
X101202380Y-120286666D01*
X101107142Y-120477142D01*
X101107142Y-121524761D01*
X101107142Y-120477142D02*
X101011904Y-120286666D01*
X100821428Y-120191428D01*
X100535714Y-120191428D01*
X100345238Y-120286666D01*
X100250000Y-120477142D01*
X100250000Y-121524761D01*
X99297619Y-121334285D02*
X99202380Y-121429523D01*
X99297619Y-121524761D01*
X99392857Y-121429523D01*
X99297619Y-121334285D01*
X99297619Y-121524761D01*
X99297619Y-120286666D02*
X99202380Y-120381904D01*
X99297619Y-120477142D01*
X99392857Y-120381904D01*
X99297619Y-120286666D01*
X99297619Y-120477142D01*
X148583333Y-124744761D02*
X148583333Y-122744761D01*
X147726190Y-124744761D02*
X147726190Y-123697142D01*
X147821428Y-123506666D01*
X148011904Y-123411428D01*
X148297619Y-123411428D01*
X148488095Y-123506666D01*
X148583333Y-123601904D01*
X147059523Y-123411428D02*
X146297619Y-123411428D01*
X146773809Y-122744761D02*
X146773809Y-124459047D01*
X146678571Y-124649523D01*
X146488095Y-124744761D01*
X146297619Y-124744761D01*
X145916666Y-123411428D02*
X145154761Y-123411428D01*
X145630952Y-122744761D02*
X145630952Y-124459047D01*
X145535714Y-124649523D01*
X145345238Y-124744761D01*
X145154761Y-124744761D01*
X144488095Y-123411428D02*
X144488095Y-125411428D01*
X144488095Y-123506666D02*
X144297619Y-123411428D01*
X143916666Y-123411428D01*
X143726190Y-123506666D01*
X143630952Y-123601904D01*
X143535714Y-123792380D01*
X143535714Y-124363809D01*
X143630952Y-124554285D01*
X143726190Y-124649523D01*
X143916666Y-124744761D01*
X144297619Y-124744761D01*
X144488095Y-124649523D01*
X142773809Y-124649523D02*
X142583333Y-124744761D01*
X142202380Y-124744761D01*
X142011904Y-124649523D01*
X141916666Y-124459047D01*
X141916666Y-124363809D01*
X142011904Y-124173333D01*
X142202380Y-124078095D01*
X142488095Y-124078095D01*
X142678571Y-123982857D01*
X142773809Y-123792380D01*
X142773809Y-123697142D01*
X142678571Y-123506666D01*
X142488095Y-123411428D01*
X142202380Y-123411428D01*
X142011904Y-123506666D01*
X141059523Y-124554285D02*
X140964285Y-124649523D01*
X141059523Y-124744761D01*
X141154761Y-124649523D01*
X141059523Y-124554285D01*
X141059523Y-124744761D01*
X141059523Y-123506666D02*
X140964285Y-123601904D01*
X141059523Y-123697142D01*
X141154761Y-123601904D01*
X141059523Y-123506666D01*
X141059523Y-123697142D01*
X138678571Y-122649523D02*
X140392857Y-125220952D01*
X136583333Y-122649523D02*
X138297619Y-125220952D01*
X135059523Y-123411428D02*
X135059523Y-125030476D01*
X135154761Y-125220952D01*
X135250000Y-125316190D01*
X135440476Y-125411428D01*
X135726190Y-125411428D01*
X135916666Y-125316190D01*
X135059523Y-124649523D02*
X135250000Y-124744761D01*
X135630952Y-124744761D01*
X135821428Y-124649523D01*
X135916666Y-124554285D01*
X136011904Y-124363809D01*
X136011904Y-123792380D01*
X135916666Y-123601904D01*
X135821428Y-123506666D01*
X135630952Y-123411428D01*
X135250000Y-123411428D01*
X135059523Y-123506666D01*
X134107142Y-124744761D02*
X134107142Y-123411428D01*
X134107142Y-122744761D02*
X134202380Y-122840000D01*
X134107142Y-122935238D01*
X134011904Y-122840000D01*
X134107142Y-122744761D01*
X134107142Y-122935238D01*
X133440476Y-123411428D02*
X132678571Y-123411428D01*
X133154761Y-122744761D02*
X133154761Y-124459047D01*
X133059523Y-124649523D01*
X132869047Y-124744761D01*
X132678571Y-124744761D01*
X132011904Y-124744761D02*
X132011904Y-122744761D01*
X131154761Y-124744761D02*
X131154761Y-123697142D01*
X131250000Y-123506666D01*
X131440476Y-123411428D01*
X131726190Y-123411428D01*
X131916666Y-123506666D01*
X132011904Y-123601904D01*
X129345238Y-123411428D02*
X129345238Y-124744761D01*
X130202380Y-123411428D02*
X130202380Y-124459047D01*
X130107142Y-124649523D01*
X129916666Y-124744761D01*
X129630952Y-124744761D01*
X129440476Y-124649523D01*
X129345238Y-124554285D01*
X128392857Y-124744761D02*
X128392857Y-122744761D01*
X128392857Y-123506666D02*
X128202380Y-123411428D01*
X127821428Y-123411428D01*
X127630952Y-123506666D01*
X127535714Y-123601904D01*
X127440476Y-123792380D01*
X127440476Y-124363809D01*
X127535714Y-124554285D01*
X127630952Y-124649523D01*
X127821428Y-124744761D01*
X128202380Y-124744761D01*
X128392857Y-124649523D01*
X126583333Y-124554285D02*
X126488095Y-124649523D01*
X126583333Y-124744761D01*
X126678571Y-124649523D01*
X126583333Y-124554285D01*
X126583333Y-124744761D01*
X124773809Y-124649523D02*
X124964285Y-124744761D01*
X125345238Y-124744761D01*
X125535714Y-124649523D01*
X125630952Y-124554285D01*
X125726190Y-124363809D01*
X125726190Y-123792380D01*
X125630952Y-123601904D01*
X125535714Y-123506666D01*
X125345238Y-123411428D01*
X124964285Y-123411428D01*
X124773809Y-123506666D01*
X123630952Y-124744761D02*
X123821428Y-124649523D01*
X123916666Y-124554285D01*
X124011904Y-124363809D01*
X124011904Y-123792380D01*
X123916666Y-123601904D01*
X123821428Y-123506666D01*
X123630952Y-123411428D01*
X123345238Y-123411428D01*
X123154761Y-123506666D01*
X123059523Y-123601904D01*
X122964285Y-123792380D01*
X122964285Y-124363809D01*
X123059523Y-124554285D01*
X123154761Y-124649523D01*
X123345238Y-124744761D01*
X123630952Y-124744761D01*
X122107142Y-124744761D02*
X122107142Y-123411428D01*
X122107142Y-123601904D02*
X122011904Y-123506666D01*
X121821428Y-123411428D01*
X121535714Y-123411428D01*
X121345238Y-123506666D01*
X121250000Y-123697142D01*
X121250000Y-124744761D01*
X121250000Y-123697142D02*
X121154761Y-123506666D01*
X120964285Y-123411428D01*
X120678571Y-123411428D01*
X120488095Y-123506666D01*
X120392857Y-123697142D01*
X120392857Y-124744761D01*
X118011904Y-122649523D02*
X119726190Y-125220952D01*
X117345238Y-124744761D02*
X117345238Y-122744761D01*
X117345238Y-123506666D02*
X117154761Y-123411428D01*
X116773809Y-123411428D01*
X116583333Y-123506666D01*
X116488095Y-123601904D01*
X116392857Y-123792380D01*
X116392857Y-124363809D01*
X116488095Y-124554285D01*
X116583333Y-124649523D01*
X116773809Y-124744761D01*
X117154761Y-124744761D01*
X117345238Y-124649523D01*
X115250000Y-124744761D02*
X115440476Y-124649523D01*
X115535714Y-124554285D01*
X115630952Y-124363809D01*
X115630952Y-123792380D01*
X115535714Y-123601904D01*
X115440476Y-123506666D01*
X115250000Y-123411428D01*
X114964285Y-123411428D01*
X114773809Y-123506666D01*
X114678571Y-123601904D01*
X114583333Y-123792380D01*
X114583333Y-124363809D01*
X114678571Y-124554285D01*
X114773809Y-124649523D01*
X114964285Y-124744761D01*
X115250000Y-124744761D01*
X113916666Y-123411428D02*
X112869047Y-123411428D01*
X113916666Y-124744761D01*
X112869047Y-124744761D01*
X112107142Y-124744761D02*
X112107142Y-123411428D01*
X112107142Y-122744761D02*
X112202380Y-122840000D01*
X112107142Y-122935238D01*
X112011904Y-122840000D01*
X112107142Y-122744761D01*
X112107142Y-122935238D01*
X111154761Y-124744761D02*
X111154761Y-123411428D01*
X111154761Y-123601904D02*
X111059523Y-123506666D01*
X110869047Y-123411428D01*
X110583333Y-123411428D01*
X110392857Y-123506666D01*
X110297619Y-123697142D01*
X110297619Y-124744761D01*
X110297619Y-123697142D02*
X110202380Y-123506666D01*
X110011904Y-123411428D01*
X109726190Y-123411428D01*
X109535714Y-123506666D01*
X109440476Y-123697142D01*
X109440476Y-124744761D01*
X108488095Y-124744761D02*
X108488095Y-123411428D01*
X108488095Y-123601904D02*
X108392857Y-123506666D01*
X108202380Y-123411428D01*
X107916666Y-123411428D01*
X107726190Y-123506666D01*
X107630952Y-123697142D01*
X107630952Y-124744761D01*
X107630952Y-123697142D02*
X107535714Y-123506666D01*
X107345238Y-123411428D01*
X107059523Y-123411428D01*
X106869047Y-123506666D01*
X106773809Y-123697142D01*
X106773809Y-124744761D01*
X105059523Y-124649523D02*
X105250000Y-124744761D01*
X105630952Y-124744761D01*
X105821428Y-124649523D01*
X105916666Y-124459047D01*
X105916666Y-123697142D01*
X105821428Y-123506666D01*
X105630952Y-123411428D01*
X105250000Y-123411428D01*
X105059523Y-123506666D01*
X104964285Y-123697142D01*
X104964285Y-123887619D01*
X105916666Y-124078095D01*
X104107142Y-124744761D02*
X104107142Y-123411428D01*
X104107142Y-123792380D02*
X104011904Y-123601904D01*
X103916666Y-123506666D01*
X103726190Y-123411428D01*
X103535714Y-123411428D01*
X102869047Y-124744761D02*
X102869047Y-123411428D01*
X102869047Y-123601904D02*
X102773809Y-123506666D01*
X102583333Y-123411428D01*
X102297619Y-123411428D01*
X102107142Y-123506666D01*
X102011904Y-123697142D01*
X102011904Y-124744761D01*
X102011904Y-123697142D02*
X101916666Y-123506666D01*
X101726190Y-123411428D01*
X101440476Y-123411428D01*
X101250000Y-123506666D01*
X101154761Y-123697142D01*
X101154761Y-124744761D01*
X99345238Y-124744761D02*
X99345238Y-123697142D01*
X99440476Y-123506666D01*
X99630952Y-123411428D01*
X100011904Y-123411428D01*
X100202380Y-123506666D01*
X99345238Y-124649523D02*
X99535714Y-124744761D01*
X100011904Y-124744761D01*
X100202380Y-124649523D01*
X100297619Y-124459047D01*
X100297619Y-124268571D01*
X100202380Y-124078095D01*
X100011904Y-123982857D01*
X99535714Y-123982857D01*
X99345238Y-123887619D01*
X98392857Y-123411428D02*
X98392857Y-124744761D01*
X98392857Y-123601904D02*
X98297619Y-123506666D01*
X98107142Y-123411428D01*
X97821428Y-123411428D01*
X97630952Y-123506666D01*
X97535714Y-123697142D01*
X97535714Y-124744761D01*
X95154761Y-122649523D02*
X96869047Y-125220952D01*
X94678571Y-122744761D02*
X93345238Y-122744761D01*
X94678571Y-124744761D01*
X93345238Y-124744761D01*
X92583333Y-124744761D02*
X92583333Y-123411428D01*
X92583333Y-122744761D02*
X92678571Y-122840000D01*
X92583333Y-122935238D01*
X92488095Y-122840000D01*
X92583333Y-122744761D01*
X92583333Y-122935238D01*
X91630952Y-124744761D02*
X91630952Y-123411428D01*
X91630952Y-123601904D02*
X91535714Y-123506666D01*
X91345238Y-123411428D01*
X91059523Y-123411428D01*
X90869047Y-123506666D01*
X90773809Y-123697142D01*
X90773809Y-124744761D01*
X90773809Y-123697142D02*
X90678571Y-123506666D01*
X90488095Y-123411428D01*
X90202380Y-123411428D01*
X90011904Y-123506666D01*
X89916666Y-123697142D01*
X89916666Y-124744761D01*
X88678571Y-124744761D02*
X88869047Y-124649523D01*
X88964285Y-124554285D01*
X89059523Y-124363809D01*
X89059523Y-123792380D01*
X88964285Y-123601904D01*
X88869047Y-123506666D01*
X88678571Y-123411428D01*
X88392857Y-123411428D01*
X88202380Y-123506666D01*
X88107142Y-123601904D01*
X88011904Y-123792380D01*
X88011904Y-124363809D01*
X88107142Y-124554285D01*
X88202380Y-124649523D01*
X88392857Y-124744761D01*
X88678571Y-124744761D01*
X86297619Y-124744761D02*
X86297619Y-122744761D01*
X86297619Y-124649523D02*
X86488095Y-124744761D01*
X86869047Y-124744761D01*
X87059523Y-124649523D01*
X87154761Y-124554285D01*
X87250000Y-124363809D01*
X87250000Y-123792380D01*
X87154761Y-123601904D01*
X87059523Y-123506666D01*
X86869047Y-123411428D01*
X86488095Y-123411428D01*
X86297619Y-123506666D01*
X84583333Y-124649523D02*
X84773809Y-124744761D01*
X85154761Y-124744761D01*
X85345238Y-124649523D01*
X85440476Y-124459047D01*
X85440476Y-123697142D01*
X85345238Y-123506666D01*
X85154761Y-123411428D01*
X84773809Y-123411428D01*
X84583333Y-123506666D01*
X84488095Y-123697142D01*
X84488095Y-123887619D01*
X85440476Y-124078095D01*
X83630952Y-124744761D02*
X83630952Y-123411428D01*
X83630952Y-123601904D02*
X83535714Y-123506666D01*
X83345238Y-123411428D01*
X83059523Y-123411428D01*
X82869047Y-123506666D01*
X82773809Y-123697142D01*
X82773809Y-124744761D01*
X82773809Y-123697142D02*
X82678571Y-123506666D01*
X82488095Y-123411428D01*
X82202380Y-123411428D01*
X82011904Y-123506666D01*
X81916666Y-123697142D01*
X81916666Y-124744761D01*
M02*
