%TF.GenerationSoftware,KiCad,Pcbnew,(6.0.11)*%
%TF.CreationDate,2024-01-03T20:30:28+00:00*%
%TF.ProjectId,LeWiFiModem,4c655769-4669-44d6-9f64-656d2e6b6963,rev?*%
%TF.SameCoordinates,Original*%
%TF.FileFunction,Drillmap*%
%TF.FilePolarity,Positive*%
%FSLAX45Y45*%
G04 Gerber Fmt 4.5, Leading zero omitted, Abs format (unit mm)*
G04 Created by KiCad (PCBNEW (6.0.11)) date 2024-01-03 20:30:28*
%MOMM*%
%LPD*%
G01*
G04 APERTURE LIST*
%ADD10C,0.100000*%
%ADD11C,0.200000*%
%ADD12C,0.320000*%
G04 APERTURE END LIST*
D10*
X16755000Y-13140000D02*
G75*
G03*
X16955000Y-12940000I0J200000D01*
G01*
X16954000Y-8272000D02*
G75*
G03*
X16754000Y-8072000I-200000J0D01*
G01*
X6291000Y-8072000D02*
X16754000Y-8072000D01*
X16755000Y-13140000D02*
X6292000Y-13140000D01*
X16954000Y-8272000D02*
X16955000Y-12940000D01*
X6291000Y-8072000D02*
G75*
G03*
X6091000Y-8272000I0J-200000D01*
G01*
X6092000Y-12940000D02*
X6091000Y-8272000D01*
X6092000Y-12940000D02*
G75*
G03*
X6292000Y-13140000I200000J0D01*
G01*
D11*
D12*
X6363000Y-8446000D02*
X6683000Y-8766000D01*
X6683000Y-8446000D02*
X6363000Y-8766000D01*
X6363000Y-12446000D02*
X6683000Y-12766000D01*
X6683000Y-12446000D02*
X6363000Y-12766000D01*
X16363000Y-8446000D02*
X16683000Y-8766000D01*
X16683000Y-8446000D02*
X16363000Y-8766000D01*
X16363000Y-12446000D02*
X16683000Y-12766000D01*
X16683000Y-12446000D02*
X16363000Y-12766000D01*
D11*
X6343619Y-13455476D02*
X6343619Y-13255476D01*
X6391238Y-13255476D01*
X6419809Y-13265000D01*
X6438857Y-13284048D01*
X6448381Y-13303095D01*
X6457905Y-13341190D01*
X6457905Y-13369762D01*
X6448381Y-13407857D01*
X6438857Y-13426905D01*
X6419809Y-13445952D01*
X6391238Y-13455476D01*
X6343619Y-13455476D01*
X6543619Y-13455476D02*
X6543619Y-13322143D01*
X6543619Y-13360238D02*
X6553143Y-13341190D01*
X6562667Y-13331667D01*
X6581714Y-13322143D01*
X6600762Y-13322143D01*
X6667428Y-13455476D02*
X6667428Y-13322143D01*
X6667428Y-13255476D02*
X6657905Y-13265000D01*
X6667428Y-13274524D01*
X6676952Y-13265000D01*
X6667428Y-13255476D01*
X6667428Y-13274524D01*
X6791238Y-13455476D02*
X6772190Y-13445952D01*
X6762667Y-13426905D01*
X6762667Y-13255476D01*
X6896000Y-13455476D02*
X6876952Y-13445952D01*
X6867428Y-13426905D01*
X6867428Y-13255476D01*
X7124571Y-13455476D02*
X7124571Y-13255476D01*
X7191238Y-13398333D01*
X7257905Y-13255476D01*
X7257905Y-13455476D01*
X7438857Y-13455476D02*
X7438857Y-13350714D01*
X7429333Y-13331667D01*
X7410286Y-13322143D01*
X7372190Y-13322143D01*
X7353143Y-13331667D01*
X7438857Y-13445952D02*
X7419809Y-13455476D01*
X7372190Y-13455476D01*
X7353143Y-13445952D01*
X7343619Y-13426905D01*
X7343619Y-13407857D01*
X7353143Y-13388809D01*
X7372190Y-13379286D01*
X7419809Y-13379286D01*
X7438857Y-13369762D01*
X7534095Y-13322143D02*
X7534095Y-13522143D01*
X7534095Y-13331667D02*
X7553143Y-13322143D01*
X7591238Y-13322143D01*
X7610286Y-13331667D01*
X7619809Y-13341190D01*
X7629333Y-13360238D01*
X7629333Y-13417381D01*
X7619809Y-13436428D01*
X7610286Y-13445952D01*
X7591238Y-13455476D01*
X7553143Y-13455476D01*
X7534095Y-13445952D01*
X7715048Y-13436428D02*
X7724571Y-13445952D01*
X7715048Y-13455476D01*
X7705524Y-13445952D01*
X7715048Y-13436428D01*
X7715048Y-13455476D01*
X7715048Y-13331667D02*
X7724571Y-13341190D01*
X7715048Y-13350714D01*
X7705524Y-13341190D01*
X7715048Y-13331667D01*
X7715048Y-13350714D01*
X5886000Y-13685000D02*
X6086000Y-13885000D01*
X6086000Y-13685000D02*
X5886000Y-13885000D01*
X6324571Y-13675476D02*
X6448381Y-13675476D01*
X6381714Y-13751667D01*
X6410286Y-13751667D01*
X6429333Y-13761190D01*
X6438857Y-13770714D01*
X6448381Y-13789762D01*
X6448381Y-13837381D01*
X6438857Y-13856428D01*
X6429333Y-13865952D01*
X6410286Y-13875476D01*
X6353143Y-13875476D01*
X6334095Y-13865952D01*
X6324571Y-13856428D01*
X6534095Y-13856428D02*
X6543619Y-13865952D01*
X6534095Y-13875476D01*
X6524571Y-13865952D01*
X6534095Y-13856428D01*
X6534095Y-13875476D01*
X6619809Y-13694524D02*
X6629333Y-13685000D01*
X6648381Y-13675476D01*
X6696000Y-13675476D01*
X6715048Y-13685000D01*
X6724571Y-13694524D01*
X6734095Y-13713571D01*
X6734095Y-13732619D01*
X6724571Y-13761190D01*
X6610286Y-13875476D01*
X6734095Y-13875476D01*
X6857905Y-13675476D02*
X6876952Y-13675476D01*
X6896000Y-13685000D01*
X6905524Y-13694524D01*
X6915048Y-13713571D01*
X6924571Y-13751667D01*
X6924571Y-13799286D01*
X6915048Y-13837381D01*
X6905524Y-13856428D01*
X6896000Y-13865952D01*
X6876952Y-13875476D01*
X6857905Y-13875476D01*
X6838857Y-13865952D01*
X6829333Y-13856428D01*
X6819809Y-13837381D01*
X6810286Y-13799286D01*
X6810286Y-13751667D01*
X6819809Y-13713571D01*
X6829333Y-13694524D01*
X6838857Y-13685000D01*
X6857905Y-13675476D01*
X7048381Y-13675476D02*
X7067428Y-13675476D01*
X7086476Y-13685000D01*
X7096000Y-13694524D01*
X7105524Y-13713571D01*
X7115048Y-13751667D01*
X7115048Y-13799286D01*
X7105524Y-13837381D01*
X7096000Y-13856428D01*
X7086476Y-13865952D01*
X7067428Y-13875476D01*
X7048381Y-13875476D01*
X7029333Y-13865952D01*
X7019809Y-13856428D01*
X7010286Y-13837381D01*
X7000762Y-13799286D01*
X7000762Y-13751667D01*
X7010286Y-13713571D01*
X7019809Y-13694524D01*
X7029333Y-13685000D01*
X7048381Y-13675476D01*
X7200762Y-13875476D02*
X7200762Y-13742143D01*
X7200762Y-13761190D02*
X7210286Y-13751667D01*
X7229333Y-13742143D01*
X7257905Y-13742143D01*
X7276952Y-13751667D01*
X7286476Y-13770714D01*
X7286476Y-13875476D01*
X7286476Y-13770714D02*
X7296000Y-13751667D01*
X7315048Y-13742143D01*
X7343619Y-13742143D01*
X7362667Y-13751667D01*
X7372190Y-13770714D01*
X7372190Y-13875476D01*
X7467428Y-13875476D02*
X7467428Y-13742143D01*
X7467428Y-13761190D02*
X7476952Y-13751667D01*
X7496000Y-13742143D01*
X7524571Y-13742143D01*
X7543619Y-13751667D01*
X7553143Y-13770714D01*
X7553143Y-13875476D01*
X7553143Y-13770714D02*
X7562667Y-13751667D01*
X7581714Y-13742143D01*
X7610286Y-13742143D01*
X7629333Y-13751667D01*
X7638857Y-13770714D01*
X7638857Y-13875476D01*
X8029333Y-13665952D02*
X7857905Y-13923095D01*
X8286476Y-13675476D02*
X8305524Y-13675476D01*
X8324571Y-13685000D01*
X8334095Y-13694524D01*
X8343619Y-13713571D01*
X8353143Y-13751667D01*
X8353143Y-13799286D01*
X8343619Y-13837381D01*
X8334095Y-13856428D01*
X8324571Y-13865952D01*
X8305524Y-13875476D01*
X8286476Y-13875476D01*
X8267428Y-13865952D01*
X8257905Y-13856428D01*
X8248381Y-13837381D01*
X8238857Y-13799286D01*
X8238857Y-13751667D01*
X8248381Y-13713571D01*
X8257905Y-13694524D01*
X8267428Y-13685000D01*
X8286476Y-13675476D01*
X8438857Y-13856428D02*
X8448381Y-13865952D01*
X8438857Y-13875476D01*
X8429333Y-13865952D01*
X8438857Y-13856428D01*
X8438857Y-13875476D01*
X8638857Y-13875476D02*
X8524571Y-13875476D01*
X8581714Y-13875476D02*
X8581714Y-13675476D01*
X8562667Y-13704048D01*
X8543619Y-13723095D01*
X8524571Y-13732619D01*
X8715048Y-13694524D02*
X8724571Y-13685000D01*
X8743619Y-13675476D01*
X8791238Y-13675476D01*
X8810286Y-13685000D01*
X8819810Y-13694524D01*
X8829333Y-13713571D01*
X8829333Y-13732619D01*
X8819810Y-13761190D01*
X8705524Y-13875476D01*
X8829333Y-13875476D01*
X9000762Y-13675476D02*
X8962667Y-13675476D01*
X8943619Y-13685000D01*
X8934095Y-13694524D01*
X8915048Y-13723095D01*
X8905524Y-13761190D01*
X8905524Y-13837381D01*
X8915048Y-13856428D01*
X8924571Y-13865952D01*
X8943619Y-13875476D01*
X8981714Y-13875476D01*
X9000762Y-13865952D01*
X9010286Y-13856428D01*
X9019810Y-13837381D01*
X9019810Y-13789762D01*
X9010286Y-13770714D01*
X9000762Y-13761190D01*
X8981714Y-13751667D01*
X8943619Y-13751667D01*
X8924571Y-13761190D01*
X8915048Y-13770714D01*
X8905524Y-13789762D01*
X9143619Y-13675476D02*
X9162667Y-13675476D01*
X9181714Y-13685000D01*
X9191238Y-13694524D01*
X9200762Y-13713571D01*
X9210286Y-13751667D01*
X9210286Y-13799286D01*
X9200762Y-13837381D01*
X9191238Y-13856428D01*
X9181714Y-13865952D01*
X9162667Y-13875476D01*
X9143619Y-13875476D01*
X9124571Y-13865952D01*
X9115048Y-13856428D01*
X9105524Y-13837381D01*
X9096000Y-13799286D01*
X9096000Y-13751667D01*
X9105524Y-13713571D01*
X9115048Y-13694524D01*
X9124571Y-13685000D01*
X9143619Y-13675476D01*
X9286476Y-13675476D02*
X9286476Y-13713571D01*
X9362667Y-13675476D02*
X9362667Y-13713571D01*
X9657905Y-13951667D02*
X9648381Y-13942143D01*
X9629333Y-13913571D01*
X9619810Y-13894524D01*
X9610286Y-13865952D01*
X9600762Y-13818333D01*
X9600762Y-13780238D01*
X9610286Y-13732619D01*
X9619810Y-13704048D01*
X9629333Y-13685000D01*
X9648381Y-13656428D01*
X9657905Y-13646905D01*
X9819810Y-13742143D02*
X9819810Y-13875476D01*
X9772190Y-13665952D02*
X9724571Y-13808809D01*
X9848381Y-13808809D01*
X10076952Y-13875476D02*
X10076952Y-13675476D01*
X10162667Y-13875476D02*
X10162667Y-13770714D01*
X10153143Y-13751667D01*
X10134095Y-13742143D01*
X10105524Y-13742143D01*
X10086476Y-13751667D01*
X10076952Y-13761190D01*
X10286476Y-13875476D02*
X10267429Y-13865952D01*
X10257905Y-13856428D01*
X10248381Y-13837381D01*
X10248381Y-13780238D01*
X10257905Y-13761190D01*
X10267429Y-13751667D01*
X10286476Y-13742143D01*
X10315048Y-13742143D01*
X10334095Y-13751667D01*
X10343619Y-13761190D01*
X10353143Y-13780238D01*
X10353143Y-13837381D01*
X10343619Y-13856428D01*
X10334095Y-13865952D01*
X10315048Y-13875476D01*
X10286476Y-13875476D01*
X10467429Y-13875476D02*
X10448381Y-13865952D01*
X10438857Y-13846905D01*
X10438857Y-13675476D01*
X10619810Y-13865952D02*
X10600762Y-13875476D01*
X10562667Y-13875476D01*
X10543619Y-13865952D01*
X10534095Y-13846905D01*
X10534095Y-13770714D01*
X10543619Y-13751667D01*
X10562667Y-13742143D01*
X10600762Y-13742143D01*
X10619810Y-13751667D01*
X10629333Y-13770714D01*
X10629333Y-13789762D01*
X10534095Y-13808809D01*
X10705524Y-13865952D02*
X10724571Y-13875476D01*
X10762667Y-13875476D01*
X10781714Y-13865952D01*
X10791238Y-13846905D01*
X10791238Y-13837381D01*
X10781714Y-13818333D01*
X10762667Y-13808809D01*
X10734095Y-13808809D01*
X10715048Y-13799286D01*
X10705524Y-13780238D01*
X10705524Y-13770714D01*
X10715048Y-13751667D01*
X10734095Y-13742143D01*
X10762667Y-13742143D01*
X10781714Y-13751667D01*
X10857905Y-13951667D02*
X10867429Y-13942143D01*
X10886476Y-13913571D01*
X10896000Y-13894524D01*
X10905524Y-13865952D01*
X10915048Y-13818333D01*
X10915048Y-13780238D01*
X10905524Y-13732619D01*
X10896000Y-13704048D01*
X10886476Y-13685000D01*
X10867429Y-13656428D01*
X10857905Y-13646905D01*
X11219809Y-13951667D02*
X11210286Y-13942143D01*
X11191238Y-13913571D01*
X11181714Y-13894524D01*
X11172190Y-13865952D01*
X11162667Y-13818333D01*
X11162667Y-13780238D01*
X11172190Y-13732619D01*
X11181714Y-13704048D01*
X11191238Y-13685000D01*
X11210286Y-13656428D01*
X11219809Y-13646905D01*
X11296000Y-13742143D02*
X11296000Y-13875476D01*
X11296000Y-13761190D02*
X11305524Y-13751667D01*
X11324571Y-13742143D01*
X11353143Y-13742143D01*
X11372190Y-13751667D01*
X11381714Y-13770714D01*
X11381714Y-13875476D01*
X11505524Y-13875476D02*
X11486476Y-13865952D01*
X11476952Y-13856428D01*
X11467428Y-13837381D01*
X11467428Y-13780238D01*
X11476952Y-13761190D01*
X11486476Y-13751667D01*
X11505524Y-13742143D01*
X11534095Y-13742143D01*
X11553143Y-13751667D01*
X11562667Y-13761190D01*
X11572190Y-13780238D01*
X11572190Y-13837381D01*
X11562667Y-13856428D01*
X11553143Y-13865952D01*
X11534095Y-13875476D01*
X11505524Y-13875476D01*
X11629333Y-13742143D02*
X11705524Y-13742143D01*
X11657905Y-13675476D02*
X11657905Y-13846905D01*
X11667428Y-13865952D01*
X11686476Y-13875476D01*
X11705524Y-13875476D01*
X11924571Y-13742143D02*
X11924571Y-13942143D01*
X11924571Y-13751667D02*
X11943619Y-13742143D01*
X11981714Y-13742143D01*
X12000762Y-13751667D01*
X12010286Y-13761190D01*
X12019809Y-13780238D01*
X12019809Y-13837381D01*
X12010286Y-13856428D01*
X12000762Y-13865952D01*
X11981714Y-13875476D01*
X11943619Y-13875476D01*
X11924571Y-13865952D01*
X12134095Y-13875476D02*
X12115048Y-13865952D01*
X12105524Y-13846905D01*
X12105524Y-13675476D01*
X12296000Y-13875476D02*
X12296000Y-13770714D01*
X12286476Y-13751667D01*
X12267428Y-13742143D01*
X12229333Y-13742143D01*
X12210286Y-13751667D01*
X12296000Y-13865952D02*
X12276952Y-13875476D01*
X12229333Y-13875476D01*
X12210286Y-13865952D01*
X12200762Y-13846905D01*
X12200762Y-13827857D01*
X12210286Y-13808809D01*
X12229333Y-13799286D01*
X12276952Y-13799286D01*
X12296000Y-13789762D01*
X12362667Y-13742143D02*
X12438857Y-13742143D01*
X12391238Y-13675476D02*
X12391238Y-13846905D01*
X12400762Y-13865952D01*
X12419809Y-13875476D01*
X12438857Y-13875476D01*
X12581714Y-13865952D02*
X12562667Y-13875476D01*
X12524571Y-13875476D01*
X12505524Y-13865952D01*
X12496000Y-13846905D01*
X12496000Y-13770714D01*
X12505524Y-13751667D01*
X12524571Y-13742143D01*
X12562667Y-13742143D01*
X12581714Y-13751667D01*
X12591238Y-13770714D01*
X12591238Y-13789762D01*
X12496000Y-13808809D01*
X12762667Y-13875476D02*
X12762667Y-13675476D01*
X12762667Y-13865952D02*
X12743619Y-13875476D01*
X12705524Y-13875476D01*
X12686476Y-13865952D01*
X12676952Y-13856428D01*
X12667428Y-13837381D01*
X12667428Y-13780238D01*
X12676952Y-13761190D01*
X12686476Y-13751667D01*
X12705524Y-13742143D01*
X12743619Y-13742143D01*
X12762667Y-13751667D01*
X12838857Y-13951667D02*
X12848381Y-13942143D01*
X12867428Y-13913571D01*
X12876952Y-13894524D01*
X12886476Y-13865952D01*
X12896000Y-13818333D01*
X12896000Y-13780238D01*
X12886476Y-13732619D01*
X12876952Y-13704048D01*
X12867428Y-13685000D01*
X12848381Y-13656428D01*
X12838857Y-13646905D01*
M02*
