%TF.GenerationSoftware,KiCad,Pcbnew,(6.0.11)*%
%TF.CreationDate,2024-01-03T20:30:30+00:00*%
%TF.ProjectId,LeWiFiModem,4c655769-4669-44d6-9f64-656d2e6b6963,rev?*%
%TF.SameCoordinates,Original*%
%TF.FileFunction,Copper,L2,Bot*%
%TF.FilePolarity,Positive*%
%FSLAX46Y46*%
G04 Gerber Fmt 4.6, Leading zero omitted, Abs format (unit mm)*
G04 Created by KiCad (PCBNEW (6.0.11)) date 2024-01-03 20:30:30*
%MOMM*%
%LPD*%
G01*
G04 APERTURE LIST*
G04 Aperture macros list*
%AMRoundRect*
0 Rectangle with rounded corners*
0 $1 Rounding radius*
0 $2 $3 $4 $5 $6 $7 $8 $9 X,Y pos of 4 corners*
0 Add a 4 corners polygon primitive as box body*
4,1,4,$2,$3,$4,$5,$6,$7,$8,$9,$2,$3,0*
0 Add four circle primitives for the rounded corners*
1,1,$1+$1,$2,$3*
1,1,$1+$1,$4,$5*
1,1,$1+$1,$6,$7*
1,1,$1+$1,$8,$9*
0 Add four rect primitives between the rounded corners*
20,1,$1+$1,$2,$3,$4,$5,0*
20,1,$1+$1,$4,$5,$6,$7,0*
20,1,$1+$1,$6,$7,$8,$9,0*
20,1,$1+$1,$8,$9,$2,$3,0*%
G04 Aperture macros list end*
%TA.AperFunction,ComponentPad*%
%ADD10R,3.500000X3.500000*%
%TD*%
%TA.AperFunction,ComponentPad*%
%ADD11RoundRect,0.750000X-1.000000X0.750000X-1.000000X-0.750000X1.000000X-0.750000X1.000000X0.750000X0*%
%TD*%
%TA.AperFunction,ComponentPad*%
%ADD12RoundRect,0.875000X-0.875000X0.875000X-0.875000X-0.875000X0.875000X-0.875000X0.875000X0.875000X0*%
%TD*%
%TA.AperFunction,ComponentPad*%
%ADD13R,2.000000X2.000000*%
%TD*%
%TA.AperFunction,ComponentPad*%
%ADD14O,2.000000X1.600000*%
%TD*%
%TA.AperFunction,ComponentPad*%
%ADD15R,1.600000X1.600000*%
%TD*%
%TA.AperFunction,ComponentPad*%
%ADD16C,1.600000*%
%TD*%
%TA.AperFunction,ComponentPad*%
%ADD17R,1.700000X1.700000*%
%TD*%
%TA.AperFunction,ComponentPad*%
%ADD18O,1.700000X1.700000*%
%TD*%
%TA.AperFunction,ComponentPad*%
%ADD19C,4.000000*%
%TD*%
%TA.AperFunction,ViaPad*%
%ADD20C,0.800000*%
%TD*%
%TA.AperFunction,Conductor*%
%ADD21C,0.500000*%
%TD*%
%TA.AperFunction,Conductor*%
%ADD22C,0.250000*%
%TD*%
G04 APERTURE END LIST*
D10*
%TO.P,J2,1*%
%TO.N,+5V*%
X130397500Y-94710000D03*
D11*
%TO.P,J2,2*%
%TO.N,GND*%
X130397500Y-88710000D03*
D12*
%TO.P,J2,3*%
%TO.N,N/C*%
X125697500Y-91710000D03*
%TD*%
D13*
%TO.P,U1,1,~{RST}*%
%TO.N,unconnected-(U1-Pad1)*%
X159995000Y-107130000D03*
D14*
%TO.P,U1,2,A0*%
%TO.N,unconnected-(U1-Pad2)*%
X159995000Y-104590000D03*
%TO.P,U1,3,D0*%
%TO.N,unconnected-(U1-Pad3)*%
X159995000Y-102050000D03*
%TO.P,U1,4,SCK/D5*%
%TO.N,unconnected-(U1-Pad4)*%
X159995000Y-99510000D03*
%TO.P,U1,5,MISO/D6*%
%TO.N,unconnected-(U1-Pad5)*%
X159995000Y-96970000D03*
%TO.P,U1,6,MOSI/D7*%
%TO.N,unconnected-(U1-Pad6)*%
X159995000Y-94430000D03*
%TO.P,U1,7,CS/D8*%
%TO.N,unconnected-(U1-Pad7)*%
X159995000Y-91890000D03*
%TO.P,U1,8,3V3*%
%TO.N,+3.3V*%
X159995000Y-89350000D03*
%TO.P,U1,9,5V*%
%TO.N,+5V*%
X137135000Y-89350000D03*
%TO.P,U1,10,GND*%
%TO.N,GND*%
X137135000Y-91890000D03*
%TO.P,U1,11,D4*%
%TO.N,unconnected-(U1-Pad11)*%
X137135000Y-94430000D03*
%TO.P,U1,12,D3*%
%TO.N,unconnected-(U1-Pad12)*%
X137135000Y-96970000D03*
%TO.P,U1,13,SDA/D2*%
%TO.N,/RTS0*%
X137135000Y-99510000D03*
%TO.P,U1,14,SCL/D1*%
%TO.N,/CTS0*%
X137135000Y-102050000D03*
%TO.P,U1,15,RX*%
%TO.N,/R1OUT*%
X137135000Y-104590000D03*
%TO.P,U1,16,TX*%
%TO.N,/T1IN*%
X137135000Y-107130000D03*
%TD*%
D15*
%TO.P,C6,1*%
%TO.N,+5V*%
X123280000Y-98885113D03*
D16*
%TO.P,C6,2*%
%TO.N,GND*%
X123280000Y-96885113D03*
%TD*%
D17*
%TO.P,J1,1,Pin_1*%
%TO.N,+5V*%
X129122500Y-98930000D03*
D18*
%TO.P,J1,2,Pin_2*%
%TO.N,GND*%
X131662500Y-98930000D03*
%TD*%
D17*
%TO.P,JP2,1,A*%
%TO.N,/CTS1*%
X87950000Y-98670000D03*
D18*
%TO.P,JP2,2,C*%
%TO.N,/CTS{slash}DTR*%
X90490000Y-98670000D03*
%TO.P,JP2,3,B*%
%TO.N,/DTR1*%
X93030000Y-98670000D03*
%TD*%
D17*
%TO.P,JP1,1,A*%
%TO.N,/RTS1*%
X87950000Y-101210000D03*
D18*
%TO.P,JP1,2,C*%
%TO.N,/RTS{slash}DSR*%
X90490000Y-101210000D03*
%TO.P,JP1,3,B*%
%TO.N,/DSR1*%
X93030000Y-101210000D03*
%TD*%
D19*
%TO.P,J3,0*%
%TO.N,N/C*%
X119937500Y-90570331D03*
X72837500Y-90570331D03*
D15*
%TO.P,J3,1,1*%
%TO.N,unconnected-(J3-Pad1)*%
X79767500Y-91990331D03*
D16*
%TO.P,J3,2,2*%
%TO.N,/R1IN*%
X82537500Y-91990331D03*
%TO.P,J3,3,3*%
%TO.N,/T1OUT*%
X85307500Y-91990331D03*
%TO.P,J3,4,4*%
%TO.N,/CTS1*%
X88077500Y-91990331D03*
%TO.P,J3,5,5*%
%TO.N,/RTS1*%
X90847500Y-91990331D03*
%TO.P,J3,6,6*%
%TO.N,/DSR1*%
X93617500Y-91990331D03*
%TO.P,J3,7,7*%
%TO.N,GND*%
X96387500Y-91990331D03*
%TO.P,J3,8,8*%
%TO.N,unconnected-(J3-Pad8)*%
X99157500Y-91990331D03*
%TO.P,J3,9,9*%
%TO.N,unconnected-(J3-Pad9)*%
X101927500Y-91990331D03*
%TO.P,J3,10,10*%
%TO.N,unconnected-(J3-Pad10)*%
X104697500Y-91990331D03*
%TO.P,J3,11,11*%
%TO.N,unconnected-(J3-Pad11)*%
X107467500Y-91990331D03*
%TO.P,J3,12,12*%
%TO.N,unconnected-(J3-Pad12)*%
X110237500Y-91990331D03*
%TO.P,J3,13,13*%
%TO.N,unconnected-(J3-Pad13)*%
X113007500Y-91990331D03*
%TO.P,J3,14,P14*%
%TO.N,unconnected-(J3-Pad14)*%
X81152500Y-89150331D03*
%TO.P,J3,15,P15*%
%TO.N,unconnected-(J3-Pad15)*%
X83922500Y-89150331D03*
%TO.P,J3,16,P16*%
%TO.N,unconnected-(J3-Pad16)*%
X86692500Y-89150331D03*
%TO.P,J3,17,P17*%
%TO.N,unconnected-(J3-Pad17)*%
X89462500Y-89150331D03*
%TO.P,J3,18,P18*%
%TO.N,unconnected-(J3-Pad18)*%
X92232500Y-89150331D03*
%TO.P,J3,19,P19*%
%TO.N,unconnected-(J3-Pad19)*%
X95002500Y-89150331D03*
%TO.P,J3,20,P20*%
%TO.N,/DTR1*%
X97772500Y-89150331D03*
%TO.P,J3,21,P21*%
%TO.N,unconnected-(J3-Pad21)*%
X100542500Y-89150331D03*
%TO.P,J3,22,P22*%
%TO.N,unconnected-(J3-Pad22)*%
X103312500Y-89150331D03*
%TO.P,J3,23,P23*%
%TO.N,unconnected-(J3-Pad23)*%
X106082500Y-89150331D03*
%TO.P,J3,24,P24*%
%TO.N,unconnected-(J3-Pad24)*%
X108852500Y-89150331D03*
%TO.P,J3,25,P25*%
%TO.N,unconnected-(J3-Pad25)*%
X111622500Y-89150331D03*
%TD*%
D20*
%TO.N,+3.3V*%
X112712500Y-100200000D03*
X96390000Y-123990000D03*
%TO.N,GND*%
X114710000Y-103710000D03*
X78200000Y-129880000D03*
%TO.N,/RTS0*%
X112072500Y-109800000D03*
%TO.N,/CTS0*%
X112072500Y-111140000D03*
%TO.N,/R1OUT*%
X87910000Y-129850000D03*
X107079500Y-107616546D03*
%TO.N,/T1IN*%
X97820000Y-129850000D03*
X108055236Y-107399888D03*
%TO.N,/RTS{slash}DSR*%
X103310000Y-109800000D03*
%TO.N,/CTS{slash}DTR*%
X103130000Y-111020000D03*
%TD*%
D21*
%TO.N,+3.3V*%
X124435113Y-100230000D02*
X127475113Y-97190000D01*
D22*
X112712500Y-100200000D02*
X111620000Y-100200000D01*
D21*
X112742500Y-100230000D02*
X124435113Y-100230000D01*
D22*
X100850000Y-123990000D02*
X96390000Y-123990000D01*
X111620000Y-100200000D02*
X111610000Y-100210000D01*
D21*
X134400000Y-95107500D02*
X134400000Y-88380000D01*
D22*
X106280000Y-103000000D02*
X106280000Y-118560000D01*
X106280000Y-118560000D02*
X100850000Y-123990000D01*
D21*
X132317500Y-97190000D02*
X134400000Y-95107500D01*
X127475113Y-97190000D02*
X132317500Y-97190000D01*
X112712500Y-100200000D02*
X112742500Y-100230000D01*
X157260000Y-89350000D02*
X159995000Y-89350000D01*
D22*
X111610000Y-100210000D02*
X109070000Y-100210000D01*
X109070000Y-100210000D02*
X106280000Y-103000000D01*
D21*
X134400000Y-88380000D02*
X136230000Y-86550000D01*
X154460000Y-86550000D02*
X157260000Y-89350000D01*
X136230000Y-86550000D02*
X154460000Y-86550000D01*
D22*
%TO.N,/RTS0*%
X120222500Y-101650000D02*
X133410000Y-101650000D01*
X135550000Y-99510000D02*
X137135000Y-99510000D01*
X112072500Y-109800000D02*
X120222500Y-101650000D01*
X133410000Y-101650000D02*
X135550000Y-99510000D01*
%TO.N,/CTS0*%
X120970000Y-102240000D02*
X136945000Y-102240000D01*
X112072500Y-111137500D02*
X120970000Y-102240000D01*
X112072500Y-111140000D02*
X112072500Y-111137500D01*
X136945000Y-102240000D02*
X137135000Y-102050000D01*
%TO.N,/R1OUT*%
X107004317Y-107691729D02*
X107079500Y-107616546D01*
X107004317Y-118765683D02*
X107004317Y-107691729D01*
X87910000Y-129850000D02*
X92690000Y-125070000D01*
X100700000Y-125070000D02*
X107004317Y-118765683D01*
X92690000Y-125070000D02*
X100700000Y-125070000D01*
%TO.N,/T1IN*%
X108055236Y-119614764D02*
X108055236Y-107399888D01*
X97820000Y-129850000D02*
X108055236Y-119614764D01*
%TO.N,/RTS{slash}DSR*%
X103310000Y-109800000D02*
X99080000Y-109800000D01*
X99080000Y-109800000D02*
X90490000Y-101210000D01*
%TO.N,/CTS1*%
X87950000Y-98670000D02*
X87950000Y-92117831D01*
X87950000Y-92117831D02*
X88077500Y-91990331D01*
%TO.N,/RTS1*%
X89315000Y-93522831D02*
X90847500Y-91990331D01*
X89315000Y-99845000D02*
X89315000Y-93522831D01*
X87950000Y-101210000D02*
X89315000Y-99845000D01*
%TO.N,/DSR1*%
X91829501Y-100117420D02*
X91829501Y-93778330D01*
X91829501Y-93778330D02*
X93617500Y-91990331D01*
X93030000Y-101317919D02*
X91829501Y-100117420D01*
%TO.N,/CTS{slash}DTR*%
X89210000Y-100585690D02*
X90490000Y-99305690D01*
X98140000Y-111020000D02*
X89210000Y-102090000D01*
X103130000Y-111020000D02*
X98140000Y-111020000D01*
X89210000Y-102090000D02*
X89210000Y-100585690D01*
X90490000Y-99305690D02*
X90490000Y-98670000D01*
%TO.N,/DTR1*%
X95020000Y-96680000D02*
X95020000Y-91560000D01*
X93030000Y-98670000D02*
X95020000Y-96680000D01*
X95020000Y-91560000D02*
X97429669Y-89150331D01*
X97429669Y-89150331D02*
X97772500Y-89150331D01*
%TD*%
%TA.AperFunction,Conductor*%
%TO.N,GND*%
G36*
X167510018Y-81230000D02*
G01*
X167524851Y-81232310D01*
X167524855Y-81232310D01*
X167533724Y-81233691D01*
X167548981Y-81231696D01*
X167574302Y-81230953D01*
X167743285Y-81243039D01*
X167761064Y-81245596D01*
X167951392Y-81286999D01*
X167968641Y-81292063D01*
X168151150Y-81360136D01*
X168167502Y-81367604D01*
X168338458Y-81460952D01*
X168353582Y-81470672D01*
X168509514Y-81587402D01*
X168523100Y-81599175D01*
X168660825Y-81736900D01*
X168672598Y-81750486D01*
X168789328Y-81906418D01*
X168799048Y-81921542D01*
X168892396Y-82092498D01*
X168899864Y-82108850D01*
X168967937Y-82291359D01*
X168973001Y-82308607D01*
X169014404Y-82498936D01*
X169016961Y-82516715D01*
X169028540Y-82678601D01*
X169027793Y-82696565D01*
X169027692Y-82704845D01*
X169026309Y-82713724D01*
X169030446Y-82745356D01*
X169031510Y-82761664D01*
X169031592Y-83145223D01*
X169032085Y-85448386D01*
X169012098Y-85516511D01*
X168958452Y-85563015D01*
X168888180Y-85573134D01*
X168823593Y-85543655D01*
X168785196Y-85483937D01*
X168781636Y-85468124D01*
X168757169Y-85313648D01*
X168756653Y-85310387D01*
X168658978Y-84945857D01*
X168523734Y-84593535D01*
X168352403Y-84257280D01*
X168146863Y-83940775D01*
X167909365Y-83647489D01*
X167642511Y-83380635D01*
X167349225Y-83143137D01*
X167032720Y-82937597D01*
X167029786Y-82936102D01*
X167029779Y-82936098D01*
X166699405Y-82767764D01*
X166696465Y-82766266D01*
X166344143Y-82631022D01*
X165979613Y-82533347D01*
X165781647Y-82501992D01*
X165610119Y-82474824D01*
X165610111Y-82474823D01*
X165606871Y-82474310D01*
X165324280Y-82459500D01*
X165135720Y-82459500D01*
X164853129Y-82474310D01*
X164849889Y-82474823D01*
X164849881Y-82474824D01*
X164678353Y-82501992D01*
X164480387Y-82533347D01*
X164115857Y-82631022D01*
X163763535Y-82766266D01*
X163760595Y-82767764D01*
X163430221Y-82936098D01*
X163430214Y-82936102D01*
X163427280Y-82937597D01*
X163110775Y-83143137D01*
X162817489Y-83380635D01*
X162550635Y-83647489D01*
X162313137Y-83940775D01*
X162311335Y-83943550D01*
X162109395Y-84254510D01*
X162109393Y-84254513D01*
X162107597Y-84257279D01*
X162106102Y-84260213D01*
X162106098Y-84260220D01*
X161937764Y-84590595D01*
X161936266Y-84593535D01*
X161801022Y-84945857D01*
X161703347Y-85310387D01*
X161702831Y-85313648D01*
X161653441Y-85625481D01*
X161644310Y-85683129D01*
X161624559Y-86060000D01*
X161644310Y-86436871D01*
X161644823Y-86440111D01*
X161644824Y-86440119D01*
X161654754Y-86502814D01*
X161703347Y-86809613D01*
X161801022Y-87174143D01*
X161936266Y-87526465D01*
X161937764Y-87529405D01*
X162094651Y-87837312D01*
X162107597Y-87862720D01*
X162109393Y-87865486D01*
X162109395Y-87865489D01*
X162175869Y-87967850D01*
X162313137Y-88179225D01*
X162550635Y-88472511D01*
X162817489Y-88739365D01*
X163110775Y-88976863D01*
X163215807Y-89045072D01*
X163284844Y-89089904D01*
X163427280Y-89182403D01*
X163430214Y-89183898D01*
X163430221Y-89183902D01*
X163499260Y-89219079D01*
X163763535Y-89353734D01*
X164115857Y-89488978D01*
X164480387Y-89586653D01*
X164678353Y-89618008D01*
X164849881Y-89645176D01*
X164849889Y-89645177D01*
X164853129Y-89645690D01*
X165135720Y-89660500D01*
X165324280Y-89660500D01*
X165606871Y-89645690D01*
X165610111Y-89645177D01*
X165610119Y-89645176D01*
X165781647Y-89618008D01*
X165979613Y-89586653D01*
X166344143Y-89488978D01*
X166696465Y-89353734D01*
X166960740Y-89219079D01*
X167029779Y-89183902D01*
X167029786Y-89183898D01*
X167032720Y-89182403D01*
X167175157Y-89089904D01*
X167244193Y-89045072D01*
X167349225Y-88976863D01*
X167642511Y-88739365D01*
X167909365Y-88472511D01*
X168146863Y-88179225D01*
X168226589Y-88056457D01*
X168350605Y-87865490D01*
X168350607Y-87865487D01*
X168352403Y-87862721D01*
X168353903Y-87859779D01*
X168522236Y-87529405D01*
X168523734Y-87526465D01*
X168658978Y-87174143D01*
X168756653Y-86809613D01*
X168781898Y-86650224D01*
X168812311Y-86586071D01*
X168872579Y-86548544D01*
X168943568Y-86549558D01*
X169002740Y-86588791D01*
X169031308Y-86653786D01*
X169032347Y-86669907D01*
X169033422Y-91687363D01*
X169036941Y-108116133D01*
X169016954Y-108184258D01*
X168963308Y-108230762D01*
X168911282Y-108242160D01*
X161629840Y-108261852D01*
X161561666Y-108242034D01*
X161515028Y-108188504D01*
X161503500Y-108135852D01*
X161503500Y-106081866D01*
X161496745Y-106019684D01*
X161445615Y-105883295D01*
X161358261Y-105766739D01*
X161241705Y-105679385D01*
X161233296Y-105676233D01*
X161233293Y-105676231D01*
X161217232Y-105670210D01*
X161160467Y-105627569D01*
X161135766Y-105561008D01*
X161150973Y-105491659D01*
X161172365Y-105463133D01*
X161201198Y-105434300D01*
X161332523Y-105246749D01*
X161334846Y-105241767D01*
X161334849Y-105241762D01*
X161426961Y-105044225D01*
X161426961Y-105044224D01*
X161429284Y-105039243D01*
X161488543Y-104818087D01*
X161508498Y-104590000D01*
X161488543Y-104361913D01*
X161429284Y-104140757D01*
X161426961Y-104135775D01*
X161334849Y-103938238D01*
X161334846Y-103938233D01*
X161332523Y-103933251D01*
X161201198Y-103745700D01*
X161039300Y-103583802D01*
X161034792Y-103580645D01*
X161034789Y-103580643D01*
X160956611Y-103525902D01*
X160851749Y-103452477D01*
X160846767Y-103450154D01*
X160846762Y-103450151D01*
X160812543Y-103434195D01*
X160759258Y-103387278D01*
X160739797Y-103319001D01*
X160760339Y-103251041D01*
X160812543Y-103205805D01*
X160846762Y-103189849D01*
X160846767Y-103189846D01*
X160851749Y-103187523D01*
X160956611Y-103114098D01*
X161034789Y-103059357D01*
X161034792Y-103059355D01*
X161039300Y-103056198D01*
X161201198Y-102894300D01*
X161213747Y-102876379D01*
X161277442Y-102785413D01*
X161332523Y-102706749D01*
X161334846Y-102701767D01*
X161334849Y-102701762D01*
X161426961Y-102504225D01*
X161426961Y-102504224D01*
X161429284Y-102499243D01*
X161449644Y-102423261D01*
X161487119Y-102283402D01*
X161487119Y-102283400D01*
X161488543Y-102278087D01*
X161508498Y-102050000D01*
X161488543Y-101821913D01*
X161429284Y-101600757D01*
X161426961Y-101595775D01*
X161334849Y-101398238D01*
X161334846Y-101398233D01*
X161332523Y-101393251D01*
X161248490Y-101273240D01*
X161204357Y-101210211D01*
X161204355Y-101210208D01*
X161201198Y-101205700D01*
X161039300Y-101043802D01*
X161034792Y-101040645D01*
X161034789Y-101040643D01*
X160946553Y-100978860D01*
X160851749Y-100912477D01*
X160846767Y-100910154D01*
X160846762Y-100910151D01*
X160812543Y-100894195D01*
X160759258Y-100847278D01*
X160739797Y-100779001D01*
X160760339Y-100711041D01*
X160812543Y-100665805D01*
X160846762Y-100649849D01*
X160846767Y-100649846D01*
X160851749Y-100647523D01*
X160974614Y-100561492D01*
X161034789Y-100519357D01*
X161034792Y-100519355D01*
X161039300Y-100516198D01*
X161201198Y-100354300D01*
X161332523Y-100166749D01*
X161334846Y-100161767D01*
X161334849Y-100161762D01*
X161426961Y-99964225D01*
X161426961Y-99964224D01*
X161429284Y-99959243D01*
X161442788Y-99908848D01*
X161487119Y-99743402D01*
X161487119Y-99743400D01*
X161488543Y-99738087D01*
X161508498Y-99510000D01*
X161488543Y-99281913D01*
X161463506Y-99188475D01*
X161430707Y-99066067D01*
X161430706Y-99066065D01*
X161429284Y-99060757D01*
X161416164Y-99032620D01*
X161334849Y-98858238D01*
X161334846Y-98858233D01*
X161332523Y-98853251D01*
X161206565Y-98673365D01*
X161204357Y-98670211D01*
X161204355Y-98670208D01*
X161201198Y-98665700D01*
X161039300Y-98503802D01*
X161034792Y-98500645D01*
X161034789Y-98500643D01*
X160951526Y-98442342D01*
X160851749Y-98372477D01*
X160846767Y-98370154D01*
X160846762Y-98370151D01*
X160812543Y-98354195D01*
X160759258Y-98307278D01*
X160739797Y-98239001D01*
X160760339Y-98171041D01*
X160812543Y-98125805D01*
X160846762Y-98109849D01*
X160846767Y-98109846D01*
X160851749Y-98107523D01*
X160959798Y-98031866D01*
X161034789Y-97979357D01*
X161034792Y-97979355D01*
X161039300Y-97976198D01*
X161201198Y-97814300D01*
X161214359Y-97795505D01*
X161279632Y-97702285D01*
X161332523Y-97626749D01*
X161334846Y-97621767D01*
X161334849Y-97621762D01*
X161426961Y-97424225D01*
X161426961Y-97424224D01*
X161429284Y-97419243D01*
X161441931Y-97372046D01*
X161487119Y-97203402D01*
X161487119Y-97203400D01*
X161488543Y-97198087D01*
X161508498Y-96970000D01*
X161488543Y-96741913D01*
X161482689Y-96720065D01*
X161430707Y-96526067D01*
X161430706Y-96526065D01*
X161429284Y-96520757D01*
X161407086Y-96473152D01*
X161334849Y-96318238D01*
X161334846Y-96318233D01*
X161332523Y-96313251D01*
X161233663Y-96172065D01*
X161204357Y-96130211D01*
X161204355Y-96130208D01*
X161201198Y-96125700D01*
X161039300Y-95963802D01*
X161034792Y-95960645D01*
X161034789Y-95960643D01*
X160956611Y-95905902D01*
X160851749Y-95832477D01*
X160846767Y-95830154D01*
X160846762Y-95830151D01*
X160812543Y-95814195D01*
X160759258Y-95767278D01*
X160739797Y-95699001D01*
X160760339Y-95631041D01*
X160812543Y-95585805D01*
X160846762Y-95569849D01*
X160846767Y-95569846D01*
X160851749Y-95567523D01*
X160956611Y-95494098D01*
X161034789Y-95439357D01*
X161034792Y-95439355D01*
X161039300Y-95436198D01*
X161201198Y-95274300D01*
X161332523Y-95086749D01*
X161334846Y-95081767D01*
X161334849Y-95081762D01*
X161426961Y-94884225D01*
X161426961Y-94884224D01*
X161429284Y-94879243D01*
X161452308Y-94793319D01*
X161487119Y-94663402D01*
X161487119Y-94663400D01*
X161488543Y-94658087D01*
X161508498Y-94430000D01*
X161488543Y-94201913D01*
X161429284Y-93980757D01*
X161421724Y-93964544D01*
X161334849Y-93778238D01*
X161334846Y-93778233D01*
X161332523Y-93773251D01*
X161241918Y-93643854D01*
X161204357Y-93590211D01*
X161204355Y-93590208D01*
X161201198Y-93585700D01*
X161039300Y-93423802D01*
X161034792Y-93420645D01*
X161034789Y-93420643D01*
X160886767Y-93316997D01*
X160851749Y-93292477D01*
X160846767Y-93290154D01*
X160846762Y-93290151D01*
X160812543Y-93274195D01*
X160759258Y-93227278D01*
X160739797Y-93159001D01*
X160760339Y-93091041D01*
X160812543Y-93045805D01*
X160846762Y-93029849D01*
X160846767Y-93029846D01*
X160851749Y-93027523D01*
X160956611Y-92954098D01*
X161034789Y-92899357D01*
X161034792Y-92899355D01*
X161039300Y-92896198D01*
X161201198Y-92734300D01*
X161221429Y-92705408D01*
X161292492Y-92603919D01*
X161332523Y-92546749D01*
X161334846Y-92541767D01*
X161334849Y-92541762D01*
X161426961Y-92344225D01*
X161426961Y-92344224D01*
X161429284Y-92339243D01*
X161488543Y-92118087D01*
X161508498Y-91890000D01*
X161488543Y-91661913D01*
X161468202Y-91586000D01*
X161430707Y-91446067D01*
X161430706Y-91446065D01*
X161429284Y-91440757D01*
X161426961Y-91435775D01*
X161334849Y-91238238D01*
X161334846Y-91238233D01*
X161332523Y-91233251D01*
X161259098Y-91128389D01*
X161204357Y-91050211D01*
X161204355Y-91050208D01*
X161201198Y-91045700D01*
X161039300Y-90883802D01*
X161034792Y-90880645D01*
X161034789Y-90880643D01*
X160912906Y-90795300D01*
X160851749Y-90752477D01*
X160846767Y-90750154D01*
X160846762Y-90750151D01*
X160812543Y-90734195D01*
X160759258Y-90687278D01*
X160739797Y-90619001D01*
X160760339Y-90551041D01*
X160812543Y-90505805D01*
X160846762Y-90489849D01*
X160846767Y-90489846D01*
X160851749Y-90487523D01*
X160996684Y-90386038D01*
X161034789Y-90359357D01*
X161034792Y-90359355D01*
X161039300Y-90356198D01*
X161201198Y-90194300D01*
X161230375Y-90152632D01*
X161288967Y-90068953D01*
X161332523Y-90006749D01*
X161334846Y-90001767D01*
X161334849Y-90001762D01*
X161426961Y-89804225D01*
X161426961Y-89804224D01*
X161429284Y-89799243D01*
X161455397Y-89701791D01*
X161487119Y-89583402D01*
X161487119Y-89583400D01*
X161488543Y-89578087D01*
X161508498Y-89350000D01*
X161488543Y-89121913D01*
X161436510Y-88927724D01*
X161430707Y-88906067D01*
X161430706Y-88906065D01*
X161429284Y-88900757D01*
X161426961Y-88895775D01*
X161334849Y-88698238D01*
X161334846Y-88698233D01*
X161332523Y-88693251D01*
X161201198Y-88505700D01*
X161039300Y-88343802D01*
X161034792Y-88340645D01*
X161034789Y-88340643D01*
X160948403Y-88280155D01*
X160851749Y-88212477D01*
X160846767Y-88210154D01*
X160846762Y-88210151D01*
X160649225Y-88118039D01*
X160649224Y-88118039D01*
X160644243Y-88115716D01*
X160638935Y-88114294D01*
X160638933Y-88114293D01*
X160428402Y-88057881D01*
X160428400Y-88057881D01*
X160423087Y-88056457D01*
X160323520Y-88047746D01*
X160254851Y-88041738D01*
X160254844Y-88041738D01*
X160252127Y-88041500D01*
X159737873Y-88041500D01*
X159735156Y-88041738D01*
X159735149Y-88041738D01*
X159666480Y-88047746D01*
X159566913Y-88056457D01*
X159561600Y-88057881D01*
X159561598Y-88057881D01*
X159351067Y-88114293D01*
X159351065Y-88114294D01*
X159345757Y-88115716D01*
X159340776Y-88118039D01*
X159340775Y-88118039D01*
X159143238Y-88210151D01*
X159143233Y-88210154D01*
X159138251Y-88212477D01*
X159041597Y-88280155D01*
X158955211Y-88340643D01*
X158955208Y-88340645D01*
X158950700Y-88343802D01*
X158788802Y-88505700D01*
X158766345Y-88537771D01*
X158710890Y-88582099D01*
X158663133Y-88591500D01*
X157626371Y-88591500D01*
X157558250Y-88571498D01*
X157537276Y-88554595D01*
X155043770Y-86061089D01*
X155031384Y-86046677D01*
X155022851Y-86035082D01*
X155022846Y-86035077D01*
X155018508Y-86029182D01*
X155012930Y-86024443D01*
X155012927Y-86024440D01*
X154978232Y-85994965D01*
X154970716Y-85988035D01*
X154965021Y-85982340D01*
X154948736Y-85969456D01*
X154942749Y-85964719D01*
X154939345Y-85961928D01*
X154889297Y-85919409D01*
X154889295Y-85919408D01*
X154883715Y-85914667D01*
X154877199Y-85911339D01*
X154872150Y-85907972D01*
X154867021Y-85904805D01*
X154861284Y-85900266D01*
X154795125Y-85869345D01*
X154791225Y-85867439D01*
X154726192Y-85834231D01*
X154719084Y-85832492D01*
X154713441Y-85830393D01*
X154707678Y-85828476D01*
X154701050Y-85825378D01*
X154629583Y-85810513D01*
X154625299Y-85809543D01*
X154554390Y-85792192D01*
X154548788Y-85791844D01*
X154548785Y-85791844D01*
X154543236Y-85791500D01*
X154543238Y-85791464D01*
X154539245Y-85791225D01*
X154535053Y-85790851D01*
X154527885Y-85789360D01*
X154464120Y-85791085D01*
X154450479Y-85791454D01*
X154447072Y-85791500D01*
X136297070Y-85791500D01*
X136278120Y-85790067D01*
X136263885Y-85787901D01*
X136263881Y-85787901D01*
X136256651Y-85786801D01*
X136249359Y-85787394D01*
X136249356Y-85787394D01*
X136203982Y-85791085D01*
X136193767Y-85791500D01*
X136185707Y-85791500D01*
X136182073Y-85791924D01*
X136182067Y-85791924D01*
X136169042Y-85793443D01*
X136157480Y-85794791D01*
X136153132Y-85795221D01*
X136080364Y-85801140D01*
X136073403Y-85803395D01*
X136067463Y-85804582D01*
X136061588Y-85805971D01*
X136054319Y-85806818D01*
X135985670Y-85831736D01*
X135981542Y-85833153D01*
X135919064Y-85853393D01*
X135919062Y-85853394D01*
X135912101Y-85855649D01*
X135905846Y-85859445D01*
X135900372Y-85861951D01*
X135894942Y-85864670D01*
X135888063Y-85867167D01*
X135881943Y-85871180D01*
X135881942Y-85871180D01*
X135827024Y-85907186D01*
X135823320Y-85909523D01*
X135760893Y-85947405D01*
X135752516Y-85954803D01*
X135752492Y-85954776D01*
X135749500Y-85957429D01*
X135746267Y-85960132D01*
X135740148Y-85964144D01*
X135710951Y-85994965D01*
X135686872Y-86020383D01*
X135684494Y-86022825D01*
X133911089Y-87796230D01*
X133896677Y-87808616D01*
X133885082Y-87817149D01*
X133885077Y-87817154D01*
X133879182Y-87821492D01*
X133874443Y-87827070D01*
X133874440Y-87827073D01*
X133844965Y-87861768D01*
X133838035Y-87869284D01*
X133832340Y-87874979D01*
X133830060Y-87877861D01*
X133814719Y-87897251D01*
X133811928Y-87900655D01*
X133769409Y-87950703D01*
X133764667Y-87956285D01*
X133761339Y-87962801D01*
X133757972Y-87967850D01*
X133754805Y-87972979D01*
X133750266Y-87978716D01*
X133719345Y-88044875D01*
X133717442Y-88048769D01*
X133684231Y-88113808D01*
X133682492Y-88120916D01*
X133680393Y-88126559D01*
X133678476Y-88132322D01*
X133675378Y-88138950D01*
X133673888Y-88146112D01*
X133673888Y-88146113D01*
X133660514Y-88210412D01*
X133659544Y-88214696D01*
X133642192Y-88285610D01*
X133641500Y-88296764D01*
X133641464Y-88296762D01*
X133641225Y-88300755D01*
X133640851Y-88304947D01*
X133639360Y-88312115D01*
X133639558Y-88319432D01*
X133641454Y-88389521D01*
X133641500Y-88392928D01*
X133641500Y-94741129D01*
X133621498Y-94809250D01*
X133604595Y-94830224D01*
X132871095Y-95563724D01*
X132808783Y-95597750D01*
X132737968Y-95592685D01*
X132681132Y-95550138D01*
X132656321Y-95483618D01*
X132656000Y-95474629D01*
X132656000Y-92911866D01*
X132649245Y-92849684D01*
X132598115Y-92713295D01*
X132510761Y-92596739D01*
X132394205Y-92509385D01*
X132257816Y-92458255D01*
X132195634Y-92451500D01*
X128599366Y-92451500D01*
X128537184Y-92458255D01*
X128400795Y-92509385D01*
X128284239Y-92596739D01*
X128196885Y-92713295D01*
X128193736Y-92721696D01*
X128192519Y-92723918D01*
X128142260Y-92774064D01*
X128072869Y-92789077D01*
X128006377Y-92764191D01*
X127963895Y-92707307D01*
X127956000Y-92663408D01*
X127956000Y-90742636D01*
X127955672Y-90736564D01*
X127953117Y-90689401D01*
X127952881Y-90685043D01*
X127907880Y-90454607D01*
X127824696Y-90235048D01*
X127745621Y-90100536D01*
X127708417Y-90037250D01*
X127708415Y-90037248D01*
X127705709Y-90032644D01*
X127554319Y-89853181D01*
X127374856Y-89701791D01*
X127172452Y-89582804D01*
X127006582Y-89519961D01*
X128139501Y-89519961D01*
X128139709Y-89525071D01*
X128150582Y-89658767D01*
X128152352Y-89669320D01*
X128205467Y-89876185D01*
X128209201Y-89886731D01*
X128298010Y-90080705D01*
X128303546Y-90090412D01*
X128425303Y-90265597D01*
X128432476Y-90274176D01*
X128583324Y-90425024D01*
X128591903Y-90432197D01*
X128767088Y-90553954D01*
X128776795Y-90559490D01*
X128970769Y-90648299D01*
X128981315Y-90652033D01*
X129188179Y-90705147D01*
X129198734Y-90706918D01*
X129332430Y-90717793D01*
X129337536Y-90718000D01*
X130125385Y-90718000D01*
X130140624Y-90713525D01*
X130141829Y-90712135D01*
X130143500Y-90704452D01*
X130143500Y-90699884D01*
X130651500Y-90699884D01*
X130655975Y-90715123D01*
X130657365Y-90716328D01*
X130665048Y-90717999D01*
X131457461Y-90717999D01*
X131462571Y-90717791D01*
X131596267Y-90706918D01*
X131606820Y-90705148D01*
X131813685Y-90652033D01*
X131824231Y-90648299D01*
X132018205Y-90559490D01*
X132027912Y-90553954D01*
X132203097Y-90432197D01*
X132211676Y-90425024D01*
X132362524Y-90274176D01*
X132369697Y-90265597D01*
X132491454Y-90090412D01*
X132496990Y-90080705D01*
X132585799Y-89886731D01*
X132589533Y-89876185D01*
X132642647Y-89669321D01*
X132644418Y-89658766D01*
X132655293Y-89525070D01*
X132655500Y-89519964D01*
X132655500Y-88982115D01*
X132651025Y-88966876D01*
X132649635Y-88965671D01*
X132641952Y-88964000D01*
X130669615Y-88964000D01*
X130654376Y-88968475D01*
X130653171Y-88969865D01*
X130651500Y-88977548D01*
X130651500Y-90699884D01*
X130143500Y-90699884D01*
X130143500Y-88982115D01*
X130139025Y-88966876D01*
X130137635Y-88965671D01*
X130129952Y-88964000D01*
X128157616Y-88964000D01*
X128142377Y-88968475D01*
X128141172Y-88969865D01*
X128139501Y-88977548D01*
X128139501Y-89519961D01*
X127006582Y-89519961D01*
X126952893Y-89499620D01*
X126910351Y-89491312D01*
X126726743Y-89455456D01*
X126722457Y-89454619D01*
X126716727Y-89454309D01*
X126666552Y-89451591D01*
X126666537Y-89451591D01*
X126664864Y-89451500D01*
X124730136Y-89451500D01*
X124728463Y-89451591D01*
X124728448Y-89451591D01*
X124678273Y-89454309D01*
X124672543Y-89454619D01*
X124668257Y-89455456D01*
X124484650Y-89491312D01*
X124442107Y-89499620D01*
X124222548Y-89582804D01*
X124020144Y-89701791D01*
X123840681Y-89853181D01*
X123689291Y-90032644D01*
X123686585Y-90037248D01*
X123686583Y-90037250D01*
X123649379Y-90100536D01*
X123570304Y-90235048D01*
X123487120Y-90454607D01*
X123442119Y-90685043D01*
X123441883Y-90689401D01*
X123439329Y-90736564D01*
X123439000Y-90742636D01*
X123439000Y-92677364D01*
X123439091Y-92679037D01*
X123439091Y-92679052D01*
X123440867Y-92711838D01*
X123442119Y-92734957D01*
X123442956Y-92739243D01*
X123476004Y-92908469D01*
X123487120Y-92965393D01*
X123570304Y-93184952D01*
X123689291Y-93387356D01*
X123840681Y-93566819D01*
X124020144Y-93718209D01*
X124024748Y-93720915D01*
X124024750Y-93720917D01*
X124074978Y-93750444D01*
X124222548Y-93837196D01*
X124442107Y-93920380D01*
X124672543Y-93965381D01*
X124676901Y-93965617D01*
X124728448Y-93968409D01*
X124728463Y-93968409D01*
X124730136Y-93968500D01*
X126664864Y-93968500D01*
X126666537Y-93968409D01*
X126666552Y-93968409D01*
X126718099Y-93965617D01*
X126722457Y-93965381D01*
X126952893Y-93920380D01*
X127172452Y-93837196D01*
X127320022Y-93750444D01*
X127370250Y-93720917D01*
X127370252Y-93720915D01*
X127374856Y-93718209D01*
X127554319Y-93566819D01*
X127705709Y-93387356D01*
X127824696Y-93184952D01*
X127895173Y-92998932D01*
X127938012Y-92942317D01*
X128004660Y-92917849D01*
X128073955Y-92933298D01*
X128123898Y-92983759D01*
X128139000Y-93043573D01*
X128139000Y-96305500D01*
X128118998Y-96373621D01*
X128065342Y-96420114D01*
X128013000Y-96431500D01*
X127542182Y-96431500D01*
X127523234Y-96430067D01*
X127515893Y-96428950D01*
X127508996Y-96427901D01*
X127508994Y-96427901D01*
X127501764Y-96426801D01*
X127494472Y-96427394D01*
X127494469Y-96427394D01*
X127449095Y-96431085D01*
X127438880Y-96431500D01*
X127430820Y-96431500D01*
X127417530Y-96433049D01*
X127402606Y-96434789D01*
X127398231Y-96435222D01*
X127332774Y-96440546D01*
X127332771Y-96440547D01*
X127325476Y-96441140D01*
X127318512Y-96443396D01*
X127312553Y-96444587D01*
X127306698Y-96445971D01*
X127299432Y-96446818D01*
X127230786Y-96471735D01*
X127226658Y-96473152D01*
X127164177Y-96493393D01*
X127164175Y-96493394D01*
X127157214Y-96495649D01*
X127150959Y-96499445D01*
X127145485Y-96501951D01*
X127140055Y-96504670D01*
X127133176Y-96507167D01*
X127072129Y-96547191D01*
X127068440Y-96549518D01*
X127048248Y-96561771D01*
X127010806Y-96584491D01*
X127010801Y-96584495D01*
X127006005Y-96587405D01*
X126997629Y-96594803D01*
X126997606Y-96594777D01*
X126994616Y-96597426D01*
X126991377Y-96600134D01*
X126985261Y-96604144D01*
X126980234Y-96609451D01*
X126980230Y-96609454D01*
X126931985Y-96660383D01*
X126929607Y-96662825D01*
X124803595Y-98788837D01*
X124741283Y-98822863D01*
X124670468Y-98817798D01*
X124613632Y-98775251D01*
X124588821Y-98708731D01*
X124588500Y-98699742D01*
X124588500Y-98036979D01*
X124581745Y-97974797D01*
X124530615Y-97838408D01*
X124490736Y-97785197D01*
X124448645Y-97729035D01*
X124448642Y-97729032D01*
X124443261Y-97721852D01*
X124436081Y-97716471D01*
X124429730Y-97710120D01*
X124431872Y-97707978D01*
X124398436Y-97663267D01*
X124393406Y-97592449D01*
X124411523Y-97551078D01*
X124411182Y-97550881D01*
X124412952Y-97547815D01*
X124413299Y-97547023D01*
X124413929Y-97546124D01*
X124419414Y-97536624D01*
X124511490Y-97339166D01*
X124515236Y-97328874D01*
X124571625Y-97118425D01*
X124573528Y-97107632D01*
X124592517Y-96890588D01*
X124592517Y-96879638D01*
X124573528Y-96662594D01*
X124571625Y-96651801D01*
X124515236Y-96441352D01*
X124511490Y-96431060D01*
X124419414Y-96233602D01*
X124413931Y-96224107D01*
X124377491Y-96172065D01*
X124367012Y-96163689D01*
X124353566Y-96170757D01*
X123369095Y-97155228D01*
X123306783Y-97189254D01*
X123235968Y-97184189D01*
X123190905Y-97155228D01*
X122205713Y-96170036D01*
X122193938Y-96163606D01*
X122181923Y-96172902D01*
X122146069Y-96224107D01*
X122140586Y-96233602D01*
X122048510Y-96431060D01*
X122044764Y-96441352D01*
X121988375Y-96651801D01*
X121986472Y-96662594D01*
X121967483Y-96879638D01*
X121967483Y-96890588D01*
X121986472Y-97107632D01*
X121988375Y-97118425D01*
X122044764Y-97328874D01*
X122048510Y-97339166D01*
X122140586Y-97536624D01*
X122146071Y-97546124D01*
X122146701Y-97547023D01*
X122146856Y-97547483D01*
X122148818Y-97550881D01*
X122148135Y-97551275D01*
X122169388Y-97614297D01*
X122152102Y-97683157D01*
X122129066Y-97708916D01*
X122130270Y-97710120D01*
X122123919Y-97716471D01*
X122116739Y-97721852D01*
X122111358Y-97729032D01*
X122111355Y-97729035D01*
X122069264Y-97785197D01*
X122029385Y-97838408D01*
X121978255Y-97974797D01*
X121971500Y-98036979D01*
X121971500Y-99345500D01*
X121951498Y-99413621D01*
X121897842Y-99460114D01*
X121845500Y-99471500D01*
X113296378Y-99471500D01*
X113228257Y-99451498D01*
X113222317Y-99447436D01*
X113174594Y-99412763D01*
X113174593Y-99412762D01*
X113169252Y-99408882D01*
X113163224Y-99406198D01*
X113163222Y-99406197D01*
X113000819Y-99333891D01*
X113000818Y-99333891D01*
X112994788Y-99331206D01*
X112901387Y-99311353D01*
X112814444Y-99292872D01*
X112814439Y-99292872D01*
X112807987Y-99291500D01*
X112617013Y-99291500D01*
X112610561Y-99292872D01*
X112610556Y-99292872D01*
X112523613Y-99311353D01*
X112430212Y-99331206D01*
X112424182Y-99333891D01*
X112424181Y-99333891D01*
X112261778Y-99406197D01*
X112261776Y-99406198D01*
X112255748Y-99408882D01*
X112101247Y-99521134D01*
X112096832Y-99526037D01*
X112091920Y-99530460D01*
X112090795Y-99529211D01*
X112037486Y-99562051D01*
X112004300Y-99566500D01*
X111698767Y-99566500D01*
X111687584Y-99565973D01*
X111680091Y-99564298D01*
X111672165Y-99564547D01*
X111672164Y-99564547D01*
X111612014Y-99566438D01*
X111608055Y-99566500D01*
X111580144Y-99566500D01*
X111576210Y-99566997D01*
X111576209Y-99566997D01*
X111576144Y-99567005D01*
X111564307Y-99567938D01*
X111532490Y-99568938D01*
X111528029Y-99569078D01*
X111520110Y-99569327D01*
X111512500Y-99571538D01*
X111504671Y-99572778D01*
X111504648Y-99572635D01*
X111477489Y-99576500D01*
X109148767Y-99576500D01*
X109137584Y-99575973D01*
X109130091Y-99574298D01*
X109122165Y-99574547D01*
X109122164Y-99574547D01*
X109062001Y-99576438D01*
X109058043Y-99576500D01*
X109030144Y-99576500D01*
X109026154Y-99577004D01*
X109014320Y-99577936D01*
X108970111Y-99579326D01*
X108962497Y-99581538D01*
X108962492Y-99581539D01*
X108950659Y-99584977D01*
X108931296Y-99588988D01*
X108911203Y-99591526D01*
X108903836Y-99594443D01*
X108903831Y-99594444D01*
X108870092Y-99607802D01*
X108858865Y-99611646D01*
X108816407Y-99623982D01*
X108809581Y-99628019D01*
X108798972Y-99634293D01*
X108781224Y-99642988D01*
X108762383Y-99650448D01*
X108755967Y-99655110D01*
X108755966Y-99655110D01*
X108726613Y-99676436D01*
X108716693Y-99682952D01*
X108685465Y-99701420D01*
X108685462Y-99701422D01*
X108678638Y-99705458D01*
X108664317Y-99719779D01*
X108649284Y-99732619D01*
X108632893Y-99744528D01*
X108614547Y-99766705D01*
X108604702Y-99778605D01*
X108596712Y-99787384D01*
X105887747Y-102496348D01*
X105879461Y-102503888D01*
X105872982Y-102508000D01*
X105867557Y-102513777D01*
X105826357Y-102557651D01*
X105823602Y-102560493D01*
X105803865Y-102580230D01*
X105801385Y-102583427D01*
X105793682Y-102592447D01*
X105763414Y-102624679D01*
X105759595Y-102631625D01*
X105759593Y-102631628D01*
X105753652Y-102642434D01*
X105742801Y-102658953D01*
X105730386Y-102674959D01*
X105727241Y-102682228D01*
X105727238Y-102682232D01*
X105712826Y-102715537D01*
X105707609Y-102726187D01*
X105686305Y-102764940D01*
X105684334Y-102772615D01*
X105684334Y-102772616D01*
X105681267Y-102784562D01*
X105674863Y-102803266D01*
X105666819Y-102821855D01*
X105665580Y-102829678D01*
X105665577Y-102829688D01*
X105659901Y-102865524D01*
X105657495Y-102877144D01*
X105652090Y-102898197D01*
X105646500Y-102919970D01*
X105646500Y-102940224D01*
X105644949Y-102959934D01*
X105641780Y-102979943D01*
X105642526Y-102987835D01*
X105645941Y-103023961D01*
X105646500Y-103035819D01*
X105646500Y-118245406D01*
X105626498Y-118313527D01*
X105609595Y-118334501D01*
X100624500Y-123319595D01*
X100562188Y-123353621D01*
X100535405Y-123356500D01*
X97098200Y-123356500D01*
X97030079Y-123336498D01*
X97010853Y-123320157D01*
X97010580Y-123320460D01*
X97005668Y-123316037D01*
X97001253Y-123311134D01*
X96846752Y-123198882D01*
X96840724Y-123196198D01*
X96840722Y-123196197D01*
X96678319Y-123123891D01*
X96678318Y-123123891D01*
X96672288Y-123121206D01*
X96578887Y-123101353D01*
X96491944Y-123082872D01*
X96491939Y-123082872D01*
X96485487Y-123081500D01*
X96294513Y-123081500D01*
X96288061Y-123082872D01*
X96288056Y-123082872D01*
X96201113Y-123101353D01*
X96107712Y-123121206D01*
X96101682Y-123123891D01*
X96101681Y-123123891D01*
X95939278Y-123196197D01*
X95939276Y-123196198D01*
X95933248Y-123198882D01*
X95778747Y-123311134D01*
X95774326Y-123316044D01*
X95774325Y-123316045D01*
X95714058Y-123382979D01*
X95650960Y-123453056D01*
X95555473Y-123618444D01*
X95496458Y-123800072D01*
X95476496Y-123990000D01*
X95496458Y-124179928D01*
X95526233Y-124271565D01*
X95528261Y-124342531D01*
X95491599Y-124403329D01*
X95427887Y-124434654D01*
X95406400Y-124436500D01*
X92768767Y-124436500D01*
X92757584Y-124435973D01*
X92750091Y-124434298D01*
X92742165Y-124434547D01*
X92742164Y-124434547D01*
X92682001Y-124436438D01*
X92678043Y-124436500D01*
X92650144Y-124436500D01*
X92646154Y-124437004D01*
X92634320Y-124437936D01*
X92590111Y-124439326D01*
X92582497Y-124441538D01*
X92582492Y-124441539D01*
X92570659Y-124444977D01*
X92551296Y-124448988D01*
X92531203Y-124451526D01*
X92523836Y-124454443D01*
X92523831Y-124454444D01*
X92490092Y-124467802D01*
X92478865Y-124471646D01*
X92436407Y-124483982D01*
X92429581Y-124488019D01*
X92418972Y-124494293D01*
X92401224Y-124502988D01*
X92382383Y-124510448D01*
X92375967Y-124515110D01*
X92375966Y-124515110D01*
X92346613Y-124536436D01*
X92336693Y-124542952D01*
X92305465Y-124561420D01*
X92305462Y-124561422D01*
X92298638Y-124565458D01*
X92284317Y-124579779D01*
X92269284Y-124592619D01*
X92252893Y-124604528D01*
X92247842Y-124610634D01*
X92224702Y-124638605D01*
X92216712Y-124647384D01*
X87959500Y-128904595D01*
X87897188Y-128938621D01*
X87870405Y-128941500D01*
X87814513Y-128941500D01*
X87808061Y-128942872D01*
X87808056Y-128942872D01*
X87721113Y-128961353D01*
X87627712Y-128981206D01*
X87621682Y-128983891D01*
X87621681Y-128983891D01*
X87459278Y-129056197D01*
X87459276Y-129056198D01*
X87453248Y-129058882D01*
X87298747Y-129171134D01*
X87170960Y-129313056D01*
X87075473Y-129478444D01*
X87016458Y-129660072D01*
X87015768Y-129666633D01*
X87015768Y-129666635D01*
X87001879Y-129798782D01*
X86996496Y-129850000D01*
X86997186Y-129856565D01*
X87014321Y-130019591D01*
X87016458Y-130039928D01*
X87075473Y-130221556D01*
X87170960Y-130386944D01*
X87298747Y-130528866D01*
X87453248Y-130641118D01*
X87459276Y-130643802D01*
X87459278Y-130643803D01*
X87474080Y-130650393D01*
X87528176Y-130696373D01*
X87548825Y-130764300D01*
X87529473Y-130832609D01*
X87476262Y-130879610D01*
X87422831Y-130891500D01*
X62969367Y-130891500D01*
X62949982Y-130890000D01*
X62935149Y-130887690D01*
X62935145Y-130887690D01*
X62926276Y-130886309D01*
X62911019Y-130888304D01*
X62885698Y-130889047D01*
X62716715Y-130876961D01*
X62698936Y-130874404D01*
X62508607Y-130833001D01*
X62491359Y-130827937D01*
X62308850Y-130759864D01*
X62292498Y-130752396D01*
X62121542Y-130659048D01*
X62106418Y-130649328D01*
X61950486Y-130532598D01*
X61936900Y-130520825D01*
X61799175Y-130383100D01*
X61787402Y-130369514D01*
X61670672Y-130213582D01*
X61660952Y-130198458D01*
X61567604Y-130027502D01*
X61560136Y-130011150D01*
X61492063Y-129828641D01*
X61486999Y-129811392D01*
X61463402Y-129702919D01*
X61445596Y-129621064D01*
X61443038Y-129603278D01*
X61434864Y-129488978D01*
X61431719Y-129445011D01*
X61432805Y-129422245D01*
X61432334Y-129422203D01*
X61432770Y-129417345D01*
X61433576Y-129412552D01*
X61433729Y-129400000D01*
X61429762Y-129372297D01*
X61428490Y-129354464D01*
X61428480Y-129308148D01*
X61427915Y-126671617D01*
X61447902Y-126603493D01*
X61501548Y-126556989D01*
X61571820Y-126546870D01*
X61636407Y-126576349D01*
X61674804Y-126636067D01*
X61678364Y-126651880D01*
X61702830Y-126806352D01*
X61702832Y-126806361D01*
X61703347Y-126809613D01*
X61801022Y-127174143D01*
X61936266Y-127526465D01*
X62107597Y-127862720D01*
X62313137Y-128179225D01*
X62550635Y-128472511D01*
X62817489Y-128739365D01*
X63110775Y-128976863D01*
X63113550Y-128978665D01*
X63417490Y-129176045D01*
X63427280Y-129182403D01*
X63430214Y-129183898D01*
X63430221Y-129183902D01*
X63683700Y-129313056D01*
X63763535Y-129353734D01*
X64115857Y-129488978D01*
X64480387Y-129586653D01*
X64642081Y-129612263D01*
X64849881Y-129645176D01*
X64849889Y-129645177D01*
X64853129Y-129645690D01*
X65135720Y-129660500D01*
X65324280Y-129660500D01*
X65606871Y-129645690D01*
X65610111Y-129645177D01*
X65610119Y-129645176D01*
X65817919Y-129612263D01*
X65979613Y-129586653D01*
X66344143Y-129488978D01*
X66696465Y-129353734D01*
X66776300Y-129313056D01*
X67029779Y-129183902D01*
X67029786Y-129183898D01*
X67032720Y-129182403D01*
X67042511Y-129176045D01*
X67346450Y-128978665D01*
X67349225Y-128976863D01*
X67642511Y-128739365D01*
X67909365Y-128472511D01*
X68146863Y-128179225D01*
X68350606Y-127865489D01*
X68350607Y-127865487D01*
X68352403Y-127862721D01*
X68353903Y-127859779D01*
X68522236Y-127529405D01*
X68523734Y-127526465D01*
X68658978Y-127174143D01*
X68756653Y-126809613D01*
X68815690Y-126436871D01*
X68835441Y-126060000D01*
X68815690Y-125683129D01*
X68813613Y-125670010D01*
X68781333Y-125466210D01*
X68756653Y-125310387D01*
X68658978Y-124945857D01*
X68523734Y-124593535D01*
X68461628Y-124471646D01*
X68353902Y-124260221D01*
X68353898Y-124260214D01*
X68352403Y-124257280D01*
X68146863Y-123940775D01*
X67909365Y-123647489D01*
X67642511Y-123380635D01*
X67349225Y-123143137D01*
X67032720Y-122937597D01*
X67029786Y-122936102D01*
X67029779Y-122936098D01*
X66699405Y-122767764D01*
X66696465Y-122766266D01*
X66344143Y-122631022D01*
X65979613Y-122533347D01*
X65781647Y-122501992D01*
X65610119Y-122474824D01*
X65610111Y-122474823D01*
X65606871Y-122474310D01*
X65324280Y-122459500D01*
X65135720Y-122459500D01*
X64853129Y-122474310D01*
X64849889Y-122474823D01*
X64849881Y-122474824D01*
X64678353Y-122501992D01*
X64480387Y-122533347D01*
X64115857Y-122631022D01*
X63763535Y-122766266D01*
X63760595Y-122767764D01*
X63430221Y-122936098D01*
X63430214Y-122936102D01*
X63427280Y-122937597D01*
X63110775Y-123143137D01*
X62817489Y-123380635D01*
X62550635Y-123647489D01*
X62313137Y-123940775D01*
X62311335Y-123943550D01*
X62109395Y-124254510D01*
X62109393Y-124254513D01*
X62107597Y-124257279D01*
X62106102Y-124260213D01*
X62106098Y-124260220D01*
X61965359Y-124536436D01*
X61936266Y-124593535D01*
X61801022Y-124945857D01*
X61703347Y-125310387D01*
X61678667Y-125466210D01*
X61678103Y-125469772D01*
X61647691Y-125533925D01*
X61587422Y-125571452D01*
X61516433Y-125570438D01*
X61457261Y-125531205D01*
X61428693Y-125466210D01*
X61427654Y-125450088D01*
X61420182Y-90570331D01*
X70324040Y-90570331D01*
X70343859Y-90885351D01*
X70403005Y-91195403D01*
X70429609Y-91277283D01*
X70481163Y-91435947D01*
X70500544Y-91495597D01*
X70502231Y-91499183D01*
X70502233Y-91499187D01*
X70633250Y-91777614D01*
X70633254Y-91777621D01*
X70634938Y-91781200D01*
X70804068Y-92047706D01*
X70806593Y-92050758D01*
X70969846Y-92248096D01*
X71005267Y-92290913D01*
X71235360Y-92506985D01*
X71238562Y-92509312D01*
X71238564Y-92509313D01*
X71254179Y-92520658D01*
X71490721Y-92692515D01*
X71494190Y-92694422D01*
X71494193Y-92694424D01*
X71763150Y-92842285D01*
X71767321Y-92844578D01*
X71770990Y-92846031D01*
X71770995Y-92846033D01*
X72014181Y-92942317D01*
X72060798Y-92960774D01*
X72366525Y-93039271D01*
X72679679Y-93078831D01*
X72995321Y-93078831D01*
X73308475Y-93039271D01*
X73614202Y-92960774D01*
X73660819Y-92942317D01*
X73904005Y-92846033D01*
X73904010Y-92846031D01*
X73907679Y-92844578D01*
X73911850Y-92842285D01*
X73918799Y-92838465D01*
X78459000Y-92838465D01*
X78465755Y-92900647D01*
X78516885Y-93037036D01*
X78604239Y-93153592D01*
X78720795Y-93240946D01*
X78857184Y-93292076D01*
X78919366Y-93298831D01*
X80615634Y-93298831D01*
X80677816Y-93292076D01*
X80814205Y-93240946D01*
X80930761Y-93153592D01*
X81018115Y-93037036D01*
X81069245Y-92900647D01*
X81076000Y-92838465D01*
X81076000Y-92520658D01*
X81096002Y-92452537D01*
X81149658Y-92406044D01*
X81219932Y-92395940D01*
X81284512Y-92425434D01*
X81316195Y-92467408D01*
X81397651Y-92642093D01*
X81397654Y-92642098D01*
X81399977Y-92647080D01*
X81452229Y-92721703D01*
X81499405Y-92789077D01*
X81531302Y-92834631D01*
X81693200Y-92996529D01*
X81697708Y-92999686D01*
X81697711Y-92999688D01*
X81760386Y-93043573D01*
X81880751Y-93127854D01*
X81885733Y-93130177D01*
X81885738Y-93130180D01*
X82082265Y-93221821D01*
X82088257Y-93224615D01*
X82093565Y-93226037D01*
X82093567Y-93226038D01*
X82304098Y-93282450D01*
X82304100Y-93282450D01*
X82309413Y-93283874D01*
X82537500Y-93303829D01*
X82765587Y-93283874D01*
X82770900Y-93282450D01*
X82770902Y-93282450D01*
X82981433Y-93226038D01*
X82981435Y-93226037D01*
X82986743Y-93224615D01*
X82992735Y-93221821D01*
X83189262Y-93130180D01*
X83189267Y-93130177D01*
X83194249Y-93127854D01*
X83314614Y-93043573D01*
X83377289Y-92999688D01*
X83377292Y-92999686D01*
X83381800Y-92996529D01*
X83543698Y-92834631D01*
X83575596Y-92789077D01*
X83622771Y-92721703D01*
X83675023Y-92647080D01*
X83677346Y-92642098D01*
X83677349Y-92642093D01*
X83769461Y-92444556D01*
X83769461Y-92444555D01*
X83771784Y-92439574D01*
X83780769Y-92406044D01*
X83800793Y-92331312D01*
X83837745Y-92270689D01*
X83901606Y-92239668D01*
X83972100Y-92248096D01*
X84026847Y-92293299D01*
X84044207Y-92331312D01*
X84064232Y-92406044D01*
X84073216Y-92439574D01*
X84075539Y-92444555D01*
X84075539Y-92444556D01*
X84167651Y-92642093D01*
X84167654Y-92642098D01*
X84169977Y-92647080D01*
X84222229Y-92721703D01*
X84269405Y-92789077D01*
X84301302Y-92834631D01*
X84463200Y-92996529D01*
X84467708Y-92999686D01*
X84467711Y-92999688D01*
X84530386Y-93043573D01*
X84650751Y-93127854D01*
X84655733Y-93130177D01*
X84655738Y-93130180D01*
X84852265Y-93221821D01*
X84858257Y-93224615D01*
X84863565Y-93226037D01*
X84863567Y-93226038D01*
X85074098Y-93282450D01*
X85074100Y-93282450D01*
X85079413Y-93283874D01*
X85307500Y-93303829D01*
X85535587Y-93283874D01*
X85540900Y-93282450D01*
X85540902Y-93282450D01*
X85751433Y-93226038D01*
X85751435Y-93226037D01*
X85756743Y-93224615D01*
X85762735Y-93221821D01*
X85959262Y-93130180D01*
X85959267Y-93130177D01*
X85964249Y-93127854D01*
X86084614Y-93043573D01*
X86147289Y-92999688D01*
X86147292Y-92999686D01*
X86151800Y-92996529D01*
X86313698Y-92834631D01*
X86345596Y-92789077D01*
X86392771Y-92721703D01*
X86445023Y-92647080D01*
X86447346Y-92642098D01*
X86447349Y-92642093D01*
X86539461Y-92444556D01*
X86539461Y-92444555D01*
X86541784Y-92439574D01*
X86550769Y-92406044D01*
X86570793Y-92331312D01*
X86607745Y-92270689D01*
X86671606Y-92239668D01*
X86742100Y-92248096D01*
X86796847Y-92293299D01*
X86814207Y-92331312D01*
X86834232Y-92406044D01*
X86843216Y-92439574D01*
X86845539Y-92444555D01*
X86845539Y-92444556D01*
X86937651Y-92642093D01*
X86937654Y-92642098D01*
X86939977Y-92647080D01*
X86992229Y-92721703D01*
X87039405Y-92789077D01*
X87071302Y-92834631D01*
X87233200Y-92996529D01*
X87237712Y-92999688D01*
X87262770Y-93017234D01*
X87307099Y-93072691D01*
X87316500Y-93120447D01*
X87316500Y-97185500D01*
X87296498Y-97253621D01*
X87242842Y-97300114D01*
X87190500Y-97311500D01*
X87051866Y-97311500D01*
X86989684Y-97318255D01*
X86853295Y-97369385D01*
X86736739Y-97456739D01*
X86649385Y-97573295D01*
X86598255Y-97709684D01*
X86591500Y-97771866D01*
X86591500Y-99568134D01*
X86598255Y-99630316D01*
X86649385Y-99766705D01*
X86713373Y-99852084D01*
X86722630Y-99864435D01*
X86747478Y-99930941D01*
X86732425Y-100000324D01*
X86722632Y-100015562D01*
X86649385Y-100113295D01*
X86598255Y-100249684D01*
X86591500Y-100311866D01*
X86591500Y-102108134D01*
X86598255Y-102170316D01*
X86649385Y-102306705D01*
X86736739Y-102423261D01*
X86853295Y-102510615D01*
X86989684Y-102561745D01*
X87051866Y-102568500D01*
X88740406Y-102568500D01*
X88808527Y-102588502D01*
X88829501Y-102605405D01*
X97636348Y-111412253D01*
X97643888Y-111420539D01*
X97648000Y-111427018D01*
X97653777Y-111432443D01*
X97697651Y-111473643D01*
X97700493Y-111476398D01*
X97720230Y-111496135D01*
X97723427Y-111498615D01*
X97732447Y-111506318D01*
X97764679Y-111536586D01*
X97771625Y-111540405D01*
X97771628Y-111540407D01*
X97782434Y-111546348D01*
X97798953Y-111557199D01*
X97814959Y-111569614D01*
X97822228Y-111572759D01*
X97822232Y-111572762D01*
X97855537Y-111587174D01*
X97866187Y-111592391D01*
X97904940Y-111613695D01*
X97912615Y-111615666D01*
X97912616Y-111615666D01*
X97924562Y-111618733D01*
X97943267Y-111625137D01*
X97961855Y-111633181D01*
X97969678Y-111634420D01*
X97969688Y-111634423D01*
X98005524Y-111640099D01*
X98017144Y-111642505D01*
X98052289Y-111651528D01*
X98059970Y-111653500D01*
X98080224Y-111653500D01*
X98099934Y-111655051D01*
X98119943Y-111658220D01*
X98127835Y-111657474D01*
X98163961Y-111654059D01*
X98175819Y-111653500D01*
X102421800Y-111653500D01*
X102489921Y-111673502D01*
X102509147Y-111689843D01*
X102509420Y-111689540D01*
X102514332Y-111693963D01*
X102518747Y-111698866D01*
X102673248Y-111811118D01*
X102679276Y-111813802D01*
X102679278Y-111813803D01*
X102841681Y-111886109D01*
X102847712Y-111888794D01*
X102941113Y-111908647D01*
X103028056Y-111927128D01*
X103028061Y-111927128D01*
X103034513Y-111928500D01*
X103225487Y-111928500D01*
X103231939Y-111927128D01*
X103231944Y-111927128D01*
X103318888Y-111908647D01*
X103412288Y-111888794D01*
X103418319Y-111886109D01*
X103580722Y-111813803D01*
X103580724Y-111813802D01*
X103586752Y-111811118D01*
X103741253Y-111698866D01*
X103749650Y-111689540D01*
X103864621Y-111561852D01*
X103864622Y-111561851D01*
X103869040Y-111556944D01*
X103964527Y-111391556D01*
X104023542Y-111209928D01*
X104036569Y-111085988D01*
X104042814Y-111026565D01*
X104043504Y-111020000D01*
X104023542Y-110830072D01*
X103964527Y-110648444D01*
X103933736Y-110595113D01*
X103916999Y-110526121D01*
X103940219Y-110459029D01*
X103949209Y-110447817D01*
X104049040Y-110336944D01*
X104144527Y-110171556D01*
X104203542Y-109989928D01*
X104223504Y-109800000D01*
X104203542Y-109610072D01*
X104144527Y-109428444D01*
X104049040Y-109263056D01*
X103921253Y-109121134D01*
X103766752Y-109008882D01*
X103760724Y-109006198D01*
X103760722Y-109006197D01*
X103598319Y-108933891D01*
X103598318Y-108933891D01*
X103592288Y-108931206D01*
X103498887Y-108911353D01*
X103411944Y-108892872D01*
X103411939Y-108892872D01*
X103405487Y-108891500D01*
X103214513Y-108891500D01*
X103208061Y-108892872D01*
X103208056Y-108892872D01*
X103121113Y-108911353D01*
X103027712Y-108931206D01*
X103021682Y-108933891D01*
X103021681Y-108933891D01*
X102859278Y-109006197D01*
X102859276Y-109006198D01*
X102853248Y-109008882D01*
X102698747Y-109121134D01*
X102694332Y-109126037D01*
X102689420Y-109130460D01*
X102688295Y-109129211D01*
X102634986Y-109162051D01*
X102601800Y-109166500D01*
X99394594Y-109166500D01*
X99326473Y-109146498D01*
X99305499Y-109129595D01*
X92961318Y-102785413D01*
X92927292Y-102723101D01*
X92932357Y-102652286D01*
X92974904Y-102595450D01*
X93041424Y-102570639D01*
X93055024Y-102570403D01*
X93071698Y-102571015D01*
X93086674Y-102571564D01*
X93086678Y-102571564D01*
X93091837Y-102571753D01*
X93096957Y-102571097D01*
X93096959Y-102571097D01*
X93308288Y-102544025D01*
X93308289Y-102544025D01*
X93313416Y-102543368D01*
X93350754Y-102532166D01*
X93522429Y-102480661D01*
X93522434Y-102480659D01*
X93527384Y-102479174D01*
X93727994Y-102380896D01*
X93909860Y-102251173D01*
X94068096Y-102093489D01*
X94198453Y-101912077D01*
X94245642Y-101816598D01*
X94295136Y-101716453D01*
X94295137Y-101716451D01*
X94297430Y-101711811D01*
X94362370Y-101498069D01*
X94391529Y-101276590D01*
X94393156Y-101210000D01*
X94374852Y-100987361D01*
X94320431Y-100770702D01*
X94231354Y-100565840D01*
X94110014Y-100378277D01*
X93959670Y-100213051D01*
X93955619Y-100209852D01*
X93955615Y-100209848D01*
X93788414Y-100077800D01*
X93788410Y-100077798D01*
X93784359Y-100074598D01*
X93743053Y-100051796D01*
X93693084Y-100001364D01*
X93678312Y-99931921D01*
X93703428Y-99865516D01*
X93730780Y-99838909D01*
X93821932Y-99773891D01*
X93909860Y-99711173D01*
X93941216Y-99679927D01*
X94039948Y-99581539D01*
X94068096Y-99553489D01*
X94085542Y-99529211D01*
X94195435Y-99376277D01*
X94198453Y-99372077D01*
X94237599Y-99292872D01*
X94295136Y-99176453D01*
X94295137Y-99176451D01*
X94297430Y-99171811D01*
X94362370Y-98958069D01*
X94391529Y-98736590D01*
X94392731Y-98687386D01*
X94393074Y-98673365D01*
X94393074Y-98673361D01*
X94393156Y-98670000D01*
X94374852Y-98447361D01*
X94346821Y-98335765D01*
X94349625Y-98264823D01*
X94379930Y-98215974D01*
X94874053Y-97721852D01*
X95412253Y-97183652D01*
X95420539Y-97176112D01*
X95427018Y-97172000D01*
X95473644Y-97122348D01*
X95476398Y-97119507D01*
X95496135Y-97099770D01*
X95498615Y-97096573D01*
X95506320Y-97087551D01*
X95531159Y-97061100D01*
X95536586Y-97055321D01*
X95540405Y-97048375D01*
X95540407Y-97048372D01*
X95546348Y-97037566D01*
X95557199Y-97021047D01*
X95564758Y-97011301D01*
X95569614Y-97005041D01*
X95572759Y-96997772D01*
X95572762Y-96997768D01*
X95587174Y-96964463D01*
X95592391Y-96953813D01*
X95613695Y-96915060D01*
X95618733Y-96895437D01*
X95625137Y-96876734D01*
X95630033Y-96865420D01*
X95630033Y-96865419D01*
X95633181Y-96858145D01*
X95634420Y-96850322D01*
X95634423Y-96850312D01*
X95640099Y-96814476D01*
X95642505Y-96802856D01*
X95651528Y-96767711D01*
X95651528Y-96767710D01*
X95653500Y-96760030D01*
X95653500Y-96739776D01*
X95655051Y-96720065D01*
X95656980Y-96707886D01*
X95658220Y-96700057D01*
X95654059Y-96656038D01*
X95653500Y-96644181D01*
X95653500Y-95798101D01*
X122558576Y-95798101D01*
X122565644Y-95811547D01*
X123267188Y-96513091D01*
X123281132Y-96520705D01*
X123282965Y-96520574D01*
X123289580Y-96516323D01*
X123995077Y-95810826D01*
X124001507Y-95799051D01*
X123992211Y-95787036D01*
X123941006Y-95751182D01*
X123931511Y-95745699D01*
X123734053Y-95653623D01*
X123723761Y-95649877D01*
X123513312Y-95593488D01*
X123502519Y-95591585D01*
X123285475Y-95572596D01*
X123274525Y-95572596D01*
X123057481Y-95591585D01*
X123046688Y-95593488D01*
X122836239Y-95649877D01*
X122825947Y-95653623D01*
X122628489Y-95745699D01*
X122618994Y-95751182D01*
X122566952Y-95787622D01*
X122558576Y-95798101D01*
X95653500Y-95798101D01*
X95653500Y-93289060D01*
X95673502Y-93220939D01*
X95727158Y-93174446D01*
X95797432Y-93164342D01*
X95832750Y-93174865D01*
X95933447Y-93221821D01*
X95943739Y-93225567D01*
X96154188Y-93281956D01*
X96164981Y-93283859D01*
X96382025Y-93302848D01*
X96392975Y-93302848D01*
X96610019Y-93283859D01*
X96620812Y-93281956D01*
X96831261Y-93225567D01*
X96841553Y-93221821D01*
X97039011Y-93129745D01*
X97048506Y-93124262D01*
X97100548Y-93087822D01*
X97108924Y-93077343D01*
X97101856Y-93063897D01*
X96117385Y-92079426D01*
X96083359Y-92017114D01*
X96085194Y-91991463D01*
X96751908Y-91991463D01*
X96752039Y-91993296D01*
X96756290Y-91999911D01*
X97461787Y-92705408D01*
X97473562Y-92711838D01*
X97485577Y-92702542D01*
X97521431Y-92651337D01*
X97526914Y-92641842D01*
X97618990Y-92444384D01*
X97622736Y-92434092D01*
X97650534Y-92330346D01*
X97687485Y-92269723D01*
X97751346Y-92238702D01*
X97821840Y-92247130D01*
X97876588Y-92292333D01*
X97893948Y-92330345D01*
X97923216Y-92439574D01*
X97925539Y-92444555D01*
X97925539Y-92444556D01*
X98017651Y-92642093D01*
X98017654Y-92642098D01*
X98019977Y-92647080D01*
X98072229Y-92721703D01*
X98119405Y-92789077D01*
X98151302Y-92834631D01*
X98313200Y-92996529D01*
X98317708Y-92999686D01*
X98317711Y-92999688D01*
X98380386Y-93043573D01*
X98500751Y-93127854D01*
X98505733Y-93130177D01*
X98505738Y-93130180D01*
X98702265Y-93221821D01*
X98708257Y-93224615D01*
X98713565Y-93226037D01*
X98713567Y-93226038D01*
X98924098Y-93282450D01*
X98924100Y-93282450D01*
X98929413Y-93283874D01*
X99157500Y-93303829D01*
X99385587Y-93283874D01*
X99390900Y-93282450D01*
X99390902Y-93282450D01*
X99601433Y-93226038D01*
X99601435Y-93226037D01*
X99606743Y-93224615D01*
X99612735Y-93221821D01*
X99809262Y-93130180D01*
X99809267Y-93130177D01*
X99814249Y-93127854D01*
X99934614Y-93043573D01*
X99997289Y-92999688D01*
X99997292Y-92999686D01*
X100001800Y-92996529D01*
X100163698Y-92834631D01*
X100195596Y-92789077D01*
X100242771Y-92721703D01*
X100295023Y-92647080D01*
X100297346Y-92642098D01*
X100297349Y-92642093D01*
X100389461Y-92444556D01*
X100389461Y-92444555D01*
X100391784Y-92439574D01*
X100400769Y-92406044D01*
X100420793Y-92331312D01*
X100457745Y-92270689D01*
X100521606Y-92239668D01*
X100592100Y-92248096D01*
X100646847Y-92293299D01*
X100664207Y-92331312D01*
X100684232Y-92406044D01*
X100693216Y-92439574D01*
X100695539Y-92444555D01*
X100695539Y-92444556D01*
X100787651Y-92642093D01*
X100787654Y-92642098D01*
X100789977Y-92647080D01*
X100842229Y-92721703D01*
X100889405Y-92789077D01*
X100921302Y-92834631D01*
X101083200Y-92996529D01*
X101087708Y-92999686D01*
X101087711Y-92999688D01*
X101150386Y-93043573D01*
X101270751Y-93127854D01*
X101275733Y-93130177D01*
X101275738Y-93130180D01*
X101472265Y-93221821D01*
X101478257Y-93224615D01*
X101483565Y-93226037D01*
X101483567Y-93226038D01*
X101694098Y-93282450D01*
X101694100Y-93282450D01*
X101699413Y-93283874D01*
X101927500Y-93303829D01*
X102155587Y-93283874D01*
X102160900Y-93282450D01*
X102160902Y-93282450D01*
X102371433Y-93226038D01*
X102371435Y-93226037D01*
X102376743Y-93224615D01*
X102382735Y-93221821D01*
X102579262Y-93130180D01*
X102579267Y-93130177D01*
X102584249Y-93127854D01*
X102704614Y-93043573D01*
X102767289Y-92999688D01*
X102767292Y-92999686D01*
X102771800Y-92996529D01*
X102933698Y-92834631D01*
X102965596Y-92789077D01*
X103012771Y-92721703D01*
X103065023Y-92647080D01*
X103067346Y-92642098D01*
X103067349Y-92642093D01*
X103159461Y-92444556D01*
X103159461Y-92444555D01*
X103161784Y-92439574D01*
X103170769Y-92406044D01*
X103190793Y-92331312D01*
X103227745Y-92270689D01*
X103291606Y-92239668D01*
X103362100Y-92248096D01*
X103416847Y-92293299D01*
X103434207Y-92331312D01*
X103454232Y-92406044D01*
X103463216Y-92439574D01*
X103465539Y-92444555D01*
X103465539Y-92444556D01*
X103557651Y-92642093D01*
X103557654Y-92642098D01*
X103559977Y-92647080D01*
X103612229Y-92721703D01*
X103659405Y-92789077D01*
X103691302Y-92834631D01*
X103853200Y-92996529D01*
X103857708Y-92999686D01*
X103857711Y-92999688D01*
X103920386Y-93043573D01*
X104040751Y-93127854D01*
X104045733Y-93130177D01*
X104045738Y-93130180D01*
X104242265Y-93221821D01*
X104248257Y-93224615D01*
X104253565Y-93226037D01*
X104253567Y-93226038D01*
X104464098Y-93282450D01*
X104464100Y-93282450D01*
X104469413Y-93283874D01*
X104697500Y-93303829D01*
X104925587Y-93283874D01*
X104930900Y-93282450D01*
X104930902Y-93282450D01*
X105141433Y-93226038D01*
X105141435Y-93226037D01*
X105146743Y-93224615D01*
X105152735Y-93221821D01*
X105349262Y-93130180D01*
X105349267Y-93130177D01*
X105354249Y-93127854D01*
X105474614Y-93043573D01*
X105537289Y-92999688D01*
X105537292Y-92999686D01*
X105541800Y-92996529D01*
X105703698Y-92834631D01*
X105735596Y-92789077D01*
X105782771Y-92721703D01*
X105835023Y-92647080D01*
X105837346Y-92642098D01*
X105837349Y-92642093D01*
X105929461Y-92444556D01*
X105929461Y-92444555D01*
X105931784Y-92439574D01*
X105940769Y-92406044D01*
X105960793Y-92331312D01*
X105997745Y-92270689D01*
X106061606Y-92239668D01*
X106132100Y-92248096D01*
X106186847Y-92293299D01*
X106204207Y-92331312D01*
X106224232Y-92406044D01*
X106233216Y-92439574D01*
X106235539Y-92444555D01*
X106235539Y-92444556D01*
X106327651Y-92642093D01*
X106327654Y-92642098D01*
X106329977Y-92647080D01*
X106382229Y-92721703D01*
X106429405Y-92789077D01*
X106461302Y-92834631D01*
X106623200Y-92996529D01*
X106627708Y-92999686D01*
X106627711Y-92999688D01*
X106690386Y-93043573D01*
X106810751Y-93127854D01*
X106815733Y-93130177D01*
X106815738Y-93130180D01*
X107012265Y-93221821D01*
X107018257Y-93224615D01*
X107023565Y-93226037D01*
X107023567Y-93226038D01*
X107234098Y-93282450D01*
X107234100Y-93282450D01*
X107239413Y-93283874D01*
X107467500Y-93303829D01*
X107695587Y-93283874D01*
X107700900Y-93282450D01*
X107700902Y-93282450D01*
X107911433Y-93226038D01*
X107911435Y-93226037D01*
X107916743Y-93224615D01*
X107922735Y-93221821D01*
X108119262Y-93130180D01*
X108119267Y-93130177D01*
X108124249Y-93127854D01*
X108244614Y-93043573D01*
X108307289Y-92999688D01*
X108307292Y-92999686D01*
X108311800Y-92996529D01*
X108473698Y-92834631D01*
X108505596Y-92789077D01*
X108552771Y-92721703D01*
X108605023Y-92647080D01*
X108607346Y-92642098D01*
X108607349Y-92642093D01*
X108699461Y-92444556D01*
X108699461Y-92444555D01*
X108701784Y-92439574D01*
X108710769Y-92406044D01*
X108730793Y-92331312D01*
X108767745Y-92270689D01*
X108831606Y-92239668D01*
X108902100Y-92248096D01*
X108956847Y-92293299D01*
X108974207Y-92331312D01*
X108994232Y-92406044D01*
X109003216Y-92439574D01*
X109005539Y-92444555D01*
X109005539Y-92444556D01*
X109097651Y-92642093D01*
X109097654Y-92642098D01*
X109099977Y-92647080D01*
X109152229Y-92721703D01*
X109199405Y-92789077D01*
X109231302Y-92834631D01*
X109393200Y-92996529D01*
X109397708Y-92999686D01*
X109397711Y-92999688D01*
X109460386Y-93043573D01*
X109580751Y-93127854D01*
X109585733Y-93130177D01*
X109585738Y-93130180D01*
X109782265Y-93221821D01*
X109788257Y-93224615D01*
X109793565Y-93226037D01*
X109793567Y-93226038D01*
X110004098Y-93282450D01*
X110004100Y-93282450D01*
X110009413Y-93283874D01*
X110237500Y-93303829D01*
X110465587Y-93283874D01*
X110470900Y-93282450D01*
X110470902Y-93282450D01*
X110681433Y-93226038D01*
X110681435Y-93226037D01*
X110686743Y-93224615D01*
X110692735Y-93221821D01*
X110889262Y-93130180D01*
X110889267Y-93130177D01*
X110894249Y-93127854D01*
X111014614Y-93043573D01*
X111077289Y-92999688D01*
X111077292Y-92999686D01*
X111081800Y-92996529D01*
X111243698Y-92834631D01*
X111275596Y-92789077D01*
X111322771Y-92721703D01*
X111375023Y-92647080D01*
X111377346Y-92642098D01*
X111377349Y-92642093D01*
X111469461Y-92444556D01*
X111469461Y-92444555D01*
X111471784Y-92439574D01*
X111480769Y-92406044D01*
X111500793Y-92331312D01*
X111537745Y-92270689D01*
X111601606Y-92239668D01*
X111672100Y-92248096D01*
X111726847Y-92293299D01*
X111744207Y-92331312D01*
X111764232Y-92406044D01*
X111773216Y-92439574D01*
X111775539Y-92444555D01*
X111775539Y-92444556D01*
X111867651Y-92642093D01*
X111867654Y-92642098D01*
X111869977Y-92647080D01*
X111922229Y-92721703D01*
X111969405Y-92789077D01*
X112001302Y-92834631D01*
X112163200Y-92996529D01*
X112167708Y-92999686D01*
X112167711Y-92999688D01*
X112230386Y-93043573D01*
X112350751Y-93127854D01*
X112355733Y-93130177D01*
X112355738Y-93130180D01*
X112552265Y-93221821D01*
X112558257Y-93224615D01*
X112563565Y-93226037D01*
X112563567Y-93226038D01*
X112774098Y-93282450D01*
X112774100Y-93282450D01*
X112779413Y-93283874D01*
X113007500Y-93303829D01*
X113235587Y-93283874D01*
X113240900Y-93282450D01*
X113240902Y-93282450D01*
X113451433Y-93226038D01*
X113451435Y-93226037D01*
X113456743Y-93224615D01*
X113462735Y-93221821D01*
X113659262Y-93130180D01*
X113659267Y-93130177D01*
X113664249Y-93127854D01*
X113784614Y-93043573D01*
X113847289Y-92999688D01*
X113847292Y-92999686D01*
X113851800Y-92996529D01*
X114013698Y-92834631D01*
X114045596Y-92789077D01*
X114092771Y-92721703D01*
X114145023Y-92647080D01*
X114147346Y-92642098D01*
X114147349Y-92642093D01*
X114239461Y-92444556D01*
X114239461Y-92444555D01*
X114241784Y-92439574D01*
X114250769Y-92406044D01*
X114299619Y-92223733D01*
X114299619Y-92223731D01*
X114301043Y-92218418D01*
X114320998Y-91990331D01*
X114301043Y-91762244D01*
X114287037Y-91709973D01*
X114243207Y-91546398D01*
X114243206Y-91546395D01*
X114241784Y-91541088D01*
X114227957Y-91511436D01*
X114147349Y-91338569D01*
X114147346Y-91338564D01*
X114145023Y-91333582D01*
X114013698Y-91146031D01*
X113851800Y-90984133D01*
X113847292Y-90980976D01*
X113847289Y-90980974D01*
X113737743Y-90904269D01*
X113664249Y-90852808D01*
X113659267Y-90850485D01*
X113659262Y-90850482D01*
X113461725Y-90758370D01*
X113461724Y-90758370D01*
X113456743Y-90756047D01*
X113451435Y-90754625D01*
X113451433Y-90754624D01*
X113240902Y-90698212D01*
X113240900Y-90698212D01*
X113235587Y-90696788D01*
X113007500Y-90676833D01*
X112779413Y-90696788D01*
X112774100Y-90698212D01*
X112774098Y-90698212D01*
X112563567Y-90754624D01*
X112563565Y-90754625D01*
X112558257Y-90756047D01*
X112553276Y-90758370D01*
X112553275Y-90758370D01*
X112355738Y-90850482D01*
X112355733Y-90850485D01*
X112350751Y-90852808D01*
X112277257Y-90904269D01*
X112167711Y-90980974D01*
X112167708Y-90980976D01*
X112163200Y-90984133D01*
X112001302Y-91146031D01*
X111869977Y-91333582D01*
X111867654Y-91338564D01*
X111867651Y-91338569D01*
X111787043Y-91511436D01*
X111773216Y-91541088D01*
X111771794Y-91546395D01*
X111771793Y-91546398D01*
X111744207Y-91649350D01*
X111707255Y-91709973D01*
X111643394Y-91740994D01*
X111572900Y-91732566D01*
X111518153Y-91687363D01*
X111500793Y-91649350D01*
X111473207Y-91546398D01*
X111473206Y-91546395D01*
X111471784Y-91541088D01*
X111457957Y-91511436D01*
X111377349Y-91338569D01*
X111377346Y-91338564D01*
X111375023Y-91333582D01*
X111243698Y-91146031D01*
X111081800Y-90984133D01*
X111077292Y-90980976D01*
X111077289Y-90980974D01*
X110967743Y-90904269D01*
X110894249Y-90852808D01*
X110889267Y-90850485D01*
X110889262Y-90850482D01*
X110691725Y-90758370D01*
X110691724Y-90758370D01*
X110686743Y-90756047D01*
X110681435Y-90754625D01*
X110681433Y-90754624D01*
X110470902Y-90698212D01*
X110470900Y-90698212D01*
X110465587Y-90696788D01*
X110237500Y-90676833D01*
X110009413Y-90696788D01*
X110004100Y-90698212D01*
X110004098Y-90698212D01*
X109793567Y-90754624D01*
X109793565Y-90754625D01*
X109788257Y-90756047D01*
X109783276Y-90758370D01*
X109783275Y-90758370D01*
X109585738Y-90850482D01*
X109585733Y-90850485D01*
X109580751Y-90852808D01*
X109507257Y-90904269D01*
X109397711Y-90980974D01*
X109397708Y-90980976D01*
X109393200Y-90984133D01*
X109231302Y-91146031D01*
X109099977Y-91333582D01*
X109097654Y-91338564D01*
X109097651Y-91338569D01*
X109017043Y-91511436D01*
X109003216Y-91541088D01*
X109001794Y-91546395D01*
X109001793Y-91546398D01*
X108974207Y-91649350D01*
X108937255Y-91709973D01*
X108873394Y-91740994D01*
X108802900Y-91732566D01*
X108748153Y-91687363D01*
X108730793Y-91649350D01*
X108703207Y-91546398D01*
X108703206Y-91546395D01*
X108701784Y-91541088D01*
X108687957Y-91511436D01*
X108607349Y-91338569D01*
X108607346Y-91338564D01*
X108605023Y-91333582D01*
X108473698Y-91146031D01*
X108311800Y-90984133D01*
X108307292Y-90980976D01*
X108307289Y-90980974D01*
X108197743Y-90904269D01*
X108124249Y-90852808D01*
X108119267Y-90850485D01*
X108119262Y-90850482D01*
X107921725Y-90758370D01*
X107921724Y-90758370D01*
X107916743Y-90756047D01*
X107911435Y-90754625D01*
X107911433Y-90754624D01*
X107700902Y-90698212D01*
X107700900Y-90698212D01*
X107695587Y-90696788D01*
X107467500Y-90676833D01*
X107239413Y-90696788D01*
X107234100Y-90698212D01*
X107234098Y-90698212D01*
X107023567Y-90754624D01*
X107023565Y-90754625D01*
X107018257Y-90756047D01*
X107013276Y-90758370D01*
X107013275Y-90758370D01*
X106815738Y-90850482D01*
X106815733Y-90850485D01*
X106810751Y-90852808D01*
X106737257Y-90904269D01*
X106627711Y-90980974D01*
X106627708Y-90980976D01*
X106623200Y-90984133D01*
X106461302Y-91146031D01*
X106329977Y-91333582D01*
X106327654Y-91338564D01*
X106327651Y-91338569D01*
X106247043Y-91511436D01*
X106233216Y-91541088D01*
X106231794Y-91546395D01*
X106231793Y-91546398D01*
X106204207Y-91649350D01*
X106167255Y-91709973D01*
X106103394Y-91740994D01*
X106032900Y-91732566D01*
X105978153Y-91687363D01*
X105960793Y-91649350D01*
X105933207Y-91546398D01*
X105933206Y-91546395D01*
X105931784Y-91541088D01*
X105917957Y-91511436D01*
X105837349Y-91338569D01*
X105837346Y-91338564D01*
X105835023Y-91333582D01*
X105703698Y-91146031D01*
X105541800Y-90984133D01*
X105537292Y-90980976D01*
X105537289Y-90980974D01*
X105427743Y-90904269D01*
X105354249Y-90852808D01*
X105349267Y-90850485D01*
X105349262Y-90850482D01*
X105151725Y-90758370D01*
X105151724Y-90758370D01*
X105146743Y-90756047D01*
X105141435Y-90754625D01*
X105141433Y-90754624D01*
X104930902Y-90698212D01*
X104930900Y-90698212D01*
X104925587Y-90696788D01*
X104697500Y-90676833D01*
X104469413Y-90696788D01*
X104464100Y-90698212D01*
X104464098Y-90698212D01*
X104253567Y-90754624D01*
X104253565Y-90754625D01*
X104248257Y-90756047D01*
X104243276Y-90758370D01*
X104243275Y-90758370D01*
X104045738Y-90850482D01*
X104045733Y-90850485D01*
X104040751Y-90852808D01*
X103967257Y-90904269D01*
X103857711Y-90980974D01*
X103857708Y-90980976D01*
X103853200Y-90984133D01*
X103691302Y-91146031D01*
X103559977Y-91333582D01*
X103557654Y-91338564D01*
X103557651Y-91338569D01*
X103477043Y-91511436D01*
X103463216Y-91541088D01*
X103461794Y-91546395D01*
X103461793Y-91546398D01*
X103434207Y-91649350D01*
X103397255Y-91709973D01*
X103333394Y-91740994D01*
X103262900Y-91732566D01*
X103208153Y-91687363D01*
X103190793Y-91649350D01*
X103163207Y-91546398D01*
X103163206Y-91546395D01*
X103161784Y-91541088D01*
X103147957Y-91511436D01*
X103067349Y-91338569D01*
X103067346Y-91338564D01*
X103065023Y-91333582D01*
X102933698Y-91146031D01*
X102771800Y-90984133D01*
X102767292Y-90980976D01*
X102767289Y-90980974D01*
X102657743Y-90904269D01*
X102584249Y-90852808D01*
X102579267Y-90850485D01*
X102579262Y-90850482D01*
X102381725Y-90758370D01*
X102381724Y-90758370D01*
X102376743Y-90756047D01*
X102371435Y-90754625D01*
X102371433Y-90754624D01*
X102160902Y-90698212D01*
X102160900Y-90698212D01*
X102155587Y-90696788D01*
X101927500Y-90676833D01*
X101699413Y-90696788D01*
X101694100Y-90698212D01*
X101694098Y-90698212D01*
X101483567Y-90754624D01*
X101483565Y-90754625D01*
X101478257Y-90756047D01*
X101473276Y-90758370D01*
X101473275Y-90758370D01*
X101275738Y-90850482D01*
X101275733Y-90850485D01*
X101270751Y-90852808D01*
X101197257Y-90904269D01*
X101087711Y-90980974D01*
X101087708Y-90980976D01*
X101083200Y-90984133D01*
X100921302Y-91146031D01*
X100789977Y-91333582D01*
X100787654Y-91338564D01*
X100787651Y-91338569D01*
X100707043Y-91511436D01*
X100693216Y-91541088D01*
X100691794Y-91546395D01*
X100691793Y-91546398D01*
X100664207Y-91649350D01*
X100627255Y-91709973D01*
X100563394Y-91740994D01*
X100492900Y-91732566D01*
X100438153Y-91687363D01*
X100420793Y-91649350D01*
X100393207Y-91546398D01*
X100393206Y-91546395D01*
X100391784Y-91541088D01*
X100377957Y-91511436D01*
X100297349Y-91338569D01*
X100297346Y-91338564D01*
X100295023Y-91333582D01*
X100163698Y-91146031D01*
X100001800Y-90984133D01*
X99997292Y-90980976D01*
X99997289Y-90980974D01*
X99887743Y-90904269D01*
X99814249Y-90852808D01*
X99809267Y-90850485D01*
X99809262Y-90850482D01*
X99611725Y-90758370D01*
X99611724Y-90758370D01*
X99606743Y-90756047D01*
X99601435Y-90754625D01*
X99601433Y-90754624D01*
X99390902Y-90698212D01*
X99390900Y-90698212D01*
X99385587Y-90696788D01*
X99157500Y-90676833D01*
X98929413Y-90696788D01*
X98924100Y-90698212D01*
X98924098Y-90698212D01*
X98713567Y-90754624D01*
X98713565Y-90754625D01*
X98708257Y-90756047D01*
X98703276Y-90758370D01*
X98703275Y-90758370D01*
X98505738Y-90850482D01*
X98505733Y-90850485D01*
X98500751Y-90852808D01*
X98427257Y-90904269D01*
X98317711Y-90980974D01*
X98317708Y-90980976D01*
X98313200Y-90984133D01*
X98151302Y-91146031D01*
X98019977Y-91333582D01*
X98017654Y-91338564D01*
X98017651Y-91338569D01*
X97937043Y-91511436D01*
X97923216Y-91541088D01*
X97921794Y-91546395D01*
X97893948Y-91650317D01*
X97856996Y-91710939D01*
X97793135Y-91741961D01*
X97722641Y-91733532D01*
X97667894Y-91688329D01*
X97650534Y-91650316D01*
X97622736Y-91546570D01*
X97618990Y-91536278D01*
X97526914Y-91338820D01*
X97521431Y-91329325D01*
X97484991Y-91277283D01*
X97474512Y-91268907D01*
X97461066Y-91275975D01*
X96759522Y-91977519D01*
X96751908Y-91991463D01*
X96085194Y-91991463D01*
X96088424Y-91946299D01*
X96117385Y-91901236D01*
X97102577Y-90916044D01*
X97109007Y-90904269D01*
X97099711Y-90892254D01*
X97048506Y-90856400D01*
X97039011Y-90850917D01*
X96919739Y-90795300D01*
X96866454Y-90748383D01*
X96846993Y-90680105D01*
X96867535Y-90612145D01*
X96883894Y-90592010D01*
X96905573Y-90570331D01*
X117424040Y-90570331D01*
X117443859Y-90885351D01*
X117503005Y-91195403D01*
X117529609Y-91277283D01*
X117581163Y-91435947D01*
X117600544Y-91495597D01*
X117602231Y-91499183D01*
X117602233Y-91499187D01*
X117733250Y-91777614D01*
X117733254Y-91777621D01*
X117734938Y-91781200D01*
X117904068Y-92047706D01*
X117906593Y-92050758D01*
X118069846Y-92248096D01*
X118105267Y-92290913D01*
X118335360Y-92506985D01*
X118338562Y-92509312D01*
X118338564Y-92509313D01*
X118354179Y-92520658D01*
X118590721Y-92692515D01*
X118594190Y-92694422D01*
X118594193Y-92694424D01*
X118863150Y-92842285D01*
X118867321Y-92844578D01*
X118870990Y-92846031D01*
X118870995Y-92846033D01*
X119114181Y-92942317D01*
X119160798Y-92960774D01*
X119466525Y-93039271D01*
X119779679Y-93078831D01*
X120095321Y-93078831D01*
X120408475Y-93039271D01*
X120714202Y-92960774D01*
X120760819Y-92942317D01*
X121004005Y-92846033D01*
X121004010Y-92846031D01*
X121007679Y-92844578D01*
X121011850Y-92842285D01*
X121280807Y-92694424D01*
X121280810Y-92694422D01*
X121284279Y-92692515D01*
X121520821Y-92520658D01*
X121536436Y-92509313D01*
X121536438Y-92509312D01*
X121539640Y-92506985D01*
X121769733Y-92290913D01*
X121805155Y-92248096D01*
X121968407Y-92050758D01*
X121970932Y-92047706D01*
X122140062Y-91781200D01*
X122141746Y-91777621D01*
X122141750Y-91777614D01*
X122272767Y-91499187D01*
X122272769Y-91499183D01*
X122274456Y-91495597D01*
X122293838Y-91435947D01*
X122345391Y-91277283D01*
X122371995Y-91195403D01*
X122431141Y-90885351D01*
X122450960Y-90570331D01*
X122431141Y-90255311D01*
X122371995Y-89945259D01*
X122274456Y-89645065D01*
X122250551Y-89594264D01*
X122141750Y-89363048D01*
X122141746Y-89363041D01*
X122140062Y-89359462D01*
X121970932Y-89092956D01*
X121825309Y-88916929D01*
X121772258Y-88852801D01*
X121772257Y-88852800D01*
X121769733Y-88849749D01*
X121539640Y-88633677D01*
X121284279Y-88448147D01*
X121265613Y-88437885D01*
X128139500Y-88437885D01*
X128143975Y-88453124D01*
X128145365Y-88454329D01*
X128153048Y-88456000D01*
X130125385Y-88456000D01*
X130140624Y-88451525D01*
X130141829Y-88450135D01*
X130143500Y-88442452D01*
X130143500Y-88437885D01*
X130651500Y-88437885D01*
X130655975Y-88453124D01*
X130657365Y-88454329D01*
X130665048Y-88456000D01*
X132637384Y-88456000D01*
X132652623Y-88451525D01*
X132653828Y-88450135D01*
X132655499Y-88442452D01*
X132655499Y-87900039D01*
X132655291Y-87894929D01*
X132644418Y-87761233D01*
X132642648Y-87750680D01*
X132589533Y-87543815D01*
X132585799Y-87533269D01*
X132496990Y-87339295D01*
X132491454Y-87329588D01*
X132369697Y-87154403D01*
X132362524Y-87145824D01*
X132211676Y-86994976D01*
X132203097Y-86987803D01*
X132027912Y-86866046D01*
X132018205Y-86860510D01*
X131824231Y-86771701D01*
X131813685Y-86767967D01*
X131606821Y-86714853D01*
X131596266Y-86713082D01*
X131462570Y-86702207D01*
X131457464Y-86702000D01*
X130669615Y-86702000D01*
X130654376Y-86706475D01*
X130653171Y-86707865D01*
X130651500Y-86715548D01*
X130651500Y-88437885D01*
X130143500Y-88437885D01*
X130143500Y-86720116D01*
X130139025Y-86704877D01*
X130137635Y-86703672D01*
X130129952Y-86702001D01*
X129337539Y-86702001D01*
X129332429Y-86702209D01*
X129198733Y-86713082D01*
X129188180Y-86714852D01*
X128981315Y-86767967D01*
X128970769Y-86771701D01*
X128776795Y-86860510D01*
X128767088Y-86866046D01*
X128591903Y-86987803D01*
X128583324Y-86994976D01*
X128432476Y-87145824D01*
X128425303Y-87154403D01*
X128303546Y-87329588D01*
X128298010Y-87339295D01*
X128209201Y-87533269D01*
X128205467Y-87543815D01*
X128152353Y-87750679D01*
X128150582Y-87761234D01*
X128139707Y-87894930D01*
X128139500Y-87900036D01*
X128139500Y-88437885D01*
X121265613Y-88437885D01*
X121177640Y-88389521D01*
X121011148Y-88297991D01*
X121011147Y-88297990D01*
X121007679Y-88296084D01*
X121004010Y-88294631D01*
X121004005Y-88294629D01*
X120717872Y-88181341D01*
X120717871Y-88181341D01*
X120714202Y-88179888D01*
X120408475Y-88101391D01*
X120095321Y-88061831D01*
X119779679Y-88061831D01*
X119466525Y-88101391D01*
X119160798Y-88179888D01*
X119157129Y-88181341D01*
X119157128Y-88181341D01*
X118870995Y-88294629D01*
X118870990Y-88294631D01*
X118867321Y-88296084D01*
X118863853Y-88297990D01*
X118863852Y-88297991D01*
X118697361Y-88389521D01*
X118590721Y-88448147D01*
X118335360Y-88633677D01*
X118105267Y-88849749D01*
X118102743Y-88852800D01*
X118102742Y-88852801D01*
X118049691Y-88916929D01*
X117904068Y-89092956D01*
X117734938Y-89359462D01*
X117733254Y-89363041D01*
X117733250Y-89363048D01*
X117624449Y-89594264D01*
X117600544Y-89645065D01*
X117503005Y-89945259D01*
X117443859Y-90255311D01*
X117424040Y-90570331D01*
X96905573Y-90570331D01*
X97102672Y-90373232D01*
X97164984Y-90339206D01*
X97235799Y-90344271D01*
X97245016Y-90348132D01*
X97318270Y-90382290D01*
X97318275Y-90382292D01*
X97323257Y-90384615D01*
X97328565Y-90386037D01*
X97328567Y-90386038D01*
X97539098Y-90442450D01*
X97539100Y-90442450D01*
X97544413Y-90443874D01*
X97772500Y-90463829D01*
X98000587Y-90443874D01*
X98005900Y-90442450D01*
X98005902Y-90442450D01*
X98216433Y-90386038D01*
X98216435Y-90386037D01*
X98221743Y-90384615D01*
X98246154Y-90373232D01*
X98424262Y-90290180D01*
X98424267Y-90290177D01*
X98429249Y-90287854D01*
X98569300Y-90189789D01*
X98612289Y-90159688D01*
X98612292Y-90159686D01*
X98616800Y-90156529D01*
X98778698Y-89994631D01*
X98820256Y-89935281D01*
X98841434Y-89905035D01*
X98910023Y-89807080D01*
X98912346Y-89802098D01*
X98912349Y-89802093D01*
X99004461Y-89604556D01*
X99004461Y-89604555D01*
X99006784Y-89599574D01*
X99012542Y-89578087D01*
X99035793Y-89491312D01*
X99072745Y-89430689D01*
X99136606Y-89399668D01*
X99207100Y-89408096D01*
X99261847Y-89453299D01*
X99279207Y-89491312D01*
X99302459Y-89578087D01*
X99308216Y-89599574D01*
X99310539Y-89604555D01*
X99310539Y-89604556D01*
X99402651Y-89802093D01*
X99402654Y-89802098D01*
X99404977Y-89807080D01*
X99473566Y-89905035D01*
X99494745Y-89935281D01*
X99536302Y-89994631D01*
X99698200Y-90156529D01*
X99702708Y-90159686D01*
X99702711Y-90159688D01*
X99745700Y-90189789D01*
X99885751Y-90287854D01*
X99890733Y-90290177D01*
X99890738Y-90290180D01*
X100068846Y-90373232D01*
X100093257Y-90384615D01*
X100098565Y-90386037D01*
X100098567Y-90386038D01*
X100309098Y-90442450D01*
X100309100Y-90442450D01*
X100314413Y-90443874D01*
X100542500Y-90463829D01*
X100770587Y-90443874D01*
X100775900Y-90442450D01*
X100775902Y-90442450D01*
X100986433Y-90386038D01*
X100986435Y-90386037D01*
X100991743Y-90384615D01*
X101016154Y-90373232D01*
X101194262Y-90290180D01*
X101194267Y-90290177D01*
X101199249Y-90287854D01*
X101339300Y-90189789D01*
X101382289Y-90159688D01*
X101382292Y-90159686D01*
X101386800Y-90156529D01*
X101548698Y-89994631D01*
X101590256Y-89935281D01*
X101611434Y-89905035D01*
X101680023Y-89807080D01*
X101682346Y-89802098D01*
X101682349Y-89802093D01*
X101774461Y-89604556D01*
X101774461Y-89604555D01*
X101776784Y-89599574D01*
X101782542Y-89578087D01*
X101805793Y-89491312D01*
X101842745Y-89430689D01*
X101906606Y-89399668D01*
X101977100Y-89408096D01*
X102031847Y-89453299D01*
X102049207Y-89491312D01*
X102072459Y-89578087D01*
X102078216Y-89599574D01*
X102080539Y-89604555D01*
X102080539Y-89604556D01*
X102172651Y-89802093D01*
X102172654Y-89802098D01*
X102174977Y-89807080D01*
X102243566Y-89905035D01*
X102264745Y-89935281D01*
X102306302Y-89994631D01*
X102468200Y-90156529D01*
X102472708Y-90159686D01*
X102472711Y-90159688D01*
X102515700Y-90189789D01*
X102655751Y-90287854D01*
X102660733Y-90290177D01*
X102660738Y-90290180D01*
X102838846Y-90373232D01*
X102863257Y-90384615D01*
X102868565Y-90386037D01*
X102868567Y-90386038D01*
X103079098Y-90442450D01*
X103079100Y-90442450D01*
X103084413Y-90443874D01*
X103312500Y-90463829D01*
X103540587Y-90443874D01*
X103545900Y-90442450D01*
X103545902Y-90442450D01*
X103756433Y-90386038D01*
X103756435Y-90386037D01*
X103761743Y-90384615D01*
X103786154Y-90373232D01*
X103964262Y-90290180D01*
X103964267Y-90290177D01*
X103969249Y-90287854D01*
X104109300Y-90189789D01*
X104152289Y-90159688D01*
X104152292Y-90159686D01*
X104156800Y-90156529D01*
X104318698Y-89994631D01*
X104360256Y-89935281D01*
X104381434Y-89905035D01*
X104450023Y-89807080D01*
X104452346Y-89802098D01*
X104452349Y-89802093D01*
X104544461Y-89604556D01*
X104544461Y-89604555D01*
X104546784Y-89599574D01*
X104552542Y-89578087D01*
X104575793Y-89491312D01*
X104612745Y-89430689D01*
X104676606Y-89399668D01*
X104747100Y-89408096D01*
X104801847Y-89453299D01*
X104819207Y-89491312D01*
X104842459Y-89578087D01*
X104848216Y-89599574D01*
X104850539Y-89604555D01*
X104850539Y-89604556D01*
X104942651Y-89802093D01*
X104942654Y-89802098D01*
X104944977Y-89807080D01*
X105013566Y-89905035D01*
X105034745Y-89935281D01*
X105076302Y-89994631D01*
X105238200Y-90156529D01*
X105242708Y-90159686D01*
X105242711Y-90159688D01*
X105285700Y-90189789D01*
X105425751Y-90287854D01*
X105430733Y-90290177D01*
X105430738Y-90290180D01*
X105608846Y-90373232D01*
X105633257Y-90384615D01*
X105638565Y-90386037D01*
X105638567Y-90386038D01*
X105849098Y-90442450D01*
X105849100Y-90442450D01*
X105854413Y-90443874D01*
X106082500Y-90463829D01*
X106310587Y-90443874D01*
X106315900Y-90442450D01*
X106315902Y-90442450D01*
X106526433Y-90386038D01*
X106526435Y-90386037D01*
X106531743Y-90384615D01*
X106556154Y-90373232D01*
X106734262Y-90290180D01*
X106734267Y-90290177D01*
X106739249Y-90287854D01*
X106879300Y-90189789D01*
X106922289Y-90159688D01*
X106922292Y-90159686D01*
X106926800Y-90156529D01*
X107088698Y-89994631D01*
X107130256Y-89935281D01*
X107151434Y-89905035D01*
X107220023Y-89807080D01*
X107222346Y-89802098D01*
X107222349Y-89802093D01*
X107314461Y-89604556D01*
X107314461Y-89604555D01*
X107316784Y-89599574D01*
X107322542Y-89578087D01*
X107345793Y-89491312D01*
X107382745Y-89430689D01*
X107446606Y-89399668D01*
X107517100Y-89408096D01*
X107571847Y-89453299D01*
X107589207Y-89491312D01*
X107612459Y-89578087D01*
X107618216Y-89599574D01*
X107620539Y-89604555D01*
X107620539Y-89604556D01*
X107712651Y-89802093D01*
X107712654Y-89802098D01*
X107714977Y-89807080D01*
X107783566Y-89905035D01*
X107804745Y-89935281D01*
X107846302Y-89994631D01*
X108008200Y-90156529D01*
X108012708Y-90159686D01*
X108012711Y-90159688D01*
X108055700Y-90189789D01*
X108195751Y-90287854D01*
X108200733Y-90290177D01*
X108200738Y-90290180D01*
X108378846Y-90373232D01*
X108403257Y-90384615D01*
X108408565Y-90386037D01*
X108408567Y-90386038D01*
X108619098Y-90442450D01*
X108619100Y-90442450D01*
X108624413Y-90443874D01*
X108852500Y-90463829D01*
X109080587Y-90443874D01*
X109085900Y-90442450D01*
X109085902Y-90442450D01*
X109296433Y-90386038D01*
X109296435Y-90386037D01*
X109301743Y-90384615D01*
X109326154Y-90373232D01*
X109504262Y-90290180D01*
X109504267Y-90290177D01*
X109509249Y-90287854D01*
X109649300Y-90189789D01*
X109692289Y-90159688D01*
X109692292Y-90159686D01*
X109696800Y-90156529D01*
X109858698Y-89994631D01*
X109900256Y-89935281D01*
X109921434Y-89905035D01*
X109990023Y-89807080D01*
X109992346Y-89802098D01*
X109992349Y-89802093D01*
X110084461Y-89604556D01*
X110084461Y-89604555D01*
X110086784Y-89599574D01*
X110092542Y-89578087D01*
X110115793Y-89491312D01*
X110152745Y-89430689D01*
X110216606Y-89399668D01*
X110287100Y-89408096D01*
X110341847Y-89453299D01*
X110359207Y-89491312D01*
X110382459Y-89578087D01*
X110388216Y-89599574D01*
X110390539Y-89604555D01*
X110390539Y-89604556D01*
X110482651Y-89802093D01*
X110482654Y-89802098D01*
X110484977Y-89807080D01*
X110553566Y-89905035D01*
X110574745Y-89935281D01*
X110616302Y-89994631D01*
X110778200Y-90156529D01*
X110782708Y-90159686D01*
X110782711Y-90159688D01*
X110825700Y-90189789D01*
X110965751Y-90287854D01*
X110970733Y-90290177D01*
X110970738Y-90290180D01*
X111148846Y-90373232D01*
X111173257Y-90384615D01*
X111178565Y-90386037D01*
X111178567Y-90386038D01*
X111389098Y-90442450D01*
X111389100Y-90442450D01*
X111394413Y-90443874D01*
X111622500Y-90463829D01*
X111850587Y-90443874D01*
X111855900Y-90442450D01*
X111855902Y-90442450D01*
X112066433Y-90386038D01*
X112066435Y-90386037D01*
X112071743Y-90384615D01*
X112096154Y-90373232D01*
X112274262Y-90290180D01*
X112274267Y-90290177D01*
X112279249Y-90287854D01*
X112419300Y-90189789D01*
X112462289Y-90159688D01*
X112462292Y-90159686D01*
X112466800Y-90156529D01*
X112628698Y-89994631D01*
X112670256Y-89935281D01*
X112691434Y-89905035D01*
X112760023Y-89807080D01*
X112762346Y-89802098D01*
X112762349Y-89802093D01*
X112854461Y-89604556D01*
X112854461Y-89604555D01*
X112856784Y-89599574D01*
X112862542Y-89578087D01*
X112914619Y-89383733D01*
X112914619Y-89383731D01*
X112916043Y-89378418D01*
X112935998Y-89150331D01*
X112916043Y-88922244D01*
X112914619Y-88916929D01*
X112858207Y-88706398D01*
X112858206Y-88706396D01*
X112856784Y-88701088D01*
X112853130Y-88693251D01*
X112762349Y-88498569D01*
X112762346Y-88498564D01*
X112760023Y-88493582D01*
X112686598Y-88388720D01*
X112631857Y-88310542D01*
X112631855Y-88310539D01*
X112628698Y-88306031D01*
X112466800Y-88144133D01*
X112462292Y-88140976D01*
X112462289Y-88140974D01*
X112384111Y-88086233D01*
X112279249Y-88012808D01*
X112274267Y-88010485D01*
X112274262Y-88010482D01*
X112076725Y-87918370D01*
X112076724Y-87918370D01*
X112071743Y-87916047D01*
X112066435Y-87914625D01*
X112066433Y-87914624D01*
X111855902Y-87858212D01*
X111855900Y-87858212D01*
X111850587Y-87856788D01*
X111622500Y-87836833D01*
X111394413Y-87856788D01*
X111389100Y-87858212D01*
X111389098Y-87858212D01*
X111178567Y-87914624D01*
X111178565Y-87914625D01*
X111173257Y-87916047D01*
X111168276Y-87918370D01*
X111168275Y-87918370D01*
X110970738Y-88010482D01*
X110970733Y-88010485D01*
X110965751Y-88012808D01*
X110860889Y-88086233D01*
X110782711Y-88140974D01*
X110782708Y-88140976D01*
X110778200Y-88144133D01*
X110616302Y-88306031D01*
X110613145Y-88310539D01*
X110613143Y-88310542D01*
X110558402Y-88388720D01*
X110484977Y-88493582D01*
X110482654Y-88498564D01*
X110482651Y-88498569D01*
X110391870Y-88693251D01*
X110388216Y-88701088D01*
X110386794Y-88706396D01*
X110386793Y-88706398D01*
X110359207Y-88809350D01*
X110322255Y-88869973D01*
X110258394Y-88900994D01*
X110187900Y-88892566D01*
X110133153Y-88847363D01*
X110115793Y-88809350D01*
X110088207Y-88706398D01*
X110088206Y-88706396D01*
X110086784Y-88701088D01*
X110083130Y-88693251D01*
X109992349Y-88498569D01*
X109992346Y-88498564D01*
X109990023Y-88493582D01*
X109916598Y-88388720D01*
X109861857Y-88310542D01*
X109861855Y-88310539D01*
X109858698Y-88306031D01*
X109696800Y-88144133D01*
X109692292Y-88140976D01*
X109692289Y-88140974D01*
X109614111Y-88086233D01*
X109509249Y-88012808D01*
X109504267Y-88010485D01*
X109504262Y-88010482D01*
X109306725Y-87918370D01*
X109306724Y-87918370D01*
X109301743Y-87916047D01*
X109296435Y-87914625D01*
X109296433Y-87914624D01*
X109085902Y-87858212D01*
X109085900Y-87858212D01*
X109080587Y-87856788D01*
X108852500Y-87836833D01*
X108624413Y-87856788D01*
X108619100Y-87858212D01*
X108619098Y-87858212D01*
X108408567Y-87914624D01*
X108408565Y-87914625D01*
X108403257Y-87916047D01*
X108398276Y-87918370D01*
X108398275Y-87918370D01*
X108200738Y-88010482D01*
X108200733Y-88010485D01*
X108195751Y-88012808D01*
X108090889Y-88086233D01*
X108012711Y-88140974D01*
X108012708Y-88140976D01*
X108008200Y-88144133D01*
X107846302Y-88306031D01*
X107843145Y-88310539D01*
X107843143Y-88310542D01*
X107788402Y-88388720D01*
X107714977Y-88493582D01*
X107712654Y-88498564D01*
X107712651Y-88498569D01*
X107621870Y-88693251D01*
X107618216Y-88701088D01*
X107616794Y-88706396D01*
X107616793Y-88706398D01*
X107589207Y-88809350D01*
X107552255Y-88869973D01*
X107488394Y-88900994D01*
X107417900Y-88892566D01*
X107363153Y-88847363D01*
X107345793Y-88809350D01*
X107318207Y-88706398D01*
X107318206Y-88706396D01*
X107316784Y-88701088D01*
X107313130Y-88693251D01*
X107222349Y-88498569D01*
X107222346Y-88498564D01*
X107220023Y-88493582D01*
X107146598Y-88388720D01*
X107091857Y-88310542D01*
X107091855Y-88310539D01*
X107088698Y-88306031D01*
X106926800Y-88144133D01*
X106922292Y-88140976D01*
X106922289Y-88140974D01*
X106844111Y-88086233D01*
X106739249Y-88012808D01*
X106734267Y-88010485D01*
X106734262Y-88010482D01*
X106536725Y-87918370D01*
X106536724Y-87918370D01*
X106531743Y-87916047D01*
X106526435Y-87914625D01*
X106526433Y-87914624D01*
X106315902Y-87858212D01*
X106315900Y-87858212D01*
X106310587Y-87856788D01*
X106082500Y-87836833D01*
X105854413Y-87856788D01*
X105849100Y-87858212D01*
X105849098Y-87858212D01*
X105638567Y-87914624D01*
X105638565Y-87914625D01*
X105633257Y-87916047D01*
X105628276Y-87918370D01*
X105628275Y-87918370D01*
X105430738Y-88010482D01*
X105430733Y-88010485D01*
X105425751Y-88012808D01*
X105320889Y-88086233D01*
X105242711Y-88140974D01*
X105242708Y-88140976D01*
X105238200Y-88144133D01*
X105076302Y-88306031D01*
X105073145Y-88310539D01*
X105073143Y-88310542D01*
X105018402Y-88388720D01*
X104944977Y-88493582D01*
X104942654Y-88498564D01*
X104942651Y-88498569D01*
X104851870Y-88693251D01*
X104848216Y-88701088D01*
X104846794Y-88706396D01*
X104846793Y-88706398D01*
X104819207Y-88809350D01*
X104782255Y-88869973D01*
X104718394Y-88900994D01*
X104647900Y-88892566D01*
X104593153Y-88847363D01*
X104575793Y-88809350D01*
X104548207Y-88706398D01*
X104548206Y-88706396D01*
X104546784Y-88701088D01*
X104543130Y-88693251D01*
X104452349Y-88498569D01*
X104452346Y-88498564D01*
X104450023Y-88493582D01*
X104376598Y-88388720D01*
X104321857Y-88310542D01*
X104321855Y-88310539D01*
X104318698Y-88306031D01*
X104156800Y-88144133D01*
X104152292Y-88140976D01*
X104152289Y-88140974D01*
X104074111Y-88086233D01*
X103969249Y-88012808D01*
X103964267Y-88010485D01*
X103964262Y-88010482D01*
X103766725Y-87918370D01*
X103766724Y-87918370D01*
X103761743Y-87916047D01*
X103756435Y-87914625D01*
X103756433Y-87914624D01*
X103545902Y-87858212D01*
X103545900Y-87858212D01*
X103540587Y-87856788D01*
X103312500Y-87836833D01*
X103084413Y-87856788D01*
X103079100Y-87858212D01*
X103079098Y-87858212D01*
X102868567Y-87914624D01*
X102868565Y-87914625D01*
X102863257Y-87916047D01*
X102858276Y-87918370D01*
X102858275Y-87918370D01*
X102660738Y-88010482D01*
X102660733Y-88010485D01*
X102655751Y-88012808D01*
X102550889Y-88086233D01*
X102472711Y-88140974D01*
X102472708Y-88140976D01*
X102468200Y-88144133D01*
X102306302Y-88306031D01*
X102303145Y-88310539D01*
X102303143Y-88310542D01*
X102248402Y-88388720D01*
X102174977Y-88493582D01*
X102172654Y-88498564D01*
X102172651Y-88498569D01*
X102081870Y-88693251D01*
X102078216Y-88701088D01*
X102076794Y-88706396D01*
X102076793Y-88706398D01*
X102049207Y-88809350D01*
X102012255Y-88869973D01*
X101948394Y-88900994D01*
X101877900Y-88892566D01*
X101823153Y-88847363D01*
X101805793Y-88809350D01*
X101778207Y-88706398D01*
X101778206Y-88706396D01*
X101776784Y-88701088D01*
X101773130Y-88693251D01*
X101682349Y-88498569D01*
X101682346Y-88498564D01*
X101680023Y-88493582D01*
X101606598Y-88388720D01*
X101551857Y-88310542D01*
X101551855Y-88310539D01*
X101548698Y-88306031D01*
X101386800Y-88144133D01*
X101382292Y-88140976D01*
X101382289Y-88140974D01*
X101304111Y-88086233D01*
X101199249Y-88012808D01*
X101194267Y-88010485D01*
X101194262Y-88010482D01*
X100996725Y-87918370D01*
X100996724Y-87918370D01*
X100991743Y-87916047D01*
X100986435Y-87914625D01*
X100986433Y-87914624D01*
X100775902Y-87858212D01*
X100775900Y-87858212D01*
X100770587Y-87856788D01*
X100542500Y-87836833D01*
X100314413Y-87856788D01*
X100309100Y-87858212D01*
X100309098Y-87858212D01*
X100098567Y-87914624D01*
X100098565Y-87914625D01*
X100093257Y-87916047D01*
X100088276Y-87918370D01*
X100088275Y-87918370D01*
X99890738Y-88010482D01*
X99890733Y-88010485D01*
X99885751Y-88012808D01*
X99780889Y-88086233D01*
X99702711Y-88140974D01*
X99702708Y-88140976D01*
X99698200Y-88144133D01*
X99536302Y-88306031D01*
X99533145Y-88310539D01*
X99533143Y-88310542D01*
X99478402Y-88388720D01*
X99404977Y-88493582D01*
X99402654Y-88498564D01*
X99402651Y-88498569D01*
X99311870Y-88693251D01*
X99308216Y-88701088D01*
X99306794Y-88706396D01*
X99306793Y-88706398D01*
X99279207Y-88809350D01*
X99242255Y-88869973D01*
X99178394Y-88900994D01*
X99107900Y-88892566D01*
X99053153Y-88847363D01*
X99035793Y-88809350D01*
X99008207Y-88706398D01*
X99008206Y-88706396D01*
X99006784Y-88701088D01*
X99003130Y-88693251D01*
X98912349Y-88498569D01*
X98912346Y-88498564D01*
X98910023Y-88493582D01*
X98836598Y-88388720D01*
X98781857Y-88310542D01*
X98781855Y-88310539D01*
X98778698Y-88306031D01*
X98616800Y-88144133D01*
X98612292Y-88140976D01*
X98612289Y-88140974D01*
X98534111Y-88086233D01*
X98429249Y-88012808D01*
X98424267Y-88010485D01*
X98424262Y-88010482D01*
X98226725Y-87918370D01*
X98226724Y-87918370D01*
X98221743Y-87916047D01*
X98216435Y-87914625D01*
X98216433Y-87914624D01*
X98005902Y-87858212D01*
X98005900Y-87858212D01*
X98000587Y-87856788D01*
X97772500Y-87836833D01*
X97544413Y-87856788D01*
X97539100Y-87858212D01*
X97539098Y-87858212D01*
X97328567Y-87914624D01*
X97328565Y-87914625D01*
X97323257Y-87916047D01*
X97318276Y-87918370D01*
X97318275Y-87918370D01*
X97120738Y-88010482D01*
X97120733Y-88010485D01*
X97115751Y-88012808D01*
X97010889Y-88086233D01*
X96932711Y-88140974D01*
X96932708Y-88140976D01*
X96928200Y-88144133D01*
X96766302Y-88306031D01*
X96763145Y-88310539D01*
X96763143Y-88310542D01*
X96708402Y-88388720D01*
X96634977Y-88493582D01*
X96632654Y-88498564D01*
X96632651Y-88498569D01*
X96541870Y-88693251D01*
X96538216Y-88701088D01*
X96536794Y-88706396D01*
X96536793Y-88706398D01*
X96509207Y-88809350D01*
X96472255Y-88869973D01*
X96408394Y-88900994D01*
X96337900Y-88892566D01*
X96283153Y-88847363D01*
X96265793Y-88809350D01*
X96238207Y-88706398D01*
X96238206Y-88706396D01*
X96236784Y-88701088D01*
X96233130Y-88693251D01*
X96142349Y-88498569D01*
X96142346Y-88498564D01*
X96140023Y-88493582D01*
X96066598Y-88388720D01*
X96011857Y-88310542D01*
X96011855Y-88310539D01*
X96008698Y-88306031D01*
X95846800Y-88144133D01*
X95842292Y-88140976D01*
X95842289Y-88140974D01*
X95764111Y-88086233D01*
X95659249Y-88012808D01*
X95654267Y-88010485D01*
X95654262Y-88010482D01*
X95456725Y-87918370D01*
X95456724Y-87918370D01*
X95451743Y-87916047D01*
X95446435Y-87914625D01*
X95446433Y-87914624D01*
X95235902Y-87858212D01*
X95235900Y-87858212D01*
X95230587Y-87856788D01*
X95002500Y-87836833D01*
X94774413Y-87856788D01*
X94769100Y-87858212D01*
X94769098Y-87858212D01*
X94558567Y-87914624D01*
X94558565Y-87914625D01*
X94553257Y-87916047D01*
X94548276Y-87918370D01*
X94548275Y-87918370D01*
X94350738Y-88010482D01*
X94350733Y-88010485D01*
X94345751Y-88012808D01*
X94240889Y-88086233D01*
X94162711Y-88140974D01*
X94162708Y-88140976D01*
X94158200Y-88144133D01*
X93996302Y-88306031D01*
X93993145Y-88310539D01*
X93993143Y-88310542D01*
X93938402Y-88388720D01*
X93864977Y-88493582D01*
X93862654Y-88498564D01*
X93862651Y-88498569D01*
X93771870Y-88693251D01*
X93768216Y-88701088D01*
X93766794Y-88706396D01*
X93766793Y-88706398D01*
X93739207Y-88809350D01*
X93702255Y-88869973D01*
X93638394Y-88900994D01*
X93567900Y-88892566D01*
X93513153Y-88847363D01*
X93495793Y-88809350D01*
X93468207Y-88706398D01*
X93468206Y-88706396D01*
X93466784Y-88701088D01*
X93463130Y-88693251D01*
X93372349Y-88498569D01*
X93372346Y-88498564D01*
X93370023Y-88493582D01*
X93296598Y-88388720D01*
X93241857Y-88310542D01*
X93241855Y-88310539D01*
X93238698Y-88306031D01*
X93076800Y-88144133D01*
X93072292Y-88140976D01*
X93072289Y-88140974D01*
X92994111Y-88086233D01*
X92889249Y-88012808D01*
X92884267Y-88010485D01*
X92884262Y-88010482D01*
X92686725Y-87918370D01*
X92686724Y-87918370D01*
X92681743Y-87916047D01*
X92676435Y-87914625D01*
X92676433Y-87914624D01*
X92465902Y-87858212D01*
X92465900Y-87858212D01*
X92460587Y-87856788D01*
X92232500Y-87836833D01*
X92004413Y-87856788D01*
X91999100Y-87858212D01*
X91999098Y-87858212D01*
X91788567Y-87914624D01*
X91788565Y-87914625D01*
X91783257Y-87916047D01*
X91778276Y-87918370D01*
X91778275Y-87918370D01*
X91580738Y-88010482D01*
X91580733Y-88010485D01*
X91575751Y-88012808D01*
X91470889Y-88086233D01*
X91392711Y-88140974D01*
X91392708Y-88140976D01*
X91388200Y-88144133D01*
X91226302Y-88306031D01*
X91223145Y-88310539D01*
X91223143Y-88310542D01*
X91168402Y-88388720D01*
X91094977Y-88493582D01*
X91092654Y-88498564D01*
X91092651Y-88498569D01*
X91001870Y-88693251D01*
X90998216Y-88701088D01*
X90996794Y-88706396D01*
X90996793Y-88706398D01*
X90969207Y-88809350D01*
X90932255Y-88869973D01*
X90868394Y-88900994D01*
X90797900Y-88892566D01*
X90743153Y-88847363D01*
X90725793Y-88809350D01*
X90698207Y-88706398D01*
X90698206Y-88706396D01*
X90696784Y-88701088D01*
X90693130Y-88693251D01*
X90602349Y-88498569D01*
X90602346Y-88498564D01*
X90600023Y-88493582D01*
X90526598Y-88388720D01*
X90471857Y-88310542D01*
X90471855Y-88310539D01*
X90468698Y-88306031D01*
X90306800Y-88144133D01*
X90302292Y-88140976D01*
X90302289Y-88140974D01*
X90224111Y-88086233D01*
X90119249Y-88012808D01*
X90114267Y-88010485D01*
X90114262Y-88010482D01*
X89916725Y-87918370D01*
X89916724Y-87918370D01*
X89911743Y-87916047D01*
X89906435Y-87914625D01*
X89906433Y-87914624D01*
X89695902Y-87858212D01*
X89695900Y-87858212D01*
X89690587Y-87856788D01*
X89462500Y-87836833D01*
X89234413Y-87856788D01*
X89229100Y-87858212D01*
X89229098Y-87858212D01*
X89018567Y-87914624D01*
X89018565Y-87914625D01*
X89013257Y-87916047D01*
X89008276Y-87918370D01*
X89008275Y-87918370D01*
X88810738Y-88010482D01*
X88810733Y-88010485D01*
X88805751Y-88012808D01*
X88700889Y-88086233D01*
X88622711Y-88140974D01*
X88622708Y-88140976D01*
X88618200Y-88144133D01*
X88456302Y-88306031D01*
X88453145Y-88310539D01*
X88453143Y-88310542D01*
X88398402Y-88388720D01*
X88324977Y-88493582D01*
X88322654Y-88498564D01*
X88322651Y-88498569D01*
X88231870Y-88693251D01*
X88228216Y-88701088D01*
X88226794Y-88706396D01*
X88226793Y-88706398D01*
X88199207Y-88809350D01*
X88162255Y-88869973D01*
X88098394Y-88900994D01*
X88027900Y-88892566D01*
X87973153Y-88847363D01*
X87955793Y-88809350D01*
X87928207Y-88706398D01*
X87928206Y-88706396D01*
X87926784Y-88701088D01*
X87923130Y-88693251D01*
X87832349Y-88498569D01*
X87832346Y-88498564D01*
X87830023Y-88493582D01*
X87756598Y-88388720D01*
X87701857Y-88310542D01*
X87701855Y-88310539D01*
X87698698Y-88306031D01*
X87536800Y-88144133D01*
X87532292Y-88140976D01*
X87532289Y-88140974D01*
X87454111Y-88086233D01*
X87349249Y-88012808D01*
X87344267Y-88010485D01*
X87344262Y-88010482D01*
X87146725Y-87918370D01*
X87146724Y-87918370D01*
X87141743Y-87916047D01*
X87136435Y-87914625D01*
X87136433Y-87914624D01*
X86925902Y-87858212D01*
X86925900Y-87858212D01*
X86920587Y-87856788D01*
X86692500Y-87836833D01*
X86464413Y-87856788D01*
X86459100Y-87858212D01*
X86459098Y-87858212D01*
X86248567Y-87914624D01*
X86248565Y-87914625D01*
X86243257Y-87916047D01*
X86238276Y-87918370D01*
X86238275Y-87918370D01*
X86040738Y-88010482D01*
X86040733Y-88010485D01*
X86035751Y-88012808D01*
X85930889Y-88086233D01*
X85852711Y-88140974D01*
X85852708Y-88140976D01*
X85848200Y-88144133D01*
X85686302Y-88306031D01*
X85683145Y-88310539D01*
X85683143Y-88310542D01*
X85628402Y-88388720D01*
X85554977Y-88493582D01*
X85552654Y-88498564D01*
X85552651Y-88498569D01*
X85461870Y-88693251D01*
X85458216Y-88701088D01*
X85456794Y-88706396D01*
X85456793Y-88706398D01*
X85429207Y-88809350D01*
X85392255Y-88869973D01*
X85328394Y-88900994D01*
X85257900Y-88892566D01*
X85203153Y-88847363D01*
X85185793Y-88809350D01*
X85158207Y-88706398D01*
X85158206Y-88706396D01*
X85156784Y-88701088D01*
X85153130Y-88693251D01*
X85062349Y-88498569D01*
X85062346Y-88498564D01*
X85060023Y-88493582D01*
X84986598Y-88388720D01*
X84931857Y-88310542D01*
X84931855Y-88310539D01*
X84928698Y-88306031D01*
X84766800Y-88144133D01*
X84762292Y-88140976D01*
X84762289Y-88140974D01*
X84684111Y-88086233D01*
X84579249Y-88012808D01*
X84574267Y-88010485D01*
X84574262Y-88010482D01*
X84376725Y-87918370D01*
X84376724Y-87918370D01*
X84371743Y-87916047D01*
X84366435Y-87914625D01*
X84366433Y-87914624D01*
X84155902Y-87858212D01*
X84155900Y-87858212D01*
X84150587Y-87856788D01*
X83922500Y-87836833D01*
X83694413Y-87856788D01*
X83689100Y-87858212D01*
X83689098Y-87858212D01*
X83478567Y-87914624D01*
X83478565Y-87914625D01*
X83473257Y-87916047D01*
X83468276Y-87918370D01*
X83468275Y-87918370D01*
X83270738Y-88010482D01*
X83270733Y-88010485D01*
X83265751Y-88012808D01*
X83160889Y-88086233D01*
X83082711Y-88140974D01*
X83082708Y-88140976D01*
X83078200Y-88144133D01*
X82916302Y-88306031D01*
X82913145Y-88310539D01*
X82913143Y-88310542D01*
X82858402Y-88388720D01*
X82784977Y-88493582D01*
X82782654Y-88498564D01*
X82782651Y-88498569D01*
X82691870Y-88693251D01*
X82688216Y-88701088D01*
X82686794Y-88706396D01*
X82686793Y-88706398D01*
X82659207Y-88809350D01*
X82622255Y-88869973D01*
X82558394Y-88900994D01*
X82487900Y-88892566D01*
X82433153Y-88847363D01*
X82415793Y-88809350D01*
X82388207Y-88706398D01*
X82388206Y-88706396D01*
X82386784Y-88701088D01*
X82383130Y-88693251D01*
X82292349Y-88498569D01*
X82292346Y-88498564D01*
X82290023Y-88493582D01*
X82216598Y-88388720D01*
X82161857Y-88310542D01*
X82161855Y-88310539D01*
X82158698Y-88306031D01*
X81996800Y-88144133D01*
X81992292Y-88140976D01*
X81992289Y-88140974D01*
X81914111Y-88086233D01*
X81809249Y-88012808D01*
X81804267Y-88010485D01*
X81804262Y-88010482D01*
X81606725Y-87918370D01*
X81606724Y-87918370D01*
X81601743Y-87916047D01*
X81596435Y-87914625D01*
X81596433Y-87914624D01*
X81385902Y-87858212D01*
X81385900Y-87858212D01*
X81380587Y-87856788D01*
X81152500Y-87836833D01*
X80924413Y-87856788D01*
X80919100Y-87858212D01*
X80919098Y-87858212D01*
X80708567Y-87914624D01*
X80708565Y-87914625D01*
X80703257Y-87916047D01*
X80698276Y-87918370D01*
X80698275Y-87918370D01*
X80500738Y-88010482D01*
X80500733Y-88010485D01*
X80495751Y-88012808D01*
X80390889Y-88086233D01*
X80312711Y-88140974D01*
X80312708Y-88140976D01*
X80308200Y-88144133D01*
X80146302Y-88306031D01*
X80143145Y-88310539D01*
X80143143Y-88310542D01*
X80088402Y-88388720D01*
X80014977Y-88493582D01*
X80012654Y-88498564D01*
X80012651Y-88498569D01*
X79921870Y-88693251D01*
X79918216Y-88701088D01*
X79916794Y-88706396D01*
X79916793Y-88706398D01*
X79860381Y-88916929D01*
X79858957Y-88922244D01*
X79839002Y-89150331D01*
X79858957Y-89378418D01*
X79860381Y-89383731D01*
X79860381Y-89383733D01*
X79912459Y-89578087D01*
X79918216Y-89599574D01*
X79920539Y-89604555D01*
X79920539Y-89604556D01*
X80012651Y-89802093D01*
X80012654Y-89802098D01*
X80014977Y-89807080D01*
X80083566Y-89905035D01*
X80104745Y-89935281D01*
X80146302Y-89994631D01*
X80308200Y-90156529D01*
X80312708Y-90159686D01*
X80312711Y-90159688D01*
X80355700Y-90189789D01*
X80495751Y-90287854D01*
X80500733Y-90290177D01*
X80500738Y-90290180D01*
X80678846Y-90373232D01*
X80703257Y-90384615D01*
X80708565Y-90386037D01*
X80708567Y-90386038D01*
X80919098Y-90442450D01*
X80919100Y-90442450D01*
X80924413Y-90443874D01*
X81152500Y-90463829D01*
X81380587Y-90443874D01*
X81385900Y-90442450D01*
X81385902Y-90442450D01*
X81596433Y-90386038D01*
X81596435Y-90386037D01*
X81601743Y-90384615D01*
X81626154Y-90373232D01*
X81804262Y-90290180D01*
X81804267Y-90290177D01*
X81809249Y-90287854D01*
X81949300Y-90189789D01*
X81992289Y-90159688D01*
X81992292Y-90159686D01*
X81996800Y-90156529D01*
X82158698Y-89994631D01*
X82200256Y-89935281D01*
X82221434Y-89905035D01*
X82290023Y-89807080D01*
X82292346Y-89802098D01*
X82292349Y-89802093D01*
X82384461Y-89604556D01*
X82384461Y-89604555D01*
X82386784Y-89599574D01*
X82392542Y-89578087D01*
X82415793Y-89491312D01*
X82452745Y-89430689D01*
X82516606Y-89399668D01*
X82587100Y-89408096D01*
X82641847Y-89453299D01*
X82659207Y-89491312D01*
X82682459Y-89578087D01*
X82688216Y-89599574D01*
X82690539Y-89604555D01*
X82690539Y-89604556D01*
X82782651Y-89802093D01*
X82782654Y-89802098D01*
X82784977Y-89807080D01*
X82853566Y-89905035D01*
X82874745Y-89935281D01*
X82916302Y-89994631D01*
X83078200Y-90156529D01*
X83082708Y-90159686D01*
X83082711Y-90159688D01*
X83125700Y-90189789D01*
X83265751Y-90287854D01*
X83270733Y-90290177D01*
X83270738Y-90290180D01*
X83448846Y-90373232D01*
X83473257Y-90384615D01*
X83478565Y-90386037D01*
X83478567Y-90386038D01*
X83689098Y-90442450D01*
X83689100Y-90442450D01*
X83694413Y-90443874D01*
X83922500Y-90463829D01*
X84150587Y-90443874D01*
X84155900Y-90442450D01*
X84155902Y-90442450D01*
X84366433Y-90386038D01*
X84366435Y-90386037D01*
X84371743Y-90384615D01*
X84396154Y-90373232D01*
X84574262Y-90290180D01*
X84574267Y-90290177D01*
X84579249Y-90287854D01*
X84719300Y-90189789D01*
X84762289Y-90159688D01*
X84762292Y-90159686D01*
X84766800Y-90156529D01*
X84928698Y-89994631D01*
X84970256Y-89935281D01*
X84991434Y-89905035D01*
X85060023Y-89807080D01*
X85062346Y-89802098D01*
X85062349Y-89802093D01*
X85154461Y-89604556D01*
X85154461Y-89604555D01*
X85156784Y-89599574D01*
X85162542Y-89578087D01*
X85185793Y-89491312D01*
X85222745Y-89430689D01*
X85286606Y-89399668D01*
X85357100Y-89408096D01*
X85411847Y-89453299D01*
X85429207Y-89491312D01*
X85452459Y-89578087D01*
X85458216Y-89599574D01*
X85460539Y-89604555D01*
X85460539Y-89604556D01*
X85552651Y-89802093D01*
X85552654Y-89802098D01*
X85554977Y-89807080D01*
X85623566Y-89905035D01*
X85644745Y-89935281D01*
X85686302Y-89994631D01*
X85848200Y-90156529D01*
X85852708Y-90159686D01*
X85852711Y-90159688D01*
X85895700Y-90189789D01*
X86035751Y-90287854D01*
X86040733Y-90290177D01*
X86040738Y-90290180D01*
X86218846Y-90373232D01*
X86243257Y-90384615D01*
X86248565Y-90386037D01*
X86248567Y-90386038D01*
X86459098Y-90442450D01*
X86459100Y-90442450D01*
X86464413Y-90443874D01*
X86692500Y-90463829D01*
X86920587Y-90443874D01*
X86925900Y-90442450D01*
X86925902Y-90442450D01*
X87136433Y-90386038D01*
X87136435Y-90386037D01*
X87141743Y-90384615D01*
X87166154Y-90373232D01*
X87344262Y-90290180D01*
X87344267Y-90290177D01*
X87349249Y-90287854D01*
X87489300Y-90189789D01*
X87532289Y-90159688D01*
X87532292Y-90159686D01*
X87536800Y-90156529D01*
X87698698Y-89994631D01*
X87740256Y-89935281D01*
X87761434Y-89905035D01*
X87830023Y-89807080D01*
X87832346Y-89802098D01*
X87832349Y-89802093D01*
X87924461Y-89604556D01*
X87924461Y-89604555D01*
X87926784Y-89599574D01*
X87932542Y-89578087D01*
X87955793Y-89491312D01*
X87992745Y-89430689D01*
X88056606Y-89399668D01*
X88127100Y-89408096D01*
X88181847Y-89453299D01*
X88199207Y-89491312D01*
X88222459Y-89578087D01*
X88228216Y-89599574D01*
X88230539Y-89604555D01*
X88230539Y-89604556D01*
X88322651Y-89802093D01*
X88322654Y-89802098D01*
X88324977Y-89807080D01*
X88393566Y-89905035D01*
X88414745Y-89935281D01*
X88456302Y-89994631D01*
X88618200Y-90156529D01*
X88622708Y-90159686D01*
X88622711Y-90159688D01*
X88665700Y-90189789D01*
X88805751Y-90287854D01*
X88810733Y-90290177D01*
X88810738Y-90290180D01*
X88988846Y-90373232D01*
X89013257Y-90384615D01*
X89018565Y-90386037D01*
X89018567Y-90386038D01*
X89229098Y-90442450D01*
X89229100Y-90442450D01*
X89234413Y-90443874D01*
X89462500Y-90463829D01*
X89690587Y-90443874D01*
X89695900Y-90442450D01*
X89695902Y-90442450D01*
X89906433Y-90386038D01*
X89906435Y-90386037D01*
X89911743Y-90384615D01*
X89936154Y-90373232D01*
X90114262Y-90290180D01*
X90114267Y-90290177D01*
X90119249Y-90287854D01*
X90259300Y-90189789D01*
X90302289Y-90159688D01*
X90302292Y-90159686D01*
X90306800Y-90156529D01*
X90468698Y-89994631D01*
X90510256Y-89935281D01*
X90531434Y-89905035D01*
X90600023Y-89807080D01*
X90602346Y-89802098D01*
X90602349Y-89802093D01*
X90694461Y-89604556D01*
X90694461Y-89604555D01*
X90696784Y-89599574D01*
X90702542Y-89578087D01*
X90725793Y-89491312D01*
X90762745Y-89430689D01*
X90826606Y-89399668D01*
X90897100Y-89408096D01*
X90951847Y-89453299D01*
X90969207Y-89491312D01*
X90992459Y-89578087D01*
X90998216Y-89599574D01*
X91000539Y-89604555D01*
X91000539Y-89604556D01*
X91092651Y-89802093D01*
X91092654Y-89802098D01*
X91094977Y-89807080D01*
X91163566Y-89905035D01*
X91184745Y-89935281D01*
X91226302Y-89994631D01*
X91388200Y-90156529D01*
X91392708Y-90159686D01*
X91392711Y-90159688D01*
X91435700Y-90189789D01*
X91575751Y-90287854D01*
X91580733Y-90290177D01*
X91580738Y-90290180D01*
X91758846Y-90373232D01*
X91783257Y-90384615D01*
X91788565Y-90386037D01*
X91788567Y-90386038D01*
X91999098Y-90442450D01*
X91999100Y-90442450D01*
X92004413Y-90443874D01*
X92232500Y-90463829D01*
X92460587Y-90443874D01*
X92465900Y-90442450D01*
X92465902Y-90442450D01*
X92676433Y-90386038D01*
X92676435Y-90386037D01*
X92681743Y-90384615D01*
X92706154Y-90373232D01*
X92884262Y-90290180D01*
X92884267Y-90290177D01*
X92889249Y-90287854D01*
X93029300Y-90189789D01*
X93072289Y-90159688D01*
X93072292Y-90159686D01*
X93076800Y-90156529D01*
X93238698Y-89994631D01*
X93280256Y-89935281D01*
X93301434Y-89905035D01*
X93370023Y-89807080D01*
X93372346Y-89802098D01*
X93372349Y-89802093D01*
X93464461Y-89604556D01*
X93464461Y-89604555D01*
X93466784Y-89599574D01*
X93472542Y-89578087D01*
X93495793Y-89491312D01*
X93532745Y-89430689D01*
X93596606Y-89399668D01*
X93667100Y-89408096D01*
X93721847Y-89453299D01*
X93739207Y-89491312D01*
X93762459Y-89578087D01*
X93768216Y-89599574D01*
X93770539Y-89604555D01*
X93770539Y-89604556D01*
X93862651Y-89802093D01*
X93862654Y-89802098D01*
X93864977Y-89807080D01*
X93933566Y-89905035D01*
X93954745Y-89935281D01*
X93996302Y-89994631D01*
X94158200Y-90156529D01*
X94162708Y-90159686D01*
X94162711Y-90159688D01*
X94205700Y-90189789D01*
X94345751Y-90287854D01*
X94350733Y-90290177D01*
X94350738Y-90290180D01*
X94528846Y-90373232D01*
X94553257Y-90384615D01*
X94558565Y-90386037D01*
X94558567Y-90386038D01*
X94769098Y-90442450D01*
X94769100Y-90442450D01*
X94774413Y-90443874D01*
X94779889Y-90444353D01*
X94779894Y-90444354D01*
X94915186Y-90456190D01*
X94933566Y-90457798D01*
X94999685Y-90483661D01*
X95041324Y-90541165D01*
X95045265Y-90612052D01*
X95011681Y-90672414D01*
X94669975Y-91014120D01*
X94607664Y-91048144D01*
X94536849Y-91043080D01*
X94491786Y-91014119D01*
X94461800Y-90984133D01*
X94457292Y-90980976D01*
X94457289Y-90980974D01*
X94347743Y-90904269D01*
X94274249Y-90852808D01*
X94269267Y-90850485D01*
X94269262Y-90850482D01*
X94071725Y-90758370D01*
X94071724Y-90758370D01*
X94066743Y-90756047D01*
X94061435Y-90754625D01*
X94061433Y-90754624D01*
X93850902Y-90698212D01*
X93850900Y-90698212D01*
X93845587Y-90696788D01*
X93617500Y-90676833D01*
X93389413Y-90696788D01*
X93384100Y-90698212D01*
X93384098Y-90698212D01*
X93173567Y-90754624D01*
X93173565Y-90754625D01*
X93168257Y-90756047D01*
X93163276Y-90758370D01*
X93163275Y-90758370D01*
X92965738Y-90850482D01*
X92965733Y-90850485D01*
X92960751Y-90852808D01*
X92887257Y-90904269D01*
X92777711Y-90980974D01*
X92777708Y-90980976D01*
X92773200Y-90984133D01*
X92611302Y-91146031D01*
X92479977Y-91333582D01*
X92477654Y-91338564D01*
X92477651Y-91338569D01*
X92397043Y-91511436D01*
X92383216Y-91541088D01*
X92381794Y-91546395D01*
X92381793Y-91546398D01*
X92354207Y-91649350D01*
X92317255Y-91709973D01*
X92253394Y-91740994D01*
X92182900Y-91732566D01*
X92128153Y-91687363D01*
X92110793Y-91649350D01*
X92083207Y-91546398D01*
X92083206Y-91546395D01*
X92081784Y-91541088D01*
X92067957Y-91511436D01*
X91987349Y-91338569D01*
X91987346Y-91338564D01*
X91985023Y-91333582D01*
X91853698Y-91146031D01*
X91691800Y-90984133D01*
X91687292Y-90980976D01*
X91687289Y-90980974D01*
X91577743Y-90904269D01*
X91504249Y-90852808D01*
X91499267Y-90850485D01*
X91499262Y-90850482D01*
X91301725Y-90758370D01*
X91301724Y-90758370D01*
X91296743Y-90756047D01*
X91291435Y-90754625D01*
X91291433Y-90754624D01*
X91080902Y-90698212D01*
X91080900Y-90698212D01*
X91075587Y-90696788D01*
X90847500Y-90676833D01*
X90619413Y-90696788D01*
X90614100Y-90698212D01*
X90614098Y-90698212D01*
X90403567Y-90754624D01*
X90403565Y-90754625D01*
X90398257Y-90756047D01*
X90393276Y-90758370D01*
X90393275Y-90758370D01*
X90195738Y-90850482D01*
X90195733Y-90850485D01*
X90190751Y-90852808D01*
X90117257Y-90904269D01*
X90007711Y-90980974D01*
X90007708Y-90980976D01*
X90003200Y-90984133D01*
X89841302Y-91146031D01*
X89709977Y-91333582D01*
X89707654Y-91338564D01*
X89707651Y-91338569D01*
X89627043Y-91511436D01*
X89613216Y-91541088D01*
X89611794Y-91546395D01*
X89611793Y-91546398D01*
X89584207Y-91649350D01*
X89547255Y-91709973D01*
X89483394Y-91740994D01*
X89412900Y-91732566D01*
X89358153Y-91687363D01*
X89340793Y-91649350D01*
X89313207Y-91546398D01*
X89313206Y-91546395D01*
X89311784Y-91541088D01*
X89297957Y-91511436D01*
X89217349Y-91338569D01*
X89217346Y-91338564D01*
X89215023Y-91333582D01*
X89083698Y-91146031D01*
X88921800Y-90984133D01*
X88917292Y-90980976D01*
X88917289Y-90980974D01*
X88807743Y-90904269D01*
X88734249Y-90852808D01*
X88729267Y-90850485D01*
X88729262Y-90850482D01*
X88531725Y-90758370D01*
X88531724Y-90758370D01*
X88526743Y-90756047D01*
X88521435Y-90754625D01*
X88521433Y-90754624D01*
X88310902Y-90698212D01*
X88310900Y-90698212D01*
X88305587Y-90696788D01*
X88077500Y-90676833D01*
X87849413Y-90696788D01*
X87844100Y-90698212D01*
X87844098Y-90698212D01*
X87633567Y-90754624D01*
X87633565Y-90754625D01*
X87628257Y-90756047D01*
X87623276Y-90758370D01*
X87623275Y-90758370D01*
X87425738Y-90850482D01*
X87425733Y-90850485D01*
X87420751Y-90852808D01*
X87347257Y-90904269D01*
X87237711Y-90980974D01*
X87237708Y-90980976D01*
X87233200Y-90984133D01*
X87071302Y-91146031D01*
X86939977Y-91333582D01*
X86937654Y-91338564D01*
X86937651Y-91338569D01*
X86857043Y-91511436D01*
X86843216Y-91541088D01*
X86841794Y-91546395D01*
X86841793Y-91546398D01*
X86814207Y-91649350D01*
X86777255Y-91709973D01*
X86713394Y-91740994D01*
X86642900Y-91732566D01*
X86588153Y-91687363D01*
X86570793Y-91649350D01*
X86543207Y-91546398D01*
X86543206Y-91546395D01*
X86541784Y-91541088D01*
X86527957Y-91511436D01*
X86447349Y-91338569D01*
X86447346Y-91338564D01*
X86445023Y-91333582D01*
X86313698Y-91146031D01*
X86151800Y-90984133D01*
X86147292Y-90980976D01*
X86147289Y-90980974D01*
X86037743Y-90904269D01*
X85964249Y-90852808D01*
X85959267Y-90850485D01*
X85959262Y-90850482D01*
X85761725Y-90758370D01*
X85761724Y-90758370D01*
X85756743Y-90756047D01*
X85751435Y-90754625D01*
X85751433Y-90754624D01*
X85540902Y-90698212D01*
X85540900Y-90698212D01*
X85535587Y-90696788D01*
X85307500Y-90676833D01*
X85079413Y-90696788D01*
X85074100Y-90698212D01*
X85074098Y-90698212D01*
X84863567Y-90754624D01*
X84863565Y-90754625D01*
X84858257Y-90756047D01*
X84853276Y-90758370D01*
X84853275Y-90758370D01*
X84655738Y-90850482D01*
X84655733Y-90850485D01*
X84650751Y-90852808D01*
X84577257Y-90904269D01*
X84467711Y-90980974D01*
X84467708Y-90980976D01*
X84463200Y-90984133D01*
X84301302Y-91146031D01*
X84169977Y-91333582D01*
X84167654Y-91338564D01*
X84167651Y-91338569D01*
X84087043Y-91511436D01*
X84073216Y-91541088D01*
X84071794Y-91546395D01*
X84071793Y-91546398D01*
X84044207Y-91649350D01*
X84007255Y-91709973D01*
X83943394Y-91740994D01*
X83872900Y-91732566D01*
X83818153Y-91687363D01*
X83800793Y-91649350D01*
X83773207Y-91546398D01*
X83773206Y-91546395D01*
X83771784Y-91541088D01*
X83757957Y-91511436D01*
X83677349Y-91338569D01*
X83677346Y-91338564D01*
X83675023Y-91333582D01*
X83543698Y-91146031D01*
X83381800Y-90984133D01*
X83377292Y-90980976D01*
X83377289Y-90980974D01*
X83267743Y-90904269D01*
X83194249Y-90852808D01*
X83189267Y-90850485D01*
X83189262Y-90850482D01*
X82991725Y-90758370D01*
X82991724Y-90758370D01*
X82986743Y-90756047D01*
X82981435Y-90754625D01*
X82981433Y-90754624D01*
X82770902Y-90698212D01*
X82770900Y-90698212D01*
X82765587Y-90696788D01*
X82537500Y-90676833D01*
X82309413Y-90696788D01*
X82304100Y-90698212D01*
X82304098Y-90698212D01*
X82093567Y-90754624D01*
X82093565Y-90754625D01*
X82088257Y-90756047D01*
X82083276Y-90758370D01*
X82083275Y-90758370D01*
X81885738Y-90850482D01*
X81885733Y-90850485D01*
X81880751Y-90852808D01*
X81807257Y-90904269D01*
X81697711Y-90980974D01*
X81697708Y-90980976D01*
X81693200Y-90984133D01*
X81531302Y-91146031D01*
X81399977Y-91333582D01*
X81397654Y-91338564D01*
X81397651Y-91338569D01*
X81316195Y-91513254D01*
X81269278Y-91566539D01*
X81201001Y-91586000D01*
X81133041Y-91565458D01*
X81086975Y-91511436D01*
X81076000Y-91460004D01*
X81076000Y-91142197D01*
X81069245Y-91080015D01*
X81018115Y-90943626D01*
X80930761Y-90827070D01*
X80814205Y-90739716D01*
X80677816Y-90688586D01*
X80615634Y-90681831D01*
X78919366Y-90681831D01*
X78857184Y-90688586D01*
X78720795Y-90739716D01*
X78604239Y-90827070D01*
X78516885Y-90943626D01*
X78465755Y-91080015D01*
X78459000Y-91142197D01*
X78459000Y-92838465D01*
X73918799Y-92838465D01*
X74180807Y-92694424D01*
X74180810Y-92694422D01*
X74184279Y-92692515D01*
X74420821Y-92520658D01*
X74436436Y-92509313D01*
X74436438Y-92509312D01*
X74439640Y-92506985D01*
X74669733Y-92290913D01*
X74705155Y-92248096D01*
X74868407Y-92050758D01*
X74870932Y-92047706D01*
X75040062Y-91781200D01*
X75041746Y-91777621D01*
X75041750Y-91777614D01*
X75172767Y-91499187D01*
X75172769Y-91499183D01*
X75174456Y-91495597D01*
X75193838Y-91435947D01*
X75245391Y-91277283D01*
X75271995Y-91195403D01*
X75331141Y-90885351D01*
X75350960Y-90570331D01*
X75331141Y-90255311D01*
X75271995Y-89945259D01*
X75174456Y-89645065D01*
X75150551Y-89594264D01*
X75041750Y-89363048D01*
X75041746Y-89363041D01*
X75040062Y-89359462D01*
X74870932Y-89092956D01*
X74725309Y-88916929D01*
X74672258Y-88852801D01*
X74672257Y-88852800D01*
X74669733Y-88849749D01*
X74439640Y-88633677D01*
X74184279Y-88448147D01*
X74077640Y-88389521D01*
X73911148Y-88297991D01*
X73911147Y-88297990D01*
X73907679Y-88296084D01*
X73904010Y-88294631D01*
X73904005Y-88294629D01*
X73617872Y-88181341D01*
X73617871Y-88181341D01*
X73614202Y-88179888D01*
X73308475Y-88101391D01*
X72995321Y-88061831D01*
X72679679Y-88061831D01*
X72366525Y-88101391D01*
X72060798Y-88179888D01*
X72057129Y-88181341D01*
X72057128Y-88181341D01*
X71770995Y-88294629D01*
X71770990Y-88294631D01*
X71767321Y-88296084D01*
X71763853Y-88297990D01*
X71763852Y-88297991D01*
X71597361Y-88389521D01*
X71490721Y-88448147D01*
X71235360Y-88633677D01*
X71005267Y-88849749D01*
X71002743Y-88852800D01*
X71002742Y-88852801D01*
X70949691Y-88916929D01*
X70804068Y-89092956D01*
X70634938Y-89359462D01*
X70633254Y-89363041D01*
X70633250Y-89363048D01*
X70524449Y-89594264D01*
X70500544Y-89645065D01*
X70403005Y-89945259D01*
X70343859Y-90255311D01*
X70324040Y-90570331D01*
X61420182Y-90570331D01*
X61419335Y-86617443D01*
X61439322Y-86549318D01*
X61492968Y-86502814D01*
X61563240Y-86492695D01*
X61627827Y-86522174D01*
X61666224Y-86581892D01*
X61669783Y-86597702D01*
X61703347Y-86809613D01*
X61801022Y-87174143D01*
X61936266Y-87526465D01*
X61937764Y-87529405D01*
X62094651Y-87837312D01*
X62107597Y-87862720D01*
X62109393Y-87865486D01*
X62109395Y-87865489D01*
X62175869Y-87967850D01*
X62313137Y-88179225D01*
X62550635Y-88472511D01*
X62817489Y-88739365D01*
X63110775Y-88976863D01*
X63215807Y-89045072D01*
X63284844Y-89089904D01*
X63427280Y-89182403D01*
X63430214Y-89183898D01*
X63430221Y-89183902D01*
X63499260Y-89219079D01*
X63763535Y-89353734D01*
X64115857Y-89488978D01*
X64480387Y-89586653D01*
X64678353Y-89618008D01*
X64849881Y-89645176D01*
X64849889Y-89645177D01*
X64853129Y-89645690D01*
X65135720Y-89660500D01*
X65324280Y-89660500D01*
X65606871Y-89645690D01*
X65610111Y-89645177D01*
X65610119Y-89645176D01*
X65781647Y-89618008D01*
X65979613Y-89586653D01*
X66344143Y-89488978D01*
X66696465Y-89353734D01*
X66960740Y-89219079D01*
X67029779Y-89183902D01*
X67029786Y-89183898D01*
X67032720Y-89182403D01*
X67175157Y-89089904D01*
X67244193Y-89045072D01*
X67349225Y-88976863D01*
X67642511Y-88739365D01*
X67909365Y-88472511D01*
X68146863Y-88179225D01*
X68226589Y-88056457D01*
X68350605Y-87865490D01*
X68350607Y-87865487D01*
X68352403Y-87862721D01*
X68353903Y-87859779D01*
X68522236Y-87529405D01*
X68523734Y-87526465D01*
X68658978Y-87174143D01*
X68756653Y-86809613D01*
X68805246Y-86502814D01*
X68815176Y-86440119D01*
X68815177Y-86440111D01*
X68815690Y-86436871D01*
X68835441Y-86060000D01*
X68815690Y-85683129D01*
X68806560Y-85625481D01*
X68757169Y-85313648D01*
X68756653Y-85310387D01*
X68658978Y-84945857D01*
X68523734Y-84593535D01*
X68352403Y-84257280D01*
X68146863Y-83940775D01*
X67909365Y-83647489D01*
X67642511Y-83380635D01*
X67349225Y-83143137D01*
X67032720Y-82937597D01*
X67029786Y-82936102D01*
X67029779Y-82936098D01*
X66699405Y-82767764D01*
X66696465Y-82766266D01*
X66344143Y-82631022D01*
X65979613Y-82533347D01*
X65781647Y-82501992D01*
X65610119Y-82474824D01*
X65610111Y-82474823D01*
X65606871Y-82474310D01*
X65324280Y-82459500D01*
X65135720Y-82459500D01*
X64853129Y-82474310D01*
X64849889Y-82474823D01*
X64849881Y-82474824D01*
X64678353Y-82501992D01*
X64480387Y-82533347D01*
X64115857Y-82631022D01*
X63763535Y-82766266D01*
X63760595Y-82767764D01*
X63430221Y-82936098D01*
X63430214Y-82936102D01*
X63427280Y-82937597D01*
X63110775Y-83143137D01*
X62817489Y-83380635D01*
X62550635Y-83647489D01*
X62313137Y-83940775D01*
X62311335Y-83943550D01*
X62109395Y-84254510D01*
X62109393Y-84254513D01*
X62107597Y-84257279D01*
X62106102Y-84260213D01*
X62106098Y-84260220D01*
X61937764Y-84590595D01*
X61936266Y-84593535D01*
X61801022Y-84945857D01*
X61703347Y-85310387D01*
X61702831Y-85313648D01*
X61669545Y-85523801D01*
X61639132Y-85587954D01*
X61578864Y-85625481D01*
X61507875Y-85624467D01*
X61448703Y-85585234D01*
X61420135Y-85520239D01*
X61419096Y-85504117D01*
X61419089Y-85468124D01*
X61418511Y-82773206D01*
X61420258Y-82752276D01*
X61422769Y-82737354D01*
X61422770Y-82737343D01*
X61423576Y-82732552D01*
X61423729Y-82720000D01*
X61423040Y-82715186D01*
X61423039Y-82715176D01*
X61422157Y-82709017D01*
X61421206Y-82682172D01*
X61433038Y-82516723D01*
X61435596Y-82498934D01*
X61476999Y-82308607D01*
X61482063Y-82291359D01*
X61550136Y-82108850D01*
X61557604Y-82092498D01*
X61650952Y-81921542D01*
X61660672Y-81906418D01*
X61777402Y-81750486D01*
X61789175Y-81736900D01*
X61926900Y-81599175D01*
X61940486Y-81587402D01*
X62096418Y-81470672D01*
X62111542Y-81460952D01*
X62282498Y-81367604D01*
X62298850Y-81360136D01*
X62481359Y-81292063D01*
X62498608Y-81286999D01*
X62688936Y-81245596D01*
X62706715Y-81243039D01*
X62868605Y-81231460D01*
X62886565Y-81232207D01*
X62894845Y-81232308D01*
X62903724Y-81233691D01*
X62935286Y-81229564D01*
X62951621Y-81228500D01*
X167490633Y-81228500D01*
X167510018Y-81230000D01*
G37*
%TD.AperFunction*%
%TA.AperFunction,Conductor*%
G36*
X112072421Y-100853502D02*
G01*
X112091647Y-100869843D01*
X112091920Y-100869540D01*
X112096832Y-100873963D01*
X112101247Y-100878866D01*
X112106586Y-100882745D01*
X112247267Y-100984956D01*
X112255748Y-100991118D01*
X112261776Y-100993802D01*
X112261778Y-100993803D01*
X112424181Y-101066109D01*
X112430212Y-101068794D01*
X112523612Y-101088647D01*
X112610556Y-101107128D01*
X112610561Y-101107128D01*
X112617013Y-101108500D01*
X112807987Y-101108500D01*
X112814439Y-101107128D01*
X112814444Y-101107128D01*
X112901387Y-101088647D01*
X112994788Y-101068794D01*
X113005599Y-101063981D01*
X113150666Y-100999393D01*
X113201915Y-100988500D01*
X119679797Y-100988500D01*
X119747918Y-101008502D01*
X119794411Y-101062158D01*
X119804515Y-101132432D01*
X119776882Y-101194815D01*
X119757202Y-101218604D01*
X119749212Y-101227384D01*
X112122000Y-108854595D01*
X112059688Y-108888621D01*
X112032905Y-108891500D01*
X111977013Y-108891500D01*
X111970561Y-108892872D01*
X111970556Y-108892872D01*
X111883613Y-108911353D01*
X111790212Y-108931206D01*
X111784182Y-108933891D01*
X111784181Y-108933891D01*
X111621778Y-109006197D01*
X111621776Y-109006198D01*
X111615748Y-109008882D01*
X111461247Y-109121134D01*
X111333460Y-109263056D01*
X111237973Y-109428444D01*
X111178958Y-109610072D01*
X111158996Y-109800000D01*
X111178958Y-109989928D01*
X111237973Y-110171556D01*
X111333460Y-110336944D01*
X111337875Y-110341847D01*
X111337879Y-110341852D01*
X111377351Y-110385690D01*
X111408069Y-110449697D01*
X111399304Y-110520151D01*
X111377351Y-110554310D01*
X111333460Y-110603056D01*
X111237973Y-110768444D01*
X111178958Y-110950072D01*
X111158996Y-111140000D01*
X111178958Y-111329928D01*
X111237973Y-111511556D01*
X111241276Y-111517278D01*
X111241277Y-111517279D01*
X111264178Y-111556944D01*
X111333460Y-111676944D01*
X111337878Y-111681851D01*
X111337879Y-111681852D01*
X111356691Y-111702745D01*
X111461247Y-111818866D01*
X111615748Y-111931118D01*
X111621776Y-111933802D01*
X111621778Y-111933803D01*
X111784181Y-112006109D01*
X111790212Y-112008794D01*
X111883612Y-112028647D01*
X111970556Y-112047128D01*
X111970561Y-112047128D01*
X111977013Y-112048500D01*
X112167987Y-112048500D01*
X112174439Y-112047128D01*
X112174444Y-112047128D01*
X112261388Y-112028647D01*
X112354788Y-112008794D01*
X112360819Y-112006109D01*
X112523222Y-111933803D01*
X112523224Y-111933802D01*
X112529252Y-111931118D01*
X112683753Y-111818866D01*
X112788309Y-111702745D01*
X112807121Y-111681852D01*
X112807122Y-111681851D01*
X112811540Y-111676944D01*
X112880822Y-111556944D01*
X112903723Y-111517279D01*
X112903724Y-111517278D01*
X112907027Y-111511556D01*
X112966042Y-111329928D01*
X112983701Y-111161912D01*
X113010714Y-111096256D01*
X113019916Y-111085988D01*
X121195499Y-102910405D01*
X121257811Y-102876379D01*
X121284594Y-102873500D01*
X135855812Y-102873500D01*
X135923933Y-102893502D01*
X135944907Y-102910405D01*
X136090700Y-103056198D01*
X136095208Y-103059355D01*
X136095211Y-103059357D01*
X136173389Y-103114098D01*
X136278251Y-103187523D01*
X136283233Y-103189846D01*
X136283238Y-103189849D01*
X136317457Y-103205805D01*
X136370742Y-103252722D01*
X136390203Y-103320999D01*
X136369661Y-103388959D01*
X136317457Y-103434195D01*
X136283238Y-103450151D01*
X136283233Y-103450154D01*
X136278251Y-103452477D01*
X136173389Y-103525902D01*
X136095211Y-103580643D01*
X136095208Y-103580645D01*
X136090700Y-103583802D01*
X135928802Y-103745700D01*
X135797477Y-103933251D01*
X135795154Y-103938233D01*
X135795151Y-103938238D01*
X135703039Y-104135775D01*
X135700716Y-104140757D01*
X135641457Y-104361913D01*
X135621502Y-104590000D01*
X135641457Y-104818087D01*
X135700716Y-105039243D01*
X135703039Y-105044224D01*
X135703039Y-105044225D01*
X135795151Y-105241762D01*
X135795154Y-105241767D01*
X135797477Y-105246749D01*
X135928802Y-105434300D01*
X136090700Y-105596198D01*
X136095208Y-105599355D01*
X136095211Y-105599357D01*
X136126835Y-105621500D01*
X136278251Y-105727523D01*
X136283233Y-105729846D01*
X136283238Y-105729849D01*
X136317457Y-105745805D01*
X136370742Y-105792722D01*
X136390203Y-105860999D01*
X136369661Y-105928959D01*
X136317457Y-105974195D01*
X136283238Y-105990151D01*
X136283233Y-105990154D01*
X136278251Y-105992477D01*
X136228176Y-106027540D01*
X136095211Y-106120643D01*
X136095208Y-106120645D01*
X136090700Y-106123802D01*
X135928802Y-106285700D01*
X135797477Y-106473251D01*
X135795154Y-106478233D01*
X135795151Y-106478238D01*
X135746745Y-106582046D01*
X135700716Y-106680757D01*
X135699294Y-106686065D01*
X135699293Y-106686067D01*
X135642881Y-106896598D01*
X135641457Y-106901913D01*
X135621502Y-107130000D01*
X135641457Y-107358087D01*
X135642881Y-107363400D01*
X135642881Y-107363402D01*
X135652658Y-107399888D01*
X135700716Y-107579243D01*
X135703039Y-107584224D01*
X135703039Y-107584225D01*
X135795151Y-107781762D01*
X135795154Y-107781767D01*
X135797477Y-107786749D01*
X135800634Y-107791257D01*
X135906000Y-107941735D01*
X135928802Y-107974300D01*
X136070620Y-108116118D01*
X136104646Y-108178430D01*
X136099581Y-108249245D01*
X136057034Y-108306081D01*
X135990514Y-108330892D01*
X135981866Y-108331213D01*
X121577358Y-108370169D01*
X121559243Y-108370218D01*
X121559255Y-108383707D01*
X121559255Y-108383708D01*
X121573609Y-124254510D01*
X121579151Y-130381226D01*
X121579498Y-130765386D01*
X121559558Y-130833525D01*
X121505944Y-130880066D01*
X121453498Y-130891500D01*
X98307169Y-130891500D01*
X98239048Y-130871498D01*
X98192555Y-130817842D01*
X98182451Y-130747568D01*
X98211945Y-130682988D01*
X98255920Y-130650393D01*
X98270722Y-130643803D01*
X98270724Y-130643802D01*
X98276752Y-130641118D01*
X98431253Y-130528866D01*
X98559040Y-130386944D01*
X98654527Y-130221556D01*
X98713542Y-130039928D01*
X98715680Y-130019591D01*
X98730907Y-129874707D01*
X98757920Y-129809050D01*
X98767122Y-129798782D01*
X108447483Y-120118421D01*
X108455773Y-120110877D01*
X108462254Y-120106764D01*
X108508895Y-120057096D01*
X108511649Y-120054255D01*
X108531371Y-120034533D01*
X108533848Y-120031340D01*
X108541553Y-120022319D01*
X108566395Y-119995864D01*
X108571822Y-119990085D01*
X108575643Y-119983135D01*
X108581582Y-119972332D01*
X108592438Y-119955805D01*
X108599993Y-119946066D01*
X108599994Y-119946064D01*
X108604850Y-119939804D01*
X108622410Y-119899224D01*
X108627627Y-119888576D01*
X108645111Y-119856773D01*
X108645112Y-119856771D01*
X108648931Y-119849824D01*
X108653969Y-119830201D01*
X108660373Y-119811498D01*
X108665269Y-119800184D01*
X108665269Y-119800183D01*
X108668417Y-119792909D01*
X108669656Y-119785086D01*
X108669659Y-119785076D01*
X108675335Y-119749240D01*
X108677741Y-119737620D01*
X108686764Y-119702475D01*
X108686764Y-119702474D01*
X108688736Y-119694794D01*
X108688736Y-119674540D01*
X108690287Y-119654829D01*
X108692216Y-119642650D01*
X108693456Y-119634821D01*
X108689295Y-119590802D01*
X108688736Y-119578945D01*
X108688736Y-108102412D01*
X108708738Y-108034291D01*
X108721094Y-108018109D01*
X108794276Y-107936832D01*
X108889763Y-107771444D01*
X108948778Y-107589816D01*
X108950448Y-107573933D01*
X108968050Y-107406453D01*
X108968740Y-107399888D01*
X108948778Y-107209960D01*
X108889763Y-107028332D01*
X108794276Y-106862944D01*
X108666489Y-106721022D01*
X108511988Y-106608770D01*
X108505960Y-106606086D01*
X108505958Y-106606085D01*
X108343555Y-106533779D01*
X108343554Y-106533779D01*
X108337524Y-106531094D01*
X108244124Y-106511241D01*
X108157180Y-106492760D01*
X108157175Y-106492760D01*
X108150723Y-106491388D01*
X107959749Y-106491388D01*
X107953297Y-106492760D01*
X107953292Y-106492760D01*
X107866348Y-106511241D01*
X107772948Y-106531094D01*
X107766918Y-106533779D01*
X107766917Y-106533779D01*
X107604514Y-106606085D01*
X107604512Y-106606086D01*
X107598484Y-106608770D01*
X107443983Y-106721022D01*
X107442482Y-106718955D01*
X107388822Y-106744715D01*
X107342306Y-106743611D01*
X107181444Y-106709418D01*
X107181439Y-106709418D01*
X107174987Y-106708046D01*
X107039500Y-106708046D01*
X106971379Y-106688044D01*
X106924886Y-106634388D01*
X106913500Y-106582046D01*
X106913500Y-103314594D01*
X106933502Y-103246473D01*
X106950405Y-103225499D01*
X109295500Y-100880405D01*
X109357812Y-100846379D01*
X109384595Y-100843500D01*
X111531233Y-100843500D01*
X111542416Y-100844027D01*
X111549909Y-100845702D01*
X111557835Y-100845453D01*
X111557836Y-100845453D01*
X111617986Y-100843562D01*
X111621945Y-100843500D01*
X111649856Y-100843500D01*
X111653791Y-100843003D01*
X111653856Y-100842995D01*
X111665693Y-100842062D01*
X111697951Y-100841048D01*
X111701970Y-100840922D01*
X111709889Y-100840673D01*
X111717499Y-100838462D01*
X111725328Y-100837222D01*
X111725351Y-100837365D01*
X111752510Y-100833500D01*
X112004300Y-100833500D01*
X112072421Y-100853502D01*
G37*
%TD.AperFunction*%
%TA.AperFunction,Conductor*%
G36*
X154161750Y-87328502D02*
G01*
X154182724Y-87345405D01*
X156676230Y-89838911D01*
X156688616Y-89853323D01*
X156697149Y-89864918D01*
X156697154Y-89864923D01*
X156701492Y-89870818D01*
X156707070Y-89875557D01*
X156707073Y-89875560D01*
X156741768Y-89905035D01*
X156749284Y-89911965D01*
X156754979Y-89917660D01*
X156757861Y-89919940D01*
X156777251Y-89935281D01*
X156780655Y-89938072D01*
X156830703Y-89980591D01*
X156836285Y-89985333D01*
X156842801Y-89988661D01*
X156847850Y-89992028D01*
X156852979Y-89995195D01*
X156858716Y-89999734D01*
X156924875Y-90030655D01*
X156928769Y-90032558D01*
X156993808Y-90065769D01*
X157000916Y-90067508D01*
X157006559Y-90069607D01*
X157012322Y-90071524D01*
X157018950Y-90074622D01*
X157026112Y-90076112D01*
X157026113Y-90076112D01*
X157090412Y-90089486D01*
X157094696Y-90090456D01*
X157165610Y-90107808D01*
X157171212Y-90108156D01*
X157171215Y-90108156D01*
X157176764Y-90108500D01*
X157176762Y-90108536D01*
X157180755Y-90108775D01*
X157184947Y-90109149D01*
X157192115Y-90110640D01*
X157269520Y-90108546D01*
X157272928Y-90108500D01*
X158663133Y-90108500D01*
X158731254Y-90128502D01*
X158766345Y-90162228D01*
X158788802Y-90194300D01*
X158950700Y-90356198D01*
X158955208Y-90359355D01*
X158955211Y-90359357D01*
X158993316Y-90386038D01*
X159138251Y-90487523D01*
X159143233Y-90489846D01*
X159143238Y-90489849D01*
X159177457Y-90505805D01*
X159230742Y-90552722D01*
X159250203Y-90620999D01*
X159229661Y-90688959D01*
X159177457Y-90734195D01*
X159143238Y-90750151D01*
X159143233Y-90750154D01*
X159138251Y-90752477D01*
X159077094Y-90795300D01*
X158955211Y-90880643D01*
X158955208Y-90880645D01*
X158950700Y-90883802D01*
X158788802Y-91045700D01*
X158785645Y-91050208D01*
X158785643Y-91050211D01*
X158730902Y-91128389D01*
X158657477Y-91233251D01*
X158655154Y-91238233D01*
X158655151Y-91238238D01*
X158563039Y-91435775D01*
X158560716Y-91440757D01*
X158559294Y-91446065D01*
X158559293Y-91446067D01*
X158521798Y-91586000D01*
X158501457Y-91661913D01*
X158481502Y-91890000D01*
X158501457Y-92118087D01*
X158560716Y-92339243D01*
X158563039Y-92344224D01*
X158563039Y-92344225D01*
X158655151Y-92541762D01*
X158655154Y-92541767D01*
X158657477Y-92546749D01*
X158697508Y-92603919D01*
X158768572Y-92705408D01*
X158788802Y-92734300D01*
X158950700Y-92896198D01*
X158955208Y-92899355D01*
X158955211Y-92899357D01*
X159033389Y-92954098D01*
X159138251Y-93027523D01*
X159143233Y-93029846D01*
X159143238Y-93029849D01*
X159177457Y-93045805D01*
X159230742Y-93092722D01*
X159250203Y-93160999D01*
X159229661Y-93228959D01*
X159177457Y-93274195D01*
X159143238Y-93290151D01*
X159143233Y-93290154D01*
X159138251Y-93292477D01*
X159103233Y-93316997D01*
X158955211Y-93420643D01*
X158955208Y-93420645D01*
X158950700Y-93423802D01*
X158788802Y-93585700D01*
X158785645Y-93590208D01*
X158785643Y-93590211D01*
X158748082Y-93643854D01*
X158657477Y-93773251D01*
X158655154Y-93778233D01*
X158655151Y-93778238D01*
X158568276Y-93964544D01*
X158560716Y-93980757D01*
X158501457Y-94201913D01*
X158481502Y-94430000D01*
X158501457Y-94658087D01*
X158502881Y-94663400D01*
X158502881Y-94663402D01*
X158537693Y-94793319D01*
X158560716Y-94879243D01*
X158563039Y-94884224D01*
X158563039Y-94884225D01*
X158655151Y-95081762D01*
X158655154Y-95081767D01*
X158657477Y-95086749D01*
X158788802Y-95274300D01*
X158950700Y-95436198D01*
X158955208Y-95439355D01*
X158955211Y-95439357D01*
X159033389Y-95494098D01*
X159138251Y-95567523D01*
X159143233Y-95569846D01*
X159143238Y-95569849D01*
X159177457Y-95585805D01*
X159230742Y-95632722D01*
X159250203Y-95700999D01*
X159229661Y-95768959D01*
X159177457Y-95814195D01*
X159143238Y-95830151D01*
X159143233Y-95830154D01*
X159138251Y-95832477D01*
X159033389Y-95905902D01*
X158955211Y-95960643D01*
X158955208Y-95960645D01*
X158950700Y-95963802D01*
X158788802Y-96125700D01*
X158785645Y-96130208D01*
X158785643Y-96130211D01*
X158756337Y-96172065D01*
X158657477Y-96313251D01*
X158655154Y-96318233D01*
X158655151Y-96318238D01*
X158582914Y-96473152D01*
X158560716Y-96520757D01*
X158559294Y-96526065D01*
X158559293Y-96526067D01*
X158507311Y-96720065D01*
X158501457Y-96741913D01*
X158481502Y-96970000D01*
X158501457Y-97198087D01*
X158502881Y-97203400D01*
X158502881Y-97203402D01*
X158548070Y-97372046D01*
X158560716Y-97419243D01*
X158563039Y-97424224D01*
X158563039Y-97424225D01*
X158655151Y-97621762D01*
X158655154Y-97621767D01*
X158657477Y-97626749D01*
X158710368Y-97702285D01*
X158775642Y-97795505D01*
X158788802Y-97814300D01*
X158950700Y-97976198D01*
X158955208Y-97979355D01*
X158955211Y-97979357D01*
X159030202Y-98031866D01*
X159138251Y-98107523D01*
X159143233Y-98109846D01*
X159143238Y-98109849D01*
X159177457Y-98125805D01*
X159230742Y-98172722D01*
X159250203Y-98240999D01*
X159229661Y-98308959D01*
X159177457Y-98354195D01*
X159143238Y-98370151D01*
X159143233Y-98370154D01*
X159138251Y-98372477D01*
X159038474Y-98442342D01*
X158955211Y-98500643D01*
X158955208Y-98500645D01*
X158950700Y-98503802D01*
X158788802Y-98665700D01*
X158785645Y-98670208D01*
X158785643Y-98670211D01*
X158783435Y-98673365D01*
X158657477Y-98853251D01*
X158655154Y-98858233D01*
X158655151Y-98858238D01*
X158573836Y-99032620D01*
X158560716Y-99060757D01*
X158559294Y-99066065D01*
X158559293Y-99066067D01*
X158526494Y-99188475D01*
X158501457Y-99281913D01*
X158481502Y-99510000D01*
X158501457Y-99738087D01*
X158502881Y-99743400D01*
X158502881Y-99743402D01*
X158547213Y-99908848D01*
X158560716Y-99959243D01*
X158563039Y-99964224D01*
X158563039Y-99964225D01*
X158655151Y-100161762D01*
X158655154Y-100161767D01*
X158657477Y-100166749D01*
X158788802Y-100354300D01*
X158950700Y-100516198D01*
X158955208Y-100519355D01*
X158955211Y-100519357D01*
X159015386Y-100561492D01*
X159138251Y-100647523D01*
X159143233Y-100649846D01*
X159143238Y-100649849D01*
X159177457Y-100665805D01*
X159230742Y-100712722D01*
X159250203Y-100780999D01*
X159229661Y-100848959D01*
X159177457Y-100894195D01*
X159143238Y-100910151D01*
X159143233Y-100910154D01*
X159138251Y-100912477D01*
X159043447Y-100978860D01*
X158955211Y-101040643D01*
X158955208Y-101040645D01*
X158950700Y-101043802D01*
X158788802Y-101205700D01*
X158785645Y-101210208D01*
X158785643Y-101210211D01*
X158741510Y-101273240D01*
X158657477Y-101393251D01*
X158655154Y-101398233D01*
X158655151Y-101398238D01*
X158563039Y-101595775D01*
X158560716Y-101600757D01*
X158501457Y-101821913D01*
X158481502Y-102050000D01*
X158501457Y-102278087D01*
X158502881Y-102283400D01*
X158502881Y-102283402D01*
X158540357Y-102423261D01*
X158560716Y-102499243D01*
X158563039Y-102504224D01*
X158563039Y-102504225D01*
X158655151Y-102701762D01*
X158655154Y-102701767D01*
X158657477Y-102706749D01*
X158712558Y-102785413D01*
X158776254Y-102876379D01*
X158788802Y-102894300D01*
X158950700Y-103056198D01*
X158955208Y-103059355D01*
X158955211Y-103059357D01*
X159033389Y-103114098D01*
X159138251Y-103187523D01*
X159143233Y-103189846D01*
X159143238Y-103189849D01*
X159177457Y-103205805D01*
X159230742Y-103252722D01*
X159250203Y-103320999D01*
X159229661Y-103388959D01*
X159177457Y-103434195D01*
X159143238Y-103450151D01*
X159143233Y-103450154D01*
X159138251Y-103452477D01*
X159033389Y-103525902D01*
X158955211Y-103580643D01*
X158955208Y-103580645D01*
X158950700Y-103583802D01*
X158788802Y-103745700D01*
X158657477Y-103933251D01*
X158655154Y-103938233D01*
X158655151Y-103938238D01*
X158563039Y-104135775D01*
X158560716Y-104140757D01*
X158501457Y-104361913D01*
X158481502Y-104590000D01*
X158501457Y-104818087D01*
X158560716Y-105039243D01*
X158563039Y-105044224D01*
X158563039Y-105044225D01*
X158655151Y-105241762D01*
X158655154Y-105241767D01*
X158657477Y-105246749D01*
X158788802Y-105434300D01*
X158817635Y-105463133D01*
X158851661Y-105525445D01*
X158846596Y-105596260D01*
X158804049Y-105653096D01*
X158772768Y-105670210D01*
X158756707Y-105676231D01*
X158756704Y-105676233D01*
X158748295Y-105679385D01*
X158631739Y-105766739D01*
X158544385Y-105883295D01*
X158493255Y-106019684D01*
X158486500Y-106081866D01*
X158486500Y-108144692D01*
X158466498Y-108212813D01*
X158412842Y-108259306D01*
X158360841Y-108270692D01*
X142258451Y-108314239D01*
X138295071Y-108324958D01*
X138226896Y-108305140D01*
X138180258Y-108251610D01*
X138169964Y-108181364D01*
X138199283Y-108116703D01*
X138205635Y-108109863D01*
X138341198Y-107974300D01*
X138364001Y-107941735D01*
X138469366Y-107791257D01*
X138472523Y-107786749D01*
X138474846Y-107781767D01*
X138474849Y-107781762D01*
X138566961Y-107584225D01*
X138566961Y-107584224D01*
X138569284Y-107579243D01*
X138617343Y-107399888D01*
X138627119Y-107363402D01*
X138627119Y-107363400D01*
X138628543Y-107358087D01*
X138648498Y-107130000D01*
X138628543Y-106901913D01*
X138627119Y-106896598D01*
X138570707Y-106686067D01*
X138570706Y-106686065D01*
X138569284Y-106680757D01*
X138523255Y-106582046D01*
X138474849Y-106478238D01*
X138474846Y-106478233D01*
X138472523Y-106473251D01*
X138341198Y-106285700D01*
X138179300Y-106123802D01*
X138174792Y-106120645D01*
X138174789Y-106120643D01*
X138041824Y-106027540D01*
X137991749Y-105992477D01*
X137986767Y-105990154D01*
X137986762Y-105990151D01*
X137952543Y-105974195D01*
X137899258Y-105927278D01*
X137879797Y-105859001D01*
X137900339Y-105791041D01*
X137952543Y-105745805D01*
X137986762Y-105729849D01*
X137986767Y-105729846D01*
X137991749Y-105727523D01*
X138143165Y-105621500D01*
X138174789Y-105599357D01*
X138174792Y-105599355D01*
X138179300Y-105596198D01*
X138341198Y-105434300D01*
X138472523Y-105246749D01*
X138474846Y-105241767D01*
X138474849Y-105241762D01*
X138566961Y-105044225D01*
X138566961Y-105044224D01*
X138569284Y-105039243D01*
X138628543Y-104818087D01*
X138648498Y-104590000D01*
X138628543Y-104361913D01*
X138569284Y-104140757D01*
X138566961Y-104135775D01*
X138474849Y-103938238D01*
X138474846Y-103938233D01*
X138472523Y-103933251D01*
X138341198Y-103745700D01*
X138179300Y-103583802D01*
X138174792Y-103580645D01*
X138174789Y-103580643D01*
X138096611Y-103525902D01*
X137991749Y-103452477D01*
X137986767Y-103450154D01*
X137986762Y-103450151D01*
X137952543Y-103434195D01*
X137899258Y-103387278D01*
X137879797Y-103319001D01*
X137900339Y-103251041D01*
X137952543Y-103205805D01*
X137986762Y-103189849D01*
X137986767Y-103189846D01*
X137991749Y-103187523D01*
X138096611Y-103114098D01*
X138174789Y-103059357D01*
X138174792Y-103059355D01*
X138179300Y-103056198D01*
X138341198Y-102894300D01*
X138353747Y-102876379D01*
X138417442Y-102785413D01*
X138472523Y-102706749D01*
X138474846Y-102701767D01*
X138474849Y-102701762D01*
X138566961Y-102504225D01*
X138566961Y-102504224D01*
X138569284Y-102499243D01*
X138589644Y-102423261D01*
X138627119Y-102283402D01*
X138627119Y-102283400D01*
X138628543Y-102278087D01*
X138648498Y-102050000D01*
X138628543Y-101821913D01*
X138569284Y-101600757D01*
X138566961Y-101595775D01*
X138474849Y-101398238D01*
X138474846Y-101398233D01*
X138472523Y-101393251D01*
X138388490Y-101273240D01*
X138344357Y-101210211D01*
X138344355Y-101210208D01*
X138341198Y-101205700D01*
X138179300Y-101043802D01*
X138174792Y-101040645D01*
X138174789Y-101040643D01*
X138086553Y-100978860D01*
X137991749Y-100912477D01*
X137986767Y-100910154D01*
X137986762Y-100910151D01*
X137952543Y-100894195D01*
X137899258Y-100847278D01*
X137879797Y-100779001D01*
X137900339Y-100711041D01*
X137952543Y-100665805D01*
X137986762Y-100649849D01*
X137986767Y-100649846D01*
X137991749Y-100647523D01*
X138114614Y-100561492D01*
X138174789Y-100519357D01*
X138174792Y-100519355D01*
X138179300Y-100516198D01*
X138341198Y-100354300D01*
X138472523Y-100166749D01*
X138474846Y-100161767D01*
X138474849Y-100161762D01*
X138566961Y-99964225D01*
X138566961Y-99964224D01*
X138569284Y-99959243D01*
X138582788Y-99908848D01*
X138627119Y-99743402D01*
X138627119Y-99743400D01*
X138628543Y-99738087D01*
X138648498Y-99510000D01*
X138628543Y-99281913D01*
X138603506Y-99188475D01*
X138570707Y-99066067D01*
X138570706Y-99066065D01*
X138569284Y-99060757D01*
X138556164Y-99032620D01*
X138474849Y-98858238D01*
X138474846Y-98858233D01*
X138472523Y-98853251D01*
X138346565Y-98673365D01*
X138344357Y-98670211D01*
X138344355Y-98670208D01*
X138341198Y-98665700D01*
X138179300Y-98503802D01*
X138174792Y-98500645D01*
X138174789Y-98500643D01*
X138091526Y-98442342D01*
X137991749Y-98372477D01*
X137986767Y-98370154D01*
X137986762Y-98370151D01*
X137952543Y-98354195D01*
X137899258Y-98307278D01*
X137879797Y-98239001D01*
X137900339Y-98171041D01*
X137952543Y-98125805D01*
X137986762Y-98109849D01*
X137986767Y-98109846D01*
X137991749Y-98107523D01*
X138099798Y-98031866D01*
X138174789Y-97979357D01*
X138174792Y-97979355D01*
X138179300Y-97976198D01*
X138341198Y-97814300D01*
X138354359Y-97795505D01*
X138419632Y-97702285D01*
X138472523Y-97626749D01*
X138474846Y-97621767D01*
X138474849Y-97621762D01*
X138566961Y-97424225D01*
X138566961Y-97424224D01*
X138569284Y-97419243D01*
X138581931Y-97372046D01*
X138627119Y-97203402D01*
X138627119Y-97203400D01*
X138628543Y-97198087D01*
X138648498Y-96970000D01*
X138628543Y-96741913D01*
X138622689Y-96720065D01*
X138570707Y-96526067D01*
X138570706Y-96526065D01*
X138569284Y-96520757D01*
X138547086Y-96473152D01*
X138474849Y-96318238D01*
X138474846Y-96318233D01*
X138472523Y-96313251D01*
X138373663Y-96172065D01*
X138344357Y-96130211D01*
X138344355Y-96130208D01*
X138341198Y-96125700D01*
X138179300Y-95963802D01*
X138174792Y-95960645D01*
X138174789Y-95960643D01*
X138096611Y-95905902D01*
X137991749Y-95832477D01*
X137986767Y-95830154D01*
X137986762Y-95830151D01*
X137952543Y-95814195D01*
X137899258Y-95767278D01*
X137879797Y-95699001D01*
X137900339Y-95631041D01*
X137952543Y-95585805D01*
X137986762Y-95569849D01*
X137986767Y-95569846D01*
X137991749Y-95567523D01*
X138096611Y-95494098D01*
X138174789Y-95439357D01*
X138174792Y-95439355D01*
X138179300Y-95436198D01*
X138341198Y-95274300D01*
X138472523Y-95086749D01*
X138474846Y-95081767D01*
X138474849Y-95081762D01*
X138566961Y-94884225D01*
X138566961Y-94884224D01*
X138569284Y-94879243D01*
X138592308Y-94793319D01*
X138627119Y-94663402D01*
X138627119Y-94663400D01*
X138628543Y-94658087D01*
X138648498Y-94430000D01*
X138628543Y-94201913D01*
X138569284Y-93980757D01*
X138561724Y-93964544D01*
X138474849Y-93778238D01*
X138474846Y-93778233D01*
X138472523Y-93773251D01*
X138381918Y-93643854D01*
X138344357Y-93590211D01*
X138344355Y-93590208D01*
X138341198Y-93585700D01*
X138179300Y-93423802D01*
X138174792Y-93420645D01*
X138174789Y-93420643D01*
X138026767Y-93316997D01*
X137991749Y-93292477D01*
X137986767Y-93290154D01*
X137986762Y-93290151D01*
X137951951Y-93273919D01*
X137898666Y-93227002D01*
X137879205Y-93158725D01*
X137899747Y-93090765D01*
X137951951Y-93045529D01*
X137986511Y-93029414D01*
X137996007Y-93023931D01*
X138174467Y-92898972D01*
X138182875Y-92891916D01*
X138336916Y-92737875D01*
X138343972Y-92729467D01*
X138468931Y-92551007D01*
X138474414Y-92541511D01*
X138566490Y-92344053D01*
X138570236Y-92333761D01*
X138616394Y-92161497D01*
X138616058Y-92147401D01*
X138608116Y-92144000D01*
X135667033Y-92144000D01*
X135653502Y-92147973D01*
X135652273Y-92156522D01*
X135699764Y-92333761D01*
X135703510Y-92344053D01*
X135795586Y-92541511D01*
X135801069Y-92551007D01*
X135926028Y-92729467D01*
X135933084Y-92737875D01*
X136087125Y-92891916D01*
X136095533Y-92898972D01*
X136273993Y-93023931D01*
X136283489Y-93029414D01*
X136318049Y-93045529D01*
X136371334Y-93092446D01*
X136390795Y-93160723D01*
X136370253Y-93228683D01*
X136318049Y-93273919D01*
X136283238Y-93290151D01*
X136283233Y-93290154D01*
X136278251Y-93292477D01*
X136243233Y-93316997D01*
X136095211Y-93420643D01*
X136095208Y-93420645D01*
X136090700Y-93423802D01*
X135928802Y-93585700D01*
X135925645Y-93590208D01*
X135925643Y-93590211D01*
X135888082Y-93643854D01*
X135797477Y-93773251D01*
X135795154Y-93778233D01*
X135795151Y-93778238D01*
X135708276Y-93964544D01*
X135700716Y-93980757D01*
X135641457Y-94201913D01*
X135621502Y-94430000D01*
X135641457Y-94658087D01*
X135642881Y-94663400D01*
X135642881Y-94663402D01*
X135677693Y-94793319D01*
X135700716Y-94879243D01*
X135703039Y-94884224D01*
X135703039Y-94884225D01*
X135795151Y-95081762D01*
X135795154Y-95081767D01*
X135797477Y-95086749D01*
X135928802Y-95274300D01*
X136090700Y-95436198D01*
X136095208Y-95439355D01*
X136095211Y-95439357D01*
X136173389Y-95494098D01*
X136278251Y-95567523D01*
X136283233Y-95569846D01*
X136283238Y-95569849D01*
X136317457Y-95585805D01*
X136370742Y-95632722D01*
X136390203Y-95700999D01*
X136369661Y-95768959D01*
X136317457Y-95814195D01*
X136283238Y-95830151D01*
X136283233Y-95830154D01*
X136278251Y-95832477D01*
X136173389Y-95905902D01*
X136095211Y-95960643D01*
X136095208Y-95960645D01*
X136090700Y-95963802D01*
X135928802Y-96125700D01*
X135925645Y-96130208D01*
X135925643Y-96130211D01*
X135896337Y-96172065D01*
X135797477Y-96313251D01*
X135795154Y-96318233D01*
X135795151Y-96318238D01*
X135722914Y-96473152D01*
X135700716Y-96520757D01*
X135699294Y-96526065D01*
X135699293Y-96526067D01*
X135647311Y-96720065D01*
X135641457Y-96741913D01*
X135621502Y-96970000D01*
X135641457Y-97198087D01*
X135642881Y-97203400D01*
X135642881Y-97203402D01*
X135688070Y-97372046D01*
X135700716Y-97419243D01*
X135703039Y-97424224D01*
X135703039Y-97424225D01*
X135795151Y-97621762D01*
X135795154Y-97621767D01*
X135797477Y-97626749D01*
X135850368Y-97702285D01*
X135915642Y-97795505D01*
X135928802Y-97814300D01*
X136090700Y-97976198D01*
X136095208Y-97979355D01*
X136095211Y-97979357D01*
X136170202Y-98031866D01*
X136278251Y-98107523D01*
X136283233Y-98109846D01*
X136283238Y-98109849D01*
X136317457Y-98125805D01*
X136370742Y-98172722D01*
X136390203Y-98240999D01*
X136369661Y-98308959D01*
X136317457Y-98354195D01*
X136283238Y-98370151D01*
X136283233Y-98370154D01*
X136278251Y-98372477D01*
X136178474Y-98442342D01*
X136095211Y-98500643D01*
X136095208Y-98500645D01*
X136090700Y-98503802D01*
X135928802Y-98665700D01*
X135925645Y-98670208D01*
X135925643Y-98670211D01*
X135818819Y-98822771D01*
X135763362Y-98867099D01*
X135715606Y-98876500D01*
X135628767Y-98876500D01*
X135617584Y-98875973D01*
X135610091Y-98874298D01*
X135602165Y-98874547D01*
X135602164Y-98874547D01*
X135542014Y-98876438D01*
X135538055Y-98876500D01*
X135510144Y-98876500D01*
X135506210Y-98876997D01*
X135506209Y-98876997D01*
X135506144Y-98877005D01*
X135494307Y-98877938D01*
X135462049Y-98878952D01*
X135458030Y-98879078D01*
X135450111Y-98879327D01*
X135430657Y-98884979D01*
X135411300Y-98888987D01*
X135399070Y-98890532D01*
X135399069Y-98890532D01*
X135391203Y-98891526D01*
X135383832Y-98894445D01*
X135383830Y-98894445D01*
X135350088Y-98907804D01*
X135338858Y-98911649D01*
X135304017Y-98921771D01*
X135304016Y-98921771D01*
X135296407Y-98923982D01*
X135289588Y-98928015D01*
X135289583Y-98928017D01*
X135278972Y-98934293D01*
X135261224Y-98942988D01*
X135242383Y-98950448D01*
X135235967Y-98955110D01*
X135235966Y-98955110D01*
X135206613Y-98976436D01*
X135196693Y-98982952D01*
X135165465Y-99001420D01*
X135165462Y-99001422D01*
X135158638Y-99005458D01*
X135144317Y-99019779D01*
X135129284Y-99032619D01*
X135112893Y-99044528D01*
X135084702Y-99078605D01*
X135076712Y-99087384D01*
X133184500Y-100979595D01*
X133122188Y-101013621D01*
X133095405Y-101016500D01*
X125027814Y-101016500D01*
X124959693Y-100996498D01*
X124913200Y-100942842D01*
X124903096Y-100872568D01*
X124936342Y-100803846D01*
X124957986Y-100780999D01*
X124978242Y-100759616D01*
X124980619Y-100757175D01*
X127548905Y-98188889D01*
X127611217Y-98154863D01*
X127682032Y-98159928D01*
X127738868Y-98202475D01*
X127763679Y-98268995D01*
X127764000Y-98277984D01*
X127764000Y-99828134D01*
X127770755Y-99890316D01*
X127821885Y-100026705D01*
X127909239Y-100143261D01*
X128025795Y-100230615D01*
X128162184Y-100281745D01*
X128224366Y-100288500D01*
X130020634Y-100288500D01*
X130082816Y-100281745D01*
X130219205Y-100230615D01*
X130335761Y-100143261D01*
X130423115Y-100026705D01*
X130446538Y-99964225D01*
X130467298Y-99908848D01*
X130509940Y-99852084D01*
X130576501Y-99827384D01*
X130645850Y-99842592D01*
X130680517Y-99870580D01*
X130705718Y-99899673D01*
X130713080Y-99906883D01*
X130876934Y-100042916D01*
X130885381Y-100048831D01*
X131069256Y-100156279D01*
X131078542Y-100160729D01*
X131277501Y-100236703D01*
X131287399Y-100239579D01*
X131390750Y-100260606D01*
X131404799Y-100259410D01*
X131408500Y-100249065D01*
X131408500Y-100248517D01*
X131916500Y-100248517D01*
X131920564Y-100262359D01*
X131933978Y-100264393D01*
X131940684Y-100263534D01*
X131950762Y-100261392D01*
X132154755Y-100200191D01*
X132164342Y-100196433D01*
X132355595Y-100102739D01*
X132364445Y-100097464D01*
X132537828Y-99973792D01*
X132545700Y-99967139D01*
X132696552Y-99816812D01*
X132703230Y-99808965D01*
X132827503Y-99636020D01*
X132832813Y-99627183D01*
X132927170Y-99436267D01*
X132930969Y-99426672D01*
X132992877Y-99222910D01*
X132995055Y-99212837D01*
X132996486Y-99201962D01*
X132994275Y-99187778D01*
X132981117Y-99184000D01*
X131934615Y-99184000D01*
X131919376Y-99188475D01*
X131918171Y-99189865D01*
X131916500Y-99197548D01*
X131916500Y-100248517D01*
X131408500Y-100248517D01*
X131408500Y-98802000D01*
X131428502Y-98733879D01*
X131482158Y-98687386D01*
X131534500Y-98676000D01*
X132980844Y-98676000D01*
X132994375Y-98672027D01*
X132995680Y-98662947D01*
X132953714Y-98495875D01*
X132950394Y-98486124D01*
X132865472Y-98290814D01*
X132860605Y-98281739D01*
X132744926Y-98102926D01*
X132738636Y-98094758D01*
X132681937Y-98032446D01*
X132650885Y-97968601D01*
X132659281Y-97898102D01*
X132706045Y-97842276D01*
X132720475Y-97832815D01*
X132724180Y-97830477D01*
X132786607Y-97792595D01*
X132794984Y-97785197D01*
X132795008Y-97785224D01*
X132798000Y-97782571D01*
X132801233Y-97779868D01*
X132807352Y-97775856D01*
X132860628Y-97719617D01*
X132863006Y-97717175D01*
X134888911Y-95691270D01*
X134903323Y-95678884D01*
X134914918Y-95670351D01*
X134914923Y-95670346D01*
X134920818Y-95666008D01*
X134925557Y-95660430D01*
X134925560Y-95660427D01*
X134955035Y-95625732D01*
X134961965Y-95618216D01*
X134967661Y-95612520D01*
X134969924Y-95609659D01*
X134969929Y-95609654D01*
X134985293Y-95590234D01*
X134988082Y-95586833D01*
X135007169Y-95564366D01*
X135035333Y-95531215D01*
X135038659Y-95524702D01*
X135042020Y-95519663D01*
X135045196Y-95514521D01*
X135049734Y-95508784D01*
X135080655Y-95442625D01*
X135082561Y-95438725D01*
X135085841Y-95432301D01*
X135115769Y-95373692D01*
X135117508Y-95366583D01*
X135119604Y-95360949D01*
X135121523Y-95355179D01*
X135124622Y-95348550D01*
X135139491Y-95277065D01*
X135140461Y-95272782D01*
X135157808Y-95201890D01*
X135158500Y-95190736D01*
X135158535Y-95190738D01*
X135158775Y-95186766D01*
X135159152Y-95182545D01*
X135160641Y-95175385D01*
X135158546Y-95097958D01*
X135158500Y-95094550D01*
X135158500Y-89350000D01*
X135621502Y-89350000D01*
X135641457Y-89578087D01*
X135642881Y-89583400D01*
X135642881Y-89583402D01*
X135674604Y-89701791D01*
X135700716Y-89799243D01*
X135703039Y-89804224D01*
X135703039Y-89804225D01*
X135795151Y-90001762D01*
X135795154Y-90001767D01*
X135797477Y-90006749D01*
X135841033Y-90068953D01*
X135899626Y-90152632D01*
X135928802Y-90194300D01*
X136090700Y-90356198D01*
X136095208Y-90359355D01*
X136095211Y-90359357D01*
X136133316Y-90386038D01*
X136278251Y-90487523D01*
X136283233Y-90489846D01*
X136283238Y-90489849D01*
X136318049Y-90506081D01*
X136371334Y-90552998D01*
X136390795Y-90621275D01*
X136370253Y-90689235D01*
X136318049Y-90734471D01*
X136283489Y-90750586D01*
X136273993Y-90756069D01*
X136095533Y-90881028D01*
X136087125Y-90888084D01*
X135933084Y-91042125D01*
X135926028Y-91050533D01*
X135801069Y-91228993D01*
X135795586Y-91238489D01*
X135703510Y-91435947D01*
X135699764Y-91446239D01*
X135653606Y-91618503D01*
X135653942Y-91632599D01*
X135661884Y-91636000D01*
X138602967Y-91636000D01*
X138616498Y-91632027D01*
X138617727Y-91623478D01*
X138570236Y-91446239D01*
X138566490Y-91435947D01*
X138474414Y-91238489D01*
X138468931Y-91228993D01*
X138343972Y-91050533D01*
X138336916Y-91042125D01*
X138182875Y-90888084D01*
X138174467Y-90881028D01*
X137996007Y-90756069D01*
X137986511Y-90750586D01*
X137951951Y-90734471D01*
X137898666Y-90687554D01*
X137879205Y-90619277D01*
X137899747Y-90551317D01*
X137951951Y-90506081D01*
X137986762Y-90489849D01*
X137986767Y-90489846D01*
X137991749Y-90487523D01*
X138136684Y-90386038D01*
X138174789Y-90359357D01*
X138174792Y-90359355D01*
X138179300Y-90356198D01*
X138341198Y-90194300D01*
X138370375Y-90152632D01*
X138428967Y-90068953D01*
X138472523Y-90006749D01*
X138474846Y-90001767D01*
X138474849Y-90001762D01*
X138566961Y-89804225D01*
X138566961Y-89804224D01*
X138569284Y-89799243D01*
X138595397Y-89701791D01*
X138627119Y-89583402D01*
X138627119Y-89583400D01*
X138628543Y-89578087D01*
X138648498Y-89350000D01*
X138628543Y-89121913D01*
X138576510Y-88927724D01*
X138570707Y-88906067D01*
X138570706Y-88906065D01*
X138569284Y-88900757D01*
X138566961Y-88895775D01*
X138474849Y-88698238D01*
X138474846Y-88698233D01*
X138472523Y-88693251D01*
X138341198Y-88505700D01*
X138179300Y-88343802D01*
X138174792Y-88340645D01*
X138174789Y-88340643D01*
X138088403Y-88280155D01*
X137991749Y-88212477D01*
X137986767Y-88210154D01*
X137986762Y-88210151D01*
X137789225Y-88118039D01*
X137789224Y-88118039D01*
X137784243Y-88115716D01*
X137778935Y-88114294D01*
X137778933Y-88114293D01*
X137568402Y-88057881D01*
X137568400Y-88057881D01*
X137563087Y-88056457D01*
X137463520Y-88047746D01*
X137394851Y-88041738D01*
X137394844Y-88041738D01*
X137392127Y-88041500D01*
X136877873Y-88041500D01*
X136875156Y-88041738D01*
X136875149Y-88041738D01*
X136806480Y-88047746D01*
X136706913Y-88056457D01*
X136701600Y-88057881D01*
X136701598Y-88057881D01*
X136491067Y-88114293D01*
X136491065Y-88114294D01*
X136485757Y-88115716D01*
X136480776Y-88118039D01*
X136480775Y-88118039D01*
X136283238Y-88210151D01*
X136283233Y-88210154D01*
X136278251Y-88212477D01*
X136181597Y-88280155D01*
X136095211Y-88340643D01*
X136095208Y-88340645D01*
X136090700Y-88343802D01*
X135928802Y-88505700D01*
X135797477Y-88693251D01*
X135795154Y-88698233D01*
X135795151Y-88698238D01*
X135703039Y-88895775D01*
X135700716Y-88900757D01*
X135699294Y-88906065D01*
X135699293Y-88906067D01*
X135693490Y-88927724D01*
X135641457Y-89121913D01*
X135621502Y-89350000D01*
X135158500Y-89350000D01*
X135158500Y-88746371D01*
X135178502Y-88678250D01*
X135195405Y-88657276D01*
X136507276Y-87345405D01*
X136569588Y-87311379D01*
X136596371Y-87308500D01*
X154093629Y-87308500D01*
X154161750Y-87328502D01*
G37*
%TD.AperFunction*%
%TD*%
M02*
